<?xml version="1.0" encoding="utf-8"?>
<!-- Generator: Adobe Illustrator 16.0.0, SVG Export Plug-In . SVG Version: 6.00 Build 0)  -->
<!DOCTYPE svg PUBLIC "-//W3C//DTD SVG 1.1//EN" "http://www.w3.org/Graphics/SVG/1.1/DTD/svg11.dtd">
<svg version="1.1" xmlns="http://www.w3.org/2000/svg" xmlns:xlink="http://www.w3.org/1999/xlink" x="0px" y="0px" width="60px"
	 height="60px" viewBox="0 0 60 60" enable-background="new 0 0 60 60" xml:space="preserve">
<g id="Layer_2" display="none">
	<rect x="-337.5" y="-127.5" display="inline" stroke="#FFFFFF" stroke-miterlimit="10" width="914" height="652"/>
</g>
<g id="Layer_1">
	<g>
		<g>
			<rect x="41.67" y="16.898" fill="none" width="2.02" height="2.842"/>
			<path fill="none" d="M31.566,11.484c-0.1-0.035-0.318-0.082-0.719-0.082c-0.158,0-0.271,0.008-0.277,0.008l-0.027,0.001
				l-0.027-0.001c-0.006,0-0.121-0.008-0.279-0.008c-0.4,0-0.619,0.047-0.717,0.082v1.564h2.047V11.484z"/>
			<path fill="none" d="M31.512,26.745l0.104-0.454c0.021-0.091,0.031-0.173,0.031-0.249c0-0.61-0.494-1.105-1.104-1.105
				c-0.611,0-1.105,0.495-1.105,1.105c0,0.076,0.01,0.157,0.031,0.249l0.105,0.454l-0.463,0.03
				c-0.461,0.034-0.908,0.081-1.332,0.146c0.037,1.711,0.084,3.812,0.127,5.824h5.271c0.045-2.012,0.092-4.113,0.127-5.824
				c-0.424-0.064-0.871-0.111-1.332-0.146L31.512,26.745z"/>
			<path fill="none" d="M32.668,20.496c-0.912-0.58-1.07-2.077-1.098-2.634h-2.057c-0.027,0.558-0.186,2.054-1.098,2.634
				c-0.77,0.489-1.906,1.758-1.895,2.927c0.006,0.688,0.105,5.238,0.199,9.375c0.128,0.081,0.262,0.167,0.402,0.257
				c-0.051-2.235-0.104-4.614-0.143-6.462l-0.008-0.34l0.334-0.059c0.428-0.074,0.875-0.132,1.34-0.176
				c0.012-1.035,0.857-1.875,1.896-1.875c1.037,0,1.885,0.84,1.896,1.875c0.465,0.043,0.912,0.102,1.338,0.176l0.334,0.059
				l-0.006,0.34c-0.041,1.874-0.094,4.294-0.146,6.556l-0.008,0.387h-6.109c1.21,0.827,2.705,1.954,4.287,3.396
				c0.773-1.205,1.512-2.318,2.218-3.358c0.097-4.329,0.21-9.419,0.216-10.15C34.574,22.254,33.438,20.985,32.668,20.496z"/>
			<path fill="none" d="M15.467,38.297h0.794c-0.022-0.131-0.046-0.262-0.061-0.395h-0.733V38.297z"/>
			<rect x="29.52" y="13.842" fill="none" width="2.047" height="2.684"/>
			<path fill="none" d="M43.689,14.906c-0.225-0.038-0.631-0.068-1.016-0.074c-0.375,0.006-0.779,0.036-1.004,0.074v1.24h2.02
				V14.906z"/>
			<path fill="none" d="M39.271,25.453v1.414c0.836-1.033,1.596-1.912,2.282-2.659h-1.472
				C39.686,24.741,39.314,25.274,39.271,25.453z"/>
			<path fill="none" d="M40.654,23.458h1.609c0.127-0.13,0.253-0.262,0.374-0.382c-0.746,0.002-1.412,0.067-1.771,0.108
				C40.807,23.264,40.732,23.355,40.654,23.458z"/>
			<rect x="15.467" y="28.588" fill="none" width="4.881" height="0.395"/>
			<path fill="none" d="M41.668,20.493c-0.01,0.387-0.066,1.187-0.338,1.89c0.377-0.032,0.846-0.061,1.35-0.061
				c0.252,0,0.495,0.007,0.722,0.018c0.167-0.154,0.326-0.298,0.479-0.433c-0.143-0.559-0.181-1.109-0.188-1.415H41.668z"/>
			<path fill="none" d="M15.467,29.787v7.312h0.704c0.021-0.899,0.235-1.806,0.677-2.657c0.747-1.44,2.013-2.481,3.5-2.972v-1.683
				H15.467z"/>
			<path fill="none" d="M18.988,12.771c-0.24-0.039-0.676-0.074-1.088-0.08c-0.4,0.006-0.834,0.041-1.074,0.08V14.1h2.162V12.771z"
				/>
			<rect x="16.826" y="14.904" fill="none" width="2.162" height="3.043"/>
			<path fill="none" d="M19.352,20.78c-0.287-0.75-0.35-1.605-0.361-2.027h-2.166c-0.01,0.416-0.07,1.272-0.361,2.027
				c0.402-0.035,0.904-0.064,1.445-0.064S18.951,20.745,19.352,20.78z"/>
			<path fill="none" d="M46.17,43.48c0-0.234-0.014-0.475-0.033-0.753c-0.025-0.366-0.053-0.782-0.053-1.312v-2.098h-0.873
				c-1.128,1.627-2.228,3.297-3.229,4.866c0.217,0.002,0.445,0.003,0.697,0.003C46.172,44.186,46.172,43.978,46.17,43.48z"/>
			<path fill="none" d="M19.848,21.636c-0.389-0.047-1.121-0.117-1.939-0.117c-0.82,0-1.551,0.07-1.941,0.117
				c-0.066,0.087-0.145,0.184-0.23,0.293h4.342C20,21.829,19.922,21.73,19.848,21.636z"/>
			<path fill="none" d="M20.691,22.734h-5.566c-0.424,0.571-0.824,1.14-0.867,1.333l0.002,17.097c0,0.568-0.029,1.014-0.055,1.406
				c-0.02,0.299-0.035,0.557-0.035,0.806c0,0.536,0,0.756,3.738,0.756c2.149,0,3.06-0.073,3.448-0.237
				c-1.099-0.784-1.858-1.202-1.921-1.236c-1.481-0.774-2.512-2.077-2.983-3.558h-1.79v-1.2v-8.919v-1.2h6.49v1.2v2.282
				c0.134-0.025,0.267-0.049,0.402-0.065v-7.164C21.512,23.862,21.113,23.3,20.691,22.734z M19.768,27.231h-3.721
				c-0.223,0-0.404-0.182-0.404-0.404s0.182-0.403,0.404-0.403h3.721c0.223,0,0.404,0.181,0.404,0.403S19.99,27.231,19.768,27.231z
				 M20.873,26.004c-0.08,0.108-0.201,0.164-0.324,0.164c-0.084,0-0.168-0.026-0.24-0.08c-0.008-0.006-0.998-0.715-2.4-0.715
				c-1.404,0-2.395,0.709-2.402,0.716c-0.18,0.131-0.432,0.093-0.562-0.085c-0.133-0.179-0.094-0.431,0.084-0.562
				c0.047-0.035,1.201-0.873,2.881-0.873c1.678,0,2.832,0.838,2.879,0.873C20.967,25.573,21.004,25.826,20.873,26.004z"/>
			<path fill="#FFFFFF" d="M17.908,44.133c-3.738,0-3.738-0.22-3.738-0.756c0-0.25,0.016-0.507,0.035-0.806
				c0.025-0.393,0.055-0.838,0.055-1.406l-0.002-17.097c0.043-0.193,0.443-0.763,0.867-1.333h5.566
				c0.422,0.566,0.82,1.127,0.863,1.301v7.164c0.234-0.027,0.47-0.048,0.709-0.048c0.032,0,0.064,0.005,0.096,0.006v-7.122
				c0-0.238-0.178-0.6-0.674-1.301h0.014l-0.484-0.642c-0.184-0.246-0.371-0.486-0.545-0.709c-0.018-0.023-0.035-0.047-0.053-0.07
				c-0.014-0.017-0.029-0.034-0.041-0.052c-0.061-0.08-0.123-0.158-0.189-0.241c-0.521-0.668-0.605-2.038-0.592-2.52v-5.985
				c0-0.396-0.293-0.604-1.895-0.629c-1.59,0.026-1.879,0.233-1.879,0.629v5.997c0.012,0.47-0.068,1.837-0.594,2.508
				c-0.248,0.316-0.543,0.692-0.828,1.07l-0.486,0.645h0.016c-0.496,0.701-0.674,1.063-0.674,1.301v17.129
				c0,0.54-0.029,0.973-0.053,1.354c-0.021,0.299-0.039,0.581-0.039,0.859c0,1.485,1.166,1.561,4.545,1.561
				c2.294,0,3.565-0.037,4.147-0.524c-0.244-0.186-0.479-0.361-0.699-0.518C20.968,44.06,20.058,44.133,17.908,44.133z
				 M16.826,12.771c0.24-0.039,0.674-0.074,1.074-0.08c0.412,0.006,0.848,0.041,1.088,0.08V14.1h-2.162V12.771z M16.826,14.904
				h2.162v3.043h-2.162V14.904z M16.824,18.752h2.166c0.012,0.422,0.074,1.277,0.361,2.027c-0.4-0.035-0.902-0.064-1.443-0.064
				s-1.043,0.029-1.445,0.064C16.754,20.025,16.814,19.168,16.824,18.752z M15.967,21.636c0.391-0.047,1.121-0.117,1.941-0.117
				c0.818,0,1.551,0.07,1.939,0.117c0.074,0.094,0.152,0.192,0.23,0.293h-4.342C15.822,21.82,15.9,21.723,15.967,21.636z"/>
			<path fill="#FFFFFF" d="M21.152,27.783h-6.49v1.2v8.919v1.2h1.79c-0.083-0.263-0.144-0.533-0.191-0.805h-0.794v-0.395H16.2
				c-0.029-0.266-0.035-0.535-0.029-0.804h-0.704v-7.312h4.881v1.683c0.262-0.086,0.53-0.155,0.805-0.205v-2.282V27.783z
				 M20.348,28.983h-4.881v-0.395h4.881V28.983z"/>
			<path fill="#FFFFFF" d="M17.908,24.568c-1.68,0-2.834,0.838-2.881,0.873c-0.178,0.131-0.217,0.383-0.084,0.562
				c0.131,0.178,0.383,0.217,0.562,0.085c0.008-0.007,0.998-0.716,2.402-0.716c1.402,0,2.393,0.709,2.4,0.715
				c0.072,0.054,0.156,0.08,0.24,0.08c0.123,0,0.244-0.056,0.324-0.164c0.131-0.178,0.094-0.431-0.086-0.562
				C20.74,25.406,19.586,24.568,17.908,24.568z"/>
			<path fill="#FFFFFF" d="M19.768,26.423h-3.721c-0.223,0-0.404,0.181-0.404,0.403s0.182,0.404,0.404,0.404h3.721
				c0.223,0,0.404-0.182,0.404-0.404S19.99,26.423,19.768,26.423z"/>
			<path fill="#FFFFFF" d="M46.13,39.316h-0.046v2.098c0,0.531,0.027,0.947,0.053,1.312c0.02,0.279,0.033,0.519,0.033,0.753
				c0.002,0.498,0.002,0.706-3.49,0.706c-0.252,0-0.48-0.001-0.697-0.003c-0.16,0.252-0.318,0.501-0.475,0.748
				c0.355,0.006,0.743,0.008,1.172,0.008c3.154,0,4.244-0.07,4.244-1.458c0-0.259-0.018-0.522-0.037-0.803
				c-0.023-0.355-0.051-0.757-0.051-1.263v-4.381c-0.235,0.321-0.471,0.647-0.706,0.977V39.316z"/>
			<path fill="#FFFFFF" d="M39.271,25.453c0.043-0.179,0.414-0.712,0.811-1.245h1.472c0.246-0.268,0.482-0.516,0.71-0.751h-1.609
				c0.078-0.102,0.152-0.193,0.213-0.274c0.358-0.041,1.024-0.105,1.771-0.108c0.27-0.27,0.521-0.51,0.764-0.735
				c-0.227-0.011-0.47-0.018-0.722-0.018c-0.504,0-0.973,0.029-1.35,0.061c0.271-0.703,0.328-1.503,0.338-1.89h2.023
				c0.008,0.305,0.046,0.855,0.188,1.415c0.066-0.058,0.135-0.121,0.198-0.175c0.146-0.126,0.299-0.243,0.456-0.354
				c-0.081-0.458-0.099-0.896-0.093-1.123v-5.587c0-0.372-0.271-0.562-1.768-0.588c-1.484,0.026-1.756,0.217-1.756,0.588
				l0.002,5.597c0.012,0.439-0.064,1.717-0.557,2.343c-0.23,0.294-0.506,0.646-0.77,1l-0.455,0.601h0.012
				c-0.461,0.655-0.627,0.993-0.627,1.213v2.386c0.256-0.327,0.505-0.64,0.748-0.94V25.453z M41.67,14.906
				c0.225-0.038,0.629-0.068,1.004-0.074c0.385,0.006,0.791,0.036,1.016,0.074v1.24h-2.02V14.906z M41.67,16.898h2.02v2.842h-2.02
				V16.898z"/>
			<path fill="#FFFFFF" d="M26.521,23.423c-0.012-1.169,1.125-2.438,1.895-2.927c0.912-0.58,1.07-2.077,1.098-2.634h2.057
				c0.027,0.558,0.186,2.054,1.098,2.634c0.77,0.489,1.906,1.758,1.895,2.927c-0.006,0.73-0.119,5.821-0.216,10.15
				c0.277-0.409,0.552-0.81,0.818-1.194c0.09-4.018,0.183-8.282,0.188-8.947c0.016-1.568-1.379-3.043-2.262-3.604
				c-0.594-0.378-0.732-1.725-0.734-2.165v-6.285c0-0.51-0.508-0.768-1.508-0.768c-0.145,0-0.258,0.006-0.307,0.008
				c-0.049-0.002-0.164-0.008-0.307-0.008c-1,0-1.508,0.258-1.508,0.768v6.284c-0.002,0.44-0.143,1.787-0.736,2.166
				c-0.883,0.56-2.277,2.036-2.262,3.604c0.006,0.662,0.099,4.884,0.188,8.878c0.23,0.135,0.5,0.299,0.803,0.489
				C26.627,28.661,26.527,24.111,26.521,23.423z M29.52,11.484c0.098-0.035,0.316-0.082,0.717-0.082
				c0.158,0,0.273,0.008,0.279,0.008l0.027,0.001l0.027-0.001c0.006,0,0.119-0.008,0.277-0.008c0.4,0,0.619,0.047,0.719,0.082v1.564
				H29.52V11.484z M29.52,13.842h2.047v2.684H29.52V13.842z"/>
			<path fill="#FFFFFF" d="M33.959,33.149c0.053-2.262,0.105-4.682,0.146-6.556l0.006-0.34l-0.334-0.059
				c-0.426-0.074-0.873-0.132-1.338-0.176c-0.012-1.035-0.859-1.875-1.896-1.875c-1.039,0-1.885,0.84-1.896,1.875
				c-0.465,0.043-0.912,0.102-1.34,0.176l-0.334,0.059l0.008,0.34c0.038,1.849,0.092,4.228,0.143,6.462
				c0.227,0.147,0.466,0.307,0.719,0.48h6.109L33.959,33.149z M33.178,32.745h-5.271c-0.043-2.012-0.09-4.113-0.127-5.824
				c0.424-0.064,0.871-0.111,1.332-0.146l0.463-0.03l-0.105-0.454c-0.021-0.091-0.031-0.172-0.031-0.249
				c0-0.61,0.494-1.105,1.105-1.105c0.609,0,1.104,0.495,1.104,1.105c0,0.075-0.01,0.157-0.031,0.249l-0.104,0.454l0.461,0.03
				c0.461,0.034,0.908,0.081,1.332,0.146C33.27,28.631,33.223,30.732,33.178,32.745z"/>
			<path fill="#FFFFFF" d="M46.13,39.316V38.01c-0.308,0.43-0.614,0.866-0.919,1.306h0.873H46.13z"/>
		</g>
		<g>
			<path fill="#FFFFFF" d="M30,60C13.457,60,0,46.543,0,30C0,13.459,13.457,0,30,0s30,13.459,30,30C60,46.543,46.543,60,30,60z
				 M30,4.195C15.771,4.195,4.195,15.771,4.195,30S15.771,55.807,30,55.807S55.805,44.229,55.805,30S44.229,4.195,30,4.195z"/>
		</g>
		<path fill="#FFFFFF" d="M48.049,24.074c0.645,0,1.287,0.272,1.74,0.802c0.82,0.958,0.711,2.402-0.25,3.224
			c-5.719,4.903-14.484,20.112-14.572,20.267l-1.859,3.238l-2.039-3.129c-3.973-6.09-9.801-9.161-9.859-9.191
			c-1.121-0.58-1.559-1.963-0.979-3.084c0.408-0.785,1.207-1.234,2.033-1.234c0.355,0,0.715,0.082,1.053,0.258
			c0.242,0.124,5.15,2.71,9.457,7.878c2.977-4.896,9.092-14.452,13.789-18.477C46.994,24.255,47.523,24.074,48.049,24.074"/>
	</g>
</g>
</svg>
