<?xml version="1.0" encoding="utf-8"?>
<!-- Generator: Adobe Illustrator 16.0.0, SVG Export Plug-In . SVG Version: 6.00 Build 0)  -->
<!DOCTYPE svg PUBLIC "-//W3C//DTD SVG 1.1//EN" "http://www.w3.org/Graphics/SVG/1.1/DTD/svg11.dtd">
<svg version="1.1" xmlns="http://www.w3.org/2000/svg" xmlns:xlink="http://www.w3.org/1999/xlink" x="0px" y="0px" width="30px"
	 height="20.023px" viewBox="0 0 30 20.023" enable-background="new 0 0 30 20.023" xml:space="preserve">
<g id="Layer_2" display="none">
	<rect x="-449.708" y="-349.834" display="inline" stroke="#FFFFFF" stroke-miterlimit="10" width="914" height="652"/>
</g>
<g id="Layer_1">
	<path fill="#FFFFFF" d="M30,10L30,10c0-0.063-0.014-0.125-0.038-0.183c-0.017-0.042-0.046-0.076-0.073-0.11
		c-0.013-0.014-0.018-0.031-0.03-0.044L20.181,0.14c-0.188-0.186-0.495-0.186-0.684,0c-0.189,0.186-0.189,0.558,0,0.744l8.852,8.782
		H0.484C0.216,9.666,0,9.902,0,10.166s0.216,0.5,0.484,0.5h27.863l-8.85,8.616c-0.189,0.186-0.189,0.44,0,0.626
		c0.094,0.093,0.218,0.116,0.342,0.116s0.247-0.058,0.342-0.151l9.674-9.528c0.046-0.044,0.083-0.101,0.108-0.161
		c0.022-0.049,0.028-0.104,0.031-0.156C29.995,10.019,30,10.009,30,10z"/>
</g>
</svg>
