<?xml version="1.0" encoding="utf-8"?>
<!-- Generator: Adobe Illustrator 16.0.0, SVG Export Plug-In . SVG Version: 6.00 Build 0)  -->
<!DOCTYPE svg PUBLIC "-//W3C//DTD SVG 1.1//EN" "http://www.w3.org/Graphics/SVG/1.1/DTD/svg11.dtd">
<svg version="1.1" id="Layer_1" xmlns="http://www.w3.org/2000/svg" xmlns:xlink="http://www.w3.org/1999/xlink" x="0px" y="0px"
	 width="30px" height="20px" viewBox="0 0.011 30 20" enable-background="new 0 0.011 30 20" xml:space="preserve">
<g id="Layer_2" display="none">
	<rect x="-449.708" y="-349.834" display="inline" stroke="#FFFFFF" stroke-miterlimit="10" width="914" height="652"/>
</g>
<g id="Layer_1_1_">
	<path fill="#FFFFFF" d="M30,9.999L30,9.999c0-0.062-0.014-0.125-0.037-0.183c-0.018-0.042-0.047-0.076-0.074-0.11
		c-0.013-0.013-0.018-0.031-0.029-0.043l-9.678-9.511c-0.188-0.187-0.496-0.187-0.684,0c-0.189,0.185-0.189,0.557,0,0.742
		l8.853,8.771H0.484C0.215,9.665,0,9.901,0,10.164c0,0.265,0.215,0.5,0.484,0.5h27.865l-8.851,8.605
		c-0.189,0.185-0.189,0.439,0,0.625c0.093,0.093,0.217,0.116,0.341,0.116s0.248-0.059,0.343-0.151l9.674-9.516
		c0.046-0.044,0.082-0.102,0.107-0.161c0.021-0.049,0.029-0.104,0.031-0.156C29.995,10.018,30,10.008,30,9.999z"/>
</g>
</svg>
