<?xml version="1.0" encoding="utf-8"?>
<!-- Generator: Adobe Illustrator 16.0.0, SVG Export Plug-In . SVG Version: 6.00 Build 0)  -->
<!DOCTYPE svg PUBLIC "-//W3C//DTD SVG 1.1//EN" "http://www.w3.org/Graphics/SVG/1.1/DTD/svg11.dtd">
<svg version="1.1" xmlns="http://www.w3.org/2000/svg" xmlns:xlink="http://www.w3.org/1999/xlink" x="0px" y="0px" width="35px"
	 height="35px" viewBox="0 0 35 35" enable-background="new 0 0 35 35" xml:space="preserve">
<g id="Layer_2" display="none">
	<rect x="-238" y="-243" display="inline" stroke="#FFFFFF" stroke-miterlimit="10" width="914" height="652"/>
</g>
<g id="Layer_1">
	<g>
		<path fill="#FFFFFF" d="M17.5,1C26.598,1,34,8.402,34,17.5S26.598,34,17.5,34S1,26.598,1,17.5S8.402,1,17.5,1 M17.5,0
			C7.836,0,0,7.836,0,17.5C0,27.165,7.836,35,17.5,35C27.165,35,35,27.165,35,17.5C35,7.836,27.165,0,17.5,0L17.5,0z"/>
		<path fill="#FFFFFF" d="M21.705,8.854c-0.035-0.691-0.804-0.895-1.804-1.088c-0.706-0.137-1.632-0.157-2.12-0.157
			c-0.239,0-0.395,0.005-0.396,0.006c-0.012-0.001-0.167-0.006-0.407-0.006c-0.488,0-1.414,0.021-2.119,0.157
			c-1.001,0.193-1.77,0.396-1.804,1.088c-0.04,0.804-0.002,2.577-0.001,2.651l0.285,14.442c-0.004,0.136,0.045,0.904,1.578,1.181
			c1.377,0.249,2.266,0.262,2.43,0.262h0.028h0.037l0,0c0.164,0,1.052-0.013,2.429-0.262c1.534-0.276,1.582-1.045,1.578-1.181
			l0.285-14.441C21.706,11.432,21.745,9.658,21.705,8.854z M14.938,8.172c0.672-0.13,1.567-0.149,2.041-0.149
			c0.24,0,0.393,0.005,0.408,0.005c0.002,0,0.154-0.005,0.395-0.005c0.474,0,1.369,0.02,2.041,0.149
			c0.939,0.182,1.451,0.348,1.47,0.703c0.001,0.032,0.003,0.067,0.005,0.103c-0.143,0.1-0.438,0.231-1.049,0.307
			c-1.682,0.207-2.855,0.188-2.869,0.187c-0.012,0.001-1.185,0.021-2.867-0.187c-0.611-0.075-0.906-0.207-1.048-0.306
			c0.001-0.035,0.003-0.071,0.004-0.104C13.486,8.52,13.998,8.354,14.938,8.172z M19.769,26.723
			c-1.343,0.243-2.198,0.255-2.355,0.255l0,0h-0.037h-0.028c-0.158,0-1.014-0.012-2.355-0.255c-1.242-0.224-1.24-0.753-1.24-0.753
			l0.002-0.012l-0.014-0.651c0.257,0.193,0.677,0.466,1.165,0.604c0.743,0.209,1.767,0.283,2.475,0.283
			c0.709,0,1.731-0.074,2.475-0.283c0.489-0.138,0.909-0.41,1.166-0.604l-0.013,0.658C21.008,25.969,21.012,26.498,19.769,26.723z
			 M21.292,11.498l-0.268,13.606c-0.228,0.183-0.683,0.508-1.212,0.656c-0.729,0.205-1.734,0.278-2.433,0.278
			s-1.704-0.073-2.433-0.278c-0.528-0.148-0.983-0.473-1.211-0.655l-0.268-13.608c-0.001-0.016-0.033-1.47-0.011-2.341
			c0.188,0.105,0.503,0.216,1.035,0.281c1.694,0.209,2.877,0.188,2.886,0.188c0.002,0,0.037,0,0.103,0
			c0.323,0,1.378-0.015,2.785-0.188c0.532-0.065,0.849-0.176,1.035-0.281C21.324,10.027,21.292,11.481,21.292,11.498z"/>
	</g>
</g>
</svg>
