<?xml version="1.0" encoding="utf-8"?>
<!-- Generator: Adobe Illustrator 16.0.0, SVG Export Plug-In . SVG Version: 6.00 Build 0)  -->
<!DOCTYPE svg PUBLIC "-//W3C//DTD SVG 1.1//EN" "http://www.w3.org/Graphics/SVG/1.1/DTD/svg11.dtd">
<svg version="1.1" xmlns="http://www.w3.org/2000/svg" xmlns:xlink="http://www.w3.org/1999/xlink" x="0px" y="0px" width="40px"
	 height="70px" viewBox="0 0 40 70" enable-background="new 0 0 40 70" xml:space="preserve">
<g id="Layer_2">
</g>
<g id="Layer_1">
	<path fill="#FFFFFF" d="M34.438,10.027c-0.118-2.234-2.678-2.89-6.019-3.516C26.061,6.068,22.974,6,21.34,6
		c-0.796,0-1.318,0.019-1.318,0.019C19.979,6.019,19.46,6,18.662,6c-1.634,0-4.721,0.068-7.08,0.511
		c-3.341,0.626-5.904,1.282-6.021,3.517c-0.135,2.604-0.006,8.338,0,8.58l0.949,46.726c-0.01,0.438,0.147,2.924,5.272,3.82
		C16.378,69.958,19.345,70,19.892,70l0.098-0.001L20.112,70l0,0c0.547,0,3.514-0.042,8.108-0.847
		c5.119-0.896,5.283-3.381,5.269-3.82l0.949-46.723C34.446,18.366,34.573,12.632,34.438,10.027z M11.846,7.822
		c2.242-0.421,5.233-0.484,6.816-0.484c0.802,0,1.311,0.017,1.359,0.017c0.008,0,0.517-0.017,1.318-0.017
		c1.585,0,4.576,0.062,6.817,0.484c3.133,0.589,4.849,1.125,4.904,2.274c0.006,0.103,0.012,0.22,0.021,0.334
		c-0.479,0.321-1.465,0.746-3.506,0.99c-5.614,0.672-9.531,0.607-9.579,0.605c-0.04,0.001-3.955,0.066-9.571-0.605
		c-2.041-0.244-3.028-0.672-3.499-0.99c0.004-0.113,0.008-0.23,0.012-0.334C7,8.947,8.71,8.411,11.846,7.822z M27.975,67.841
		c-4.48,0.784-7.333,0.822-7.862,0.822l0,0h-0.123h-0.098c-0.524,0-3.384-0.039-7.866-0.822c-4.145-0.729-4.136-2.437-4.136-2.437
		l0.002-0.042L7.85,63.256c0.857,0.627,2.26,1.509,3.889,1.955c2.485,0.678,5.897,0.917,8.265,0.917c2.366,0,5.777-0.24,8.261-0.917
		c1.629-0.445,3.037-1.327,3.893-1.956l-0.046,2.129C32.112,65.401,32.127,67.112,27.975,67.841z M33.058,18.583l-0.888,44.02
		c-0.758,0.593-2.279,1.643-4.046,2.125c-2.436,0.663-5.792,0.897-8.121,0.897c-2.333,0-5.691-0.234-8.125-0.897
		c-1.765-0.48-3.282-1.531-4.042-2.122L6.94,18.581c-0.002-0.052-0.105-4.758-0.032-7.576c0.625,0.343,1.678,0.7,3.454,0.912
		c5.655,0.678,9.605,0.607,9.635,0.607c0.006,0,0.123,0.002,0.342,0.002c1.078,0,4.602-0.048,9.299-0.609
		c1.78-0.212,2.833-0.568,3.459-0.912C33.169,13.823,33.062,18.528,33.058,18.583z"/>
</g>
</svg>
