<?xml version="1.0" encoding="utf-8"?>
<!-- Generator: Adobe Illustrator 16.0.0, SVG Export Plug-In . SVG Version: 6.00 Build 0)  -->
<!DOCTYPE svg PUBLIC "-//W3C//DTD SVG 1.1//EN" "http://www.w3.org/Graphics/SVG/1.1/DTD/svg11.dtd">
<svg version="1.1" xmlns="http://www.w3.org/2000/svg" xmlns:xlink="http://www.w3.org/1999/xlink" x="0px" y="0px" width="40px"
	 height="70px" viewBox="0 0 40 70" enable-background="new 0 0 40 70" xml:space="preserve">
<g id="Layer_2" display="none">
	<rect x="-1288.5" y="-1419.5" display="inline" stroke="#FFFFFF" stroke-miterlimit="10" width="3450" height="3390"/>
</g>
<g id="Layer_1">
	<g>
		<path fill="#FFFFFF" d="M19.951,70c-0.703,0-3.798-0.25-8.513-1.075c-6.69-1.17-6.944-5.166-6.927-5.935L3.562,16.3
			c-0.001-0.051-0.139-6.008,0.003-8.749c0.207-3.984,4.686-4.836,7.649-5.392c2.528-0.474,5.752-0.361,7.448-0.361
			C19.337,1.798,19.82,2,20.002,2c-0.003,0-0.004,0-0.003,0c0.011,0,0.547-0.208,1.341-0.208c1.696,0,4.92-0.024,7.448,0.45
			c2.962,0.555,7.437,1.347,7.647,5.329c0.142,2.744,0.004,8.676,0.002,8.729l-0.948,46.65c0.008,0.914-0.373,4.833-6.924,5.979
			C23.799,69.765,20.688,70,20.112,70C20.112,70,19.959,70,19.951,70z"/>
		<path fill="#FFFFFF" d="M34.438,7.629c-0.118-2.234-2.678-2.89-6.019-3.516c-2.359-0.442-5.446-0.511-7.08-0.511
			c-0.796,0-1.318,0.019-1.318,0.019c-0.043,0-0.562-0.019-1.359-0.019c-1.634,0-4.721,0.068-7.08,0.511
			C8.241,4.739,5.678,5.395,5.562,7.63c-0.135,2.604-0.006,8.338,0,8.58l0.949,46.726c-0.01,0.438,0.147,2.924,5.272,3.82
			c4.595,0.805,7.562,0.847,8.108,0.847l0.098-0.001l0.123,0.001l0,0c0.547,0,3.514-0.042,8.108-0.847
			c5.119-0.896,5.283-3.381,5.269-3.82l0.949-46.723C34.446,15.968,34.573,10.234,34.438,7.629z"/>
		<path d="M34.438,7.629c-0.118-2.234-2.678-2.89-6.019-3.516c-2.359-0.442-5.446-0.511-7.08-0.511
			c-0.796,0-1.318,0.019-1.318,0.019c-0.043,0-0.562-0.019-1.359-0.019c-1.634,0-4.721,0.068-7.08,0.511
			C8.241,4.739,5.678,5.395,5.562,7.63c-0.135,2.604-0.006,8.338,0,8.58l0.949,46.726c-0.01,0.438,0.147,2.924,5.272,3.82
			c4.595,0.805,7.562,0.847,8.108,0.847l0.098-0.001l0.123,0.001l0,0c0.547,0,3.514-0.042,8.108-0.847
			c5.119-0.896,5.283-3.381,5.269-3.82l0.949-46.723C34.446,15.968,34.573,10.234,34.438,7.629z M11.846,5.424
			c2.242-0.421,5.233-0.484,6.816-0.484c0.802,0,1.311,0.017,1.359,0.017c0.008,0,0.517-0.017,1.318-0.017
			c1.585,0,4.576,0.062,6.817,0.484c3.133,0.589,4.849,1.125,4.904,2.274c0.006,0.103,0.012,0.22,0.021,0.334
			c-0.479,0.321-1.465,0.746-3.506,0.99c-5.614,0.672-9.531,0.607-9.579,0.605c-0.04,0.001-3.955,0.066-9.571-0.605
			C8.385,8.778,7.397,8.35,6.927,8.032c0.004-0.113,0.008-0.23,0.012-0.334C7,6.549,8.71,6.013,11.846,5.424z M27.975,65.443
			c-4.48,0.784-7.333,0.822-7.862,0.822l0,0h-0.123h-0.098c-0.524,0-3.384-0.039-7.866-0.822c-4.145-0.729-4.136-2.437-4.136-2.437
			l0.002-0.042L7.85,60.858c0.857,0.627,2.26,1.509,3.889,1.955c2.485,0.678,5.897,0.917,8.265,0.917
			c2.366,0,5.777-0.24,8.261-0.917c1.629-0.445,3.037-1.327,3.893-1.956l-0.046,2.129C32.112,63.003,32.127,64.714,27.975,65.443z
			 M33.058,16.185l-0.888,44.02c-0.758,0.593-2.279,1.643-4.046,2.125c-2.436,0.663-5.792,0.897-8.121,0.897
			c-2.333,0-5.691-0.234-8.125-0.897c-1.765-0.48-3.282-1.531-4.042-2.122L6.94,16.183c-0.002-0.052-0.105-4.758-0.032-7.576
			c0.625,0.343,1.678,0.7,3.454,0.912c5.655,0.678,9.605,0.607,9.635,0.607c0.006,0,0.123,0.002,0.342,0.002
			c1.078,0,4.602-0.048,9.299-0.609c1.78-0.212,2.833-0.568,3.459-0.912C33.169,11.425,33.062,16.13,33.058,16.185z"/>
	</g>
</g>
</svg>
