<?xml version="1.0" encoding="utf-8"?>
<!-- Generator: Adobe Illustrator 16.0.0, SVG Export Plug-In . SVG Version: 6.00 Build 0)  -->
<!DOCTYPE svg PUBLIC "-//W3C//DTD SVG 1.1//EN" "http://www.w3.org/Graphics/SVG/1.1/DTD/svg11.dtd">
<svg version="1.1" xmlns="http://www.w3.org/2000/svg" xmlns:xlink="http://www.w3.org/1999/xlink" x="0px" y="0px" width="40px"
	 height="70px" viewBox="0 0 40 70" enable-background="new 0 0 40 70" xml:space="preserve">
<g id="Layer_2">
</g>
<g id="Layer_1">
	<path fill="#FFFFFF" d="M37.63,23.87c-0.032-0.205-0.062-0.395-0.09-0.572c-0.43-2.823-1.52-3.125-5.139-4.121l-0.339-0.092
		c-3.22-0.89-11.688-1.077-12.076-1.085c-0.358,0.008-8.829,0.195-12.049,1.085l-0.336,0.092c-3.622,0.995-4.712,1.297-5.14,4.121
		c-0.024,0.178-0.06,0.367-0.092,0.572c-0.452,2.75-1.292,7.869,3.246,12.035c1.736,1.593,3.741,2.47,5.507,3.245
		c3.124,1.366,5.596,2.446,5.987,6.746c0.469,5.177,0.568,8.885-0.34,11.159c-1.916,0.236-9.054,1.402-10.229,5.716
		c-0.295,1.104-0.188,2.124,0.334,3.029c1.234,2.152,4.477,3.006,5.862,3.374c0.165,0.044,0.299,0.078,0.402,0.107
		C14.555,69.7,18.22,70,20,70c1.782,0,5.446-0.3,6.859-0.72c0.102-0.029,0.241-0.063,0.402-0.107
		c1.386-0.367,4.63-1.221,5.862-3.374c0.52-0.905,0.633-1.925,0.332-3.029c-1.171-4.314-8.311-5.48-10.227-5.716
		c-0.912-2.274-0.805-5.982-0.338-11.159c0.394-4.299,2.86-5.379,5.985-6.746c1.77-0.775,3.769-1.651,5.507-3.245
		C38.924,31.739,38.08,26.62,37.63,23.87z M7.949,20.472l0.339-0.095c3.062-0.847,11.641-1.035,11.698-1.038
		c0.087,0.003,8.665,0.191,11.728,1.038l0.339,0.095c2.226,0.611,3.182,0.891,3.657,1.466c-0.499,0.583-2.344,1.701-9.121,2.321
		c-2.206,0.203-4.898,0.293-6.589,0.293c-1.687,0-4.383-0.09-6.585-0.293c-6.81-0.624-8.636-1.758-9.123-2.32
		C4.766,21.362,5.722,21.084,7.949,20.472z M32.176,63.123c0.205,0.758,0.138,1.414-0.203,2.007
		c-0.953,1.667-3.825,2.423-5.046,2.749c-0.181,0.043-0.328,0.085-0.441,0.117c-1.242,0.367-4.811,0.665-6.485,0.665
		c-1.671,0-5.24-0.298-6.487-0.665c-0.109-0.032-0.259-0.073-0.436-0.117c-1.227-0.326-4.095-1.082-5.05-2.749
		c-0.341-0.593-0.408-1.249-0.203-2.007c0.894-3.275,6.873-4.412,8.839-4.701c-0.1,0.078-0.203,0.151-0.318,0.218v-0.002
		c-0.682,0.39-1.04,0.873-1.04,1.402c0,1.225,2.062,2.189,4.695,2.189s4.697-0.964,4.697-2.189c0-0.53-0.36-1.013-1.044-1.402
		l-0.002,0.002c-0.107-0.067-0.213-0.14-0.312-0.218C25.303,58.711,31.286,59.848,32.176,63.123z M33.49,34.916
		c-1.575,1.444-3.389,2.236-5.138,3.004c-3.251,1.42-6.321,2.762-6.785,7.85c-0.512,5.666-0.59,9.684,0.609,12.195
		c0.031,0.068,0.071,0.125,0.123,0.18c0.05,0.05,0.115,0.094,0.181,0.129c0.281,0.341,0.611,0.627,1.012,0.853l0,0
		c0.456,0.277,0.707,0.599,0.707,0.915c0,0.795-1.723,1.686-4.199,1.686c-2.475,0-4.201-0.891-4.201-1.686
		c0-0.316,0.251-0.638,0.711-0.915l0,0c0.398-0.225,0.73-0.511,1.012-0.853c0.067-0.036,0.127-0.079,0.183-0.129
		c0.048-0.054,0.088-0.112,0.121-0.18c1.199-2.511,1.121-6.529,0.605-12.193c-0.458-5.09-3.53-6.432-6.783-7.852
		c-1.751-0.768-3.562-1.56-5.136-3.004c-4.01-3.677-3.271-8.151-2.831-10.829c0.033-0.209,0.065-0.405,0.094-0.586
		c0.071-0.459,0.139-0.818,0.255-1.107c0.848,0.826,3.22,1.807,9.34,2.365c2.221,0.203,4.929,0.293,6.631,0.293
		s4.412-0.09,6.633-0.293c6.12-0.559,8.486-1.539,9.34-2.366c0.112,0.29,0.186,0.649,0.255,1.108
		c0.026,0.182,0.059,0.377,0.092,0.586C36.76,26.764,37.498,31.238,33.49,34.916z"/>
</g>
</svg>
