<?xml version="1.0" encoding="utf-8"?>
<!-- Generator: Adobe Illustrator 16.0.0, SVG Export Plug-In . SVG Version: 6.00 Build 0)  -->
<!DOCTYPE svg PUBLIC "-//W3C//DTD SVG 1.1//EN" "http://www.w3.org/Graphics/SVG/1.1/DTD/svg11.dtd">
<svg version="1.1" id="Layer_1" xmlns="http://www.w3.org/2000/svg" xmlns:xlink="http://www.w3.org/1999/xlink" x="0px" y="0px"
	 width="35px" height="35px" viewBox="0 0 35 35" enable-background="new 0 0 35 35" xml:space="preserve">
<g id="Layer_1_1_">
	<g>
		<path fill="#FFFFFF" d="M17.5,1C26.598,1,34,8.402,34,17.5C34,26.598,26.598,34,17.5,34C8.402,34,1,26.598,1,17.5
			C1,8.402,8.402,1,17.5,1 M17.5,0C7.836,0,0,7.836,0,17.5C0,27.165,7.836,35,17.5,35C27.165,35,35,27.165,35,17.5
			C35,7.836,27.165,0,17.5,0L17.5,0z"/>
		<path fill="#FFFFFF" stroke="#FFFFFF" stroke-width="0.25" stroke-miterlimit="10" d="M24.702,9.208
			c-0.015-0.084-0.027-0.163-0.038-0.235c-0.178-1.163-0.631-1.287-2.135-1.697l-0.139-0.038c-1.339-0.365-4.855-0.442-5.018-0.446
			c-0.148,0.004-3.665,0.081-5.004,0.446l-0.141,0.038c-1.503,0.41-1.956,0.534-2.134,1.697c-0.011,0.072-0.023,0.151-0.037,0.235
			c-0.188,1.133-0.537,3.242,1.349,4.958c0.721,0.656,1.552,1.018,2.286,1.334c1.299,0.564,2.324,1.01,2.484,2.779
			c0.197,2.133,0.24,3.66-0.138,4.596c-0.798,0.1-3.762,0.58-4.248,2.357c-0.124,0.453-0.078,0.873,0.137,1.246
			c0.513,0.887,1.86,1.238,2.438,1.391c0.066,0.018,0.124,0.031,0.166,0.045c0.587,0.171,2.109,0.295,2.849,0.295
			c0.74,0,2.264-0.124,2.85-0.295c0.043-0.014,0.1-0.027,0.166-0.045c0.576-0.151,1.924-0.504,2.438-1.391
			c0.215-0.373,0.26-0.793,0.135-1.246c-0.484-1.777-3.449-2.26-4.246-2.357c-0.378-0.936-0.334-2.463-0.14-4.596
			c0.162-1.771,1.187-2.215,2.485-2.779c0.733-0.316,1.564-0.678,2.287-1.334C25.238,12.45,24.891,10.341,24.702,9.208z
			 M12.375,7.808l0.141-0.038c1.272-0.348,4.834-0.426,4.858-0.427c0.036,0.001,3.597,0.079,4.87,0.427l0.141,0.038
			c0.924,0.253,1.322,0.368,1.52,0.606c-0.209,0.238-0.973,0.699-3.788,0.954c-0.916,0.083-2.033,0.12-2.735,0.12
			c-0.702,0-1.819-0.037-2.735-0.12c-2.828-0.256-3.586-0.724-3.789-0.954C11.053,8.176,11.449,8.061,12.375,7.808z M22.438,25.377
			c0.084,0.312,0.058,0.582-0.084,0.826c-0.396,0.688-1.588,0.998-2.098,1.132c-0.074,0.019-0.136,0.035-0.183,0.049
			c-0.517,0.151-1.999,0.273-2.693,0.273c-0.694,0-2.177-0.122-2.693-0.273c-0.047-0.014-0.108-0.03-0.183-0.049
			c-0.508-0.134-1.699-0.444-2.097-1.132c-0.142-0.244-0.168-0.516-0.083-0.826c0.369-1.35,2.854-1.816,3.67-1.938
			c-0.041,0.033-0.086,0.062-0.131,0.09l0,0c-0.284,0.16-0.434,0.359-0.434,0.576c0,0.506,0.856,0.901,1.95,0.901
			c1.096,0,1.95-0.396,1.95-0.901c0-0.217-0.147-0.416-0.435-0.576l0,0c-0.045-0.026-0.088-0.057-0.131-0.09
			C19.582,23.561,22.066,24.027,22.438,25.377z M22.982,13.758c-0.654,0.596-1.406,0.921-2.135,1.236
			c-1.351,0.586-2.625,1.139-2.816,3.234c-0.213,2.334-0.246,3.987,0.252,5.022c0.014,0.026,0.029,0.051,0.051,0.072
			c0.023,0.022,0.048,0.041,0.076,0.054c0.115,0.143,0.254,0.259,0.42,0.352l0,0c0.189,0.115,0.294,0.25,0.294,0.377
			c0,0.33-0.716,0.696-1.744,0.696c-1.028,0-1.743-0.366-1.743-0.696c0-0.127,0.104-0.262,0.294-0.377l0,0
			c0.165-0.093,0.303-0.209,0.419-0.352c0.028-0.013,0.054-0.029,0.076-0.054c0.021-0.021,0.037-0.046,0.051-0.072
			c0.498-1.035,0.465-2.688,0.252-5.022c-0.191-2.097-1.467-2.648-2.816-3.234c-0.728-0.315-1.48-0.641-2.134-1.236
			c-1.664-1.514-1.358-3.357-1.176-4.459c0.015-0.087,0.028-0.168,0.038-0.242C10.67,8.868,10.7,8.72,10.748,8.601
			c0.353,0.341,1.336,0.743,3.878,0.974c0.923,0.084,2.048,0.122,2.754,0.122c0.707,0,1.832-0.038,2.755-0.122
			c2.541-0.23,3.525-0.633,3.879-0.975c0.047,0.12,0.076,0.268,0.105,0.457c0.01,0.074,0.023,0.155,0.038,0.242
			C24.34,10.4,24.646,12.244,22.982,13.758z"/>
	</g>
</g>
</svg>
