<?xml version="1.0" encoding="utf-8"?>
<!-- Generator: Adobe Illustrator 16.0.0, SVG Export Plug-In . SVG Version: 6.00 Build 0)  -->
<!DOCTYPE svg PUBLIC "-//W3C//DTD SVG 1.1//EN" "http://www.w3.org/Graphics/SVG/1.1/DTD/svg11.dtd">
<svg version="1.1" xmlns="http://www.w3.org/2000/svg" xmlns:xlink="http://www.w3.org/1999/xlink" x="0px" y="0px" width="40px"
	 height="70px" viewBox="0 0 40 70" enable-background="new 0 0 40 70" xml:space="preserve">
<g id="Layer_2" display="none">
	<rect x="-1397.5" y="-1419.5" display="inline" stroke="#FFFFFF" stroke-miterlimit="10" width="3450" height="3390"/>
</g>
<g id="Layer_1">
	<g>
		<path fill="#FFFFFF" d="M20,70c-1.648,0-5.652-0.275-7.428-0.802l-0.354-0.094c-1.627-0.431-5.432-1.439-7.078-4.31
			c-0.777-1.352-0.963-2.923-0.531-4.541c1.277-4.685,7.1-6.386,10.602-6.99c0.441-2.213,0.225-5.691-0.092-9.188
			c-0.273-3-1.586-3.689-4.795-5.092c-1.836-0.806-4.086-1.793-6.061-3.604C-1.072,30.48-0.08,24.445,0.396,21.545l0.084-0.521
			c0.627-4.138,2.873-4.755,6.592-5.777l0.338-0.092c3.299-0.912,11.02-1.122,12.533-1.155c1.01,0.019,9.225,0.209,12.652,1.157
			l0.33,0.089c3.723,1.024,5.967,1.641,6.592,5.75l0.088,0.562c0.475,2.896,1.463,8.928-3.869,13.819
			c-1.986,1.82-4.242,2.809-6.057,3.603c-3.209,1.403-4.521,2.091-4.797,5.096c-0.314,3.501-0.531,6.983-0.094,9.187
			c3.502,0.604,9.328,2.304,10.598,6.982c0.438,1.61,0.256,3.183-0.527,4.549c-1.643,2.869-5.447,3.877-7.072,4.308l-0.373,0.1
			C25.654,69.725,21.65,70,20,70z"/>
		<path fill="#FFFFFF" d="M37.631,21.87c-0.033-0.205-0.062-0.395-0.09-0.572c-0.43-2.823-1.52-3.125-5.139-4.121l-0.34-0.092
			c-3.219-0.89-11.688-1.077-12.076-1.085c-0.357,0.008-8.828,0.195-12.049,1.085l-0.336,0.092
			c-3.621,0.995-4.711,1.297-5.139,4.121c-0.025,0.178-0.061,0.367-0.092,0.572c-0.453,2.75-1.293,7.869,3.246,12.035
			c1.736,1.593,3.74,2.47,5.506,3.245c3.125,1.366,5.596,2.446,5.988,6.746c0.469,5.177,0.568,8.885-0.34,11.159
			c-1.916,0.236-9.055,1.402-10.229,5.716c-0.295,1.104-0.188,2.124,0.334,3.029c1.234,2.152,4.477,3.006,5.861,3.374
			c0.166,0.044,0.299,0.078,0.402,0.107C14.555,67.7,18.221,68,20,68c1.783,0,5.447-0.3,6.859-0.72
			c0.102-0.029,0.242-0.063,0.402-0.107c1.387-0.367,4.631-1.221,5.863-3.374c0.52-0.905,0.633-1.925,0.332-3.029
			c-1.172-4.314-8.311-5.48-10.227-5.716c-0.912-2.274-0.805-5.982-0.338-11.159c0.393-4.299,2.859-5.379,5.984-6.746
			c1.77-0.775,3.77-1.651,5.508-3.245C38.924,29.739,38.08,24.62,37.631,21.87z"/>
		<path d="M37.631,21.87c-0.033-0.205-0.062-0.395-0.09-0.572c-0.43-2.823-1.52-3.125-5.139-4.121l-0.34-0.092
			c-3.219-0.89-11.688-1.077-12.076-1.085c-0.357,0.008-8.828,0.195-12.049,1.085l-0.336,0.092
			c-3.621,0.995-4.711,1.297-5.139,4.121c-0.025,0.178-0.061,0.367-0.092,0.572c-0.453,2.75-1.293,7.869,3.246,12.035
			c1.736,1.593,3.74,2.47,5.506,3.245c3.125,1.366,5.596,2.446,5.988,6.746c0.469,5.177,0.568,8.885-0.34,11.159
			c-1.916,0.236-9.055,1.402-10.229,5.716c-0.295,1.104-0.188,2.124,0.334,3.029c1.234,2.152,4.477,3.006,5.861,3.374
			c0.166,0.044,0.299,0.078,0.402,0.107C14.555,67.7,18.221,68,20,68c1.783,0,5.447-0.3,6.859-0.72
			c0.102-0.029,0.242-0.063,0.402-0.107c1.387-0.367,4.631-1.221,5.863-3.374c0.52-0.905,0.633-1.925,0.332-3.029
			c-1.172-4.314-8.311-5.48-10.227-5.716c-0.912-2.274-0.805-5.982-0.338-11.159c0.393-4.299,2.859-5.379,5.984-6.746
			c1.77-0.775,3.77-1.651,5.508-3.245C38.924,29.739,38.08,24.62,37.631,21.87z M7.949,18.472l0.34-0.095
			c3.062-0.847,11.641-1.035,11.697-1.038c0.088,0.003,8.666,0.191,11.729,1.038l0.338,0.095c2.227,0.611,3.182,0.891,3.658,1.466
			c-0.5,0.583-2.344,1.701-9.121,2.321c-2.207,0.203-4.898,0.293-6.59,0.293c-1.686,0-4.383-0.09-6.584-0.293
			c-6.811-0.624-8.637-1.758-9.123-2.32C4.766,19.362,5.723,19.084,7.949,18.472z M32.176,61.123
			c0.205,0.758,0.139,1.414-0.203,2.007c-0.953,1.667-3.824,2.423-5.045,2.749c-0.182,0.043-0.328,0.085-0.441,0.117
			c-1.242,0.367-4.811,0.665-6.486,0.665c-1.67,0-5.24-0.298-6.486-0.665c-0.109-0.032-0.26-0.073-0.436-0.117
			c-1.227-0.326-4.096-1.082-5.051-2.749c-0.34-0.593-0.408-1.249-0.203-2.007c0.895-3.275,6.873-4.412,8.84-4.701
			c-0.1,0.078-0.203,0.151-0.318,0.218v-0.002c-0.682,0.39-1.041,0.873-1.041,1.402c0,1.225,2.062,2.189,4.695,2.189
			s4.697-0.964,4.697-2.189c0-0.53-0.359-1.013-1.043-1.402l-0.002,0.002c-0.107-0.067-0.213-0.14-0.312-0.218
			C25.303,56.711,31.287,57.848,32.176,61.123z M33.49,32.916c-1.574,1.444-3.389,2.236-5.137,3.004
			c-3.252,1.42-6.322,2.762-6.785,7.85c-0.512,5.666-0.59,9.684,0.609,12.195c0.031,0.068,0.07,0.125,0.123,0.18
			c0.049,0.05,0.115,0.094,0.18,0.129c0.281,0.341,0.611,0.627,1.012,0.853l0,0c0.457,0.277,0.707,0.599,0.707,0.915
			c0,0.795-1.723,1.686-4.199,1.686c-2.475,0-4.201-0.891-4.201-1.686c0-0.316,0.252-0.638,0.711-0.915l0,0
			c0.398-0.225,0.73-0.511,1.012-0.853c0.068-0.036,0.127-0.079,0.184-0.129c0.047-0.054,0.088-0.112,0.121-0.18
			c1.199-2.511,1.121-6.529,0.605-12.193c-0.459-5.09-3.531-6.432-6.783-7.852c-1.752-0.768-3.562-1.56-5.137-3.004
			c-4.01-3.677-3.271-8.151-2.83-10.829c0.033-0.209,0.064-0.405,0.094-0.586c0.07-0.459,0.139-0.818,0.254-1.107
			c0.848,0.826,3.221,1.807,9.34,2.365c2.221,0.203,4.93,0.293,6.631,0.293c1.703,0,4.412-0.09,6.633-0.293
			c6.121-0.559,8.486-1.539,9.34-2.366c0.113,0.29,0.186,0.649,0.256,1.108c0.025,0.182,0.059,0.377,0.092,0.586
			C36.76,24.764,37.498,29.238,33.49,32.916z"/>
	</g>
</g>
</svg>
