<?xml version="1.0" encoding="utf-8"?>
<!-- Generator: Adobe Illustrator 16.0.0, SVG Export Plug-In . SVG Version: 6.00 Build 0)  -->
<!DOCTYPE svg PUBLIC "-//W3C//DTD SVG 1.1//EN" "http://www.w3.org/Graphics/SVG/1.1/DTD/svg11.dtd">
<svg version="1.1" id="Layer_1" xmlns="http://www.w3.org/2000/svg" xmlns:xlink="http://www.w3.org/1999/xlink" x="0px" y="0px"
	 width="60px" height="60px" viewBox="0 0 60 60" enable-background="new 0 0 60 60" xml:space="preserve">
<g id="Layer_1_1_">
	<g>
		<g>
			<path fill="#FFFFFF" d="M30,60C13.457,60,0,46.542,0,30C0,13.459,13.457,0,30,0s30,13.459,30,30C60,46.542,46.543,60,30,60z
				 M30,4.195C15.771,4.195,4.195,15.771,4.195,30c0,14.229,11.576,25.807,25.805,25.807c14.229,0,25.805-11.578,25.805-25.807
				C55.805,15.771,44.229,4.195,30,4.195z"/>
		</g>
		<text transform="matrix(1 0 0 1 17.6426 47.6025)" fill="#FFFFFF" font-family="'Gibson-SemiBold'" font-size="48.2143">?</text>
	</g>
</g>
</svg>
