<?xml version="1.0" encoding="utf-8"?>
<!-- Generator: Adobe Illustrator 16.0.0, SVG Export Plug-In . SVG Version: 6.00 Build 0)  -->
<!DOCTYPE svg PUBLIC "-//W3C//DTD SVG 1.1//EN" "http://www.w3.org/Graphics/SVG/1.1/DTD/svg11.dtd">
<svg version="1.1" xmlns="http://www.w3.org/2000/svg" xmlns:xlink="http://www.w3.org/1999/xlink" x="0px" y="0px" width="1280px"
	 height="800px" viewBox="0 0 1280 800" enable-background="new 0 0 1280 800" xml:space="preserve">
<g id="Background_Color">
	<rect width="1280" height="800"/>
</g>
<g id="Layer_2">
	<rect x="378.301" y="223.902" fill="#FFFFFF" width="543" height="3"/>
	<text transform="matrix(1 0 0 1 382.9961 210.8672)" fill="#FFFFFF" font-family="'HelveticaNeue-Bold'" font-size="20">Choose a Picture</text>
	<text transform="matrix(1 0 0 1 602.1289 632.2871)" fill="#FFFFFF" font-family="'HelveticaNeue-Bold'" font-size="35">Next</text>
	<polygon fill="none" stroke="#FFFFFF" stroke-miterlimit="10" points="799.578,632.075 639.906,676.075 480.235,632.075 
		480.235,580.5 799.578,580.5 	"/>
	<g id="U0WylW.tif">
		
			<image overflow="visible" width="275" height="183" id="Layer_0_1_" xlink:href="BAFE26E679C7D66C.png"  transform="matrix(0.8413 0 0 0.8413 381.0898 325.5332)">
		</image>
	</g>
	<g id="D0PIDw.tif">
		
			<image overflow="visible" width="430" height="279" id="Layer_0_2_" xlink:href="BAFE26E679C7D66D.png"  transform="matrix(0.538 0 0 0.5518 683.8984 325.5332)">
		</image>
	</g>
</g>
<g id="Layer_3">
	<g opacity="0.5">
		<g>
			<path fill="#FFFFFF" d="M841.168,105.473c-16.543,0-30-13.458-30-30s13.457-30,30-30s30,13.458,30,30
				S857.711,105.473,841.168,105.473z M841.168,49.668c-14.229,0-25.805,11.575-25.805,25.805s11.576,25.805,25.805,25.805
				s25.805-11.575,25.805-25.805S855.396,49.668,841.168,49.668z"/>
		</g>
		<g>
			<path fill="#FFFFFF" d="M834.783,85.367c-0.467,0-0.895-0.1-1.066-0.545l-6.604-16.92h-3.932c-0.633,0-1.146-0.868-1.146-1.5
				c0-0.631,0.514-1.5,1.146-1.5h4.717c0.473,0,0.896,0.459,1.066,0.9l6.568,17.1l17.449-2.357l2.912-9.643h-20.512
				c-0.631,0-1.143-0.368-1.143-1c0-0.633,0.512-1,1.143-1h22.07c0.363,0,0.705,0.439,0.922,0.732
				c0.215,0.293,0.279,0.806,0.17,1.153l-3.604,11.538c-0.135,0.432-0.512,0.775-0.961,0.828l-19.066,2.189
				C834.871,85.35,834.826,85.367,834.783,85.367z"/>
		</g>
		<g>
			<circle fill="#FFFFFF" cx="835.726" cy="89.058" r="2.177"/>
		</g>
		<g>
			<circle fill="#FFFFFF" cx="852.674" cy="89.058" r="2.178"/>
		</g>
	</g>
	<g opacity="0.5">
		<g>
			<path fill="#FFFFFF" d="M437.668,105.473c-16.543,0-30-13.458-30-30c0-16.543,13.457-30,30-30s30,13.457,30,30
				C467.668,92.015,454.211,105.473,437.668,105.473z M437.668,49.667c-14.229,0-25.805,11.577-25.805,25.806
				s11.576,25.805,25.805,25.805s25.805-11.576,25.805-25.805S451.896,49.667,437.668,49.667z"/>
		</g>
		<g>
			<g>
				
					<line fill="none" stroke="#FFFFFF" stroke-width="2" stroke-linecap="round" stroke-miterlimit="10" x1="430.105" y1="62.805" x2="452.105" y2="62.805"/>
				<path fill="#FFFFFF" d="M427.23,62.805c0,1.105-0.898,2-2,2c-1.109,0-2-0.895-2-2s0.891-2,2-2
					C426.332,60.805,427.23,61.699,427.23,62.805z"/>
			</g>
			<g>
				
					<line fill="none" stroke="#FFFFFF" stroke-width="2" stroke-linecap="round" stroke-miterlimit="10" x1="430.105" y1="70.598" x2="452.105" y2="70.598"/>
				<path fill="#FFFFFF" d="M427.23,70.598c0,1.105-0.898,2-2,2c-1.109,0-2-0.895-2-2s0.891-2,2-2
					C426.332,68.598,427.23,69.492,427.23,70.598z"/>
			</g>
			<g>
				
					<line fill="none" stroke="#FFFFFF" stroke-width="2" stroke-linecap="round" stroke-miterlimit="10" x1="430.105" y1="78.389" x2="452.105" y2="78.389"/>
				<path fill="#FFFFFF" d="M427.23,78.389c0,1.105-0.898,2-2,2c-1.109,0-2-0.895-2-2s0.891-2,2-2
					C426.332,76.389,427.23,77.283,427.23,78.389z"/>
			</g>
			<g>
				
					<line fill="none" stroke="#FFFFFF" stroke-width="2" stroke-linecap="round" stroke-miterlimit="10" x1="430.105" y1="86.181" x2="452.105" y2="86.181"/>
				<path fill="#FFFFFF" d="M427.23,86.181c0,1.105-0.898,2-2,2c-1.109,0-2-0.895-2-2s0.891-2,2-2
					C426.332,84.181,427.23,85.075,427.23,86.181z"/>
			</g>
		</g>
	</g>
	<g opacity="0.5">
		<g>
			<path fill="#FFFFFF" d="M520.832,87.99c-0.025-0.381-0.055-0.811-0.055-1.354V69.508c0-0.238-0.178-0.6-0.674-1.301h0.014
				l-0.484-0.643c-0.184-0.246-0.371-0.486-0.545-0.709c-0.018-0.023-0.035-0.047-0.053-0.07c-0.014-0.016-0.029-0.033-0.041-0.051
				c-0.061-0.08-0.123-0.158-0.189-0.242c-0.521-0.668-0.605-2.037-0.592-2.52v-5.984c0-0.396-0.293-0.604-1.895-0.629
				c-1.59,0.025-1.879,0.232-1.879,0.629v5.996c0.012,0.471-0.068,1.838-0.594,2.508c-0.248,0.316-0.543,0.693-0.828,1.07
				l-0.486,0.645h0.016c-0.496,0.701-0.674,1.062-0.674,1.301v17.129c0,0.541-0.029,0.973-0.053,1.354
				c-0.021,0.299-0.039,0.582-0.039,0.859c0,1.484,1.166,1.561,4.545,1.561c3.377,0,4.543-0.076,4.543-1.561
				C520.869,88.572,520.852,88.289,520.832,87.99z M517.406,63.42h-2.162v-3.043h2.162V63.42z M517.408,64.225
				c0.012,0.422,0.074,1.277,0.361,2.027c-0.4-0.035-0.902-0.064-1.443-0.064s-1.043,0.029-1.445,0.064
				c0.291-0.754,0.352-1.611,0.361-2.027H517.408z M514.385,67.109c0.391-0.047,1.121-0.117,1.941-0.117
				c0.818,0,1.551,0.07,1.939,0.117c0.074,0.094,0.152,0.191,0.23,0.293h-4.342C514.24,67.293,514.318,67.195,514.385,67.109z
				 M516.318,58.164c0.412,0.006,0.848,0.041,1.088,0.08v1.328h-2.162v-1.328C515.484,58.205,515.918,58.17,516.318,58.164z
				 M516.326,89.605c-3.738,0-3.738-0.221-3.738-0.756c0-0.25,0.016-0.508,0.035-0.807c0.025-0.393,0.055-0.838,0.055-1.406
				l-0.002-17.096c0.043-0.193,0.443-0.764,0.867-1.334h5.566c0.422,0.566,0.82,1.127,0.863,1.301v17.129
				c0,0.568,0.029,1.014,0.055,1.406c0.02,0.299,0.037,0.557,0.037,0.807C520.064,89.385,520.064,89.605,516.326,89.605z"/>
			<path fill="#FFFFFF" d="M513.08,74.455v8.92v1.199h6.49v-1.199v-8.92v-1.199h-6.49V74.455z M513.885,75.26h4.881v7.311h-4.881
				V75.26z M518.766,83.77h-4.881v-0.395h4.881V83.77z M518.766,74.061v0.395h-4.881v-0.395H518.766z"/>
			<path fill="#FFFFFF" d="M513.924,71.562c0.008-0.008,0.998-0.717,2.402-0.717c1.402,0,2.393,0.709,2.4,0.715
				c0.072,0.055,0.156,0.08,0.24,0.08c0.123,0,0.244-0.057,0.324-0.164c0.131-0.178,0.094-0.432-0.086-0.562
				c-0.047-0.035-1.201-0.873-2.879-0.873c-1.68,0-2.834,0.838-2.881,0.873c-0.178,0.131-0.217,0.383-0.084,0.562
				C513.492,71.654,513.744,71.693,513.924,71.562z"/>
			<path fill="#FFFFFF" d="M514.465,71.896c-0.223,0-0.404,0.18-0.404,0.402s0.182,0.404,0.404,0.404h3.721
				c0.223,0,0.404-0.182,0.404-0.404s-0.182-0.402-0.404-0.402H514.465z"/>
		</g>
		<path fill="#FFFFFF" d="M545.305,88.15c-0.023-0.355-0.051-0.758-0.051-1.264V70.895c0-0.221-0.166-0.559-0.627-1.213h0.012
			l-0.453-0.602c-0.172-0.229-0.348-0.455-0.508-0.662c-0.018-0.021-0.035-0.043-0.051-0.064c-0.012-0.016-0.025-0.031-0.037-0.047
			c-0.059-0.074-0.115-0.148-0.176-0.227c-0.488-0.623-0.566-1.902-0.555-2.352v-5.588c0-0.371-0.271-0.562-1.768-0.588
			c-1.484,0.025-1.756,0.217-1.756,0.588l0.002,5.598c0.012,0.439-0.064,1.717-0.557,2.342c-0.23,0.295-0.506,0.646-0.77,1
			l-0.455,0.602h0.012c-0.461,0.654-0.627,0.992-0.627,1.213v15.992c0,0.506-0.027,0.908-0.051,1.264
			c-0.02,0.279-0.035,0.543-0.035,0.803c0,1.387,1.09,1.457,4.242,1.457c3.154,0,4.244-0.07,4.244-1.457
			C545.342,88.693,545.324,88.43,545.305,88.15z M542.107,65.213h-2.02v-2.842h2.02V65.213z M542.109,65.965
			c0.01,0.393,0.068,1.189,0.338,1.891c-0.375-0.033-0.844-0.061-1.35-0.061c-0.504,0-0.973,0.029-1.35,0.061
			c0.271-0.703,0.328-1.504,0.338-1.891H542.109z M539.285,68.656c0.365-0.043,1.049-0.109,1.812-0.109
			c0.766,0,1.449,0.066,1.812,0.109c0.068,0.088,0.141,0.18,0.213,0.273h-4.051C539.15,68.828,539.225,68.736,539.285,68.656z
			 M541.092,60.305c0.385,0.006,0.791,0.037,1.016,0.074v1.24h-2.02v-1.24C540.312,60.342,540.717,60.311,541.092,60.305z
			 M541.098,89.658c-3.49,0-3.49-0.207-3.49-0.705c0-0.234,0.016-0.475,0.035-0.754c0.023-0.365,0.051-0.781,0.051-1.312
			l-0.004-15.961c0.043-0.18,0.414-0.713,0.811-1.244h5.197c0.395,0.527,0.766,1.051,0.805,1.213v15.992
			c0,0.531,0.027,0.947,0.053,1.312c0.02,0.279,0.033,0.52,0.033,0.754C544.59,89.451,544.59,89.658,541.098,89.658z"/>
		<path fill="#FFFFFF" d="M533.771,87.762c0-0.164-0.021-1-0.189-1.408c-0.09-0.217-0.15-0.758-0.168-1.016
			c0.004-0.15,0.346-15.135,0.357-16.434c0.016-1.568-1.379-3.043-2.262-3.604c-0.594-0.379-0.732-1.725-0.734-2.164v-6.285
			c0-0.51-0.508-0.768-1.508-0.768c-0.145,0-0.258,0.006-0.307,0.008c-0.049-0.002-0.164-0.008-0.307-0.008
			c-1,0-1.508,0.258-1.508,0.768v6.283c-0.002,0.441-0.143,1.787-0.736,2.166c-0.883,0.561-2.277,2.035-2.262,3.604
			c0.012,1.299,0.355,16.283,0.359,16.4c-0.018,0.289-0.078,0.832-0.168,1.049c-0.17,0.406-0.189,1.244-0.189,1.369
			c-0.008,0.074-0.062,0.742,0.537,1.41c0.762,0.85,2.199,1.281,4.273,1.281s3.512-0.432,4.273-1.281
			C533.832,88.465,533.777,87.797,533.771,87.762z M529.984,61.998h-2.047v-2.684h2.047V61.998z M528.654,56.875
			c0.158,0,0.273,0.008,0.273,0.008l0.033,0.002l0.027-0.002c0,0,0.119-0.008,0.277-0.008c0.4,0,0.619,0.047,0.719,0.082v1.564
			h-2.047v-1.564C528.035,56.922,528.254,56.875,528.654,56.875z M532.625,88.625c-0.422,0.455-1.402,0.996-3.664,0.996
			c-2.264,0-3.242-0.541-3.666-0.996c-0.383-0.412-0.359-0.807-0.355-0.854c0.006-0.344,0.049-0.916,0.131-1.115
			c0.168-0.408,0.223-1.213,0.229-1.336c-0.004-0.15-0.348-15.131-0.359-16.424c-0.012-1.17,1.125-2.439,1.895-2.928
			c0.912-0.58,1.07-2.076,1.098-2.635h2.057c0.027,0.559,0.186,2.055,1.098,2.635c0.77,0.488,1.906,1.758,1.895,2.928
			c-0.012,1.293-0.355,16.271-0.357,16.457c0.006,0.09,0.059,0.895,0.227,1.303c0.082,0.197,0.125,0.771,0.133,1.146
			C532.984,87.82,533.008,88.213,532.625,88.625z"/>
		<path fill="#FFFFFF" d="M530.857,71.492c-0.012-1.035-0.859-1.875-1.896-1.875c-1.039,0-1.885,0.84-1.896,1.875
			c-0.465,0.043-0.912,0.102-1.34,0.176l-0.334,0.059l0.008,0.34c0.039,1.873,0.094,4.293,0.145,6.555l0.008,0.387h6.818
			l0.008-0.387c0.053-2.262,0.105-4.682,0.146-6.555l0.006-0.34l-0.334-0.059C531.77,71.594,531.322,71.535,530.857,71.492z
			 M531.596,78.217h-5.271c-0.043-2.012-0.09-4.113-0.127-5.824c0.424-0.064,0.871-0.111,1.332-0.145l0.463-0.031l-0.105-0.453
			c-0.021-0.092-0.031-0.172-0.031-0.248c0-0.611,0.494-1.105,1.105-1.105c0.609,0,1.104,0.494,1.104,1.105
			c0,0.074-0.01,0.156-0.031,0.248l-0.104,0.453l0.461,0.031c0.461,0.033,0.908,0.08,1.332,0.145
			C531.688,74.104,531.641,76.205,531.596,78.217z"/>
		<path fill="#FFFFFF" d="M528.979,82.154c-1.117,0-2.1-0.035-2.92-0.107l-0.439-0.039l0.068,2.996l0.33,0.049
			c0.84,0.123,1.836,0.186,2.961,0.186c1.113,0,2.098-0.061,2.924-0.184l0.332-0.047l0.066-2.996l-0.439,0.037
			C531.051,82.119,530.08,82.154,528.979,82.154z M531.457,84.316c-0.717,0.086-1.549,0.131-2.479,0.131
			c-0.939,0-1.783-0.045-2.516-0.135l-0.033-1.443c0.746,0.051,1.602,0.076,2.549,0.076c0.932,0,1.775-0.025,2.512-0.074
			L531.457,84.316z"/>
		<rect x="539.301" y="73.902" fill="#FFFFFF" width="5" height="11"/>
		<g>
			<g>
				<path fill="#FFFFFF" d="M527.889,94.99c-3.656-5.605-9.092-8.516-9.146-8.543c-2.047-1.062-2.85-3.6-1.785-5.652
					c0.725-1.396,2.152-2.264,3.725-2.264c0.668,0,1.336,0.162,1.932,0.471c0.484,0.252,4.344,2.324,8.291,6.404
					c3.393-5.418,8.602-13.129,12.834-16.756c0.76-0.65,1.729-1.01,2.729-1.01c1.227,0,2.389,0.535,3.188,1.465
					c0.729,0.852,1.084,1.936,0.996,3.053c-0.086,1.117-0.602,2.133-1.453,2.863c-4.535,3.887-11.758,15.586-14.158,19.766
					l-3.408,5.939L527.889,94.99z"/>
				<path d="M546.467,69.547c0.645,0,1.287,0.271,1.74,0.801c0.82,0.959,0.711,2.402-0.25,3.225
					c-5.719,4.902-14.484,20.111-14.572,20.266l-1.859,3.238l-2.039-3.129c-3.973-6.09-9.801-9.16-9.859-9.191
					c-1.121-0.58-1.559-1.963-0.979-3.084c0.408-0.785,1.207-1.234,2.033-1.234c0.355,0,0.715,0.082,1.053,0.258
					c0.242,0.125,5.15,2.711,9.457,7.879c2.977-4.896,9.092-14.451,13.789-18.477C545.412,69.729,545.941,69.547,546.467,69.547
					 M546.467,65.734L546.467,65.734c-1.455,0-2.865,0.521-3.971,1.471c-2.309,1.979-6.17,6.203-11.949,15.199
					c-3.512-3.201-6.611-4.863-7.055-5.094c-0.867-0.449-1.838-0.688-2.811-0.688c-2.287,0-4.363,1.262-5.416,3.291
					c-1.547,2.982-0.385,6.664,2.588,8.219c0.164,0.09,5.115,2.805,8.438,7.898l2.041,3.129l3.4,5.217l3.102-5.4l1.859-3.24
					c2.359-4.104,9.428-15.566,13.746-19.268c1.236-1.061,1.988-2.539,2.113-4.164s-0.391-3.203-1.451-4.439
					C549.941,66.512,548.252,65.734,546.467,65.734L546.467,65.734z"/>
			</g>
		</g>
		<g>
			<path fill="#FFFFFF" d="M528.418,105.473c-16.543,0-30-13.457-30-30c0-16.541,13.457-30,30-30s30,13.459,30,30
				C558.418,92.016,544.961,105.473,528.418,105.473z M528.418,49.668c-14.229,0-25.805,11.576-25.805,25.805
				s11.576,25.807,25.805,25.807s25.805-11.578,25.805-25.807S542.646,49.668,528.418,49.668z"/>
		</g>
	</g>
	<g opacity="0.5">
		<g>
			<path fill="#FFFFFF" d="M750.293,105.473c-16.543,0-30-13.458-30-30c0-16.541,13.457-30,30-30s30,13.459,30,30
				C780.293,92.015,766.836,105.473,750.293,105.473z M750.293,49.668c-14.229,0-25.805,11.576-25.805,25.805
				s11.576,25.806,25.805,25.806s25.805-11.577,25.805-25.806S764.521,49.668,750.293,49.668z"/>
		</g>
		<polygon fill="#FFFFFF" points="744.869,60.623 760.875,75.473 744.869,90.322 		"/>
	</g>
	<g>
		<g>
			<path fill="#FFFFFF" d="M639.543,125.473c-27.571,0-50-22.43-50-50c0-27.568,22.429-50,50-50s50,22.432,50,50
				C689.543,103.043,667.114,125.473,639.543,125.473z M639.543,32.465c-23.714,0-43.008,19.293-43.008,43.008
				s19.294,43.01,43.008,43.01s43.008-19.295,43.008-43.01S663.257,32.465,639.543,32.465z"/>
		</g>
		<g>
			<circle fill="none" stroke="#FFFFFF" stroke-width="2" stroke-miterlimit="10" cx="644.971" cy="68.128" r="13.32"/>
			<line fill="none" stroke="#FFFFFF" stroke-width="2" stroke-miterlimit="10" x1="620.796" y1="96.137" x2="633.947" y2="80.9"/>
		</g>
	</g>
</g>
<g id="Layer_4">
</g>
</svg>
