<?xml version="1.0" encoding="utf-8"?>
<!-- Generator: Adobe Illustrator 16.0.0, SVG Export Plug-In . SVG Version: 6.00 Build 0)  -->
<!DOCTYPE svg PUBLIC "-//W3C//DTD SVG 1.1//EN" "http://www.w3.org/Graphics/SVG/1.1/DTD/svg11.dtd">
<svg version="1.1" xmlns="http://www.w3.org/2000/svg" xmlns:xlink="http://www.w3.org/1999/xlink" x="0px" y="0px" width="1280px"
	 height="800px" viewBox="0 0 1280 800" enable-background="new 0 0 1280 800" xml:space="preserve">
<g id="Background_Color">
	<rect x="-1.647" width="1280" height="800"/>
</g>
<g id="Layer_2">
	<g>
		<text transform="matrix(1 0 0 1 227.3008 212.8672)" fill="#FFFFFF" font-family="'Gibson-SemiBold'" font-size="20">Old Fashioned</text>
	</g>
	<g>
		<text transform="matrix(1 0 0 1 227.3008 252.8672)"><tspan x="0" y="0" fill="#FFFFFF" font-family="'Gibson-Regular'" font-size="18">Base Spirit: Bourbon | Substitutes: Tequila, Gin</tspan><tspan x="0" y="21.6" fill="#FFFFFF" font-family="'Gibson-Regular'" font-size="18">Flavor Profile: Spirit Forward, Sweet</tspan></text>
	</g>
	<rect x="227.301" y="224.905" fill="#FFFFFF" width="833" height="3"/>
	<polygon fill="none" stroke="#FFFFFF" stroke-miterlimit="10" points="1045.485,236.766 1049.738,245.384 1059.25,246.767 
		1052.367,253.475 1053.992,262.946 1045.485,258.475 1036.979,262.946 1038.604,253.475 1031.721,246.767 1041.232,245.384 	"/>
	<g>
		<text transform="matrix(1 0 0 1 227.1484 332.2217)" fill="#FFFFFF" font-family="'Gibson-SemiBold'" font-size="18">Add</text>
		<g>
			<g>
				<line fill="none" stroke="#FFFFFF" stroke-miterlimit="10" x1="300.08" y1="495.229" x2="300.08" y2="352.413"/>
				<circle fill="#FFFFFF" cx="300.081" cy="495.229" r="2.607"/>
				<g>
					<text transform="matrix(1 0 0 1 232.6455 360.7471)"><tspan x="0" y="0" fill="#FFFFFF" font-family="'Gibson-SemiBold'" font-size="9.8625">1/2 tsp Sugar</tspan><tspan x="-1.371" y="23.67" fill="#FFFFFF" font-family="'Gibson-SemiBold'" font-size="9.8625">1/2 tsp Water</tspan></text>
				</g>
				<g>
					<text transform="matrix(1 0 0 1 307.6865 360.7471)"><tspan x="0" y="0" fill="#FFFFFF" font-family="'Gibson-SemiBold'" font-size="9.8625">2 oz Bourbon</tspan><tspan x="0" y="23.67" fill="#FFFFFF" font-family="'Gibson-SemiBold'" font-size="9.8625">2 dashes </tspan><tspan x="0" y="35.505" fill="#FFFFFF" font-family="'Gibson-SemiBold'" font-size="9.8625">Angostura </tspan><tspan x="0" y="47.34" fill="#FFFFFF" font-family="'Gibson-SemiBold'" font-size="9.8625">Bitters</tspan></text>
				</g>
			</g>
			<path fill="#FFFFFF" d="M321.314,449.777c-6.399-1.481-20.996-1.607-21.633-1.611c-0.618,0.004-15.217,0.13-21.612,1.611
				c-6.428,1.487-9.483,3.693-9.337,6.751c0.104,2.147,2.255,50.321,2.255,50.321c0.002,0.199,0.176,4.772,6.149,6.873
				c5.6,1.978,12.979,2.936,22.555,2.936c9.577,0,16.951-0.958,22.553-2.936c5.974-2.101,6.143-6.674,6.146-6.842
				c0.022-0.485,2.153-48.229,2.253-50.353C330.792,453.471,327.735,451.265,321.314,449.777z M278.553,451.863
				c6.166-1.427,20.996-1.555,21.129-1.555c0.148,0,14.979,0.128,21.146,1.555c5.034,1.168,7.759,2.784,7.677,4.564
				c-0.007,0.157-0.026,0.58-0.057,1.215c-0.825,0.714-2.588,1.651-6.411,2.436c-7.469,1.522-15.954,1.51-21.539,1.515h-0.807
				h-0.808c-5.604,0.004-14.071,0.008-21.544-1.515c-3.814-0.784-5.581-1.722-6.411-2.436c-0.026-0.635-0.045-1.058-0.054-1.215
				C270.788,454.647,273.516,453.031,278.553,451.863z M326.251,506.806c0,0.034-0.125,3.282-4.716,4.897
				c-5.369,1.893-12.518,2.812-21.844,2.812c-9.332,0-16.475-0.919-21.845-2.812c-4.517-1.591-4.713-4.773-4.718-4.92
				c0,0-0.036-0.81-0.1-2.216c3.398,2.403,4.847,2.991,8.929,3.956c4.502,1.062,13.342,1.652,17.733,1.652
				c4.391,0,13.229-0.59,17.729-1.652c4.084-0.965,5.531-1.553,8.933-3.956C326.291,505.932,326.253,506.742,326.251,506.806z
				 M326.397,503.546c-3.671,2.637-5.013,3.217-9.161,4.194c-4.442,1.05-13.195,1.631-17.545,1.631
				c-4.354,0-13.104-0.581-17.546-1.631c-4.152-0.978-5.493-1.558-9.158-4.194c-0.427-9.429-1.645-36.743-2.011-44.881
				c1.115,0.74,2.996,1.537,6.205,2.197c7.549,1.544,16.079,1.532,21.702,1.532h0.808h0.807c0.288,0,0.584,0,0.887,0
				c5.619,0,13.65-0.07,20.815-1.532c3.211-0.655,5.089-1.457,6.203-2.197C328.039,466.797,326.818,494.086,326.397,503.546z"/>
			<line fill="none" stroke="#FFFFFF" stroke-miterlimit="10" x1="227.302" y1="315.573" x2="373.765" y2="315.573"/>
			<circle fill="#FFFFFF" cx="300.081" cy="560.742" r="5"/>
			<line fill="none" stroke="#FFFFFF" stroke-miterlimit="10" x1="227.302" y1="337.573" x2="373.765" y2="337.573"/>
		</g>
		<g>
			<g>
				<g>
					<g>
						<path fill="#FFFFFF" d="M482.417,479.823c0.503-5.479,0.408-8.676-0.282-9.503c-0.188-0.227-0.441-0.375-0.684-0.516
							c-0.123-0.072-0.33-0.191-0.366-0.232c-0.11-0.227-0.13-1.174-0.042-1.965c1.584-11.61,3.112-16.927,4.462-21.618
							c1.055-3.666,2.051-7.129,2.846-12.955c0.157-1.154,0.438-2.939,0.781-5.116c2.205-14.014,4.399-29.244,2.527-32.548
							c-1.587-2.801-3.974-3.149-5.893-3.429l-0.097-0.015l-0.082-0.011c-1.922-0.246-4.314-0.553-6.598,1.719
							c-2.691,2.678-4.673,17.938-6.318,32.029c-0.256,2.188-0.465,3.982-0.625,5.138c-0.799,5.825-0.773,9.427-0.742,13.242
							c0.037,4.881,0.08,10.414-1.515,22.001c-0.13,0.806-0.403,1.713-0.553,1.886c-0.065,0.046-0.296,0.106-0.434,0.141
							c-0.272,0.071-0.556,0.146-0.796,0.313c-0.889,0.611-1.841,3.664-2.829,9.076c-0.699,3.831-1.404,9.069-1.284,12.285
							c0.064,1.742,0.363,2.645,0.997,3.016c1.536,0.898,4.879,1.723,6.702,1.972c1.822,0.249,5.263,0.355,6.984-0.097
							c0.711-0.188,1.241-0.975,1.771-2.637C481.33,488.936,482.06,483.701,482.417,479.823z M470.332,469.111
							c0.034-0.031,0.062-0.075,0.094-0.111c1.355,0.438,3.046,0.816,4.653,1.039c1.527,0.207,3.179,0.29,4.569,0.247
							c0.018,0.035,0.031,0.077,0.05,0.109c0.06,0.099,0.129,0.188,0.205,0.267c-1.242,0.075-3.05,0.038-4.98-0.223
							c-1.931-0.268-3.682-0.72-4.86-1.126C470.157,469.258,470.249,469.191,470.332,469.111z M473.644,431.021
							c0.161-1.162,0.371-2.969,0.629-5.172c1.083-9.273,3.338-28.566,5.854-31.072c1.724-1.716,3.52-1.485,5.257-1.262l0.069,0.008
							l0.082,0.012c1.732,0.254,3.523,0.515,4.724,2.631c1.75,3.089-1.269,22.279-2.72,31.502c-0.345,2.191-0.627,3.986-0.785,5.149
							c-0.78,5.709-1.715,8.962-2.798,12.727c-1.364,4.744-2.91,10.12-4.513,21.864c-0.055,0.484-0.134,1.49,0.013,2.281
							c-1.319,0.027-2.862-0.055-4.294-0.25c-1.517-0.209-3.102-0.561-4.396-0.968c0.346-0.72,0.539-1.696,0.619-2.187
							c1.611-11.723,1.569-17.318,1.531-22.254C472.886,440.113,472.859,436.73,473.644,431.021z M478.104,493.094
							c-1.47,0.361-4.635,0.271-6.292,0.044c-1.873-0.257-4.825-1.047-6.05-1.735c-1.117-1.768,1.557-20.053,3.138-21.679
							c1.204,0.535,3.464,1.175,5.913,1.515c2.438,0.329,4.772,0.322,6.081,0.135C481.965,473.631,479.646,491.701,478.104,493.094z
							"/>
					</g>
					<g>
						
							<line fill="none" stroke="#FFFFFF" stroke-width="1.5" stroke-linecap="round" stroke-miterlimit="10" x1="467.014" y1="435.522" x2="470.744" y2="401.478"/>
						<polygon fill="#FFFFFF" points="466.479,440.395 465.423,435.348 468.604,435.695 						"/>
					</g>
				</g>
				<path fill="#FFFFFF" d="M471.305,448.172c-0.31-0.004-0.505-0.005-0.566-0.006c-0.618,0.004-15.217,0.13-21.612,1.611
					c-6.428,1.487-9.483,3.693-9.337,6.751c0.104,2.147,2.255,50.321,2.255,50.321c0.002,0.199,0.176,4.772,6.149,6.873
					c5.6,1.978,12.979,2.936,22.555,2.936c9.577,0,16.951-0.958,22.553-2.936c5.974-2.101,6.143-6.674,6.146-6.842
					c0.022-0.485,2.153-48.229,2.253-50.353c0.148-3.058-2.908-5.264-9.329-6.751c-2.354-0.544-5.816-0.905-9.286-1.146
					l-0.562,2.112c3.519,0.231,7.05,0.584,9.362,1.119c5.034,1.168,7.759,2.784,7.677,4.564c-0.007,0.157-0.026,0.58-0.057,1.215
					c-0.825,0.714-2.588,1.651-6.411,2.436c-7.469,1.522-15.954,1.51-21.539,1.515h-0.807h-0.808
					c-5.604,0.004-14.071,0.008-21.544-1.515c-3.814-0.784-5.581-1.722-6.411-2.436c-0.026-0.635-0.045-1.058-0.054-1.215
					c-0.087-1.78,2.641-3.396,7.678-4.564c6.166-1.427,20.996-1.555,21.129-1.555c0.016,0,0.198,0.001,0.519,0.005L471.305,448.172z
					 M497.308,506.806c0,0.034-0.125,3.282-4.716,4.897c-5.369,1.893-12.518,2.812-21.844,2.812c-9.332,0-16.475-0.919-21.845-2.812
					c-4.517-1.591-4.713-4.773-4.718-4.92c0,0-0.036-0.81-0.1-2.216c3.398,2.403,4.847,2.991,8.929,3.956
					c4.502,1.062,13.342,1.652,17.733,1.652c4.391,0,13.229-0.59,17.729-1.652c4.084-0.965,5.531-1.553,8.933-3.956
					C497.348,505.932,497.31,506.742,497.308,506.806z M497.454,503.546c-3.671,2.637-5.013,3.217-9.161,4.194
					c-4.442,1.05-13.195,1.631-17.545,1.631c-4.354,0-13.104-0.581-17.546-1.631c-4.152-0.978-5.493-1.558-9.158-4.194
					c-0.427-9.429-1.645-36.743-2.011-44.881c1.115,0.74,2.996,1.537,6.205,2.197c7.549,1.544,16.079,1.532,21.702,1.532h0.808
					h0.807c0.288,0,0.584,0,0.887,0c5.619,0,13.65-0.07,20.815-1.532c3.211-0.655,5.089-1.457,6.203-2.197
					C499.096,466.797,497.875,494.086,497.454,503.546z"/>
			</g>
			<text transform="matrix(1 0 0 1 397.3262 332.2217)" fill="#FFFFFF" font-family="'Gibson-SemiBold'" font-size="18">Muddle</text>
			<line fill="none" stroke="#FFFFFF" stroke-miterlimit="10" x1="398.046" y1="315.573" x2="544.51" y2="315.573"/>
			<circle fill="#FFFFFF" cx="471.277" cy="560.742" r="5"/>
			<line fill="none" stroke="#FFFFFF" stroke-miterlimit="10" x1="398.046" y1="337.573" x2="544.51" y2="337.573"/>
		</g>
		<g>
			<g>
				<g>
					<g>
						<g>
							<g>
								<path fill="#FFFFFF" d="M661.52,401.685c2.404-10.113,4.33-18.212,5.119-21.537l3.469,0.845l-2.021,7.932
									c-0.904,3.536-1.973,7.737-3.15,12.347c0.209-0.028,0.402-0.061,0.602-0.089c1.154-4.521,2.203-8.644,3.092-12.121
									l2.16-8.477l-4.566-1.111l-0.064,0.273c-0.75,3.156-2.736,11.512-5.232,22.002
									C661.131,401.728,661.318,401.705,661.52,401.685z"/>
							</g>
							<g>
								<path fill="#FFFFFF" d="M648.627,479.494c-0.814-1.846-1.926-4.371-1.664-5.443c0.094-0.382,10.453-41.014,17.678-69.354
									c-0.201,0.027-0.395,0.057-0.598,0.079c-7.223,28.33-17.529,68.76-17.623,69.144c-0.311,1.254,0.756,3.668,1.695,5.798
									c0.248,0.566,0.484,1.099,0.666,1.553c1.762,4.373,2.221,8.586,1.336,12.189c-0.646,2.612-2.141,5.614-3.902,7.833
									c-1.531,1.929-4.004,4.23-7.088,4.23l0,0c-0.498,0-0.998-0.062-1.492-0.181c-3.451-0.842-4.926-4.119-5.555-6.721
									c-0.855-3.54-0.555-7.257,0.008-9.552c0.889-3.604,3.258-7.131,6.846-10.197c0.371-0.318,0.826-0.681,1.311-1.068
									c1.828-1.457,3.895-3.108,4.207-4.365c0.094-0.377,9.602-40.362,16.25-68.311c-0.199,0.018-0.393,0.037-0.592,0.055
									c-6.645,27.939-16.113,67.748-16.203,68.121c-0.266,1.075-2.432,2.803-4.014,4.066c-0.49,0.392-0.949,0.758-1.324,1.079
									c-3.68,3.144-6.109,6.771-7.021,10.486c-0.582,2.36-0.891,6.177-0.012,9.814c0.664,2.753,2.238,6.224,5.967,7.131
									c0.537,0.132,1.084,0.198,1.625,0.198l0,0c5.768,0,10.291-7.452,11.533-12.489c0.914-3.714,0.445-8.046-1.357-12.525
									C649.117,480.605,648.881,480.068,648.627,479.494z"/>
							</g>
						</g>
						<g>
							<path fill="#FFFFFF" d="M676.211,399.289c-0.225-0.211-0.58-0.197-0.789,0.028c-1.881,2.015-12.387,4.101-26.725,4.101
								c-16.855,0-26.176-2.721-26.176-4.602c0-0.773,1.814-1.979,6.779-2.997l0.152,0.996l4.482-2.366l-4.947-0.686l0.145,0.952
								c-5.127,1.042-7.734,2.417-7.734,4.101c0,3.752,13.732,5.716,27.299,5.716c13.555,0,25.139-1.874,27.547-4.458
								C676.455,399.85,676.439,399.496,676.211,399.289z"/>
						</g>
					</g>
					<g>
						<g>
							<g>
								<path fill="#FFFFFF" d="M617.526,481.871c-0.497,0.029-0.934-0.316-1.016-0.804l-1.967-11.517
									c-0.041-0.255,0.017-0.51,0.166-0.722c0.151-0.21,0.372-0.349,0.627-0.392l11.678-1.963c0.033-0.004,0.065-0.01,0.1-0.012
									c0.496-0.031,0.932,0.315,1.015,0.804l1.967,11.519c0.041,0.252-0.017,0.507-0.165,0.719
									c-0.149,0.212-0.374,0.352-0.625,0.394l-11.68,1.963C617.593,481.864,617.56,481.867,617.526,481.871z M627.117,466.511
									c-0.031,0.001-0.063,0.006-0.096,0.011l-11.678,1.963c-0.239,0.041-0.452,0.172-0.596,0.373
									c-0.141,0.2-0.198,0.443-0.156,0.684l1.964,11.52c0.08,0.465,0.496,0.794,0.967,0.765c0.028-0.002,0.064-0.007,0.096-0.013
									l11.678-1.962c0.241-0.039,0.454-0.174,0.596-0.374c0.141-0.201,0.199-0.443,0.157-0.686l-1.966-11.515
									C628.003,466.811,627.589,466.482,627.117,466.511z"/>
							</g>
						</g>
						<g>
							<g>
								<path fill="#FFFFFF" d="M627.72,466.644c-0.006,0-0.013-0.001-0.014-0.006c-0.014-0.007-0.014-0.023-0.006-0.031
									l1.706-2.179c0.006-0.009,0.02-0.013,0.033-0.004c0.009,0.008,0.012,0.022,0.004,0.031l-1.706,2.18
									C627.732,466.641,627.728,466.643,627.72,466.644z"/>
							</g>
						</g>
						<g>
							<g>
								<path fill="#FFFFFF" d="M629.896,479.564c-0.006,0-0.007-0.002-0.012-0.005c-0.011-0.006-0.015-0.021-0.011-0.032
									l1.368-2.358c0.26-0.444,0.398-1.22,0.313-1.728l-1.765-10.344c-0.082-0.467-0.504-0.792-0.967-0.764
									c-0.032,0.002-0.063,0.005-0.096,0.01l-10.492,1.763c-0.507,0.084-1.248,0.423-1.644,0.751l-1.719,1.855
									c-0.011,0.008-0.027,0.007-0.034-0.002c-0.008-0.01-0.008-0.025,0.002-0.033l1.719-1.857
									c0.405-0.332,1.154-0.674,1.668-0.76l10.493-1.763c0.034-0.007,0.065-0.011,0.099-0.013
									c0.487-0.031,0.933,0.312,1.016,0.805l1.767,10.343c0.087,0.518-0.054,1.308-0.319,1.76l-1.366,2.358
									C629.909,479.559,629.904,479.564,629.896,479.564z"/>
							</g>
						</g>
					</g>
					<g>
						<g>
							<g>
								<path fill="#FFFFFF" d="M634.61,507.284c-0.051,0.003-0.102,0.004-0.151,0l-11.789-1.105
									c-0.255-0.024-0.488-0.147-0.651-0.347c-0.165-0.201-0.241-0.449-0.217-0.707l1.132-11.63
									c0.05-0.468,0.438-0.845,0.907-0.874c0.05-0.003,0.103-0.001,0.148,0.002l11.791,1.105c0.258,0.023,0.486,0.147,0.651,0.348
									c0.166,0.198,0.242,0.449,0.218,0.705l-1.135,11.631C635.469,506.881,635.08,507.256,634.61,507.284z M623.844,492.669
									c-0.446,0.026-0.817,0.385-0.86,0.831l-1.134,11.631c-0.024,0.242,0.047,0.48,0.206,0.67
									c0.154,0.191,0.375,0.309,0.619,0.33l11.789,1.104c0.045,0.006,0.097,0.006,0.143,0.005
									c0.448-0.028,0.817-0.387,0.861-0.832l1.134-11.631c0.023-0.243-0.05-0.482-0.205-0.671c-0.157-0.189-0.375-0.308-0.62-0.33
									l-11.788-1.104C623.939,492.666,623.893,492.666,623.844,492.669z"/>
							</g>
						</g>
						<g>
							<g>
								<path fill="#FFFFFF" d="M636.51,494.245c-0.01,0.001-0.018-0.002-0.021-0.009c-0.007-0.011-0.004-0.025,0.005-0.034
									l2.221-1.667c0.01-0.006,0.024-0.004,0.031,0.008c0.007,0.01,0.007,0.025-0.003,0.031l-2.221,1.666
									C636.518,494.244,636.513,494.244,636.51,494.245z"/>
							</g>
						</g>
						<g>
							<g>
								<path fill="#FFFFFF" d="M635.173,507.084c-0.006,0-0.014-0.002-0.02-0.008c-0.01-0.01-0.007-0.023,0.001-0.032l1.897-1.896
									c0.363-0.365,0.699-1.078,0.751-1.591l1.017-10.446c0.024-0.243-0.047-0.481-0.204-0.673
									c-0.158-0.188-0.377-0.307-0.619-0.328l-10.592-0.993c-0.515-0.048-1.293,0.124-1.735,0.389l-1.986,1.172
									c-0.008,0.006-0.025,0.003-0.031-0.008c-0.007-0.013-0.003-0.025,0.009-0.032l1.984-1.173
									c0.452-0.266,1.243-0.443,1.767-0.394L638,492.062c0.256,0.024,0.487,0.148,0.65,0.348c0.165,0.199,0.241,0.448,0.217,0.705
									l-1.018,10.445c-0.052,0.524-0.395,1.248-0.765,1.62l-1.897,1.896C635.186,507.081,635.179,507.084,635.173,507.084z"/>
							</g>
						</g>
					</g>
					<g>
						<g>
							<g>
								<path fill="#FFFFFF" d="M633.373,491.676c-0.011,0-0.021-0.004-0.023-0.014c-0.007-0.012,0-0.024,0.01-0.03l3.526-1.559
									c0.226-0.1,0.396-0.28,0.484-0.507c0.089-0.23,0.078-0.479-0.021-0.701l-3.906-8.656c-0.208-0.461-0.757-0.67-1.221-0.467
									l-8.776,3.881c-0.224,0.1-0.394,0.279-0.48,0.51c-0.088,0.228-0.081,0.477,0.021,0.699l2.958,6.486
									c0.006,0.013,0,0.025-0.012,0.029c-0.012,0.006-0.027,0.002-0.031-0.011l-2.958-6.485c-0.107-0.234-0.117-0.497-0.023-0.736
									c0.091-0.24,0.271-0.43,0.507-0.534l8.778-3.882c0.485-0.215,1.059,0.005,1.28,0.492l3.905,8.653
									c0.106,0.233,0.114,0.495,0.022,0.737c-0.092,0.24-0.273,0.432-0.507,0.534l-3.527,1.56
									C633.376,491.676,633.373,491.676,633.373,491.676z"/>
							</g>
						</g>
						<g>
							<g>
								<path fill="#FFFFFF" d="M632.961,479.725c-0.006,0-0.008,0-0.013-0.001c-0.012-0.005-0.015-0.018-0.008-0.031l0.921-2.117
									c0.004-0.014,0.02-0.018,0.029-0.015c0.013,0.006,0.018,0.021,0.011,0.033l-0.919,2.117
									C632.979,479.719,632.969,479.725,632.961,479.725z"/>
							</g>
						</g>
						<g>
							<g>
								<path fill="#FFFFFF" d="M637.391,489.762c0,0-0.005-0.002-0.007-0.002c-0.013-0.003-0.02-0.017-0.016-0.029l0.617-2.146
									c0.144-0.493,0.088-1.277-0.124-1.747l-3.497-7.746c-0.098-0.224-0.281-0.392-0.512-0.479
									c-0.229-0.089-0.479-0.078-0.701,0.025l-2.898,1.324c-0.012,0.001-0.024-0.001-0.03-0.014
									c-0.007-0.01-0.002-0.025,0.01-0.029l2.9-1.324c0.231-0.111,0.495-0.119,0.738-0.027c0.241,0.091,0.433,0.271,0.536,0.504
									l3.496,7.746c0.219,0.479,0.273,1.276,0.129,1.78l-0.619,2.145C637.41,489.754,637.401,489.762,637.391,489.762z"/>
							</g>
						</g>
						<g>
							<g>
								<path fill="#FFFFFF" d="M622.942,484.155c-0.004,0.001-0.01,0-0.012-0.002c-0.011-0.008-0.016-0.021-0.01-0.032l1.021-1.85
									c0.252-0.457,0.85-1.004,1.328-1.217l1.873-0.828c0.014-0.004,0.025,0.001,0.033,0.012c0.004,0.012-0.002,0.027-0.015,0.032
									l-1.871,0.827c-0.472,0.21-1.06,0.747-1.308,1.198l-1.021,1.846C622.958,484.152,622.95,484.156,622.942,484.155z"/>
							</g>
						</g>
					</g>
					<g>
						<g>
							<g>
								<path fill="#FFFFFF" d="M649.242,482.998c-0.057,0-0.113-0.006-0.17-0.013l-10.1-1.604c-0.285-0.047-0.539-0.2-0.711-0.437
									c-0.17-0.237-0.238-0.527-0.191-0.812l1.617-9.957c0.086-0.523,0.553-0.919,1.084-0.919c0.057,0,0.115,0.003,0.17,0.013
									l10.098,1.602c0.287,0.047,0.541,0.202,0.713,0.439c0.17,0.236,0.238,0.526,0.191,0.811l-1.615,9.956
									C650.242,482.603,649.775,482.998,649.242,482.998z M640.771,469.311c-0.506,0-0.949,0.376-1.029,0.875l-1.619,9.954
									c-0.045,0.274,0.021,0.548,0.184,0.772c0.162,0.227,0.402,0.374,0.676,0.419l10.098,1.601
									c0.055,0.01,0.109,0.014,0.162,0.014c0.506,0,0.951-0.377,1.029-0.877l1.619-9.954c0.045-0.273-0.02-0.546-0.182-0.771
									c-0.164-0.228-0.404-0.373-0.678-0.418l-10.098-1.604C640.881,469.315,640.826,469.311,640.771,469.311z"/>
							</g>
						</g>
						<g>
							<g>
								<path fill="#FFFFFF" d="M640.146,469.5c-0.012,0-0.016-0.004-0.023-0.011l-2-2.694c-0.01-0.011-0.008-0.028,0.004-0.037
									c0.014-0.008,0.027-0.007,0.037,0.007l2.002,2.691c0.008,0.014,0.008,0.03-0.006,0.038
									C640.156,469.499,640.15,469.5,640.146,469.5z"/>
							</g>
						</g>
						<g>
							<g>
								<path fill="#FFFFFF" d="M638.396,481.081c-0.006,0-0.016-0.001-0.02-0.01l-1.736-2.152
									c-0.373-0.463-0.598-1.316-0.504-1.904l1.549-9.53c0.09-0.536,0.555-0.92,1.084-0.92c0.057,0,0.115,0.005,0.172,0.012
									l9.67,1.536c0.586,0.092,1.338,0.566,1.678,1.055l1.557,2.249c0.006,0.012,0.004,0.027-0.008,0.036
									c-0.014,0.008-0.029,0.004-0.037-0.007l-1.557-2.248c-0.332-0.479-1.068-0.942-1.643-1.032l-9.668-1.535
									c-0.566-0.092-1.104,0.299-1.195,0.863l-1.549,9.53c-0.092,0.574,0.127,1.409,0.492,1.862l1.736,2.152
									c0.01,0.012,0.006,0.029-0.004,0.036C638.41,481.08,638.404,481.081,638.396,481.081z"/>
							</g>
						</g>
					</g>
					<g>
						<g>
							<g>
								<path fill="#FFFFFF" d="M666.201,486.437c-0.052,0.011-0.104,0.015-0.156,0.02l-9.438,0.364
									c-0.267,0.01-0.524-0.083-0.724-0.267c-0.196-0.184-0.311-0.436-0.319-0.701l-0.327-9.311
									c-0.016-0.49,0.336-0.934,0.816-1.028c0.051-0.011,0.105-0.019,0.156-0.019l9.437-0.367c0.269-0.009,0.526,0.085,0.726,0.27
									c0.197,0.184,0.311,0.434,0.319,0.7l0.328,9.31C667.035,485.898,666.684,486.341,666.201,486.437z M656.062,475.562
									c-0.458,0.09-0.792,0.512-0.775,0.979l0.326,9.309c0.008,0.257,0.118,0.492,0.306,0.668
									c0.187,0.175,0.432,0.266,0.687,0.257l9.436-0.368c0.051,0,0.102-0.006,0.15-0.016c0.457-0.092,0.793-0.514,0.774-0.981
									l-0.325-9.309c-0.008-0.256-0.116-0.491-0.303-0.666c-0.19-0.177-0.434-0.266-0.689-0.257l-9.438,0.365
									C656.162,475.546,656.111,475.552,656.062,475.562z"/>
							</g>
						</g>
						<g>
							<g>
								<path fill="#FFFFFF" d="M655.531,475.845c-0.012,0.003-0.016,0-0.024-0.004l-2.296-2.082
									c-0.012-0.008-0.014-0.023-0.004-0.033c0.012-0.011,0.024-0.012,0.035-0.002l2.298,2.079
									c0.009,0.011,0.013,0.026,0.002,0.035C655.539,475.842,655.535,475.845,655.531,475.845z"/>
							</g>
						</g>
						<g>
							<g>
								<path fill="#FFFFFF" d="M656.029,486.652c-0.004,0.001-0.014,0.003-0.019-0.005l-1.962-1.638
									c-0.42-0.352-0.777-1.085-0.799-1.636l-0.312-8.911c-0.014-0.502,0.337-0.934,0.817-1.029c0.05-0.01,0.104-0.017,0.157-0.02
									l9.037-0.35c0.548-0.021,1.314,0.272,1.71,0.653l1.814,1.757c0.009,0.01,0.009,0.024,0,0.034
									c-0.012,0.01-0.025,0.01-0.035,0l-1.815-1.756c-0.387-0.373-1.136-0.661-1.674-0.639l-9.035,0.35
									c-0.529,0.019-0.945,0.469-0.926,0.997l0.312,8.913c0.02,0.536,0.368,1.254,0.78,1.598l1.961,1.638
									c0.01,0.01,0.011,0.025,0.003,0.033C656.041,486.649,656.037,486.651,656.029,486.652z"/>
							</g>
						</g>
					</g>
					<g>
						<g>
							<g>
								<path fill="#FFFFFF" d="M647.11,503.936c-0.496,0-0.92-0.386-0.967-0.879l-1.012-10.869
									c-0.021-0.255,0.057-0.505,0.221-0.703c0.166-0.198,0.396-0.321,0.654-0.346l11.021-0.998
									c0.027-0.004,0.057-0.006,0.088-0.006c0.494,0,0.918,0.386,0.963,0.879l1.012,10.869c0.023,0.256-0.055,0.506-0.221,0.703
									c-0.164,0.2-0.396,0.322-0.652,0.346l-11.021,1C647.167,503.935,647.138,503.936,647.11,503.936z M657.116,490.183
									c-0.029,0-0.057,0.001-0.086,0.003l-11.02,1.002c-0.244,0.021-0.463,0.138-0.621,0.326
									c-0.158,0.189-0.232,0.428-0.209,0.671l1.01,10.868c0.045,0.467,0.447,0.835,0.92,0.835c0.025,0,0.055-0.001,0.082-0.003
									l11.02-1.002c0.246-0.02,0.467-0.137,0.621-0.326c0.158-0.189,0.232-0.428,0.209-0.671l-1.008-10.868
									C657.989,490.551,657.585,490.183,657.116,490.183z"/>
							</g>
						</g>
						<g>
							<g>
								<path fill="#FFFFFF" d="M645.407,491.49c-0.006,0-0.012-0.002-0.018-0.004l-2.738-2.22c-0.01-0.008-0.012-0.022-0.004-0.033
									s0.023-0.011,0.033-0.005l2.74,2.221c0.012,0.009,0.014,0.023,0.004,0.032C645.421,491.488,645.413,491.49,645.407,491.49z"
									/>
							</g>
						</g>
						<g>
							<g>
								<path fill="#FFFFFF" d="M646.622,503.791c-0.006,0-0.012-0.003-0.016-0.006l-2.404-1.862
									c-0.414-0.322-0.793-1.009-0.84-1.532l-0.969-10.421c-0.025-0.255,0.053-0.506,0.219-0.706
									c0.166-0.197,0.398-0.32,0.654-0.344l10.566-0.959c0.521-0.05,1.277,0.189,1.678,0.527l2.33,1.969
									c0.01,0.008,0.012,0.022,0.004,0.033c-0.008,0.01-0.023,0.012-0.033,0.003l-2.332-1.967
									c-0.359-0.304-1.006-0.524-1.504-0.524c-0.047,0-0.094,0.002-0.137,0.007l-10.568,0.959
									c-0.244,0.021-0.465,0.139-0.621,0.327c-0.158,0.188-0.232,0.428-0.209,0.67l0.969,10.422
									c0.047,0.512,0.416,1.186,0.822,1.499l2.406,1.862c0.008,0.007,0.01,0.021,0.002,0.033
									C646.636,503.786,646.628,503.791,646.622,503.791z"/>
							</g>
						</g>
					</g>
					<path fill="none" stroke="#FFFFFF" stroke-width="0.75" stroke-miterlimit="10" d="M669.304,477.305
						c0,4.245-12.684,7.669-28.331,7.669c-15.646,0-28.33-3.424-28.33-7.669c0-4.228,12.684-7.657,28.33-7.657
						C656.62,469.647,669.304,473.077,669.304,477.305z"/>
				</g>
				<path fill="#FFFFFF" d="M662.617,449.777c-6.398-1.481-20.996-1.607-21.633-1.611c-0.617,0.004-15.217,0.13-21.611,1.611
					c-6.428,1.487-9.484,3.693-9.338,6.751c0.105,2.147,2.256,50.321,2.256,50.321c0.002,0.199,0.176,4.772,6.148,6.873
					c5.6,1.978,12.98,2.936,22.555,2.936c9.578,0,16.951-0.958,22.553-2.936c5.975-2.101,6.143-6.674,6.146-6.842
					c0.023-0.485,2.154-48.229,2.254-50.353C672.096,453.471,669.039,451.265,662.617,449.777z M619.855,451.863
					c6.166-1.427,20.996-1.555,21.129-1.555c0.148,0,14.98,0.128,21.146,1.555c5.035,1.168,7.76,2.784,7.678,4.564
					c-0.008,0.157-0.027,0.58-0.057,1.215c-0.826,0.714-2.588,1.651-6.412,2.436c-7.469,1.522-15.953,1.51-21.539,1.515h-0.807
					h-0.807c-5.605,0.004-14.072,0.008-21.545-1.515c-3.814-0.784-5.58-1.722-6.41-2.436c-0.027-0.635-0.045-1.058-0.055-1.215
					C612.092,454.647,614.818,453.031,619.855,451.863z M667.555,506.806c0,0.034-0.125,3.282-4.717,4.897
					c-5.369,1.893-12.518,2.812-21.844,2.812c-9.332,0-16.475-0.919-21.844-2.812c-4.518-1.591-4.713-4.773-4.719-4.92
					c0,0-0.035-0.81-0.1-2.216c3.398,2.403,4.848,2.991,8.93,3.956c4.502,1.062,13.342,1.652,17.732,1.652s13.229-0.59,17.73-1.652
					c4.084-0.965,5.531-1.553,8.932-3.956C667.594,505.932,667.557,506.742,667.555,506.806z M667.701,503.546
					c-3.672,2.637-5.014,3.217-9.162,4.194c-4.441,1.05-13.195,1.631-17.545,1.631c-4.354,0-13.104-0.581-17.545-1.631
					c-4.152-0.978-5.494-1.558-9.158-4.194c-0.428-9.429-1.645-36.743-2.012-44.881c1.115,0.74,2.996,1.537,6.205,2.197
					c7.549,1.544,16.08,1.532,21.703,1.532h0.807h0.807c0.289,0,0.584,0,0.887,0c5.619,0,13.65-0.07,20.816-1.532
					c3.211-0.655,5.088-1.457,6.203-2.197C669.342,466.797,668.121,494.086,667.701,503.546z"/>
			</g>
			<text transform="matrix(1 0 0 1 567.918 332.2217)" fill="#FFFFFF" font-family="'Gibson-SemiBold'" font-size="18">Add Ice And Stir</text>
			<line fill="none" stroke="#FFFFFF" stroke-miterlimit="10" x1="568.07" y1="315.573" x2="714.535" y2="315.573"/>
			<circle fill="#FFFFFF" cx="641.1" cy="560.742" r="5"/>
			<line fill="none" stroke="#FFFFFF" stroke-miterlimit="10" x1="568.07" y1="337.573" x2="714.535" y2="337.573"/>
		</g>
		<g>
			<path fill="#FFFFFF" d="M833.208,449.777c-6.4-1.481-20.996-1.607-21.633-1.611c-0.619,0.004-15.217,0.13-21.613,1.611
				c-6.428,1.487-9.482,3.693-9.336,6.751c0.104,2.147,2.254,50.321,2.254,50.321c0.002,0.199,0.176,4.772,6.15,6.873
				c5.6,1.978,12.979,2.936,22.555,2.936s16.951-0.958,22.553-2.936c5.973-2.101,6.143-6.674,6.146-6.842
				c0.021-0.485,2.152-48.229,2.252-50.353C842.685,453.471,839.628,451.265,833.208,449.777z M790.446,451.863
				c6.166-1.427,20.996-1.555,21.129-1.555c0.148,0,14.979,0.128,21.146,1.555c5.033,1.168,7.758,2.784,7.676,4.564
				c-0.006,0.157-0.025,0.58-0.057,1.215c-0.824,0.714-2.588,1.651-6.41,2.436c-7.469,1.522-15.955,1.51-21.539,1.515h-0.807h-0.809
				c-5.604,0.004-14.07,0.008-21.543-1.515c-3.814-0.784-5.582-1.722-6.412-2.436c-0.025-0.635-0.045-1.058-0.053-1.215
				C782.681,454.647,785.409,453.031,790.446,451.863z M838.144,506.806c0,0.034-0.125,3.282-4.715,4.897
				c-5.369,1.893-12.518,2.812-21.844,2.812c-9.332,0-16.475-0.919-21.846-2.812c-4.516-1.591-4.713-4.773-4.717-4.92
				c0,0-0.037-0.81-0.1-2.216c3.398,2.403,4.846,2.991,8.928,3.956c4.502,1.062,13.342,1.652,17.734,1.652
				c4.391,0,13.229-0.59,17.729-1.652c4.084-0.965,5.531-1.553,8.934-3.956C838.185,505.932,838.146,506.742,838.144,506.806z
				 M838.29,503.546c-3.67,2.637-5.012,3.217-9.16,4.194c-4.443,1.05-13.195,1.631-17.545,1.631c-4.354,0-13.104-0.581-17.547-1.631
				c-4.152-0.978-5.492-1.558-9.158-4.194c-0.426-9.429-1.645-36.743-2.01-44.881c1.115,0.74,2.996,1.537,6.205,2.197
				c7.549,1.544,16.078,1.532,21.701,1.532h0.809h0.807c0.287,0,0.584,0,0.887,0c5.619,0,13.65-0.07,20.814-1.532
				c3.211-0.655,5.09-1.457,6.203-2.197C839.933,466.797,838.712,494.086,838.29,503.546z"/>
			<g>
				<line fill="none" stroke="#FFFFFF" stroke-miterlimit="10" x1="811.649" y1="495.231" x2="811.649" y2="352.413"/>
				<circle fill="#FFFFFF" cx="811.649" cy="495.231" r="2.607"/>
				<g>
					<text transform="matrix(1 0 0 1 744.6094 360.7471)" fill="#FFFFFF" font-family="'Gibson-SemiBold'" font-size="9.8625">Orange Twist</text>
				</g>
			</g>
			<text transform="matrix(1 0 0 1 738.4551 332.2217)" fill="#FFFFFF" font-family="'Gibson-SemiBold'" font-size="18">Garnish</text>
			<line fill="none" stroke="#FFFFFF" stroke-miterlimit="10" x1="738.455" y1="315.573" x2="884.919" y2="315.573"/>
			<line fill="none" stroke="#FFFFFF" stroke-miterlimit="10" x1="738.455" y1="337.573" x2="884.919" y2="337.573"/>
			<circle fill="#FFFFFF" cx="811.46" cy="560.742" r="5"/>
		</g>
	</g>
	<g>
		<g>
			<path fill="#FFFFFF" d="M536.26,319.071c3.998,0,7.25,3.252,7.25,7.25s-3.252,7.25-7.25,7.25s-7.25-3.252-7.25-7.25
				S532.262,319.071,536.26,319.071 M536.26,318.071c-4.557,0-8.25,3.693-8.25,8.25s3.693,8.25,8.25,8.25s8.25-3.693,8.25-8.25
				S540.816,318.071,536.26,318.071L536.26,318.071z"/>
		</g>
		<polygon fill="#FFFFFF" points="533.1,323.945 539.421,323.945 536.26,329.653 		"/>
	</g>
	<g>
		<g>
			
				<line fill="none" stroke="#FFFFFF" stroke-width="0.75" stroke-linecap="round" stroke-miterlimit="10" x1="1050.741" y1="195.967" x2="1060.301" y2="205.524"/>
			
				<line fill="none" stroke="#FFFFFF" stroke-width="0.75" stroke-linecap="round" stroke-miterlimit="10" x1="1050.741" y1="215.084" x2="1060.301" y2="205.524"/>
		</g>
		
			<line fill="none" stroke="#FFFFFF" stroke-width="0.75" stroke-miterlimit="10" x1="1030.116" y1="205.525" x2="1060.301" y2="205.524"/>
	</g>
</g>
<g id="Layer_3">
	<g>
		<g opacity="0.5">
			<g>
				<path fill="#FFFFFF" d="M441.168,104.378c-16.543,0-30-13.458-30-30s13.457-30,30-30s30,13.458,30,30
					S457.711,104.378,441.168,104.378z M441.168,48.573c-14.229,0-25.805,11.575-25.805,25.805s11.576,25.805,25.805,25.805
					s25.805-11.575,25.805-25.805S455.396,48.573,441.168,48.573z"/>
			</g>
			<g>
				<path fill="#FFFFFF" d="M434.783,84.272c-0.467,0-0.895-0.051-1.066-0.496l-6.604-16.871h-3.932c-0.633,0-1.146-0.868-1.146-1.5
					c0-0.631,0.514-1.5,1.146-1.5h4.717c0.473,0,0.896,0.41,1.066,0.852l6.568,17.075l17.449-2.32l2.912-9.606h-20.512
					c-0.631,0-1.143-0.368-1.143-1c0-0.633,0.512-1,1.143-1h22.07c0.363,0,0.705,0.391,0.922,0.684
					c0.215,0.293,0.279,0.781,0.17,1.129l-3.604,11.525c-0.135,0.432-0.512,0.77-0.961,0.822l-19.066,2.187
					C434.871,84.258,434.826,84.272,434.783,84.272z"/>
			</g>
			<g>
				<circle fill="#FFFFFF" cx="435.726" cy="87.963" r="2.177"/>
			</g>
			<g>
				<circle fill="#FFFFFF" cx="452.674" cy="87.963" r="2.178"/>
			</g>
		</g>
		<g opacity="0.5">
			<g>
				<path fill="#FFFFFF" d="M532.668,104.378c-16.543,0-30-13.458-30-30c0-16.543,13.457-30,30-30s30,13.457,30,30
					C562.668,90.92,549.211,104.378,532.668,104.378z M532.668,48.572c-14.229,0-25.805,11.577-25.805,25.806
					s11.576,25.805,25.805,25.805s25.805-11.576,25.805-25.805S546.896,48.572,532.668,48.572z"/>
			</g>
			<g>
				<g>
					
						<line fill="none" stroke="#FFFFFF" stroke-width="2" stroke-linecap="round" stroke-miterlimit="10" x1="525.105" y1="61.71" x2="547.105" y2="61.71"/>
					<path fill="#FFFFFF" d="M522.23,61.71c0,1.105-0.898,2-2,2c-1.109,0-2-0.895-2-2s0.891-2,2-2
						C521.332,59.71,522.23,60.604,522.23,61.71z"/>
				</g>
				<g>
					
						<line fill="none" stroke="#FFFFFF" stroke-width="2" stroke-linecap="round" stroke-miterlimit="10" x1="525.105" y1="69.503" x2="547.105" y2="69.503"/>
					<path fill="#FFFFFF" d="M522.23,69.503c0,1.105-0.898,2-2,2c-1.109,0-2-0.895-2-2s0.891-2,2-2
						C521.332,67.503,522.23,68.397,522.23,69.503z"/>
				</g>
				<g>
					
						<line fill="none" stroke="#FFFFFF" stroke-width="2" stroke-linecap="round" stroke-miterlimit="10" x1="525.105" y1="77.294" x2="547.105" y2="77.294"/>
					<path fill="#FFFFFF" d="M522.23,77.294c0,1.105-0.898,2-2,2c-1.109,0-2-0.895-2-2s0.891-2,2-2
						C521.332,75.294,522.23,76.188,522.23,77.294z"/>
				</g>
				<g>
					
						<line fill="none" stroke="#FFFFFF" stroke-width="2" stroke-linecap="round" stroke-miterlimit="10" x1="525.105" y1="85.086" x2="547.105" y2="85.086"/>
					<path fill="#FFFFFF" d="M522.23,85.086c0,1.105-0.898,2-2,2c-1.109,0-2-0.895-2-2s0.891-2,2-2
						C521.332,83.086,522.23,83.98,522.23,85.086z"/>
				</g>
			</g>
		</g>
		<g opacity="0.5">
			<g>
				<path fill="#FFFFFF" d="M845.293,104.378c-16.543,0-30-13.458-30-30c0-16.541,13.457-30,30-30s30,13.459,30,30
					C875.293,90.92,861.836,104.378,845.293,104.378z M845.293,48.573c-14.229,0-25.805,11.576-25.805,25.805
					s11.576,25.806,25.805,25.806s25.805-11.577,25.805-25.806S859.521,48.573,845.293,48.573z"/>
			</g>
			<polygon fill="#FFFFFF" points="839.869,59.528 855.875,74.378 839.869,89.228 			"/>
		</g>
		<g>
			<g>
				<path fill="#FFFFFF" d="M643.543,124.283c-27.571,0-50-22.43-50-50c0-27.568,22.429-50,50-50s50,22.432,50,50
					C693.543,101.854,671.114,124.283,643.543,124.283z M643.543,31.275c-23.714,0-43.008,19.294-43.008,43.008
					s19.294,43.01,43.008,43.01s43.008-19.296,43.008-43.01S667.257,31.275,643.543,31.275z"/>
			</g>
			<g>
				<circle fill="none" stroke="#FFFFFF" stroke-width="3" stroke-miterlimit="10" cx="648.971" cy="66.939" r="13.32"/>
				
					<line fill="none" stroke="#FFFFFF" stroke-width="3" stroke-miterlimit="10" x1="624.796" y1="94.947" x2="637.947" y2="79.711"/>
			</g>
		</g>
		<g opacity="0.5">
			<g>
				<path fill="#FFFFFF" d="M746.832,86.896c-0.025-0.381-0.055-0.811-0.055-1.354V68.413c0-0.238-0.178-0.6-0.674-1.301h0.014
					l-0.484-0.643c-0.184-0.246-0.371-0.486-0.545-0.709c-0.018-0.023-0.035-0.047-0.053-0.07c-0.014-0.016-0.029-0.033-0.041-0.051
					c-0.061-0.08-0.123-0.158-0.189-0.242c-0.521-0.668-0.605-2.037-0.592-2.52v-5.984c0-0.396-0.293-0.604-1.895-0.629
					c-1.59,0.025-1.879,0.232-1.879,0.629v5.996c0.012,0.471-0.068,1.838-0.594,2.508c-0.248,0.316-0.543,0.693-0.828,1.07
					l-0.486,0.645h0.016c-0.496,0.701-0.674,1.062-0.674,1.301v17.129c0,0.541-0.029,0.973-0.053,1.354
					c-0.021,0.299-0.039,0.582-0.039,0.859c0,1.484,1.166,1.561,4.545,1.561c3.377,0,4.543-0.076,4.543-1.561
					C746.869,87.478,746.852,87.194,746.832,86.896z M743.406,62.325h-2.162v-3.043h2.162V62.325z M743.408,63.13
					c0.012,0.422,0.074,1.277,0.361,2.027c-0.4-0.035-0.902-0.064-1.443-0.064s-1.043,0.029-1.445,0.064
					c0.291-0.754,0.352-1.611,0.361-2.027H743.408z M740.385,66.015c0.391-0.047,1.121-0.117,1.941-0.117
					c0.818,0,1.551,0.07,1.939,0.117c0.074,0.094,0.152,0.191,0.23,0.293h-4.342C740.24,66.198,740.318,66.101,740.385,66.015z
					 M742.318,57.069c0.412,0.006,0.848,0.041,1.088,0.08v1.328h-2.162v-1.328C741.484,57.11,741.918,57.075,742.318,57.069z
					 M742.326,88.511c-3.738,0-3.738-0.221-3.738-0.756c0-0.25,0.016-0.508,0.035-0.807c0.025-0.393,0.055-0.838,0.055-1.406
					l-0.002-17.096c0.043-0.193,0.443-0.764,0.867-1.334h5.566c0.422,0.566,0.82,1.127,0.863,1.301v17.129
					c0,0.568,0.029,1.014,0.055,1.406c0.02,0.299,0.037,0.557,0.037,0.807C746.064,88.29,746.064,88.511,742.326,88.511z"/>
				<path fill="#FFFFFF" d="M739.08,73.36v8.92v1.199h6.49V82.28v-8.92v-1.199h-6.49V73.36z M739.885,74.165h4.881v7.311h-4.881
					V74.165z M744.766,82.675h-4.881V82.28h4.881V82.675z M744.766,72.966v0.395h-4.881v-0.395H744.766z"/>
				<path fill="#FFFFFF" d="M739.924,70.468c0.008-0.008,0.998-0.717,2.402-0.717c1.402,0,2.393,0.709,2.4,0.715
					c0.072,0.055,0.156,0.08,0.24,0.08c0.123,0,0.244-0.057,0.324-0.164c0.131-0.178,0.094-0.432-0.086-0.562
					c-0.047-0.035-1.201-0.873-2.879-0.873c-1.68,0-2.834,0.838-2.881,0.873c-0.178,0.131-0.217,0.383-0.084,0.562
					C739.492,70.56,739.744,70.599,739.924,70.468z"/>
				<path fill="#FFFFFF" d="M740.465,70.802c-0.223,0-0.404,0.18-0.404,0.402s0.182,0.404,0.404,0.404h3.721
					c0.223,0,0.404-0.182,0.404-0.404s-0.182-0.402-0.404-0.402H740.465z"/>
			</g>
			<path fill="#FFFFFF" d="M771.305,87.056c-0.023-0.355-0.051-0.758-0.051-1.264V69.8c0-0.221-0.166-0.559-0.627-1.213h0.012
				l-0.453-0.602c-0.172-0.229-0.348-0.455-0.508-0.662c-0.018-0.021-0.035-0.043-0.051-0.064c-0.012-0.016-0.025-0.031-0.037-0.047
				c-0.059-0.074-0.115-0.148-0.176-0.227c-0.488-0.623-0.566-1.902-0.555-2.352v-5.588c0-0.371-0.271-0.562-1.768-0.588
				c-1.484,0.025-1.756,0.217-1.756,0.588l0.002,5.598c0.012,0.439-0.064,1.717-0.557,2.342c-0.23,0.295-0.506,0.646-0.77,1
				l-0.455,0.602h0.012c-0.461,0.654-0.627,0.992-0.627,1.213v15.992c0,0.506-0.027,0.908-0.051,1.264
				c-0.02,0.279-0.035,0.543-0.035,0.803c0,1.387,1.09,1.457,4.242,1.457c3.154,0,4.244-0.07,4.244-1.457
				C771.342,87.599,771.324,87.335,771.305,87.056z M768.107,64.118h-2.02v-2.842h2.02V64.118z M768.109,64.87
				c0.01,0.393,0.068,1.189,0.338,1.891c-0.375-0.033-0.844-0.061-1.35-0.061c-0.504,0-0.973,0.029-1.35,0.061
				c0.271-0.703,0.328-1.504,0.338-1.891H768.109z M765.285,67.562c0.365-0.043,1.049-0.109,1.812-0.109
				c0.766,0,1.449,0.066,1.812,0.109c0.068,0.088,0.141,0.18,0.213,0.273h-4.051C765.15,67.733,765.225,67.642,765.285,67.562z
				 M767.092,59.21c0.385,0.006,0.791,0.037,1.016,0.074v1.24h-2.02v-1.24C766.312,59.247,766.717,59.216,767.092,59.21z
				 M767.098,88.563c-3.49,0-3.49-0.207-3.49-0.705c0-0.234,0.016-0.475,0.035-0.754c0.023-0.365,0.051-0.781,0.051-1.312
				l-0.004-15.961c0.043-0.18,0.414-0.713,0.811-1.244h5.197c0.395,0.527,0.766,1.051,0.805,1.213v15.992
				c0,0.531,0.027,0.947,0.053,1.312c0.02,0.279,0.033,0.52,0.033,0.754C770.59,88.356,770.59,88.563,767.098,88.563z"/>
			<path fill="#FFFFFF" d="M759.771,86.667c0-0.164-0.021-1-0.189-1.408c-0.09-0.217-0.15-0.758-0.168-1.016
				c0.004-0.15,0.346-15.135,0.357-16.434c0.016-1.568-1.379-3.043-2.262-3.604c-0.594-0.379-0.732-1.725-0.734-2.164v-6.285
				c0-0.51-0.508-0.768-1.508-0.768c-0.145,0-0.258,0.006-0.307,0.008c-0.049-0.002-0.164-0.008-0.307-0.008
				c-1,0-1.508,0.258-1.508,0.768v6.283c-0.002,0.441-0.143,1.787-0.736,2.166c-0.883,0.561-2.277,2.035-2.262,3.604
				c0.012,1.299,0.355,16.283,0.359,16.4c-0.018,0.289-0.078,0.832-0.168,1.049c-0.17,0.406-0.189,1.244-0.189,1.369
				c-0.008,0.074-0.062,0.742,0.537,1.41c0.762,0.85,2.199,1.281,4.273,1.281s3.512-0.432,4.273-1.281
				C759.832,87.37,759.777,86.702,759.771,86.667z M755.984,60.903h-2.047V58.22h2.047V60.903z M754.654,55.78
				c0.158,0,0.273,0.008,0.279,0.008l0.027,0.002l0.027-0.002c0.006,0,0.119-0.008,0.277-0.008c0.4,0,0.619,0.047,0.719,0.082v1.564
				h-2.047v-1.564C754.035,55.827,754.254,55.78,754.654,55.78z M758.625,87.53c-0.422,0.455-1.402,0.996-3.664,0.996
				c-2.264,0-3.242-0.541-3.666-0.996c-0.383-0.412-0.359-0.807-0.355-0.854c0.006-0.344,0.049-0.916,0.131-1.115
				c0.168-0.408,0.223-1.213,0.229-1.336c-0.004-0.15-0.348-15.131-0.359-16.424c-0.012-1.17,1.125-2.439,1.895-2.928
				c0.912-0.58,1.07-2.076,1.098-2.635h2.057c0.027,0.559,0.186,2.055,1.098,2.635c0.77,0.488,1.906,1.758,1.895,2.928
				c-0.012,1.293-0.355,16.271-0.357,16.457c0.006,0.09,0.059,0.895,0.227,1.303c0.082,0.197,0.125,0.771,0.133,1.146
				C758.984,86.726,759.008,87.118,758.625,87.53z"/>
			<path fill="#FFFFFF" d="M756.857,70.397c-0.012-1.035-0.859-1.875-1.896-1.875c-1.039,0-1.885,0.84-1.896,1.875
				c-0.465,0.043-0.912,0.102-1.34,0.176l-0.334,0.059l0.008,0.34c0.039,1.873,0.094,4.293,0.145,6.555l0.008,0.387h6.818
				l0.008-0.387c0.053-2.262,0.105-4.682,0.146-6.555l0.006-0.34l-0.334-0.059C757.77,70.499,757.322,70.44,756.857,70.397z
				 M757.596,77.122h-5.271c-0.043-2.012-0.09-4.113-0.127-5.824c0.424-0.064,0.871-0.111,1.332-0.145l0.463-0.031l-0.105-0.453
				c-0.021-0.092-0.031-0.172-0.031-0.248c0-0.611,0.494-1.105,1.105-1.105c0.609,0,1.104,0.494,1.104,1.105
				c0,0.074-0.01,0.156-0.031,0.248l-0.104,0.453l0.461,0.031c0.461,0.033,0.908,0.08,1.332,0.145
				C757.688,73.009,757.641,75.11,757.596,77.122z"/>
			<path fill="#FFFFFF" d="M754.979,81.06c-1.117,0-2.1-0.035-2.92-0.107l-0.439-0.039l0.068,2.996l0.33,0.049
				c0.84,0.123,1.836,0.186,2.961,0.186c1.113,0,2.098-0.061,2.924-0.184l0.332-0.047l0.066-2.996l-0.439,0.037
				C757.051,81.024,756.08,81.06,754.979,81.06z M757.457,83.222c-0.717,0.086-1.549,0.131-2.479,0.131
				c-0.939,0-1.783-0.045-2.516-0.135l-0.033-1.443c0.746,0.051,1.602,0.076,2.549,0.076c0.932,0,1.775-0.025,2.512-0.074
				L757.457,83.222z"/>
			<rect x="765.301" y="72.905" fill="#FFFFFF" width="5" height="11"/>
			<g>
				<g>
					<path fill="#FFFFFF" d="M753.889,93.896c-3.656-5.605-9.092-8.516-9.146-8.543c-2.047-1.062-2.85-3.6-1.785-5.652
						c0.725-1.396,2.152-2.264,3.725-2.264c0.668,0,1.336,0.162,1.932,0.471c0.484,0.252,4.344,2.324,8.291,6.404
						c3.393-5.418,8.602-13.129,12.834-16.756c0.76-0.65,1.729-1.01,2.729-1.01c1.227,0,2.389,0.535,3.188,1.465
						c0.729,0.852,1.084,1.936,0.996,3.053c-0.086,1.117-0.602,2.133-1.453,2.863c-4.535,3.887-11.758,15.586-14.158,19.766
						l-3.408,5.939L753.889,93.896z"/>
					<path d="M772.467,68.452c0.645,0,1.287,0.271,1.74,0.801c0.82,0.959,0.711,2.402-0.25,3.225
						c-5.719,4.902-14.484,20.111-14.572,20.266l-1.859,3.238l-2.039-3.129c-3.973-6.09-9.801-9.16-9.859-9.191
						c-1.121-0.58-1.559-1.963-0.979-3.084c0.408-0.785,1.207-1.234,2.033-1.234c0.355,0,0.715,0.082,1.053,0.258
						c0.242,0.125,5.15,2.711,9.457,7.879c2.977-4.896,9.092-14.451,13.789-18.477C771.412,68.634,771.941,68.452,772.467,68.452
						 M772.467,64.64L772.467,64.64c-1.455,0-2.865,0.521-3.971,1.471c-2.309,1.979-6.17,6.203-11.949,15.199
						c-3.512-3.201-6.611-4.863-7.055-5.094c-0.867-0.449-1.838-0.688-2.811-0.688c-2.287,0-4.363,1.262-5.416,3.291
						c-1.547,2.982-0.385,6.664,2.588,8.219c0.164,0.09,5.115,2.805,8.438,7.898l2.041,3.129l3.4,5.217l3.102-5.4l1.859-3.24
						c2.359-4.104,9.428-15.566,13.746-19.268c1.236-1.061,1.988-2.539,2.113-4.164s-0.391-3.203-1.451-4.439
						C775.941,65.417,774.252,64.64,772.467,64.64L772.467,64.64z"/>
				</g>
			</g>
			<g>
				<path fill="#FFFFFF" d="M754.418,104.378c-16.543,0-30-13.457-30-30c0-16.541,13.457-30,30-30s30,13.459,30,30
					C784.418,90.921,770.961,104.378,754.418,104.378z M754.418,48.573c-14.229,0-25.805,11.576-25.805,25.805
					s11.576,25.807,25.805,25.807s25.805-11.578,25.805-25.807S768.646,48.573,754.418,48.573z"/>
			</g>
		</g>
	</g>
</g>
<g id="Layer_4">
</g>
</svg>
