<?xml version="1.0" encoding="utf-8"?>
<!-- Generator: Adobe Illustrator 16.0.0, SVG Export Plug-In . SVG Version: 6.00 Build 0)  -->
<!DOCTYPE svg PUBLIC "-//W3C//DTD SVG 1.1//EN" "http://www.w3.org/Graphics/SVG/1.1/DTD/svg11.dtd">
<svg version="1.1" xmlns="http://www.w3.org/2000/svg" xmlns:xlink="http://www.w3.org/1999/xlink" x="0px" y="0px" width="1280px"
	 height="800px" viewBox="0 0 1280 800" enable-background="new 0 0 1280 800" xml:space="preserve">
<g id="Background_Color">
	<rect x="-1.647" width="1280" height="800"/>
</g>
<g id="Layer_2">
	<g>
		<g>
			<text transform="matrix(1 0 0 1 507.3418 263.3623)" fill="#FFFFFF" font-family="'Gibson-SemiBold'" font-size="18">Strain</text>
			<line fill="none" stroke="#FFFFFF" stroke-miterlimit="10" x1="507.341" y1="246.714" x2="766.659" y2="246.714"/>
			<line fill="none" stroke="#FFFFFF" stroke-miterlimit="10" x1="507.341" y1="268.714" x2="766.659" y2="268.714"/>
		</g>
		<g>
			
				<image overflow="visible" width="847" height="469" xlink:href="../../../../Desktop/Screen Shot 2014-04-10 at 2.45.03 AM.png"  transform="matrix(0.3062 0 0 0.3079 507.3447 279.6436)">
			</image>
			<g>
				<path fill="#FFFFFF" d="M764.659,281.646v140.403H509.341V281.646H764.659 M766.659,279.646H507.341v144.403h259.318V279.646
					L766.659,279.646z"/>
			</g>
		</g>
	</g>
	<g>
		<text transform="matrix(1 0 0 1 226.3008 187.8682)" fill="#FFFFFF" font-family="'Gibson-SemiBold'" font-size="20">Sazarac Cocktail</text>
	</g>
	<g>
		<text transform="matrix(1 0 0 1 226.3008 225.4658)"><tspan x="0" y="0" fill="#FFFFFF" font-family="'Gibson-Regular'" font-size="18">Base Spirit: Rye, Absinthe</tspan><tspan x="0" y="21.6" fill="#FFFFFF" font-family="'Gibson-Regular'" font-size="18">Flavor Profile: Spirit Forward</tspan></text>
	</g>
	<rect x="226.729" y="199.22" fill="#FFFFFF" width="821" height="3"/>
	<g>
		
			<line fill="none" stroke="#FFFFFF" stroke-linecap="round" stroke-linejoin="round" stroke-miterlimit="10" x1="1037.25" y1="170.967" x2="1046.81" y2="180.525"/>
		
			<line fill="none" stroke="#FFFFFF" stroke-linecap="round" stroke-linejoin="round" stroke-miterlimit="10" x1="1037.25" y1="190.084" x2="1046.81" y2="180.525"/>
	</g>
	
		<line fill="none" stroke="#FFFFFF" stroke-linecap="round" stroke-linejoin="round" stroke-miterlimit="10" x1="1016.625" y1="180.525" x2="1046.81" y2="180.525"/>
	<g>
		<g>
			<g>
				<path fill="#FFFFFF" d="M1025.598,221.146c-3.732,0-6.769,3.037-6.769,6.77s3.036,6.768,6.769,6.768
					c3.731,0,6.77-3.035,6.77-6.768S1029.329,221.146,1025.598,221.146z M1025.598,234.48c-3.621,0-6.565-2.945-6.565-6.564
					s2.944-6.566,6.565-6.566c3.62,0,6.565,2.947,6.565,6.566S1029.218,234.48,1025.598,234.48z"/>
				<path fill="#FFFFFF" d="M1025.598,222.777c-2.833,0-5.136,2.307-5.136,5.139c0,2.83,2.303,5.138,5.136,5.138
					s5.136-2.308,5.136-5.138C1030.733,225.084,1028.431,222.777,1025.598,222.777z M1025.598,232.847
					c-2.72,0-4.933-2.211-4.933-4.931c0-2.721,2.213-4.932,4.933-4.932s4.932,2.211,4.932,4.932
					C1030.529,230.636,1028.317,232.847,1025.598,232.847z"/>
				<path fill="#FFFFFF" d="M1025.598,224.412c-1.932,0-3.504,1.572-3.504,3.504c0,1.931,1.572,3.502,3.504,3.502
					s3.504-1.571,3.504-3.502C1029.102,225.984,1027.529,224.412,1025.598,224.412z M1025.598,231.215
					c-1.818,0-3.299-1.479-3.299-3.299c0-1.819,1.48-3.301,3.299-3.301c1.819,0,3.299,1.481,3.299,3.301
					C1028.896,229.736,1027.417,231.215,1025.598,231.215z"/>
			</g>
			<g>
				<g>
					<g>
						<g>
							<path fill="#FFFFFF" d="M1034.941,250.174c0,0-0.818-2.445-2.28-4.498c-0.673-0.941-0.859-1.26-1.672-1.844
								c-0.724-0.52-1.922-1.379-2.43-1.781c-0.787-0.622-1.494-1.156-1.698-1.719c-0.335-0.926-1.07-2.135-1.226-2.303
								c-0.157-0.17-0.564-0.74-0.19-1.252c0.375-0.512,0.807-1.127,0.979-1.83c0.222-0.894,0.794,0.137,0.764-0.053
								c-0.165-1.035-2.314-6.814-2.314-6.814s-0.277-0.809,0.521-1.102c0.803-0.297,1.05,0.301,1.246,0.795
								c0.195,0.496,2.373,6.277,2.373,6.277s0.137,0.271,0.408,0.162c0.271-0.104,0.259-0.359,0.221-0.561
								c-0.02-0.096-0.062-0.527-0.166-0.977c-0.109-0.482-0.279-0.99-0.307-1.133c-0.062-0.326-0.473-1.607,0.446-1.984
								c0.711-0.291,0.982,0.141,1.249,0.49c0.065,0.087,0.17,0.16,0.189,0.16c0.023-0.004,0.226-0.379,0.578-0.465
								c0.465-0.108,0.82-0.029,1.133,0.564c0.197,0.371,0.747,1.891,0.832,1.871c0.147-0.033,0.036-0.585,0.521-0.71
								c0.485-0.128,0.855,0.073,1.081,0.425c0.225,0.352,0.813,1.529,1.073,1.76c0.262,0.231,0.718,0.74,0.826,1.824
								c0.107,1.084,0.461,3.197,0.405,4.402c-0.058,1.205-0.024,1.482,0.72,3.162c0.744,1.684,2.33,4.49,2.33,4.49"/>
						</g>
						<g>
							<path d="M1027.935,239.684c0,0-0.142-1.214-0.319-2.426c-0.088-0.605-0.188-1.211-0.281-1.658
								c-0.023-0.113-0.046-0.214-0.07-0.305c-0.021-0.09-0.042-0.17-0.064-0.23c-0.017-0.062-0.036-0.111-0.052-0.141
								c-0.012-0.031-0.021-0.045-0.021-0.045l-0.002-0.008c-0.008-0.018,0-0.043,0.019-0.051c0.021-0.008,0.041,0,0.053,0.02l0,0
								c0,0,0.007,0.018,0.023,0.055c0.013,0.031,0.034,0.082,0.054,0.148c0.019,0.066,0.039,0.145,0.061,0.238
								c0.021,0.09,0.043,0.193,0.063,0.305c0.087,0.455,0.178,1.062,0.258,1.666
								C1027.815,238.467,1027.935,239.684,1027.935,239.684z"/>
						</g>
						<g>
							<path d="M1032.257,233.414c0,0-0.009-0.012-0.027-0.026c-0.018-0.019-0.041-0.05-0.078-0.079
								c-0.019-0.014-0.038-0.031-0.059-0.051c-0.024-0.018-0.051-0.031-0.078-0.055c-0.027-0.016-0.058-0.031-0.087-0.059
								c-0.028-0.025-0.048-0.062-0.067-0.098c-0.038-0.074-0.069-0.158-0.104-0.243c-0.032-0.093-0.064-0.185-0.097-0.28
								c-0.064-0.195-0.127-0.406-0.188-0.617c-0.243-0.84-0.451-1.689-0.451-1.689c-0.008-0.02,0.006-0.041,0.027-0.045
								c0.02-0.006,0.041,0.007,0.045,0.027l0,0c0,0,0.19,0.852,0.415,1.697c0.057,0.211,0.114,0.422,0.175,0.619
								c0.03,0.096,0.062,0.191,0.09,0.279c0.033,0.091,0.063,0.172,0.1,0.246c0.018,0.035,0.032,0.07,0.061,0.098
								c0.027,0.023,0.061,0.041,0.086,0.061c0.025,0.021,0.055,0.035,0.076,0.055c0.021,0.018,0.04,0.037,0.06,0.053
								c0.036,0.029,0.059,0.062,0.075,0.079C1032.248,233.402,1032.257,233.414,1032.257,233.414z"/>
						</g>
						<g>
							<path d="M1034.693,233.638c0,0-0.024-0.015-0.066-0.046c-0.021-0.014-0.044-0.033-0.069-0.055
								c-0.029-0.021-0.061-0.047-0.092-0.078c-0.032-0.027-0.063-0.061-0.1-0.094c-0.041-0.035-0.071-0.074-0.11-0.117
								c-0.034-0.039-0.073-0.08-0.11-0.125c-0.034-0.041-0.069-0.09-0.105-0.135c-0.031-0.047-0.072-0.092-0.101-0.139
								c-0.032-0.046-0.06-0.096-0.091-0.143c-0.028-0.043-0.058-0.09-0.083-0.133s-0.047-0.082-0.066-0.121
								c-0.083-0.154-0.137-0.258-0.137-0.258c-0.009-0.02-0.003-0.039,0.018-0.053c0.017-0.01,0.038-0.002,0.052,0.018v0.002
								l0.002,0.002c0,0,0.047,0.102,0.121,0.258c0.02,0.039,0.04,0.082,0.061,0.123c0.025,0.045,0.051,0.088,0.078,0.135
								c0.027,0.049,0.057,0.096,0.083,0.143c0.027,0.051,0.063,0.094,0.096,0.145c0.033,0.049,0.066,0.092,0.098,0.141
								c0.034,0.041,0.071,0.084,0.105,0.127c0.035,0.039,0.066,0.084,0.103,0.117c0.033,0.036,0.067,0.068,0.096,0.102
								c0.031,0.027,0.061,0.053,0.087,0.08c0.025,0.022,0.048,0.041,0.07,0.057
								C1034.669,233.621,1034.693,233.638,1034.693,233.638z"/>
						</g>
						<g>
							<path d="M1025.65,228.092c-0.099,0.018-0.197,0.008-0.313-0.068c-0.191-0.129-0.347-0.742-0.352-0.77
								c0,0,0.003-0.01,0.005-0.01c0.004,0,0.004,0,0.004,0c0.004,0,0.009,0,0.011,0.008c0.002,0.004,0.157,0.634,0.344,0.752
								c0.168,0.113,0.302,0.074,0.455,0.027c0.019-0.006,0.037-0.01,0.054-0.018c0.265-0.078,0.414-0.186,0.446-0.32
								c0.047-0.199-0.195-0.703-0.196-0.707s0-0.01,0.006-0.012c0.003-0.002,0.009,0,0.012,0.004
								c0.011,0.021,0.245,0.514,0.199,0.721c-0.036,0.139-0.188,0.252-0.461,0.332c-0.019,0.006-0.035,0.012-0.053,0.018
								C1025.755,228.062,1025.703,228.082,1025.65,228.092z"/>
						</g>
					</g>
				</g>
				<circle fill="none" stroke="#FFFFFF" stroke-width="2" stroke-miterlimit="10" cx="1027.843" cy="232.406" r="19.458"/>
			</g>
		</g>
		<g opacity="0.5">
			<path fill="#FFFFFF" d="M974.758,232.408l-1.608-0.576v0.396h-7.087c-0.099,0-0.179,0.08-0.179,0.18
				c0,0.098,0.08,0.176,0.179,0.176h7.087v0.398L974.758,232.408z"/>
			<path fill="#FFFFFF" d="M990.733,232.408l-1.607-0.576v0.396h-7.09c-0.099,0-0.177,0.08-0.177,0.18
				c0,0.098,0.078,0.176,0.177,0.176h7.09v0.398L990.733,232.408z"/>
			<path fill="none" stroke="#FFFFFF" stroke-miterlimit="10" d="M987.972,238.334v-11.852h8.75
				c-2.508-7.847-9.857-13.531-18.535-13.531s-16.027,5.685-18.535,13.531h8.749v11.852h-8.749
				c2.508,7.85,9.857,13.531,18.535,13.531s16.027-5.682,18.535-13.531H987.972z M984.073,238.334H972.22v-11.852h11.854V238.334z"
				/>
			<circle fill="none" stroke="#FFFFFF" stroke-width="2" stroke-miterlimit="10" cx="978.188" cy="232.408" r="19.458"/>
		</g>
	</g>
	<circle fill="none" stroke="#FFFFFF" stroke-miterlimit="10" cx="472.972" cy="587.033" r="110.594"/>
	<circle fill="none" stroke="#FFFFFF" stroke-miterlimit="10" cx="472.972" cy="587.033" r="110.594"/>
	<g>
		<circle fill="none" stroke="#FFFFFF" stroke-miterlimit="10" cx="771.517" cy="595.429" r="90"/>
	</g>
	<g>
		
			<line fill="none" stroke="#FFFFFF" stroke-width="3" stroke-linecap="round" stroke-miterlimit="10" x1="597.801" y1="595.429" x2="657.301" y2="595.429"/>
		<polygon fill="#FFFFFF" points="657.301,590.606 657.301,600.25 670.801,595.429 		"/>
	</g>
	<g>
		<g>
			<g>
				
					<line fill="none" stroke="#FFFFFF" stroke-width="3" stroke-linecap="round" stroke-linejoin="round" stroke-miterlimit="10" x1="844.351" y1="328.056" x2="860.561" y2="344.261"/>
				
					<line fill="none" stroke="#FFFFFF" stroke-width="3" stroke-linecap="round" stroke-linejoin="round" stroke-miterlimit="10" x1="844.351" y1="360.472" x2="860.561" y2="344.261"/>
			</g>
			
				<line fill="none" stroke="#FFFFFF" stroke-width="3" stroke-linecap="round" stroke-linejoin="round" stroke-miterlimit="10" x1="809.377" y1="344.268" x2="860.561" y2="344.266"/>
		</g>
		
			<circle fill="none" stroke="#FFFFFF" stroke-width="3" stroke-linecap="round" stroke-linejoin="round" stroke-miterlimit="10" cx="834.969" cy="344.265" r="41"/>
	</g>
</g>
<g id="Layer_3">
	<g>
		<g opacity="0.5">
			<g>
				<path fill="#FFFFFF" d="M441.168,104.379c-16.543,0-30-13.459-30-30c0-16.543,13.457-30,30-30s30,13.457,30,30
					C471.168,90.92,457.711,104.379,441.168,104.379z M441.168,48.574c-14.229,0-25.805,11.574-25.805,25.805
					c0,14.229,11.576,25.805,25.805,25.805s25.805-11.576,25.805-25.805C466.973,60.148,455.396,48.574,441.168,48.574z"/>
			</g>
			<g>
				<path fill="#FFFFFF" d="M434.783,84.273c-0.467,0-0.895-0.394-1.066-0.839l-6.604-17.215h-3.932c-0.633,0-1.146-0.869-1.146-1.5
					s0.514-1.5,1.146-1.5h4.717c0.473,0,0.896,0.754,1.066,1.195l6.568,17.246l17.449-2.578l2.912-9.863h-20.512
					c-0.631,0-1.143-0.369-1.143-1c0-0.633,0.512-1,1.143-1h22.07c0.363,0,0.705,0.734,0.922,1.027
					c0.215,0.293,0.279,0.953,0.17,1.301l-3.604,11.609c-0.135,0.432-0.512,0.812-0.961,0.865l-19.066,2.209
					C434.871,84.237,434.826,84.273,434.783,84.273z"/>
			</g>
			<g>
				<circle fill="#FFFFFF" cx="435.726" cy="87.963" r="2.177"/>
			</g>
			<g>
				<circle fill="#FFFFFF" cx="452.674" cy="87.963" r="2.178"/>
			</g>
		</g>
		<g opacity="0.5">
			<g>
				<path fill="#FFFFFF" d="M532.668,104.379c-16.543,0-30-13.459-30-30c0-16.543,13.457-30,30-30s30,13.457,30,30
					C562.668,90.92,549.211,104.379,532.668,104.379z M532.668,48.572c-14.229,0-25.805,11.578-25.805,25.807
					s11.576,25.805,25.805,25.805s25.805-11.576,25.805-25.805S546.896,48.572,532.668,48.572z"/>
			</g>
			<g>
				<g>
					
						<line fill="none" stroke="#FFFFFF" stroke-width="2" stroke-linecap="round" stroke-miterlimit="10" x1="525.105" y1="61.711" x2="547.105" y2="61.711"/>
					<path fill="#FFFFFF" d="M522.23,61.711c0,1.105-0.898,2-2,2c-1.109,0-2-0.895-2-2s0.891-2,2-2
						C521.332,59.711,522.23,60.605,522.23,61.711z"/>
				</g>
				<g>
					
						<line fill="none" stroke="#FFFFFF" stroke-width="2" stroke-linecap="round" stroke-miterlimit="10" x1="525.105" y1="69.504" x2="547.105" y2="69.504"/>
					<path fill="#FFFFFF" d="M522.23,69.504c0,1.105-0.898,2-2,2c-1.109,0-2-0.895-2-2s0.891-2,2-2
						C521.332,67.504,522.23,68.398,522.23,69.504z"/>
				</g>
				<g>
					
						<line fill="none" stroke="#FFFFFF" stroke-width="2" stroke-linecap="round" stroke-miterlimit="10" x1="525.105" y1="77.295" x2="547.105" y2="77.295"/>
					<path fill="#FFFFFF" d="M522.23,77.295c0,1.105-0.898,2-2,2c-1.109,0-2-0.895-2-2s0.891-2,2-2
						C521.332,75.295,522.23,76.189,522.23,77.295z"/>
				</g>
				<g>
					
						<line fill="none" stroke="#FFFFFF" stroke-width="2" stroke-linecap="round" stroke-miterlimit="10" x1="525.105" y1="85.086" x2="547.105" y2="85.086"/>
					<path fill="#FFFFFF" d="M522.23,85.086c0,1.105-0.898,2-2,2c-1.109,0-2-0.895-2-2s0.891-2,2-2
						C521.332,83.086,522.23,83.98,522.23,85.086z"/>
				</g>
			</g>
		</g>
		<g opacity="0.5">
			<g>
				<path fill="#FFFFFF" d="M845.293,104.379c-16.543,0-30-13.459-30-30s13.457-30,30-30s30,13.459,30,30
					S861.836,104.379,845.293,104.379z M845.293,48.574c-14.229,0-25.805,11.576-25.805,25.805s11.576,25.805,25.805,25.805
					s25.805-11.576,25.805-25.805S859.521,48.574,845.293,48.574z"/>
			</g>
			<polygon fill="#FFFFFF" points="839.869,59.529 855.875,74.379 839.869,89.229 			"/>
		</g>
		<g>
			<g>
				<path fill="#FFFFFF" d="M643.543,124.283c-27.571,0-50-22.43-50-50c0-27.568,22.429-50,50-50s50,22.432,50,50
					C693.543,101.854,671.114,124.283,643.543,124.283z M643.543,31.275c-23.714,0-43.008,19.295-43.008,43.008
					c0,23.715,19.294,43.01,43.008,43.01s43.008-19.295,43.008-43.01C686.551,50.57,667.257,31.275,643.543,31.275z"/>
			</g>
			<g>
				<circle fill="none" stroke="#FFFFFF" stroke-width="3" stroke-miterlimit="10" cx="648.971" cy="66.939" r="13.32"/>
				
					<line fill="none" stroke="#FFFFFF" stroke-width="3" stroke-miterlimit="10" x1="624.796" y1="94.947" x2="637.947" y2="79.711"/>
			</g>
		</g>
		<g opacity="0.5">
			<g>
				<path fill="#FFFFFF" d="M746.832,86.896c-0.025-0.381-0.055-0.811-0.055-1.354V68.414c0-0.238-0.178-0.6-0.674-1.301h0.014
					l-0.484-0.642c-0.184-0.247-0.371-0.487-0.545-0.709c-0.018-0.024-0.035-0.048-0.053-0.071
					c-0.014-0.016-0.029-0.033-0.041-0.051c-0.061-0.08-0.123-0.158-0.189-0.242c-0.521-0.668-0.605-2.037-0.592-2.52v-5.984
					c0-0.396-0.293-0.604-1.895-0.629c-1.59,0.025-1.879,0.232-1.879,0.629v5.996c0.012,0.471-0.068,1.838-0.594,2.508
					c-0.248,0.316-0.543,0.693-0.828,1.071l-0.486,0.644h0.016c-0.496,0.701-0.674,1.062-0.674,1.301v17.129
					c0,0.541-0.029,0.973-0.053,1.354c-0.021,0.299-0.039,0.582-0.039,0.859c0,1.484,1.166,1.561,4.545,1.561
					c3.377,0,4.543-0.076,4.543-1.561C746.869,87.479,746.852,87.195,746.832,86.896z M743.406,62.326h-2.162v-3.043h2.162V62.326z
					 M743.408,63.131c0.012,0.423,0.074,1.277,0.361,2.027c-0.4-0.035-0.902-0.063-1.443-0.063s-1.043,0.028-1.445,0.063
					c0.291-0.754,0.352-1.611,0.361-2.027H743.408z M740.385,66.016c0.391-0.046,1.121-0.117,1.941-0.117
					c0.818,0,1.551,0.071,1.939,0.117c0.074,0.094,0.152,0.191,0.23,0.293h-4.342C740.24,66.199,740.318,66.102,740.385,66.016z
					 M742.318,57.07c0.412,0.006,0.848,0.041,1.088,0.08v1.328h-2.162V57.15C741.484,57.111,741.918,57.076,742.318,57.07z
					 M742.326,88.513c-3.738,0-3.738-0.222-3.738-0.757c0-0.25,0.016-0.508,0.035-0.807c0.025-0.393,0.055-0.838,0.055-1.406
					l-0.002-17.096c0.043-0.193,0.443-0.764,0.867-1.334h5.566c0.422,0.566,0.82,1.127,0.863,1.301v17.129
					c0,0.568,0.029,1.014,0.055,1.406c0.02,0.299,0.037,0.557,0.037,0.807C746.064,88.291,746.064,88.513,742.326,88.513z"/>
				<path fill="#FFFFFF" d="M739.08,73.361v8.92v1.199h6.49v-1.199v-8.92v-1.199h-6.49V73.361z M739.885,74.166h4.881v7.311h-4.881
					V74.166z M744.766,82.676h-4.881v-0.395h4.881V82.676z M744.766,72.967v0.395h-4.881v-0.395H744.766z"/>
				<path fill="#FFFFFF" d="M739.924,70.47c0.008-0.009,0.998-0.718,2.402-0.718c1.402,0,2.393,0.709,2.4,0.715
					c0.072,0.055,0.156,0.08,0.24,0.08c0.123,0,0.244-0.057,0.324-0.164c0.131-0.178,0.094-0.432-0.086-0.562
					c-0.047-0.035-1.201-0.873-2.879-0.873c-1.68,0-2.834,0.838-2.881,0.873c-0.178,0.131-0.217,0.383-0.084,0.562
					C739.492,70.561,739.744,70.6,739.924,70.47z"/>
				<path fill="#FFFFFF" d="M740.465,70.804c-0.223,0-0.404,0.179-0.404,0.401c0,0.224,0.182,0.404,0.404,0.404h3.721
					c0.223,0,0.404-0.181,0.404-0.404c0-0.223-0.182-0.401-0.404-0.401H740.465z"/>
			</g>
			<path fill="#FFFFFF" d="M771.305,87.057c-0.023-0.355-0.051-0.758-0.051-1.264V69.801c0-0.221-0.166-0.559-0.627-1.213h0.012
				l-0.453-0.602c-0.172-0.229-0.348-0.455-0.508-0.662c-0.018-0.021-0.035-0.043-0.051-0.064c-0.012-0.016-0.025-0.031-0.037-0.047
				c-0.059-0.074-0.115-0.148-0.176-0.227c-0.488-0.623-0.566-1.902-0.555-2.351v-5.589c0-0.371-0.271-0.562-1.768-0.588
				c-1.484,0.025-1.756,0.217-1.756,0.588l0.002,5.598c0.012,0.439-0.064,1.717-0.557,2.342c-0.23,0.295-0.506,0.646-0.77,1
				l-0.455,0.602h0.012c-0.461,0.654-0.627,0.992-0.627,1.213v15.992c0,0.506-0.027,0.908-0.051,1.264
				c-0.02,0.279-0.035,0.543-0.035,0.803c0,1.387,1.09,1.457,4.242,1.457c3.154,0,4.244-0.07,4.244-1.457
				C771.342,87.6,771.324,87.336,771.305,87.057z M768.107,64.119h-2.02v-2.842h2.02V64.119z M768.109,64.871
				c0.01,0.393,0.068,1.189,0.338,1.892c-0.375-0.034-0.844-0.062-1.35-0.062c-0.504,0-0.973,0.029-1.35,0.062
				c0.271-0.704,0.328-1.505,0.338-1.892H768.109z M765.285,67.562c0.365-0.043,1.049-0.109,1.812-0.109
				c0.766,0,1.449,0.066,1.812,0.109c0.068,0.088,0.141,0.18,0.213,0.273h-4.051C765.15,67.734,765.225,67.643,765.285,67.562z
				 M767.092,59.211c0.385,0.006,0.791,0.037,1.016,0.074v1.24h-2.02v-1.24C766.312,59.248,766.717,59.217,767.092,59.211z
				 M767.098,88.564c-3.49,0-3.49-0.207-3.49-0.705c0-0.234,0.016-0.474,0.035-0.754c0.023-0.365,0.051-0.781,0.051-1.312
				l-0.004-15.961c0.043-0.18,0.414-0.713,0.811-1.244h5.197c0.395,0.527,0.766,1.051,0.805,1.213v15.992
				c0,0.531,0.027,0.947,0.053,1.312c0.02,0.28,0.033,0.52,0.033,0.754C770.59,88.357,770.59,88.564,767.098,88.564z"/>
			<path fill="#FFFFFF" d="M759.771,86.668c0-0.164-0.021-1-0.189-1.408c-0.09-0.217-0.15-0.758-0.168-1.016
				c0.004-0.149,0.346-15.135,0.357-16.434c0.016-1.568-1.379-3.043-2.262-3.604c-0.594-0.379-0.732-1.725-0.734-2.164v-6.285
				c0-0.51-0.508-0.768-1.508-0.768c-0.145,0-0.258,0.006-0.307,0.008c-0.049-0.002-0.164-0.008-0.307-0.008
				c-1,0-1.508,0.258-1.508,0.768v6.283c-0.002,0.441-0.143,1.787-0.736,2.166c-0.883,0.561-2.277,2.035-2.262,3.604
				c0.012,1.299,0.355,16.284,0.359,16.4c-0.018,0.289-0.078,0.832-0.168,1.049c-0.17,0.406-0.189,1.244-0.189,1.369
				c-0.008,0.074-0.062,0.742,0.537,1.41c0.762,0.85,2.199,1.281,4.273,1.281s3.512-0.432,4.273-1.281
				C759.832,87.371,759.777,86.703,759.771,86.668z M755.984,60.904h-2.047v-2.683h2.047V60.904z M754.654,55.781
				c0.158,0,0.273,0.008,0.279,0.008l0.027,0.002l0.027-0.002c0.006,0,0.119-0.008,0.277-0.008c0.4,0,0.619,0.047,0.719,0.082v1.565
				h-2.047v-1.565C754.035,55.828,754.254,55.781,754.654,55.781z M758.625,87.531c-0.422,0.455-1.402,0.996-3.664,0.996
				c-2.264,0-3.242-0.541-3.666-0.996c-0.383-0.412-0.359-0.807-0.355-0.853c0.006-0.345,0.049-0.916,0.131-1.116
				c0.168-0.408,0.223-1.213,0.229-1.336c-0.004-0.15-0.348-15.13-0.359-16.423c-0.012-1.171,1.125-2.44,1.895-2.929
				c0.912-0.58,1.07-2.076,1.098-2.635h2.057c0.027,0.559,0.186,2.055,1.098,2.635c0.77,0.488,1.906,1.758,1.895,2.929
				c-0.012,1.293-0.355,16.271-0.357,16.456c0.006,0.09,0.059,0.895,0.227,1.303c0.082,0.197,0.125,0.771,0.133,1.146
				C758.984,86.727,759.008,87.119,758.625,87.531z"/>
			<path fill="#FFFFFF" d="M756.857,70.398c-0.012-1.035-0.859-1.875-1.896-1.875c-1.039,0-1.885,0.84-1.896,1.875
				c-0.465,0.043-0.912,0.102-1.34,0.176l-0.334,0.059l0.008,0.34c0.039,1.874,0.094,4.293,0.145,6.555l0.008,0.387h6.818
				l0.008-0.387c0.053-2.262,0.105-4.681,0.146-6.555l0.006-0.34l-0.334-0.059C757.77,70.5,757.322,70.441,756.857,70.398z
				 M757.596,77.123h-5.271c-0.043-2.012-0.09-4.113-0.127-5.824c0.424-0.064,0.871-0.111,1.332-0.145l0.463-0.031l-0.105-0.453
				c-0.021-0.092-0.031-0.172-0.031-0.248c0-0.611,0.494-1.105,1.105-1.105c0.609,0,1.104,0.494,1.104,1.105
				c0,0.074-0.01,0.156-0.031,0.248l-0.104,0.453l0.461,0.031c0.461,0.033,0.908,0.08,1.332,0.145
				C757.688,73.01,757.641,75.111,757.596,77.123z"/>
			<path fill="#FFFFFF" d="M754.979,81.061c-1.117,0-2.1-0.035-2.92-0.107l-0.439-0.039l0.068,2.996l0.33,0.049
				c0.84,0.123,1.836,0.186,2.961,0.186c1.113,0,2.098-0.061,2.924-0.184l0.332-0.047l0.066-2.996l-0.439,0.037
				C757.051,81.025,756.08,81.061,754.979,81.061z M757.457,83.223c-0.717,0.086-1.549,0.131-2.479,0.131
				c-0.939,0-1.783-0.045-2.516-0.134l-0.033-1.444c0.746,0.051,1.602,0.076,2.549,0.076c0.932,0,1.775-0.025,2.512-0.074
				L757.457,83.223z"/>
			<rect x="765.729" y="72.22" fill="#FFFFFF" width="5" height="11"/>
			<g>
				<g>
					<path fill="#FFFFFF" d="M753.889,93.896c-3.656-5.605-9.092-8.516-9.146-8.543c-2.047-1.062-2.85-3.6-1.785-5.652
						c0.725-1.396,2.152-2.264,3.725-2.264c0.668,0,1.336,0.162,1.932,0.471c0.484,0.252,4.344,2.324,8.291,6.404
						c3.393-5.418,8.602-13.129,12.834-16.756c0.76-0.65,1.729-1.01,2.729-1.01c1.227,0,2.389,0.535,3.188,1.466
						c0.729,0.851,1.084,1.935,0.996,3.052c-0.086,1.117-0.602,2.133-1.453,2.864c-4.535,3.886-11.758,15.585-14.158,19.765
						l-3.408,5.939L753.889,93.896z"/>
					<path d="M772.467,68.453c0.645,0,1.287,0.271,1.74,0.801c0.82,0.959,0.711,2.402-0.25,3.225
						c-5.719,4.902-14.484,20.111-14.572,20.266l-1.859,3.238l-2.039-3.129c-3.973-6.09-9.801-9.16-9.859-9.191
						c-1.121-0.58-1.559-1.963-0.979-3.084c0.408-0.785,1.207-1.233,2.033-1.233c0.355,0,0.715,0.081,1.053,0.257
						c0.242,0.125,5.15,2.711,9.457,7.879c2.977-4.896,9.092-14.451,13.789-18.477C771.412,68.636,771.941,68.453,772.467,68.453
						 M772.467,64.641L772.467,64.641c-1.455,0-2.865,0.521-3.971,1.471c-2.309,1.979-6.17,6.203-11.949,15.199
						c-3.512-3.201-6.611-4.863-7.055-5.094c-0.867-0.449-1.838-0.688-2.811-0.688c-2.287,0-4.363,1.262-5.416,3.291
						c-1.547,2.983-0.385,6.664,2.588,8.219c0.164,0.09,5.115,2.806,8.438,7.898l2.041,3.129l3.4,5.217l3.102-5.4l1.859-3.24
						c2.359-4.104,9.428-15.566,13.746-19.268c1.236-1.061,1.988-2.539,2.113-4.164s-0.391-3.203-1.451-4.439
						C775.941,65.418,774.252,64.641,772.467,64.641L772.467,64.641z"/>
				</g>
			</g>
			<g>
				<path fill="#FFFFFF" d="M754.418,104.379c-16.543,0-30-13.457-30-30c0-16.541,13.457-30,30-30s30,13.459,30,30
					C784.418,90.922,770.961,104.379,754.418,104.379z M754.418,48.574c-14.229,0-25.805,11.576-25.805,25.805
					s11.576,25.807,25.805,25.807s25.805-11.578,25.805-25.807S768.646,48.574,754.418,48.574z"/>
			</g>
		</g>
	</g>
</g>
<g id="Layer_4">
</g>
</svg>
