<?xml version="1.0" encoding="utf-8"?>
<!-- Generator: Adobe Illustrator 16.0.0, SVG Export Plug-In . SVG Version: 6.00 Build 0)  -->
<!DOCTYPE svg PUBLIC "-//W3C//DTD SVG 1.1//EN" "http://www.w3.org/Graphics/SVG/1.1/DTD/svg11.dtd">
<svg version="1.1" xmlns="http://www.w3.org/2000/svg" xmlns:xlink="http://www.w3.org/1999/xlink" x="0px" y="0px" width="1280px"
	 height="800px" viewBox="0 0 1280 800" enable-background="new 0 0 1280 800" xml:space="preserve">
<g id="Background_Color">
	<rect width="1280" height="800"/>
</g>
<g id="Layer_2">
	<rect x="378.301" y="224" fill="#FFFFFF" width="543" height="3"/>
	<text transform="matrix(1 0 0 1 382.9961 210.8672)" fill="#FFFFFF" font-family="'HelveticaNeue-Bold'" font-size="20">Shaken Or Stirred</text>
	<text transform="matrix(1 0 0 1 602.1289 632.2871)" fill="#FFFFFF" font-family="'HelveticaNeue-Bold'" font-size="35">Next</text>
	<polygon fill="none" stroke="#FFFFFF" stroke-miterlimit="10" points="799.578,632.075 639.906,676.075 480.235,632.075 
		480.235,580.5 799.578,580.5 	"/>
	<path fill="#FFFFFF" d="M567.109,365.091l-0.119-0.323c-0.033-0.089-3.195-8.929-0.003-15.413
		c2.106-4.274,2.579-7.835,1.405-10.584c-0.777-1.821-2.259-3.154-4.137-3.744c-1.188-0.66-2.585-6.518-3.334-9.665
		c-0.395-1.653-0.786-3.29-1.199-4.756c-1.4-4.957-7.555-10.541-12.758-14.852c-0.486-0.402-0.834-0.686-0.97-0.816
		c-0.335-0.343-0.55-0.695-0.663-0.913l0.003-6.885c0.771-0.72,0.96-1.504,0.956-2.186c-0.01-0.145-1.076-14.638-1.711-25.687
		c-0.167-2.915-1.451-5.328-3.613-6.796c-2.926-1.988-10.329-3.036-22.683-3.204c-12.3,0.168-19.703,1.217-22.627,3.204
		c-2.159,1.468-3.443,3.882-3.612,6.798c-0.635,11.047-1.701,25.54-1.719,25.829c0,0.574,0.191,1.332,0.963,2.044l0.003,6.881
		c-0.116,0.223-0.327,0.571-0.653,0.905c-0.146,0.142-0.497,0.426-0.984,0.831c-5.203,4.31-11.354,9.892-12.753,14.846
		c-0.415,1.471-0.809,3.114-1.204,4.774c-0.748,3.141-2.143,8.987-3.291,9.632c-1.914,0.604-3.396,1.938-4.173,3.758
		c-1.173,2.749-0.702,6.311,1.402,10.584c3.196,6.483,0.03,15.324,0,15.413l-0.12,0.326v0.345c0,0.875,0.236,1.718,0.702,2.52
		c-0.117,3.521-0.667,20.345-0.567,25.733c0.1,5.55,5.321,38.552,10.418,70.103c3.819,23.664,5.785,32.831,5.805,32.92l0.074,0.362
		l0.207,0.308c0.594,0.892,6.543,8.741,32.096,9.543l0.061,0.002l0.062-0.002c25.553-0.802,31.502-8.651,32.096-9.543l0.205-0.308
		l0.08-0.362c0.02-0.089,1.982-9.256,5.805-32.92c5.094-31.547,10.314-64.546,10.415-70.103c0.097-5.388-0.448-22.214-0.567-25.733
		c0.467-0.802,0.703-1.646,0.703-2.52V365.091z M563.49,347.632c-3.523,7.154-0.998,15.953-0.312,18.037
		c-0.049,0.173-0.148,0.36-0.297,0.557l-0.051,0.067c-4.924,4.04-20.954,7.835-44.52,7.835c-23.557,0-39.584-3.794-44.512-7.833
		l-0.054-0.071c-0.151-0.196-0.249-0.383-0.297-0.557c0.686-2.084,3.21-10.882-0.312-18.036c-0.468-0.952-0.804-1.834-1.07-2.677
		c7.509,4.639,27.341,7.102,46.245,7.102c18.907,0,38.74-2.463,46.25-7.102C564.292,345.797,563.959,346.68,563.49,347.632z
		 M518.284,263.168c15.317,0.21,19.404,1.812,20.462,2.512c-1.184,0.586-5.391,1.647-20.423,1.849
		c-15.212-0.204-19.354-1.286-20.48-1.824c0.003-0.002,0.005-0.005,0.007-0.007C498.866,265.008,502.895,263.38,518.284,263.168z
		 M495.938,269.494c0.047-0.825,0.275-1.852,0.885-2.739c1.308,0.839,5.534,2.022,21.501,2.237
		c15.947-0.214,20.171-1.397,21.48-2.237c0.607,0.887,0.834,1.914,0.882,2.738c0.559,9.719,1.449,22.085,1.662,24.979
		c-3.822,1.502-14.357,2.745-24.031,2.779c-9.678-0.035-20.215-1.276-24.039-2.779C494.507,291.32,495.387,279.11,495.938,269.494z
		 M479.492,326.284c0.381-1.604,0.76-3.194,1.162-4.616c1.25-4.421,8.957-10.806,11.487-12.904c0.659-0.543,1.108-0.927,1.275-1.098
		c1.175-1.2,1.624-2.469,1.671-2.61l0.104-0.303l-0.003-8.448c5.148,1.474,15.209,2.38,23.127,2.409
		c8.086-0.028,17.991-0.916,23.118-2.401l-0.003,8.44l0.104,0.303c0.048,0.141,0.498,1.41,1.676,2.614
		c0.166,0.167,0.613,0.548,1.268,1.089c2.531,2.099,10.24,8.484,11.49,12.909c0.399,1.417,0.775,3,1.157,4.6
		c1.212,5.08,2.306,9.546,4.438,11.528c-8.204,3.316-25.25,5.469-43.251,5.469c-18.825,0-35.02-2.308-42.87-5.845
		C477.328,335.279,478.357,331.048,479.492,326.284z M471.822,340.303c0.414-0.97,1.184-1.39,1.76-1.571
		c0.203-0.065,0.379-0.194,0.567-0.293c7.834,3.851,24.343,6.288,44.164,6.288c19.146,0,36.646-2.317,44.766-5.981
		c0.571,0.187,1.317,0.604,1.725,1.558c0.292,0.68,0.332,1.57,0.216,2.57c-4.622,4.026-22.229,7.722-46.709,7.722
		c-24.475,0-42.08-3.695-46.703-7.721C471.49,341.875,471.531,340.984,471.822,340.303z M563.073,393.62
		c-0.108,6.029-7.296,50.546-10.364,69.555c-3.328,20.598-5.234,30.135-5.672,32.252c-1.178,1.242-7.697,6.929-28.727,7.602
		c-21.119-0.675-27.601-6.406-28.721-7.594c-0.434-2.101-2.344-11.636-5.672-32.262c-3.07-19.011-10.261-63.529-10.367-69.553
		c-0.096-5.121,0.43-21.427,0.561-25.309c6.949,4.375,24.031,7.28,44.199,7.28c20.172,0,37.254-2.903,44.205-7.28
		C562.644,372.19,563.168,388.499,563.073,393.62z"/>
	<g>
		<g>
			<g>
				<path fill="#FFFFFF" d="M750.998,506.93c-18.542,0-27.072-2.605-32.971-5.152c-5.78-2.499-6.595-7.989-6.629-8.222
					c-15.842-130.697-15.842-131.072-15.842-131.233c-0.344-1.942-1.326-9.626-2.761-21.519
					c-1.022-8.464,9.887-10.212,21.433-12.063l1.695-0.273c11.998-1.94,34.113-2.23,35.051-2.242
					c0.982,0.012,23.102,0.302,35.101,2.242l1.693,0.273c11.546,1.851,22.454,3.599,21.433,12.064
					c-1.436,11.892-2.418,19.576-2.768,21.638c0.005,0.041,0.005,0.416-15.832,131.081c-0.037,0.265-0.852,5.755-6.633,8.254
					C778.071,504.324,769.541,506.93,750.998,506.93z M750.975,330.237c-0.178,0.002-22.707,0.297-34.41,2.191l-1.701,0.273
					c-11.599,1.859-18.605,3.3-18.084,7.621c1.924,15.963,2.541,20.291,2.738,21.449c0.057,0.336,0.051,0.337,0.051,0.55
					c0.184,1.814,15.654,129.431,15.811,130.719c0.016,0.094,0.582,3.472,4.238,5.054c5.523,2.384,13.568,4.822,31.381,4.822
					s25.859-2.438,31.382-4.822c3.657-1.582,4.223-4.96,4.245-5.103c0.15-1.239,15.619-128.856,15.811-130.84
					c-0.008-0.043-0.014-0.044,0.043-0.38c0.195-1.159,0.812-5.486,2.738-21.449c0.523-4.322-6.484-5.763-18.083-7.622l-1.7-0.273
					C773.729,330.534,751.199,330.24,750.975,330.237z"/>
			</g>
			<g>
				<path fill="#FFFFFF" d="M750.998,493.203c-4.561,0-6.643,0-17.977-1.251c-11.115-1.229-17.155-5.682-21.15-8.63l-0.396-0.29
					l0.895-1.213l0.395,0.293c3.867,2.852,9.711,7.161,20.422,8.344c11.252,1.242,13.309,1.242,17.812,1.242
					c4.506,0,6.562,0,17.812-1.242c10.709-1.183,16.552-5.49,20.421-8.341l0.399-0.296l0.889,1.213l-0.397,0.294
					c-3.996,2.945-10.036,7.4-21.146,8.626C757.642,493.203,755.561,493.203,750.998,493.203z"/>
			</g>
			<g>
				<path fill="#FFFFFF" d="M750.998,347.692c-11.038,0-29.13-1.29-42.35-3.755c-13.228-2.465-14.482-5.903-14.601-6.567l1.48-0.262
					l0,0c0,0,1.109,3.061,13.396,5.351c13.131,2.449,31.105,3.729,42.074,3.729c10.971,0,28.945-1.281,42.076-3.729
					c12.313-2.295,13.395-5.364,13.404-5.396l1.471,0.307c-0.117,0.665-1.373,4.102-14.6,6.567
					C780.129,346.402,762.037,347.692,750.998,347.692z"/>
			</g>
		</g>
		<g>
			<path fill="#FFFFFF" d="M750.238,407.807c-27.324,0-48.725-4.219-48.725-9.602c0-5.387,21.4-9.605,48.725-9.605
				c27.669,0,50.182,4.309,50.182,9.605C800.42,403.498,777.907,407.807,750.238,407.807z M750.238,389.102
				c-29.788,0-48.225,4.724-48.225,9.104c0,4.376,18.437,9.101,48.225,9.101c29.719,0,49.68-4.705,49.68-9.101
				S779.957,389.102,750.238,389.102z"/>
		</g>
		<g>
			<g>
				<path fill="#FFFFFF" d="M788.122,298.481c4.36-18.335,7.853-33.019,9.286-39.047l6.285,1.532l-3.666,14.379
					c-1.635,6.412-3.575,14.028-5.707,22.389c0.378-0.055,0.725-0.113,1.092-0.167c2.091-8.196,3.993-15.668,5.602-21.975
					l3.918-15.366l-8.278-2.017l-0.118,0.495c-1.359,5.724-4.963,20.873-9.486,39.89C787.42,298.56,787.76,298.519,788.122,298.481z
					"/>
			</g>
			<g>
				<path fill="#FFFFFF" d="M764.75,439.55c-1.475-3.345-3.494-7.924-3.015-9.867c0.169-0.693,18.95-74.359,32.051-125.737
					c-0.364,0.049-0.72,0.099-1.087,0.144c-13.096,51.36-31.781,124.662-31.951,125.353c-0.562,2.277,1.37,6.652,3.074,10.513
					c0.453,1.029,0.88,1.994,1.208,2.816c3.19,7.93,4.027,15.569,2.421,22.1c-1.171,4.735-3.88,10.177-7.073,14.198
					c-2.78,3.499-7.263,7.671-12.851,7.671h-0.002c-0.9,0-1.809-0.111-2.704-0.328c-6.257-1.523-8.93-7.466-10.071-12.183
					c-1.552-6.419-1.008-13.155,0.018-17.318c1.609-6.533,5.9-12.925,12.408-18.488c0.674-0.576,1.496-1.233,2.377-1.935
					c3.311-2.641,7.063-5.638,7.625-7.916c0.168-0.684,17.41-73.174,29.46-123.847c-0.358,0.031-0.708,0.069-1.067,0.099
					c-12.047,50.654-29.214,122.829-29.381,123.506c-0.479,1.947-4.406,5.081-7.271,7.369c-0.891,0.712-1.725,1.375-2.403,1.958
					c-6.671,5.701-11.074,12.274-12.732,19.013c-1.054,4.277-1.614,11.2-0.021,17.794c1.207,4.991,4.061,11.282,10.816,12.929
					c0.976,0.236,1.968,0.358,2.947,0.358h0.002c10.453,0,18.659-13.51,20.91-22.643c1.658-6.734,0.806-14.59-2.465-22.712
					C765.64,441.565,765.211,440.591,764.75,439.55z"/>
			</g>
		</g>
		<g>
			<path fill="#FFFFFF" d="M814.764,294.137c-0.412-0.381-1.055-0.357-1.436,0.054c-3.406,3.654-22.457,7.435-48.45,7.435
				c-30.558,0-47.458-4.932-47.458-8.342c0-1.402,3.295-3.587,12.291-5.432l0.274,1.806l8.132-4.294l-8.975-1.24l0.264,1.727
				c-9.297,1.886-14.02,4.381-14.02,7.434c0,6.802,24.896,10.363,49.491,10.363c24.574,0,45.577-3.399,49.941-8.082
				C815.201,295.154,815.176,294.514,814.764,294.137z"/>
		</g>
	</g>
</g>
<g id="Layer_3">
	<g opacity="0.5">
		<g>
			<path fill="#FFFFFF" d="M841.168,105.473c-16.543,0-30-13.458-30-30s13.457-30,30-30s30,13.458,30,30
				S857.711,105.473,841.168,105.473z M841.168,49.668c-14.229,0-25.805,11.575-25.805,25.805s11.576,25.805,25.805,25.805
				s25.805-11.575,25.805-25.805S855.396,49.668,841.168,49.668z"/>
		</g>
		<g>
			<path fill="#FFFFFF" d="M834.783,85.367c-0.467,0-0.895-0.051-1.066-0.496L827.113,68h-3.932c-0.633,0-1.146-0.868-1.146-1.5
				c0-0.631,0.514-1.5,1.146-1.5h4.717c0.473,0,0.896,0.41,1.066,0.852l6.568,17.075l17.449-2.32L855.895,71h-20.512
				c-0.631,0-1.143-0.368-1.143-1c0-0.633,0.512-1,1.143-1h22.07c0.363,0,0.705,0.391,0.922,0.684
				c0.215,0.293,0.279,0.781,0.17,1.129l-3.604,11.525c-0.135,0.432-0.512,0.77-0.961,0.822l-19.066,2.187
				C834.871,85.353,834.826,85.367,834.783,85.367z"/>
		</g>
		<g>
			<circle fill="#FFFFFF" cx="835.726" cy="89.058" r="2.177"/>
		</g>
		<g>
			<circle fill="#FFFFFF" cx="852.674" cy="89.058" r="2.178"/>
		</g>
	</g>
	<g opacity="0.5">
		<g>
			<path fill="#FFFFFF" d="M437.668,105.473c-16.543,0-30-13.458-30-30c0-16.543,13.457-30,30-30s30,13.457,30,30
				C467.668,92.015,454.211,105.473,437.668,105.473z M437.668,49.667c-14.229,0-25.805,11.577-25.805,25.806
				s11.576,25.805,25.805,25.805s25.805-11.576,25.805-25.805S451.896,49.667,437.668,49.667z"/>
		</g>
		<g>
			<g>
				
					<line fill="none" stroke="#FFFFFF" stroke-width="2" stroke-linecap="round" stroke-miterlimit="10" x1="430.105" y1="62.805" x2="452.105" y2="62.805"/>
				<path fill="#FFFFFF" d="M427.23,62.805c0,1.105-0.898,2-2,2c-1.109,0-2-0.895-2-2s0.891-2,2-2
					C426.332,60.805,427.23,61.699,427.23,62.805z"/>
			</g>
			<g>
				
					<line fill="none" stroke="#FFFFFF" stroke-width="2" stroke-linecap="round" stroke-miterlimit="10" x1="430.105" y1="70.598" x2="452.105" y2="70.598"/>
				<path fill="#FFFFFF" d="M427.23,70.598c0,1.105-0.898,2-2,2c-1.109,0-2-0.895-2-2s0.891-2,2-2
					C426.332,68.598,427.23,69.492,427.23,70.598z"/>
			</g>
			<g>
				
					<line fill="none" stroke="#FFFFFF" stroke-width="2" stroke-linecap="round" stroke-miterlimit="10" x1="430.105" y1="78.389" x2="452.105" y2="78.389"/>
				<path fill="#FFFFFF" d="M427.23,78.389c0,1.105-0.898,2-2,2c-1.109,0-2-0.895-2-2s0.891-2,2-2
					C426.332,76.389,427.23,77.283,427.23,78.389z"/>
			</g>
			<g>
				
					<line fill="none" stroke="#FFFFFF" stroke-width="2" stroke-linecap="round" stroke-miterlimit="10" x1="430.105" y1="86.181" x2="452.105" y2="86.181"/>
				<path fill="#FFFFFF" d="M427.23,86.181c0,1.105-0.898,2-2,2c-1.109,0-2-0.895-2-2s0.891-2,2-2
					C426.332,84.181,427.23,85.075,427.23,86.181z"/>
			</g>
		</g>
	</g>
	<g opacity="0.5">
		<g>
			<path fill="#FFFFFF" d="M520.832,87.99c-0.025-0.381-0.055-0.811-0.055-1.354V69.508c0-0.238-0.178-0.6-0.674-1.301h0.014
				l-0.484-0.643c-0.184-0.246-0.371-0.486-0.545-0.709c-0.018-0.023-0.035-0.047-0.053-0.07c-0.014-0.016-0.029-0.033-0.041-0.051
				c-0.061-0.08-0.123-0.158-0.189-0.242c-0.521-0.668-0.605-2.037-0.592-2.52v-5.984c0-0.396-0.293-0.604-1.895-0.629
				c-1.59,0.025-1.879,0.232-1.879,0.629v5.996c0.012,0.471-0.068,1.838-0.594,2.508c-0.248,0.316-0.543,0.693-0.828,1.07
				l-0.486,0.645h0.016c-0.496,0.701-0.674,1.062-0.674,1.301v17.129c0,0.541-0.029,0.973-0.053,1.354
				c-0.021,0.299-0.039,0.582-0.039,0.859c0,1.484,1.166,1.561,4.545,1.561c3.377,0,4.543-0.076,4.543-1.561
				C520.869,88.572,520.852,88.289,520.832,87.99z M517.406,63.42h-2.162v-3.043h2.162V63.42z M517.408,64.225
				c0.012,0.422,0.074,1.277,0.361,2.027c-0.4-0.035-0.902-0.064-1.443-0.064s-1.043,0.029-1.445,0.064
				c0.291-0.754,0.352-1.611,0.361-2.027H517.408z M514.385,67.109c0.391-0.047,1.121-0.117,1.941-0.117
				c0.818,0,1.551,0.07,1.939,0.117c0.074,0.094,0.152,0.191,0.23,0.293h-4.342C514.24,67.293,514.318,67.195,514.385,67.109z
				 M516.318,58.164c0.412,0.006,0.848,0.041,1.088,0.08v1.328h-2.162v-1.328C515.484,58.205,515.918,58.17,516.318,58.164z
				 M516.326,89.605c-3.738,0-3.738-0.221-3.738-0.756c0-0.25,0.016-0.508,0.035-0.807c0.025-0.393,0.055-0.838,0.055-1.406
				l-0.002-17.096c0.043-0.193,0.443-0.764,0.867-1.334h5.566c0.422,0.566,0.82,1.127,0.863,1.301v17.129
				c0,0.568,0.029,1.014,0.055,1.406c0.02,0.299,0.037,0.557,0.037,0.807C520.064,89.385,520.064,89.605,516.326,89.605z"/>
			<path fill="#FFFFFF" d="M513.08,74.455v8.92v1.199h6.49v-1.199v-8.92v-1.199h-6.49V74.455z M513.885,75.26h4.881v7.311h-4.881
				V75.26z M518.766,83.77h-4.881v-0.395h4.881V83.77z M518.766,74.061v0.395h-4.881v-0.395H518.766z"/>
			<path fill="#FFFFFF" d="M513.924,71.562c0.008-0.008,0.998-0.717,2.402-0.717c1.402,0,2.393,0.709,2.4,0.715
				c0.072,0.055,0.156,0.08,0.24,0.08c0.123,0,0.244-0.057,0.324-0.164c0.131-0.178,0.094-0.432-0.086-0.562
				c-0.047-0.035-1.201-0.873-2.879-0.873c-1.68,0-2.834,0.838-2.881,0.873c-0.178,0.131-0.217,0.383-0.084,0.562
				C513.492,71.654,513.744,71.693,513.924,71.562z"/>
			<path fill="#FFFFFF" d="M514.465,71.896c-0.223,0-0.404,0.18-0.404,0.402s0.182,0.404,0.404,0.404h3.721
				c0.223,0,0.404-0.182,0.404-0.404s-0.182-0.402-0.404-0.402H514.465z"/>
		</g>
		<path fill="#FFFFFF" d="M545.305,88.15c-0.023-0.355-0.051-0.758-0.051-1.264V70.895c0-0.221-0.166-0.559-0.627-1.213h0.012
			l-0.453-0.602c-0.172-0.229-0.348-0.455-0.508-0.662c-0.018-0.021-0.035-0.043-0.051-0.064c-0.012-0.016-0.025-0.031-0.037-0.047
			c-0.059-0.074-0.115-0.148-0.176-0.227c-0.488-0.623-0.566-1.902-0.555-2.352v-5.588c0-0.371-0.271-0.562-1.768-0.588
			c-1.484,0.025-1.756,0.217-1.756,0.588l0.002,5.598c0.012,0.439-0.064,1.717-0.557,2.342c-0.23,0.295-0.506,0.646-0.77,1
			l-0.455,0.602h0.012c-0.461,0.654-0.627,0.992-0.627,1.213v15.992c0,0.506-0.027,0.908-0.051,1.264
			c-0.02,0.279-0.035,0.543-0.035,0.803c0,1.387,1.09,1.457,4.242,1.457c3.154,0,4.244-0.07,4.244-1.457
			C545.342,88.693,545.324,88.43,545.305,88.15z M542.107,65.213h-2.02v-2.842h2.02V65.213z M542.109,65.965
			c0.01,0.393,0.068,1.189,0.338,1.891c-0.375-0.033-0.844-0.061-1.35-0.061c-0.504,0-0.973,0.029-1.35,0.061
			c0.271-0.703,0.328-1.504,0.338-1.891H542.109z M539.285,68.656c0.365-0.043,1.049-0.109,1.812-0.109
			c0.766,0,1.449,0.066,1.812,0.109c0.068,0.088,0.141,0.18,0.213,0.273h-4.051C539.15,68.828,539.225,68.736,539.285,68.656z
			 M541.092,60.305c0.385,0.006,0.791,0.037,1.016,0.074v1.24h-2.02v-1.24C540.312,60.342,540.717,60.311,541.092,60.305z
			 M541.098,89.658c-3.49,0-3.49-0.207-3.49-0.705c0-0.234,0.016-0.475,0.035-0.754c0.023-0.365,0.051-0.781,0.051-1.312
			l-0.004-15.961c0.043-0.18,0.414-0.713,0.811-1.244h5.197c0.395,0.527,0.766,1.051,0.805,1.213v15.992
			c0,0.531,0.027,0.947,0.053,1.312c0.02,0.279,0.033,0.52,0.033,0.754C544.59,89.451,544.59,89.658,541.098,89.658z"/>
		<path fill="#FFFFFF" d="M533.771,87.762c0-0.164-0.021-1-0.189-1.408c-0.09-0.217-0.15-0.758-0.168-1.016
			c0.004-0.15,0.346-15.135,0.357-16.434c0.016-1.568-1.379-3.043-2.262-3.604c-0.594-0.379-0.732-1.725-0.734-2.164v-6.285
			c0-0.51-0.508-0.768-1.508-0.768c-0.145,0-0.258,0.006-0.307,0.008c-0.049-0.002-0.164-0.008-0.307-0.008
			c-1,0-1.508,0.258-1.508,0.768v6.283c-0.002,0.441-0.143,1.787-0.736,2.166c-0.883,0.561-2.277,2.035-2.262,3.604
			c0.012,1.299,0.355,16.283,0.359,16.4c-0.018,0.289-0.078,0.832-0.168,1.049c-0.17,0.406-0.189,1.244-0.189,1.369
			c-0.008,0.074-0.062,0.742,0.537,1.41c0.762,0.85,2.199,1.281,4.273,1.281s3.512-0.432,4.273-1.281
			C533.832,88.465,533.777,87.797,533.771,87.762z M529.984,61.998h-2.047v-2.684h2.047V61.998z M528.654,56.875
			c0.158,0,0.273,0.008,0.273,0.008l0.033,0.002l0.027-0.002c0,0,0.119-0.008,0.277-0.008c0.4,0,0.619,0.047,0.719,0.082v1.564
			h-2.047v-1.564C528.035,56.922,528.254,56.875,528.654,56.875z M532.625,88.625c-0.422,0.455-1.402,0.996-3.664,0.996
			c-2.264,0-3.242-0.541-3.666-0.996c-0.383-0.412-0.359-0.807-0.355-0.854c0.006-0.344,0.049-0.916,0.131-1.115
			c0.168-0.408,0.223-1.213,0.229-1.336c-0.004-0.15-0.348-15.131-0.359-16.424c-0.012-1.17,1.125-2.439,1.895-2.928
			c0.912-0.58,1.07-2.076,1.098-2.635h2.057c0.027,0.559,0.186,2.055,1.098,2.635c0.77,0.488,1.906,1.758,1.895,2.928
			c-0.012,1.293-0.355,16.271-0.357,16.457c0.006,0.09,0.059,0.895,0.227,1.303c0.082,0.197,0.125,0.771,0.133,1.146
			C532.984,87.82,533.008,88.213,532.625,88.625z"/>
		<path fill="#FFFFFF" d="M530.857,71.492c-0.012-1.035-0.859-1.875-1.896-1.875c-1.039,0-1.885,0.84-1.896,1.875
			c-0.465,0.043-0.912,0.102-1.34,0.176l-0.334,0.059l0.008,0.34c0.039,1.873,0.094,4.293,0.145,6.555l0.008,0.387h6.818
			l0.008-0.387c0.053-2.262,0.105-4.682,0.146-6.555l0.006-0.34l-0.334-0.059C531.77,71.594,531.322,71.535,530.857,71.492z
			 M531.596,78.217h-5.271c-0.043-2.012-0.09-4.113-0.127-5.824c0.424-0.064,0.871-0.111,1.332-0.145l0.463-0.031l-0.105-0.453
			c-0.021-0.092-0.031-0.172-0.031-0.248c0-0.611,0.494-1.105,1.105-1.105c0.609,0,1.104,0.494,1.104,1.105
			c0,0.074-0.01,0.156-0.031,0.248l-0.104,0.453l0.461,0.031c0.461,0.033,0.908,0.08,1.332,0.145
			C531.688,74.104,531.641,76.205,531.596,78.217z"/>
		<path fill="#FFFFFF" d="M528.979,82.154c-1.117,0-2.1-0.035-2.92-0.107l-0.439-0.039l0.068,2.996l0.33,0.049
			c0.84,0.123,1.836,0.186,2.961,0.186c1.113,0,2.098-0.061,2.924-0.184l0.332-0.047l0.066-2.996l-0.439,0.037
			C531.051,82.119,530.08,82.154,528.979,82.154z M531.457,84.316c-0.717,0.086-1.549,0.131-2.479,0.131
			c-0.939,0-1.783-0.045-2.516-0.135l-0.033-1.443c0.746,0.051,1.602,0.076,2.549,0.076c0.932,0,1.775-0.025,2.512-0.074
			L531.457,84.316z"/>
		<rect x="539.301" y="74" fill="#FFFFFF" width="5" height="11"/>
		<g>
			<g>
				<path fill="#FFFFFF" d="M527.889,94.99c-3.656-5.605-9.092-8.516-9.146-8.543c-2.047-1.062-2.85-3.6-1.785-5.652
					c0.725-1.396,2.152-2.264,3.725-2.264c0.668,0,1.336,0.162,1.932,0.471c0.484,0.252,4.344,2.324,8.291,6.404
					c3.393-5.418,8.602-13.129,12.834-16.756c0.76-0.65,1.729-1.01,2.729-1.01c1.227,0,2.389,0.535,3.188,1.465
					c0.729,0.852,1.084,1.936,0.996,3.053c-0.086,1.117-0.602,2.133-1.453,2.863c-4.535,3.887-11.758,15.586-14.158,19.766
					l-3.408,5.939L527.889,94.99z"/>
				<path d="M546.467,69.547c0.645,0,1.287,0.271,1.74,0.801c0.82,0.959,0.711,2.402-0.25,3.225
					c-5.719,4.902-14.484,20.111-14.572,20.266l-1.859,3.238l-2.039-3.129c-3.973-6.09-9.801-9.16-9.859-9.191
					c-1.121-0.58-1.559-1.963-0.979-3.084c0.408-0.785,1.207-1.234,2.033-1.234c0.355,0,0.715,0.082,1.053,0.258
					c0.242,0.125,5.15,2.711,9.457,7.879c2.977-4.896,9.092-14.451,13.789-18.477C545.412,69.729,545.941,69.547,546.467,69.547
					 M546.467,65.734L546.467,65.734c-1.455,0-2.865,0.521-3.971,1.471c-2.309,1.979-6.17,6.203-11.949,15.199
					c-3.512-3.201-6.611-4.863-7.055-5.094c-0.867-0.449-1.838-0.688-2.811-0.688c-2.287,0-4.363,1.262-5.416,3.291
					c-1.547,2.982-0.385,6.664,2.588,8.219c0.164,0.09,5.115,2.805,8.438,7.898l2.041,3.129l3.4,5.217l3.102-5.4l1.859-3.24
					c2.359-4.104,9.428-15.566,13.746-19.268c1.236-1.061,1.988-2.539,2.113-4.164s-0.391-3.203-1.451-4.439
					C549.941,66.512,548.252,65.734,546.467,65.734L546.467,65.734z"/>
			</g>
		</g>
		<g>
			<path fill="#FFFFFF" d="M528.418,105.473c-16.543,0-30-13.457-30-30c0-16.541,13.457-30,30-30s30,13.459,30,30
				C558.418,92.016,544.961,105.473,528.418,105.473z M528.418,49.668c-14.229,0-25.805,11.576-25.805,25.805
				s11.576,25.807,25.805,25.807s25.805-11.578,25.805-25.807S542.646,49.668,528.418,49.668z"/>
		</g>
	</g>
	<g opacity="0.5">
		<g>
			<path fill="#FFFFFF" d="M750.293,105.473c-16.543,0-30-13.458-30-30c0-16.541,13.457-30,30-30s30,13.459,30,30
				C780.293,92.015,766.836,105.473,750.293,105.473z M750.293,49.668c-14.229,0-25.805,11.576-25.805,25.805
				s11.576,25.806,25.805,25.806s25.805-11.577,25.805-25.806S764.521,49.668,750.293,49.668z"/>
		</g>
		<polygon fill="#FFFFFF" points="744.869,60.623 760.875,75.473 744.869,90.322 		"/>
	</g>
	<g>
		<g>
			<path fill="#FFFFFF" d="M639.543,125.473c-27.571,0-50-22.43-50-50c0-27.568,22.429-50,50-50s50,22.432,50,50
				C689.543,103.043,667.114,125.473,639.543,125.473z M639.543,32.465c-23.714,0-43.008,19.293-43.008,43.008
				s19.294,43.01,43.008,43.01s43.008-19.295,43.008-43.01S663.257,32.465,639.543,32.465z"/>
		</g>
		<g>
			<circle fill="none" stroke="#FFFFFF" stroke-width="2" stroke-miterlimit="10" cx="644.971" cy="68.128" r="13.32"/>
			<line fill="none" stroke="#FFFFFF" stroke-width="2" stroke-miterlimit="10" x1="620.796" y1="96.137" x2="633.947" y2="80.9"/>
		</g>
	</g>
</g>
<g id="Layer_4">
</g>
</svg>
