<?xml version="1.0" encoding="utf-8"?>
<!-- Generator: Adobe Illustrator 16.0.0, SVG Export Plug-In . SVG Version: 6.00 Build 0)  -->
<!DOCTYPE svg PUBLIC "-//W3C//DTD SVG 1.1//EN" "http://www.w3.org/Graphics/SVG/1.1/DTD/svg11.dtd">
<svg version="1.1" xmlns="http://www.w3.org/2000/svg" xmlns:xlink="http://www.w3.org/1999/xlink" x="0px" y="0px" width="1280px"
	 height="800px" viewBox="0 0 1280 800" enable-background="new 0 0 1280 800" xml:space="preserve">
<g id="Background_Color">
	<rect y="0.25" width="1280" height="800"/>
</g>
<g id="Layer_2">
	<g>
		<text transform="matrix(1 0 0 1 226.3008 187.8672)" fill="#FFFFFF" font-family="'Gibson-SemiBold'" font-size="20">Sazarac Cocktail</text>
	</g>
	<g>
		<text transform="matrix(1 0 0 1 226.3008 225.4658)"><tspan x="0" y="0" fill="#FFFFFF" font-family="'Gibson-Regular'" font-size="18">Base Spirit: Rye, Absinthe</tspan><tspan x="0" y="21.6" fill="#FFFFFF" font-family="'Gibson-Regular'" font-size="18">Flavor Profile: Spirit Forward</tspan></text>
	</g>
	<rect x="226.729" y="199.905" fill="#FFFFFF" width="821" height="3"/>
	<g>
		
			<line fill="none" stroke="#FFFFFF" stroke-linecap="round" stroke-linejoin="round" stroke-miterlimit="10" x1="1037.25" y1="170.967" x2="1046.81" y2="180.524"/>
		
			<line fill="none" stroke="#FFFFFF" stroke-linecap="round" stroke-linejoin="round" stroke-miterlimit="10" x1="1037.25" y1="190.084" x2="1046.81" y2="180.524"/>
	</g>
	
		<line fill="none" stroke="#FFFFFF" stroke-linecap="round" stroke-linejoin="round" stroke-miterlimit="10" x1="1016.625" y1="180.525" x2="1046.81" y2="180.524"/>
	<g>
		<g>
			<g>
				<path fill="#FFFFFF" d="M1025.598,221.146c-3.732,0-6.769,3.037-6.769,6.77s3.036,6.768,6.769,6.768
					c3.731,0,6.77-3.035,6.77-6.768S1029.329,221.146,1025.598,221.146z M1025.598,234.479c-3.621,0-6.565-2.945-6.565-6.564
					s2.944-6.565,6.565-6.565c3.62,0,6.565,2.946,6.565,6.565S1029.218,234.479,1025.598,234.479z"/>
				<path fill="#FFFFFF" d="M1025.598,222.777c-2.833,0-5.136,2.307-5.136,5.138c0,2.83,2.303,5.137,5.136,5.137
					s5.136-2.307,5.136-5.137C1030.733,225.084,1028.431,222.777,1025.598,222.777z M1025.598,232.845
					c-2.72,0-4.933-2.211-4.933-4.93c0-2.721,2.213-4.932,4.933-4.932s4.932,2.211,4.932,4.932
					C1030.529,230.634,1028.317,232.845,1025.598,232.845z"/>
				<path fill="#FFFFFF" d="M1025.598,224.411c-1.932,0-3.504,1.572-3.504,3.504c0,1.93,1.572,3.502,3.504,3.502
					s3.504-1.572,3.504-3.502C1029.102,225.983,1027.529,224.411,1025.598,224.411z M1025.598,231.214
					c-1.818,0-3.299-1.479-3.299-3.299c0-1.819,1.48-3.3,3.299-3.3c1.819,0,3.299,1.48,3.299,3.3
					C1028.896,229.735,1027.417,231.214,1025.598,231.214z"/>
			</g>
			<g>
				<g>
					<g>
						<g>
							<path fill="#FFFFFF" d="M1034.941,250.173c0,0-0.818-2.445-2.28-4.498c-0.673-0.94-0.859-1.26-1.672-1.844
								c-0.724-0.52-1.922-1.379-2.43-1.781c-0.787-0.622-1.494-1.156-1.698-1.718c-0.335-0.926-1.07-2.136-1.226-2.304
								c-0.157-0.169-0.564-0.74-0.19-1.252c0.375-0.512,0.807-1.127,0.979-1.83c0.222-0.894,0.794,0.138,0.764-0.053
								c-0.165-1.035-2.314-6.814-2.314-6.814s-0.277-0.808,0.521-1.102c0.803-0.297,1.05,0.301,1.246,0.796
								c0.195,0.495,2.373,6.276,2.373,6.276s0.137,0.271,0.408,0.162c0.271-0.104,0.259-0.359,0.221-0.561
								c-0.02-0.096-0.062-0.527-0.166-0.977c-0.109-0.482-0.279-0.99-0.307-1.132c-0.062-0.326-0.473-1.607,0.446-1.984
								c0.711-0.291,0.982,0.14,1.249,0.49c0.065,0.085,0.17,0.159,0.189,0.159c0.023-0.004,0.226-0.379,0.578-0.464
								c0.465-0.11,0.82-0.03,1.133,0.563c0.197,0.371,0.747,1.891,0.832,1.871c0.147-0.033,0.036-0.585,0.521-0.711
								c0.485-0.127,0.855,0.075,1.081,0.426c0.225,0.352,0.813,1.529,1.073,1.76c0.262,0.23,0.718,0.74,0.826,1.824
								c0.107,1.084,0.461,3.197,0.405,4.402c-0.058,1.206-0.024,1.483,0.72,3.163c0.744,1.683,2.33,4.489,2.33,4.489"/>
						</g>
						<g>
							<path d="M1027.935,239.684c0,0-0.142-1.215-0.319-2.427c-0.088-0.605-0.188-1.211-0.281-1.657
								c-0.023-0.114-0.046-0.216-0.07-0.305c-0.021-0.091-0.042-0.17-0.064-0.23c-0.017-0.063-0.036-0.111-0.052-0.142
								c-0.012-0.031-0.021-0.045-0.021-0.045l-0.002-0.008c-0.008-0.017,0-0.043,0.019-0.05c0.021-0.009,0.041,0,0.053,0.019l0,0
								c0,0,0.007,0.018,0.023,0.055c0.013,0.031,0.034,0.082,0.054,0.148c0.019,0.067,0.039,0.145,0.061,0.238
								c0.021,0.09,0.043,0.193,0.063,0.306c0.087,0.454,0.178,1.062,0.258,1.666
								C1027.815,238.467,1027.935,239.684,1027.935,239.684z"/>
						</g>
						<g>
							<path d="M1032.257,233.413c0,0-0.009-0.012-0.027-0.027c-0.018-0.018-0.041-0.049-0.078-0.078
								c-0.019-0.014-0.038-0.031-0.059-0.051c-0.024-0.018-0.051-0.031-0.078-0.055c-0.027-0.016-0.058-0.031-0.087-0.059
								c-0.028-0.025-0.048-0.062-0.067-0.098c-0.038-0.074-0.069-0.157-0.104-0.244c-0.032-0.091-0.064-0.184-0.097-0.279
								c-0.064-0.195-0.127-0.406-0.188-0.617c-0.243-0.84-0.451-1.689-0.451-1.689c-0.008-0.02,0.006-0.041,0.027-0.045
								c0.02-0.005,0.041,0.006,0.045,0.027l0,0c0,0,0.19,0.852,0.415,1.697c0.057,0.211,0.114,0.422,0.175,0.619
								c0.03,0.097,0.062,0.191,0.09,0.279c0.033,0.09,0.063,0.172,0.1,0.246c0.018,0.035,0.032,0.07,0.061,0.098
								c0.027,0.023,0.061,0.042,0.086,0.061c0.025,0.02,0.055,0.036,0.076,0.055c0.021,0.018,0.04,0.037,0.06,0.053
								c0.036,0.029,0.059,0.062,0.075,0.078C1032.248,233.401,1032.257,233.413,1032.257,233.413z"/>
						</g>
						<g>
							<path d="M1034.693,233.637c0,0-0.024-0.015-0.066-0.045c-0.021-0.015-0.044-0.034-0.069-0.055
								c-0.029-0.022-0.061-0.047-0.092-0.078c-0.032-0.028-0.063-0.062-0.1-0.094c-0.041-0.036-0.071-0.075-0.11-0.117
								c-0.034-0.04-0.073-0.08-0.11-0.126c-0.034-0.041-0.069-0.09-0.105-0.135c-0.031-0.046-0.072-0.092-0.101-0.139
								c-0.032-0.047-0.06-0.096-0.091-0.143c-0.028-0.042-0.058-0.09-0.083-0.133s-0.047-0.082-0.066-0.12
								c-0.083-0.155-0.137-0.259-0.137-0.259c-0.009-0.019-0.003-0.039,0.018-0.052c0.017-0.011,0.038-0.003,0.052,0.017
								c0,0,0,0,0,0.003l0.002,0.002c0,0,0.047,0.101,0.121,0.258c0.02,0.038,0.04,0.081,0.061,0.123
								c0.025,0.044,0.051,0.087,0.078,0.135s0.057,0.095,0.083,0.142c0.027,0.051,0.063,0.095,0.096,0.145
								c0.033,0.049,0.066,0.092,0.098,0.141c0.034,0.042,0.071,0.084,0.105,0.128c0.035,0.039,0.066,0.083,0.103,0.116
								c0.033,0.035,0.067,0.068,0.096,0.102c0.031,0.027,0.061,0.054,0.087,0.08c0.025,0.021,0.048,0.041,0.07,0.058
								C1034.669,233.62,1034.693,233.637,1034.693,233.637z"/>
						</g>
						<g>
							<path d="M1025.65,228.092c-0.099,0.017-0.197,0.007-0.313-0.069c-0.191-0.128-0.347-0.742-0.352-0.77
								c0-0.004,0.003-0.01,0.005-0.01c0.004,0,0.004,0,0.004,0c0.004,0,0.009,0,0.011,0.008c0.002,0.004,0.157,0.633,0.344,0.752
								c0.168,0.114,0.302,0.074,0.455,0.027c0.019-0.005,0.037-0.01,0.054-0.018c0.265-0.078,0.414-0.185,0.446-0.32
								c0.047-0.199-0.195-0.703-0.196-0.707c-0.001-0.003,0-0.01,0.006-0.012c0.003-0.002,0.009,0,0.012,0.004
								c0.011,0.022,0.245,0.514,0.199,0.721c-0.036,0.139-0.188,0.252-0.461,0.332c-0.019,0.006-0.035,0.012-0.053,0.018
								C1025.755,228.062,1025.703,228.081,1025.65,228.092z"/>
						</g>
					</g>
				</g>
				<path fill="none" stroke="#FFFFFF" stroke-width="2" stroke-miterlimit="10" d="M1047.301,232.405
					c0,10.748-8.712,19.459-19.46,19.459c-10.744,0-19.455-8.711-19.455-19.459c0-10.745,8.711-19.456,19.455-19.456
					C1038.589,212.949,1047.301,221.66,1047.301,232.405z"/>
			</g>
		</g>
		<g opacity="0.5">
			<path fill="#FFFFFF" d="M974.758,232.407l-1.608-0.575v0.396h-7.087c-0.099,0-0.179,0.08-0.179,0.179s0.08,0.176,0.179,0.176
				h7.087v0.399L974.758,232.407z"/>
			<path fill="#FFFFFF" d="M990.733,232.407l-1.607-0.575v0.396h-7.09c-0.099,0-0.177,0.08-0.177,0.179s0.078,0.176,0.177,0.176
				h7.09v0.399L990.733,232.407z"/>
			<path fill="none" stroke="#FFFFFF" stroke-miterlimit="10" d="M987.972,238.333v-11.852h8.75
				c-2.508-7.848-9.857-13.531-18.535-13.531s-16.027,5.684-18.535,13.531h8.749v11.852h-8.749
				c2.508,7.85,9.857,13.531,18.535,13.531s16.027-5.682,18.535-13.531H987.972z M984.073,238.333H972.22v-11.852h11.854V238.333z"
				/>
			<circle fill="none" stroke="#FFFFFF" stroke-width="2" stroke-miterlimit="10" cx="978.188" cy="232.407" r="19.458"/>
		</g>
	</g>
	<circle fill="#FFFFFF" cx="474.996" cy="591.213" r="110.594"/>
	<polygon fill="none" stroke="#FFFFFF" stroke-miterlimit="10" points="996.296,170.967 999.401,177.26 1006.347,178.27 
		1001.32,183.168 1002.508,190.084 996.296,186.818 990.084,190.084 991.271,183.168 986.245,178.27 993.19,177.26 	"/>
	<g>
		<text transform="matrix(1 0 0 1 420.8672 632.7607)"><tspan x="0" y="0" font-family="'Gibson-SemiBold'" font-size="20">Place Large </tspan><tspan x="-9.09" y="24" font-family="'Gibson-SemiBold'" font-size="20">Barglass Here</tspan></text>
	</g>
	<path d="M492.668,518.314l-0.814-0.135c-5.768-0.936-16.396-1.074-16.865-1.079c-0.451,0.005-11.079,0.144-16.846,1.079
		l-0.82,0.135c-5.552,0.897-10.793,1.741-10.307,5.838c0.693,5.746,1.165,9.467,1.329,10.397c0,0.083,0,0.263,7.617,63.434
		c0.009,0.114,0.408,2.771,3.182,3.979c2.839,1.231,6.942,2.492,15.854,2.492c8.914,0,13.013-1.261,15.849-2.492
		c2.784-1.207,3.173-3.864,3.192-3.994c7.613-63.155,7.613-63.335,7.606-63.355c0.164-0.993,0.64-4.714,1.329-10.46
		C503.47,520.056,498.22,519.212,492.668,518.314z M457.636,520.246l0.817-0.134c5.627-0.92,16.445-1.055,16.535-1.064
		c0.107,0.01,10.927,0.145,16.55,1.064l0.821,0.134c4.734,0.761,7.861,1.385,8.543,2.832c-0.798,0.527-2.414,1.261-5.689,1.871
		c-6.309,1.183-14.943,1.809-20.215,1.809s-13.907-0.626-20.221-1.809c-3.275-0.61-4.891-1.344-5.684-1.871
		C449.77,521.631,452.896,521.012,457.636,520.246z M492.104,597.714c-0.014,0.063-0.281,1.696-2.033,2.462
		c-2.652,1.15-6.516,2.324-15.072,2.324c-8.554,0-12.422-1.174-15.069-2.324c-1.755-0.766-2.028-2.398-2.035-2.439
		c-0.011-0.094-0.182-1.489-0.46-3.803c1.907,1.311,4.627,2.8,8.93,3.275c5.441,0.608,6.444,0.608,8.635,0.608
		c2.189,0,3.194,0,8.64-0.608c4.306-0.476,7.021-1.965,8.923-3.275C492.283,596.238,492.112,597.622,492.104,597.714z
		 M499.719,534.292c-0.027,0.164-0.021,0.164-0.016,0.175c-0.079,0.806-5.271,43.923-7.027,58.495
		c-1.852,1.333-4.568,3.018-9.121,3.522c-5.404,0.6-6.393,0.6-8.557,0.6c-2.166,0-3.15,0-8.554-0.6
		c-4.55-0.505-7.274-2.189-9.122-3.522c-1.76-14.604-6.947-57.674-7.023-58.412c0-0.094,0.004-0.094-0.027-0.258
		c-0.094-0.563-0.385-2.652-1.312-10.37c0-0.022,0-0.038,0-0.059c0.98,0.579,2.693,1.241,5.69,1.809
		c6.353,1.189,15.048,1.809,20.349,1.809s13.998-0.619,20.35-1.809c2.99-0.567,4.707-1.229,5.689-1.809c0,0.021,0,0.036,0,0.059
		C500.111,531.64,499.816,533.729,499.719,534.292z"/>
</g>
<g id="Layer_3">
	<g>
		<g opacity="0.5">
			<g>
				<path fill="#FFFFFF" d="M441.168,104.378c-16.543,0-30-13.458-30-30s13.457-30,30-30s30,13.458,30,30
					S457.711,104.378,441.168,104.378z M441.168,48.573c-14.229,0-25.805,11.575-25.805,25.805s11.576,25.805,25.805,25.805
					s25.805-11.575,25.805-25.805S455.396,48.573,441.168,48.573z"/>
			</g>
			<g>
				<path fill="#FFFFFF" d="M434.783,84.272c-0.467,0-0.895-0.051-1.066-0.496l-6.604-16.871h-3.932c-0.633,0-1.146-0.868-1.146-1.5
					c0-0.631,0.514-1.5,1.146-1.5h4.717c0.473,0,0.896,0.41,1.066,0.852l6.568,17.075l17.449-2.32l2.912-9.606h-20.512
					c-0.631,0-1.143-0.368-1.143-1c0-0.633,0.512-1,1.143-1h22.07c0.363,0,0.705,0.391,0.922,0.684
					c0.215,0.293,0.279,0.781,0.17,1.129l-3.604,11.525c-0.135,0.432-0.512,0.77-0.961,0.822l-19.066,2.187
					C434.871,84.258,434.826,84.272,434.783,84.272z"/>
			</g>
			<g>
				<circle fill="#FFFFFF" cx="435.726" cy="87.963" r="2.177"/>
			</g>
			<g>
				<circle fill="#FFFFFF" cx="452.674" cy="87.963" r="2.178"/>
			</g>
		</g>
		<g opacity="0.5">
			<g>
				<path fill="#FFFFFF" d="M532.668,104.378c-16.543,0-30-13.458-30-30c0-16.543,13.457-30,30-30s30,13.457,30,30
					C562.668,90.92,549.211,104.378,532.668,104.378z M532.668,48.572c-14.229,0-25.805,11.577-25.805,25.806
					s11.576,25.805,25.805,25.805s25.805-11.576,25.805-25.805S546.896,48.572,532.668,48.572z"/>
			</g>
			<g>
				<g>
					
						<line fill="none" stroke="#FFFFFF" stroke-width="2" stroke-linecap="round" stroke-miterlimit="10" x1="525.105" y1="61.71" x2="547.105" y2="61.71"/>
					<path fill="#FFFFFF" d="M522.23,61.71c0,1.105-0.898,2-2,2c-1.109,0-2-0.895-2-2s0.891-2,2-2
						C521.332,59.71,522.23,60.604,522.23,61.71z"/>
				</g>
				<g>
					
						<line fill="none" stroke="#FFFFFF" stroke-width="2" stroke-linecap="round" stroke-miterlimit="10" x1="525.105" y1="69.503" x2="547.105" y2="69.503"/>
					<path fill="#FFFFFF" d="M522.23,69.503c0,1.105-0.898,2-2,2c-1.109,0-2-0.895-2-2s0.891-2,2-2
						C521.332,67.503,522.23,68.397,522.23,69.503z"/>
				</g>
				<g>
					
						<line fill="none" stroke="#FFFFFF" stroke-width="2" stroke-linecap="round" stroke-miterlimit="10" x1="525.105" y1="77.294" x2="547.105" y2="77.294"/>
					<path fill="#FFFFFF" d="M522.23,77.294c0,1.105-0.898,2-2,2c-1.109,0-2-0.895-2-2s0.891-2,2-2
						C521.332,75.294,522.23,76.188,522.23,77.294z"/>
				</g>
				<g>
					
						<line fill="none" stroke="#FFFFFF" stroke-width="2" stroke-linecap="round" stroke-miterlimit="10" x1="525.105" y1="85.086" x2="547.105" y2="85.086"/>
					<path fill="#FFFFFF" d="M522.23,85.086c0,1.105-0.898,2-2,2c-1.109,0-2-0.895-2-2s0.891-2,2-2
						C521.332,83.086,522.23,83.98,522.23,85.086z"/>
				</g>
			</g>
		</g>
		<g opacity="0.5">
			<g>
				<path fill="#FFFFFF" d="M845.293,104.378c-16.543,0-30-13.458-30-30c0-16.541,13.457-30,30-30s30,13.459,30,30
					C875.293,90.92,861.836,104.378,845.293,104.378z M845.293,48.573c-14.229,0-25.805,11.576-25.805,25.805
					s11.576,25.806,25.805,25.806s25.805-11.577,25.805-25.806S859.521,48.573,845.293,48.573z"/>
			</g>
			<polygon fill="#FFFFFF" points="839.869,59.528 855.875,74.378 839.869,89.228 			"/>
		</g>
		<g>
			<g>
				<path fill="#FFFFFF" d="M643.543,124.283c-27.571,0-50-22.43-50-50c0-27.568,22.429-50,50-50s50,22.432,50,50
					C693.543,101.854,671.114,124.283,643.543,124.283z M643.543,31.275c-23.714,0-43.008,19.294-43.008,43.008
					s19.294,43.01,43.008,43.01s43.008-19.296,43.008-43.01S667.257,31.275,643.543,31.275z"/>
			</g>
			<g>
				<circle fill="none" stroke="#FFFFFF" stroke-width="3" stroke-miterlimit="10" cx="648.971" cy="66.939" r="13.32"/>
				
					<line fill="none" stroke="#FFFFFF" stroke-width="3" stroke-miterlimit="10" x1="624.796" y1="94.947" x2="637.947" y2="79.711"/>
			</g>
		</g>
		<g opacity="0.5">
			<g>
				<path fill="#FFFFFF" d="M746.832,86.896c-0.025-0.381-0.055-0.811-0.055-1.354V68.413c0-0.238-0.178-0.6-0.674-1.301h0.014
					l-0.484-0.643c-0.184-0.246-0.371-0.486-0.545-0.709c-0.018-0.023-0.035-0.047-0.053-0.07c-0.014-0.016-0.029-0.033-0.041-0.051
					c-0.061-0.08-0.123-0.158-0.189-0.242c-0.521-0.668-0.605-2.037-0.592-2.52v-5.984c0-0.396-0.293-0.604-1.895-0.629
					c-1.59,0.025-1.879,0.232-1.879,0.629v5.996c0.012,0.471-0.068,1.838-0.594,2.508c-0.248,0.316-0.543,0.693-0.828,1.07
					l-0.486,0.645h0.016c-0.496,0.701-0.674,1.062-0.674,1.301v17.129c0,0.541-0.029,0.973-0.053,1.354
					c-0.021,0.299-0.039,0.582-0.039,0.859c0,1.484,1.166,1.561,4.545,1.561c3.377,0,4.543-0.076,4.543-1.561
					C746.869,87.478,746.852,87.194,746.832,86.896z M743.406,62.325h-2.162v-3.043h2.162V62.325z M743.408,63.13
					c0.012,0.422,0.074,1.277,0.361,2.027c-0.4-0.035-0.902-0.064-1.443-0.064s-1.043,0.029-1.445,0.064
					c0.291-0.754,0.352-1.611,0.361-2.027H743.408z M740.385,66.015c0.391-0.047,1.121-0.117,1.941-0.117
					c0.818,0,1.551,0.07,1.939,0.117c0.074,0.094,0.152,0.191,0.23,0.293h-4.342C740.24,66.198,740.318,66.101,740.385,66.015z
					 M742.318,57.069c0.412,0.006,0.848,0.041,1.088,0.08v1.328h-2.162v-1.328C741.484,57.11,741.918,57.075,742.318,57.069z
					 M742.326,88.511c-3.738,0-3.738-0.221-3.738-0.756c0-0.25,0.016-0.508,0.035-0.807c0.025-0.393,0.055-0.838,0.055-1.406
					l-0.002-17.096c0.043-0.193,0.443-0.764,0.867-1.334h5.566c0.422,0.566,0.82,1.127,0.863,1.301v17.129
					c0,0.568,0.029,1.014,0.055,1.406c0.02,0.299,0.037,0.557,0.037,0.807C746.064,88.29,746.064,88.511,742.326,88.511z"/>
				<path fill="#FFFFFF" d="M739.08,73.36v8.92v1.199h6.49V82.28v-8.92v-1.199h-6.49V73.36z M739.885,74.165h4.881v7.311h-4.881
					V74.165z M744.766,82.675h-4.881V82.28h4.881V82.675z M744.766,72.966v0.395h-4.881v-0.395H744.766z"/>
				<path fill="#FFFFFF" d="M739.924,70.468c0.008-0.008,0.998-0.717,2.402-0.717c1.402,0,2.393,0.709,2.4,0.715
					c0.072,0.055,0.156,0.08,0.24,0.08c0.123,0,0.244-0.057,0.324-0.164c0.131-0.178,0.094-0.432-0.086-0.562
					c-0.047-0.035-1.201-0.873-2.879-0.873c-1.68,0-2.834,0.838-2.881,0.873c-0.178,0.131-0.217,0.383-0.084,0.562
					C739.492,70.56,739.744,70.599,739.924,70.468z"/>
				<path fill="#FFFFFF" d="M740.465,70.802c-0.223,0-0.404,0.18-0.404,0.402s0.182,0.404,0.404,0.404h3.721
					c0.223,0,0.404-0.182,0.404-0.404s-0.182-0.402-0.404-0.402H740.465z"/>
			</g>
			<path fill="#FFFFFF" d="M771.305,87.056c-0.023-0.355-0.051-0.758-0.051-1.264V69.8c0-0.221-0.166-0.559-0.627-1.213h0.012
				l-0.453-0.602c-0.172-0.229-0.348-0.455-0.508-0.662c-0.018-0.021-0.035-0.043-0.051-0.064c-0.012-0.016-0.025-0.031-0.037-0.047
				c-0.059-0.074-0.115-0.148-0.176-0.227c-0.488-0.623-0.566-1.902-0.555-2.352v-5.588c0-0.371-0.271-0.562-1.768-0.588
				c-1.484,0.025-1.756,0.217-1.756,0.588l0.002,5.598c0.012,0.439-0.064,1.717-0.557,2.342c-0.23,0.295-0.506,0.646-0.77,1
				l-0.455,0.602h0.012c-0.461,0.654-0.627,0.992-0.627,1.213v15.992c0,0.506-0.027,0.908-0.051,1.264
				c-0.02,0.279-0.035,0.543-0.035,0.803c0,1.387,1.09,1.457,4.242,1.457c3.154,0,4.244-0.07,4.244-1.457
				C771.342,87.599,771.324,87.335,771.305,87.056z M768.107,64.118h-2.02v-2.842h2.02V64.118z M768.109,64.87
				c0.01,0.393,0.068,1.189,0.338,1.891c-0.375-0.033-0.844-0.061-1.35-0.061c-0.504,0-0.973,0.029-1.35,0.061
				c0.271-0.703,0.328-1.504,0.338-1.891H768.109z M765.285,67.562c0.365-0.043,1.049-0.109,1.812-0.109
				c0.766,0,1.449,0.066,1.812,0.109c0.068,0.088,0.141,0.18,0.213,0.273h-4.051C765.15,67.733,765.225,67.642,765.285,67.562z
				 M767.092,59.21c0.385,0.006,0.791,0.037,1.016,0.074v1.24h-2.02v-1.24C766.312,59.247,766.717,59.216,767.092,59.21z
				 M767.098,88.563c-3.49,0-3.49-0.207-3.49-0.705c0-0.234,0.016-0.475,0.035-0.754c0.023-0.365,0.051-0.781,0.051-1.312
				l-0.004-15.961c0.043-0.18,0.414-0.713,0.811-1.244h5.197c0.395,0.527,0.766,1.051,0.805,1.213v15.992
				c0,0.531,0.027,0.947,0.053,1.312c0.02,0.279,0.033,0.52,0.033,0.754C770.59,88.356,770.59,88.563,767.098,88.563z"/>
			<path fill="#FFFFFF" d="M759.771,86.667c0-0.164-0.021-1-0.189-1.408c-0.09-0.217-0.15-0.758-0.168-1.016
				c0.004-0.15,0.346-15.135,0.357-16.434c0.016-1.568-1.379-3.043-2.262-3.604c-0.594-0.379-0.732-1.725-0.734-2.164v-6.285
				c0-0.51-0.508-0.768-1.508-0.768c-0.145,0-0.258,0.006-0.307,0.008c-0.049-0.002-0.164-0.008-0.307-0.008
				c-1,0-1.508,0.258-1.508,0.768v6.283c-0.002,0.441-0.143,1.787-0.736,2.166c-0.883,0.561-2.277,2.035-2.262,3.604
				c0.012,1.299,0.355,16.283,0.359,16.4c-0.018,0.289-0.078,0.832-0.168,1.049c-0.17,0.406-0.189,1.244-0.189,1.369
				c-0.008,0.074-0.062,0.742,0.537,1.41c0.762,0.85,2.199,1.281,4.273,1.281s3.512-0.432,4.273-1.281
				C759.832,87.37,759.777,86.702,759.771,86.667z M755.984,60.903h-2.047V58.22h2.047V60.903z M754.654,55.78
				c0.158,0,0.273,0.008,0.279,0.008l0.027,0.002l0.027-0.002c0.006,0,0.119-0.008,0.277-0.008c0.4,0,0.619,0.047,0.719,0.082v1.564
				h-2.047v-1.564C754.035,55.827,754.254,55.78,754.654,55.78z M758.625,87.53c-0.422,0.455-1.402,0.996-3.664,0.996
				c-2.264,0-3.242-0.541-3.666-0.996c-0.383-0.412-0.359-0.807-0.355-0.854c0.006-0.344,0.049-0.916,0.131-1.115
				c0.168-0.408,0.223-1.213,0.229-1.336c-0.004-0.15-0.348-15.131-0.359-16.424c-0.012-1.17,1.125-2.439,1.895-2.928
				c0.912-0.58,1.07-2.076,1.098-2.635h2.057c0.027,0.559,0.186,2.055,1.098,2.635c0.77,0.488,1.906,1.758,1.895,2.928
				c-0.012,1.293-0.355,16.271-0.357,16.457c0.006,0.09,0.059,0.895,0.227,1.303c0.082,0.197,0.125,0.771,0.133,1.146
				C758.984,86.726,759.008,87.118,758.625,87.53z"/>
			<path fill="#FFFFFF" d="M756.857,70.397c-0.012-1.035-0.859-1.875-1.896-1.875c-1.039,0-1.885,0.84-1.896,1.875
				c-0.465,0.043-0.912,0.102-1.34,0.176l-0.334,0.059l0.008,0.34c0.039,1.873,0.094,4.293,0.145,6.555l0.008,0.387h6.818
				l0.008-0.387c0.053-2.262,0.105-4.682,0.146-6.555l0.006-0.34l-0.334-0.059C757.77,70.499,757.322,70.44,756.857,70.397z
				 M757.596,77.122h-5.271c-0.043-2.012-0.09-4.113-0.127-5.824c0.424-0.064,0.871-0.111,1.332-0.145l0.463-0.031l-0.105-0.453
				c-0.021-0.092-0.031-0.172-0.031-0.248c0-0.611,0.494-1.105,1.105-1.105c0.609,0,1.104,0.494,1.104,1.105
				c0,0.074-0.01,0.156-0.031,0.248l-0.104,0.453l0.461,0.031c0.461,0.033,0.908,0.08,1.332,0.145
				C757.688,73.009,757.641,75.11,757.596,77.122z"/>
			<path fill="#FFFFFF" d="M754.979,81.06c-1.117,0-2.1-0.035-2.92-0.107l-0.439-0.039l0.068,2.996l0.33,0.049
				c0.84,0.123,1.836,0.186,2.961,0.186c1.113,0,2.098-0.061,2.924-0.184l0.332-0.047l0.066-2.996l-0.439,0.037
				C757.051,81.024,756.08,81.06,754.979,81.06z M757.457,83.222c-0.717,0.086-1.549,0.131-2.479,0.131
				c-0.939,0-1.783-0.045-2.516-0.135l-0.033-1.443c0.746,0.051,1.602,0.076,2.549,0.076c0.932,0,1.775-0.025,2.512-0.074
				L757.457,83.222z"/>
			<rect x="765.729" y="72.905" fill="#FFFFFF" width="5" height="11"/>
			<g>
				<g>
					<path fill="#FFFFFF" d="M753.889,93.896c-3.656-5.605-9.092-8.516-9.146-8.543c-2.047-1.062-2.85-3.6-1.785-5.652
						c0.725-1.396,2.152-2.264,3.725-2.264c0.668,0,1.336,0.162,1.932,0.471c0.484,0.252,4.344,2.324,8.291,6.404
						c3.393-5.418,8.602-13.129,12.834-16.756c0.76-0.65,1.729-1.01,2.729-1.01c1.227,0,2.389,0.535,3.188,1.465
						c0.729,0.852,1.084,1.936,0.996,3.053c-0.086,1.117-0.602,2.133-1.453,2.863c-4.535,3.887-11.758,15.586-14.158,19.766
						l-3.408,5.939L753.889,93.896z"/>
					<path d="M772.467,68.452c0.645,0,1.287,0.271,1.74,0.801c0.82,0.959,0.711,2.402-0.25,3.225
						c-5.719,4.902-14.484,20.111-14.572,20.266l-1.859,3.238l-2.039-3.129c-3.973-6.09-9.801-9.16-9.859-9.191
						c-1.121-0.58-1.559-1.963-0.979-3.084c0.408-0.785,1.207-1.234,2.033-1.234c0.355,0,0.715,0.082,1.053,0.258
						c0.242,0.125,5.15,2.711,9.457,7.879c2.977-4.896,9.092-14.451,13.789-18.477C771.412,68.634,771.941,68.452,772.467,68.452
						 M772.467,64.64L772.467,64.64c-1.455,0-2.865,0.521-3.971,1.471c-2.309,1.979-6.17,6.203-11.949,15.199
						c-3.512-3.201-6.611-4.863-7.055-5.094c-0.867-0.449-1.838-0.688-2.811-0.688c-2.287,0-4.363,1.262-5.416,3.291
						c-1.547,2.982-0.385,6.664,2.588,8.219c0.164,0.09,5.115,2.805,8.438,7.898l2.041,3.129l3.4,5.217l3.102-5.4l1.859-3.24
						c2.359-4.104,9.428-15.566,13.746-19.268c1.236-1.061,1.988-2.539,2.113-4.164s-0.391-3.203-1.451-4.439
						C775.941,65.417,774.252,64.64,772.467,64.64L772.467,64.64z"/>
				</g>
			</g>
			<g>
				<path fill="#FFFFFF" d="M754.418,104.378c-16.543,0-30-13.457-30-30c0-16.541,13.457-30,30-30s30,13.459,30,30
					C784.418,90.921,770.961,104.378,754.418,104.378z M754.418,48.573c-14.229,0-25.805,11.576-25.805,25.805
					s11.576,25.807,25.805,25.807s25.805-11.578,25.805-25.807S768.646,48.573,754.418,48.573z"/>
			</g>
		</g>
	</g>
</g>
<g id="Layer_4">
</g>
</svg>
