<?xml version="1.0" encoding="utf-8"?>
<!-- Generator: Adobe Illustrator 16.0.0, SVG Export Plug-In . SVG Version: 6.00 Build 0)  -->
<!DOCTYPE svg PUBLIC "-//W3C//DTD SVG 1.1//EN" "http://www.w3.org/Graphics/SVG/1.1/DTD/svg11.dtd">
<svg version="1.1" xmlns="http://www.w3.org/2000/svg" xmlns:xlink="http://www.w3.org/1999/xlink" x="0px" y="0px" width="1280px"
	 height="800px" viewBox="0 0 1280 800" enable-background="new 0 0 1280 800" xml:space="preserve">
<g id="Background_Color">
	<rect width="1280" height="800"/>
	<g>
		<g>
			<path fill="#FFFFFF" d="M639.168,125.834c-27.571,0-50-22.43-50-50c0-27.572,22.429-50,50-50c27.57,0,50,22.428,50,50
				C689.168,103.404,666.738,125.834,639.168,125.834z M639.168,32.825c-23.715,0-43.01,19.295-43.01,43.009
				s19.295,43.008,43.01,43.008c23.714,0,43.008-19.293,43.008-43.008S662.882,32.825,639.168,32.825z"/>
		</g>
		<g>
			<polygon fill="#FFFFFF" points="655.382,47.821 655.845,50.066 656.002,50.831 656.046,51.038 656.732,50.977 657.599,50.897 
				657.599,50.725 657.599,50.079 657.599,49.439 657.599,47.559 			"/>
		</g>
		<g>
			<path fill="#FFFFFF" d="M653.976,54.462c-0.021-1.193-1.177-2.254-2.071-2.254c-0.659,0-1.354,0.317-1.813,0.83
				c-0.275,0.303-0.584,0.811-0.51,1.499c0.14,1.289,0.678,1.921,1.718,2.021c0.037,0,0.072,0,0.108,0
				c0.146,0,0.3,0.003,0.449,0.005c0.663-0.044,1.211-0.252,1.581-0.63C653.799,55.567,653.984,55.058,653.976,54.462z"/>
		</g>
		<g>
			<path fill="#FFFFFF" d="M655.721,59.659c0.074-0.05,0.148-0.094,0.222-0.153c3.053-2.577,3.96-5.038,2.838-7.705
				c-0.104,0.172-0.273,0.298-0.484,0.316l-1.977,0.179c0.019,0.063,0.039,0.127,0.069,0.19c0.577,1.167,0.94,2.624-2.037,5.137
				c-0.225,0.19-0.994,0.228-1.675,0.228c-0.211,0-0.413-0.003-0.591-0.008c-0.082,0-0.162,0-0.245-0.001
				c-0.077,0.003-0.146,0.018-0.225,0.018c-0.102,0-0.189-0.017-0.287-0.021c-1.185,0.005-2.33,0.121-3.11,0.887
				c-0.197,0.194-0.414,0.482-0.558,0.882c0.05,0.05,0.104,0.096,0.152,0.148c1.425,1.549,1.333,3.496,1.279,4.667
				c-0.007,0.076-0.032,0.413-0.066,0.789c-0.005,0.063-0.122,0.757-0.159,1.006h6.852v-6.558H655.721z"/>
		</g>
		<g>
			<path fill="#FFFFFF" d="M645.6,66.218c0.072,0.001,0.265,0.001,0.512,0.001c0.428,0,1.003-0.001,1.318-0.001
				C646.934,66.218,645.802,66.221,645.6,66.218z"/>
		</g>
		<g>
			<path fill="#FFFFFF" d="M647.664,66.218c0,0-0.025,0-0.062,0C647.639,66.218,647.664,66.218,647.664,66.218z"/>
		</g>
		<g>
			<path fill="#FFFFFF" d="M647.603,66.218c-0.039,0-0.099,0-0.173,0C647.504,66.218,647.563,66.218,647.603,66.218z"/>
		</g>
		<g>
			<path fill="#FFFFFF" d="M645.6,66.218c-0.019,0-0.032,0-0.032,0S645.581,66.218,645.6,66.218z"/>
		</g>
		<g>
			<path fill="#FFFFFF" d="M616.743,98.891h12.993h30.942v-0.21V67.496h-43.936V98.891z M647.383,73.057h9.328v9.33h-9.328V73.057z
				 M647.383,86.373h9.328v9.326h-9.328V86.373z M634.717,73.057h4.39h4.938v9.33h-4.938h-4.39V73.057z M634.717,86.373h4.39h4.938
				v9.326h-4.938h-4.39V86.373z M621.621,73.057h8.115h1.216v9.33h-1.216h-8.115V73.057z M621.621,86.373h8.115h1.216v9.326h-1.216
				h-8.115V86.373z"/>
		</g>
		<g>
			<path fill="#FFFFFF" d="M645.694,66.218c-0.04,0-0.075,0-0.095,0C645.619,66.218,645.654,66.218,645.694,66.218z"/>
		</g>
		<g>
			<path fill="#FFFFFF" d="M645.752,66.22c0.093,0,0.215,0,0.356,0c0.431,0,1.004-0.001,1.318-0.001
				C647.007,66.218,646.128,66.221,645.752,66.22z"/>
		</g>
		<g>
			<path fill="#FFFFFF" d="M625.728,53.643c0.166-1.512-1.244-2.651-2.579-2.651c-1.098,0-2.344,1.177-2.366,2.515
				c-0.024,1.426,0.987,2.417,2.617,2.417C624.941,55.922,625.582,54.968,625.728,53.643z"/>
		</g>
		<g>
			<path fill="#FFFFFF" d="M644.16,55.708c0.164-1.512-1.245-2.651-2.58-2.651c-1.099,0-2.342,1.179-2.366,2.515
				c-0.023,1.426,0.987,2.417,2.617,2.417C643.371,57.987,644.015,57.035,644.16,55.708z"/>
		</g>
		<g>
			<path fill="#FFFFFF" d="M623.558,64.175l0.412-2.728l-1.919-0.061l0.044,0.83c0.562,0.365,0.934,0.993,0.934,1.711
				c0,0.071-0.01,0.145-0.016,0.213L623.558,64.175z"/>
		</g>
		<g>
			<path fill="#FFFFFF" d="M629.604,62.867c-0.058-1.087-0.227-2.254-0.626-3.166l0,0l0,0c-0.06-0.137-0.126-0.267-0.197-0.394
				c-0.006-0.011-0.013-0.024-0.02-0.039c-0.064-0.107-0.133-0.208-0.206-0.304c-0.015-0.023-0.028-0.044-0.048-0.067
				c-0.064-0.083-0.14-0.163-0.214-0.236c-0.025-0.023-0.046-0.047-0.067-0.067c-0.099-0.089-0.204-0.171-0.314-0.239
				c-1.27-0.762-2.92-0.965-4.312-0.965c-1.411,0-2.558,0.208-2.785,0.252c-0.166,0.033-4.015,0.952-4.007,4.354
				c0.001,0.939,0.411,1.764,1.157,2.321c0.509,0.376,1.178,0.615,1.972,0.731v0.034c0.331,0.045,0.676,0.075,1.051,0.075
				c0.621,0,1.129-0.464,1.211-1.064l-0.025-0.464c-0.136-0.53-0.613-0.926-1.186-0.926c-0.41,0-1.757-0.047-1.775-0.661
				c-0.021-0.763,0.521-1.706,0.893-1.729c0,0,0.104,1.362,0.111,1.629c0.034,0.008,0.069,0.011,0.108,0.011c0,0,0.013,0,0.023,0
				c0.019-0.001,0.039-0.005,0.058-0.006c0.036-0.003,0.069-0.008,0.108-0.013c0.045-0.008,0.094-0.015,0.149-0.024
				c0.025-0.003,0.051-0.005,0.076-0.01c0.073-0.01,0.153-0.015,0.248-0.015c0.089,0,0.174,0.015,0.26,0.028
				c-0.025-0.392-0.035-0.926-0.035-0.926c-0.01-0.112,0.035-0.225,0.115-0.308c0.041-0.039,0.085-0.068,0.135-0.093
				c0.015-0.005,0.033-0.005,0.048-0.01c0.039-0.011,0.077-0.024,0.123-0.02l2.821,0.09c0.117,0.003,0.226,0.057,0.304,0.146
				c0.073,0.091,0.107,0.208,0.088,0.324l-0.535,3.55c-0.031,0.202-0.203,0.348-0.402,0.348c-0.01,0-0.019,0-0.025,0l-1.079-0.156
				c-0.234,0.454-0.64,0.811-1.128,0.986h4.53v-5.587c0.153,0.06,0.31,0.122,0.441,0.202c0.314,0.342,0.585,2.321,0.523,4.116
				c-0.026,0.677,0.504,1.245,1.181,1.27c0.014,0,0.029,0,0.043,0c0.103,0,0.2-0.015,0.293-0.039
				c0.011-0.001,0.021-0.006,0.034-0.01c0.089-0.024,0.174-0.059,0.255-0.104l0,0l0,0c0.179-0.098,0.334-0.238,0.444-0.41
				c0.007-0.011,0.015-0.023,0.018-0.034c0.045-0.07,0.078-0.145,0.108-0.223c0.005-0.022,0.016-0.044,0.022-0.066
				c0.026-0.095,0.046-0.192,0.051-0.293c0.005-0.155,0.01-0.322,0.011-0.495c0-0.036,0-0.073,0-0.11
				c0.004-0.37-0.003-0.769-0.026-1.184C629.604,62.872,629.604,62.87,629.604,62.867z"/>
		</g>
		<g>
			<path fill="#FFFFFF" d="M646.863,60.611c-0.183-0.197-0.388-0.371-0.618-0.522c-0.747-0.503-1.741-0.771-3.018-0.815
				c-0.239-0.01-0.464-0.015-0.692-0.015c-0.152,0-0.304,0.005-0.449,0.008c-1.285,0.031-2.35,0.19-3.022,0.381
				c-0.164,0.045-0.312,0.094-0.427,0.143c-0.633,0.269-1.18,0.843-1.751,1.454c-0.333,0.35-0.884,0.939-1.119,1.022
				c0.003-0.022-0.513-0.202-1.335-2.36v1.712c0,0.33-0.251,0.608-0.583,0.638l-0.917,0.083c0.602,1.125,1.521,2.275,2.861,2.275
				c0.099,0,0.199-0.008,0.306-0.021c0.977-0.121,1.751-0.941,2.5-1.735c0.117-0.124,0.267-0.28,0.416-0.432l0.049,3.794h3.022
				V66.22l2.733-0.001l0.034-4.221c0.112,0.067,0.21,0.137,0.285,0.22c0.398,0.432,0.569,1.216,0.533,2.002
				c-0.012,0.2-0.104,1.821-0.107,1.999c0,0,0.017,0,0.034,0.001c0.021,0,0.056,0,0.096,0c0.014,0,0.034,0,0.056,0
				c0.378,0.001,1.254,0,1.677-0.001c0.075,0,0.137,0,0.176,0c0.034,0,0.06,0,0.06,0c0.006-0.078,0.023-0.311,0.049-0.593
				c0.038-0.511,0.098-1.162,0.103-1.27c0.007-0.117,0.012-0.239,0.017-0.366c0.035-1.04-0.01-2.339-0.961-3.369
				C646.869,60.618,646.865,60.616,646.863,60.611z"/>
		</g>
		<g>
			<polygon fill="#FFFFFF" points="631.528,60.688 631.627,61.172 631.711,61.165 632.371,61.104 633.154,61.034 633.154,58.75 
				633.154,58.111 633.154,57.742 631.793,57.903 630.973,57.999 631.099,58.617 631.365,59.903 			"/>
		</g>
		<g>
			<path fill="#FFFFFF" d="M645.752,66.22c-0.02,0-0.041,0-0.058,0C645.714,66.22,645.73,66.22,645.752,66.22z"/>
		</g>
	</g>
</g>
<g id="Layer_2">
	<rect x="132.918" y="203" fill="#FFFFFF" width="1020" height="3"/>
	<rect x="134.918" y="250" fill="#FFFFFF" width="150" height="1"/>
	<g>
		<text transform="matrix(1 0 0 1 134.918 244.8672)" fill="#FFFFFF" font-family="'Gibson-Regular'" font-size="18">Party Mix 1</text>
	</g>
	<g>
		<text transform="matrix(1 0 0 1 132.918 194.8672)" fill="#FFFFFF" font-family="'Gibson-SemiBold'" font-size="20">Party Mix 1</text>
	</g>
	<g>
		
			<rect x="140.684" y="266.559" fill="none" stroke="#FFFFFF" stroke-width="0.5" stroke-miterlimit="10" width="133.746" height="46.543"/>
		<g>
			<path d="M262.627,292.331c-9.373,0-17-7.626-17-17s7.627-17,17-17c9.375,0,17,7.626,17,17S272.002,292.331,262.627,292.331z"/>
			<path fill="#FFFFFF" d="M262.627,258.831c9.098,0,16.5,7.402,16.5,16.5s-7.402,16.5-16.5,16.5s-16.5-7.402-16.5-16.5
				S253.529,258.831,262.627,258.831 M262.627,257.831c-9.664,0-17.5,7.836-17.5,17.5c0,9.665,7.836,17.5,17.5,17.5
				c9.666,0,17.5-7.835,17.5-17.5C280.127,265.667,272.293,257.831,262.627,257.831L262.627,257.831z"/>
		</g>
		<g>
			<text transform="matrix(1 0 0 1 147.3066 293.8247)" fill="#FFFFFF" font-family="'Gibson-Light'" font-size="10">Base Spirit : Vodka</text>
		</g>
		<g>
			<text transform="matrix(1 0 0 1 147.3066 307.1577)" fill="#FFFFFF" font-family="'Gibson-Light'" font-size="10">Profile : Spirit Forward, Sweet</text>
		</g>
		<text transform="matrix(1 0 0 1 147.3066 281.1587)" fill="#FFFFFF" font-family="'Gibson-SemiBold'" font-size="12">Lorem Ipsuim</text>
		<path fill="#FFFFFF" d="M269.83,267.039c-0.016-0.084-0.027-0.163-0.039-0.235c-0.178-1.163-0.631-1.287-2.133-1.697l-0.141-0.038
			c-1.338-0.365-4.855-0.442-5.016-0.446c-0.148,0.004-3.666,0.081-5.004,0.446l-0.141,0.038c-1.504,0.41-1.957,0.534-2.135,1.697
			c-0.01,0.072-0.023,0.151-0.037,0.235c-0.188,1.133-0.537,3.242,1.35,4.958c0.721,0.656,1.551,1.018,2.285,1.334
			c1.299,0.564,2.324,1.01,2.484,2.779c0.197,2.133,0.24,3.66-0.137,4.596c-0.799,0.099-3.762,0.58-4.248,2.357
			c-0.125,0.454-0.078,0.873,0.137,1.246c0.512,0.887,1.859,1.239,2.436,1.391c0.066,0.018,0.125,0.031,0.166,0.045
			c0.588,0.171,2.109,0.295,2.85,0.295c0.738,0,2.262-0.124,2.848-0.295c0.043-0.014,0.1-0.027,0.168-0.045
			c0.574-0.151,1.922-0.504,2.436-1.391c0.215-0.373,0.26-0.792,0.135-1.246c-0.484-1.777-3.449-2.259-4.246-2.357
			c-0.377-0.936-0.334-2.463-0.139-4.596c0.162-1.77,1.186-2.215,2.486-2.779c0.732-0.316,1.564-0.678,2.285-1.334
			C270.367,270.281,270.018,268.171,269.83,267.039z M257.502,265.638l0.141-0.038c1.273-0.348,4.834-0.426,4.859-0.427
			c0.035,0.001,3.596,0.079,4.869,0.427l0.141,0.038c0.924,0.253,1.322,0.368,1.52,0.606c-0.209,0.238-0.973,0.699-3.789,0.954
			c-0.916,0.083-2.033,0.12-2.734,0.12c-0.703,0-1.82-0.037-2.736-0.12c-2.828-0.256-3.586-0.724-3.789-0.954
			C256.18,266.006,256.576,265.891,257.502,265.638z M267.564,283.208c0.084,0.312,0.057,0.582-0.084,0.826
			c-0.396,0.688-1.588,0.998-2.098,1.132c-0.074,0.019-0.135,0.035-0.182,0.049c-0.518,0.151-2,0.273-2.693,0.273
			c-0.695,0-2.178-0.122-2.693-0.273c-0.047-0.014-0.109-0.03-0.184-0.049c-0.508-0.134-1.699-0.444-2.096-1.132
			c-0.143-0.244-0.168-0.515-0.084-0.826c0.369-1.35,2.854-1.817,3.67-1.937c-0.041,0.032-0.086,0.062-0.131,0.09v-0.001
			c-0.283,0.16-0.434,0.359-0.434,0.576c0,0.506,0.857,0.902,1.951,0.902s1.949-0.396,1.949-0.902c0-0.217-0.148-0.416-0.434-0.576
			v0.001c-0.045-0.027-0.088-0.058-0.131-0.09C264.709,281.39,267.193,281.858,267.564,283.208z M268.109,271.588
			c-0.654,0.596-1.406,0.921-2.135,1.236c-1.35,0.586-2.625,1.139-2.816,3.234c-0.213,2.334-0.246,3.988,0.252,5.023
			c0.014,0.027,0.031,0.051,0.051,0.072c0.023,0.023,0.049,0.041,0.076,0.054c0.117,0.142,0.254,0.259,0.42,0.352l0,0
			c0.189,0.115,0.295,0.249,0.295,0.376c0,0.33-0.717,0.697-1.744,0.697c-1.029,0-1.744-0.367-1.744-0.697
			c0-0.127,0.104-0.261,0.295-0.376l0,0c0.164-0.093,0.303-0.21,0.418-0.352c0.029-0.013,0.055-0.03,0.076-0.054
			c0.021-0.021,0.037-0.045,0.051-0.072c0.498-1.035,0.465-2.689,0.252-5.022c-0.191-2.097-1.467-2.649-2.816-3.235
			c-0.727-0.315-1.48-0.641-2.133-1.236c-1.664-1.514-1.359-3.357-1.176-4.459c0.014-0.087,0.027-0.168,0.037-0.242
			c0.029-0.189,0.059-0.337,0.107-0.456c0.354,0.341,1.336,0.743,3.879,0.974c0.922,0.084,2.047,0.122,2.754,0.122
			s1.832-0.038,2.754-0.122c2.541-0.23,3.525-0.633,3.879-0.975c0.047,0.12,0.076,0.268,0.105,0.457
			c0.01,0.074,0.023,0.155,0.039,0.242C269.467,268.231,269.773,270.075,268.109,271.588z"/>
	</g>
	<g>
		
			<rect x="140.684" y="449.47" fill="none" stroke="#FFFFFF" stroke-width="0.5" stroke-miterlimit="10" width="133.746" height="46.543"/>
		<g>
			<path d="M262.627,475.241c-9.373,0-17-7.626-17-17s7.627-17,17-17c9.375,0,17,7.626,17,17S272.002,475.241,262.627,475.241z"/>
			<path fill="#FFFFFF" d="M262.627,441.741c9.098,0,16.5,7.401,16.5,16.5s-7.402,16.5-16.5,16.5s-16.5-7.401-16.5-16.5
				S253.529,441.741,262.627,441.741 M262.627,440.741c-9.664,0-17.5,7.836-17.5,17.5c0,9.665,7.836,17.5,17.5,17.5
				c9.666,0,17.5-7.835,17.5-17.5C280.127,448.577,272.293,440.741,262.627,440.741L262.627,440.741z"/>
		</g>
		<g>
			<text transform="matrix(1 0 0 1 147.3066 476.7363)" fill="#FFFFFF" font-family="'Gibson-Light'" font-size="10">Base Spirit : Vodka</text>
		</g>
		<g>
			<text transform="matrix(1 0 0 1 147.3066 490.0684)" fill="#FFFFFF" font-family="'Gibson-Light'" font-size="10">Profile : Spirit Forward, Sweet</text>
		</g>
		<text transform="matrix(1 0 0 1 147.3066 464.0703)" fill="#FFFFFF" font-family="'Gibson-SemiBold'" font-size="12">Lorem Ipsuim</text>
		<path fill="#FFFFFF" d="M269.83,449.949c-0.016-0.084-0.027-0.163-0.039-0.235c-0.178-1.163-0.631-1.287-2.133-1.697l-0.141-0.038
			c-1.338-0.365-4.855-0.442-5.016-0.446c-0.148,0.004-3.666,0.081-5.004,0.446l-0.141,0.038c-1.504,0.41-1.957,0.534-2.135,1.697
			c-0.01,0.072-0.023,0.151-0.037,0.235c-0.188,1.133-0.537,3.242,1.35,4.958c0.721,0.656,1.551,1.018,2.285,1.334
			c1.299,0.564,2.324,1.01,2.484,2.779c0.197,2.133,0.24,3.66-0.137,4.596c-0.799,0.099-3.762,0.58-4.248,2.357
			c-0.125,0.454-0.078,0.873,0.137,1.246c0.512,0.887,1.859,1.239,2.436,1.391c0.066,0.018,0.125,0.031,0.166,0.045
			c0.588,0.171,2.109,0.295,2.85,0.295c0.738,0,2.262-0.124,2.848-0.295c0.043-0.014,0.1-0.027,0.168-0.045
			c0.574-0.151,1.922-0.504,2.436-1.391c0.215-0.373,0.26-0.792,0.135-1.246c-0.484-1.777-3.449-2.259-4.246-2.357
			c-0.377-0.936-0.334-2.463-0.139-4.596c0.162-1.77,1.186-2.215,2.486-2.779c0.732-0.316,1.564-0.678,2.285-1.334
			C270.367,453.191,270.018,451.082,269.83,449.949z M257.502,448.549l0.141-0.038c1.273-0.348,4.834-0.426,4.859-0.427
			c0.035,0.001,3.596,0.079,4.869,0.427l0.141,0.038c0.924,0.253,1.322,0.368,1.52,0.606c-0.209,0.238-0.973,0.699-3.789,0.954
			c-0.916,0.083-2.033,0.12-2.734,0.12c-0.703,0-1.82-0.037-2.736-0.12c-2.828-0.256-3.586-0.724-3.789-0.954
			C256.18,448.917,256.576,448.802,257.502,448.549z M267.564,466.118c0.084,0.312,0.057,0.582-0.084,0.826
			c-0.396,0.688-1.588,0.998-2.098,1.132c-0.074,0.019-0.135,0.035-0.182,0.049c-0.518,0.151-2,0.273-2.693,0.273
			c-0.695,0-2.178-0.122-2.693-0.273c-0.047-0.014-0.109-0.03-0.184-0.049c-0.508-0.134-1.699-0.444-2.096-1.132
			c-0.143-0.244-0.168-0.515-0.084-0.826c0.369-1.35,2.854-1.817,3.67-1.937c-0.041,0.032-0.086,0.062-0.131,0.09v-0.001
			c-0.283,0.16-0.434,0.359-0.434,0.576c0,0.506,0.857,0.902,1.951,0.902s1.949-0.396,1.949-0.902c0-0.217-0.148-0.416-0.434-0.576
			v0.001c-0.045-0.027-0.088-0.058-0.131-0.09C264.709,464.301,267.193,464.769,267.564,466.118z M268.109,454.499
			c-0.654,0.596-1.406,0.921-2.135,1.236c-1.35,0.586-2.625,1.139-2.816,3.234c-0.213,2.334-0.246,3.988,0.252,5.023
			c0.014,0.027,0.031,0.051,0.051,0.072c0.023,0.023,0.049,0.041,0.076,0.054c0.117,0.142,0.254,0.259,0.42,0.352l0,0
			c0.189,0.115,0.295,0.249,0.295,0.376c0,0.33-0.717,0.697-1.744,0.697c-1.029,0-1.744-0.367-1.744-0.697
			c0-0.127,0.104-0.261,0.295-0.376l0,0c0.164-0.093,0.303-0.21,0.418-0.352c0.029-0.013,0.055-0.03,0.076-0.054
			c0.021-0.021,0.037-0.045,0.051-0.072c0.498-1.035,0.465-2.689,0.252-5.022c-0.191-2.097-1.467-2.649-2.816-3.235
			c-0.727-0.315-1.48-0.641-2.133-1.236c-1.664-1.514-1.359-3.357-1.176-4.459c0.014-0.087,0.027-0.168,0.037-0.242
			c0.029-0.189,0.059-0.337,0.107-0.456c0.354,0.341,1.336,0.743,3.879,0.974c0.922,0.084,2.047,0.122,2.754,0.122
			s1.832-0.038,2.754-0.122c2.541-0.23,3.525-0.633,3.879-0.975c0.047,0.12,0.076,0.268,0.105,0.457
			c0.01,0.074,0.023,0.155,0.039,0.242C269.467,451.142,269.773,452.985,268.109,454.499z"/>
	</g>
	<g>
		<g>
			<path fill="#FFFFFF" d="M273.93,389v45.542H141.184V389H273.93 M274.43,388.5H140.684v46.542H274.43V388.5L274.43,388.5z"/>
		</g>
		<g>
			<path d="M262.628,414.271c-9.374,0-17-7.626-17-17c0-9.374,7.626-17,17-17s17,7.626,17,17
				C279.628,406.645,272.002,414.271,262.628,414.271z"/>
			<path fill="#FFFFFF" d="M262.628,380.771c9.099,0,16.5,7.402,16.5,16.5s-7.401,16.5-16.5,16.5s-16.5-7.401-16.5-16.5
				S253.529,380.771,262.628,380.771 M262.628,379.771c-9.665,0-17.5,7.836-17.5,17.5c0,9.666,7.835,17.5,17.5,17.5
				s17.5-7.834,17.5-17.5C280.128,387.607,272.293,379.771,262.628,379.771L262.628,379.771z"/>
		</g>
		<g>
			<text transform="matrix(1 0 0 1 147.3066 415.7656)" fill="#FFFFFF" font-family="'Gibson-Light'" font-size="10">Base Spirit : Burbon</text>
		</g>
		<g>
			<text transform="matrix(1 0 0 1 147.3066 429.0977)" fill="#FFFFFF" font-family="'Gibson-Light'" font-size="10">Profile : Spirit Forward, Sweet</text>
		</g>
		<text transform="matrix(1 0 0 1 147.3066 403.0996)" fill="#FFFFFF" font-family="'Gibson-SemiBold'" font-size="12">exercitation </text>
		<path fill="#FFFFFF" d="M267.832,389.415c-1.539-0.357-5.053-0.387-5.205-0.388c-0.15,0.001-3.664,0.03-5.203,0.388
			c-1.547,0.357-2.283,0.89-2.248,1.625c0.025,0.518,0.543,12.116,0.543,12.116c0,0.045,0.042,1.146,1.48,1.652
			c1.348,0.477,3.123,0.707,5.429,0.707s4.081-0.23,5.429-0.707c1.438-0.506,1.479-1.607,1.48-1.646
			c0.006-0.117,0.518-11.61,0.543-12.122C270.114,390.304,269.38,389.772,267.832,389.415z M257.54,389.917
			c1.483-0.344,5.054-0.374,5.087-0.374c0.035,0,3.604,0.03,5.09,0.374c1.212,0.281,1.869,0.671,1.848,1.099
			c-0.002,0.038-0.007,0.141-0.014,0.293c-0.199,0.172-0.624,0.397-1.543,0.585c-1.799,0.368-3.84,0.365-5.186,0.365h-0.194h-0.194
			c-1.348,0.001-3.387,0.003-5.186-0.365c-0.919-0.188-1.344-0.413-1.543-0.585c-0.007-0.152-0.012-0.254-0.014-0.293
			C255.672,390.587,256.328,390.198,257.54,389.917z M269.021,403.144c0,0.008-0.03,0.789-1.136,1.178
			c-1.292,0.455-3.012,0.678-5.258,0.678s-3.966-0.223-5.259-0.678c-1.087-0.383-1.134-1.148-1.135-1.184
			c0,0-0.009-0.195-0.023-0.533c0.817,0.578,1.166,0.719,2.148,0.951c1.084,0.256,3.211,0.398,4.269,0.398
			c1.056,0,3.185-0.143,4.269-0.398c0.982-0.232,1.331-0.373,2.149-0.953C269.031,402.933,269.021,403.128,269.021,403.144z
			 M269.057,402.358c-0.883,0.635-1.206,0.773-2.205,1.01c-1.069,0.252-3.176,0.393-4.224,0.393s-3.153-0.141-4.224-0.393
			c-1-0.236-1.322-0.375-2.205-1.01c-0.102-2.27-0.395-8.845-0.483-10.804c0.269,0.178,0.72,0.37,1.493,0.527
			c1.818,0.373,3.871,0.371,5.225,0.371h0.194h0.194c0.069,0,0.141,0,0.214,0c1.353,0,3.286-0.018,5.011-0.371
			c0.772-0.157,1.225-0.35,1.492-0.527C269.451,393.512,269.158,400.081,269.057,402.358z"/>
	</g>
	<g>
		<g>
			<text transform="matrix(1 0 0 1 147.3076 368.1279)" fill="#FFFFFF" font-family="'Gibson-Light'" font-size="10">Profile : Citrus, Sweet, Sour</text>
		</g>
		<g>
			
				<rect x="140.684" y="327.529" fill="none" stroke="#FFFFFF" stroke-width="0.5" stroke-miterlimit="10" width="133.746" height="46.543"/>
			<g>
				<path d="M262.627,353.301c-9.373,0-17-7.626-17-17s7.627-17,17-17c9.375,0,17,7.626,17,17S272.002,353.301,262.627,353.301z"/>
				<path fill="#FFFFFF" d="M262.627,319.801c9.098,0,16.5,7.402,16.5,16.5s-7.402,16.5-16.5,16.5s-16.5-7.402-16.5-16.5
					S253.529,319.801,262.627,319.801 M262.627,318.801c-9.664,0-17.5,7.836-17.5,17.5c0,9.665,7.836,17.5,17.5,17.5
					c9.666,0,17.5-7.835,17.5-17.5C280.127,326.637,272.293,318.801,262.627,318.801L262.627,318.801z"/>
			</g>
			<g>
				<text transform="matrix(1 0 0 1 147.3076 354.7949)" fill="#FFFFFF" font-family="'Gibson-Light'" font-size="10">Base Spirit : Burbon</text>
			</g>
			<text transform="matrix(1 0 0 1 147.3076 342.1289)" fill="#FFFFFF" font-family="'Gibson-SemiBold'" font-size="12">Consectetur  </text>
			<path fill="#FFFFFF" d="M266.832,327.655c-0.035-0.691-0.803-0.895-1.803-1.088c-0.707-0.137-1.633-0.157-2.121-0.157
				c-0.238,0-0.395,0.005-0.395,0.006c-0.012-0.001-0.168-0.006-0.408-0.006c-0.488,0-1.414,0.021-2.119,0.157
				c-1,0.193-1.77,0.396-1.803,1.088c-0.041,0.804-0.002,2.577-0.002,2.651l0.285,14.442c-0.004,0.136,0.045,0.904,1.578,1.181
				c1.377,0.249,2.266,0.262,2.43,0.262h0.029h0.037l0,0c0.164,0,1.051-0.013,2.428-0.262c1.535-0.276,1.582-1.045,1.578-1.181
				l0.285-14.441C266.834,330.232,266.873,328.459,266.832,327.655z M260.064,326.973c0.672-0.13,1.568-0.149,2.041-0.149
				c0.24,0,0.393,0.005,0.408,0.005c0,0,0.154-0.005,0.395-0.005c0.475,0,1.369,0.02,2.041,0.149
				c0.939,0.182,1.451,0.348,1.471,0.703c0,0.032,0.002,0.067,0.004,0.103c-0.143,0.1-0.438,0.231-1.049,0.307
				c-1.682,0.207-2.855,0.188-2.869,0.187c-0.012,0.001-1.184,0.021-2.867-0.187c-0.611-0.075-0.906-0.207-1.047-0.306
				c0-0.035,0.002-0.071,0.004-0.104C258.613,327.32,259.125,327.154,260.064,326.973z M264.896,345.523
				c-1.344,0.243-2.199,0.255-2.355,0.255l0,0h-0.037h-0.029c-0.158,0-1.014-0.012-2.355-0.255c-1.242-0.224-1.24-0.753-1.24-0.753
				l0.002-0.012l-0.014-0.651c0.258,0.193,0.678,0.466,1.166,0.604c0.742,0.209,1.766,0.283,2.475,0.283s1.73-0.074,2.475-0.283
				c0.488-0.138,0.908-0.41,1.166-0.604l-0.014,0.658C266.135,344.77,266.139,345.299,264.896,345.523z M266.42,330.299
				l-0.268,13.606c-0.229,0.183-0.684,0.508-1.213,0.656c-0.729,0.205-1.734,0.278-2.432,0.278c-0.699,0-1.705-0.073-2.434-0.278
				c-0.527-0.148-0.982-0.473-1.211-0.655l-0.268-13.608c0-0.016-0.033-1.47-0.01-2.341c0.188,0.105,0.502,0.216,1.035,0.281
				c1.693,0.209,2.877,0.188,2.885,0.188c0,0,0.037,0,0.104,0c0.322,0,1.377-0.015,2.785-0.188c0.531-0.065,0.848-0.176,1.035-0.281
				C266.451,328.828,266.42,330.282,266.42,330.299z"/>
		</g>
	</g>
	<g>
		<g>
			<text transform="matrix(1 0 0 1 147.3066 551.0371)" fill="#FFFFFF" font-family="'Gibson-Light'" font-size="10">Profile : Citrus, Sweet, Sour</text>
		</g>
		<g>
			<g>
				<g>
					<path fill="#FFFFFF" d="M273.93,510.939v45.543H141.184v-45.543H273.93 M274.43,510.439H140.684v46.543H274.43V510.439
						L274.43,510.439z"/>
				</g>
			</g>
			<g>
				<path d="M262.627,536.211c-9.373,0-17-7.626-17-17s7.627-17,17-17c9.375,0,17,7.626,17,17S272.002,536.211,262.627,536.211z"/>
				<path fill="#FFFFFF" d="M262.627,502.711c9.098,0,16.5,7.402,16.5,16.5s-7.402,16.5-16.5,16.5s-16.5-7.402-16.5-16.5
					S253.529,502.711,262.627,502.711 M262.627,501.711c-9.664,0-17.5,7.836-17.5,17.5c0,9.665,7.836,17.5,17.5,17.5
					c9.666,0,17.5-7.835,17.5-17.5C280.127,509.547,272.293,501.711,262.627,501.711L262.627,501.711z"/>
			</g>
			<g>
				<text transform="matrix(1 0 0 1 147.3066 537.7051)" fill="#FFFFFF" font-family="'Gibson-Light'" font-size="10">Base Spirit : Burbon</text>
			</g>
			<text transform="matrix(1 0 0 1 147.3066 525.0391)" fill="#FFFFFF" font-family="'Gibson-SemiBold'" font-size="12">Consectetur  </text>
			<path fill="#FFFFFF" d="M266.832,510.565c-0.035-0.691-0.803-0.895-1.803-1.088c-0.707-0.137-1.633-0.157-2.121-0.157
				c-0.238,0-0.395,0.005-0.395,0.006c-0.012-0.001-0.168-0.006-0.408-0.006c-0.488,0-1.414,0.021-2.119,0.157
				c-1,0.193-1.77,0.396-1.803,1.088c-0.041,0.804-0.002,2.577-0.002,2.651l0.285,14.442c-0.004,0.136,0.045,0.904,1.578,1.181
				c1.377,0.249,2.266,0.262,2.43,0.262h0.029h0.037l0,0c0.164,0,1.051-0.013,2.428-0.262c1.535-0.276,1.582-1.045,1.578-1.181
				l0.285-14.441C266.834,513.143,266.873,511.369,266.832,510.565z M260.064,509.883c0.672-0.13,1.568-0.149,2.041-0.149
				c0.24,0,0.393,0.005,0.408,0.005c0,0,0.154-0.005,0.395-0.005c0.475,0,1.369,0.02,2.041,0.149
				c0.939,0.182,1.451,0.348,1.471,0.703c0,0.032,0.002,0.067,0.004,0.103c-0.143,0.1-0.438,0.231-1.049,0.307
				c-1.682,0.207-2.855,0.188-2.869,0.187c-0.012,0.001-1.184,0.021-2.867-0.187c-0.611-0.075-0.906-0.207-1.047-0.306
				c0-0.035,0.002-0.071,0.004-0.104C258.613,510.23,259.125,510.064,260.064,509.883z M264.896,528.434
				c-1.344,0.243-2.199,0.255-2.355,0.255l0,0h-0.037h-0.029c-0.158,0-1.014-0.012-2.355-0.255c-1.242-0.224-1.24-0.753-1.24-0.753
				l0.002-0.012l-0.014-0.651c0.258,0.193,0.678,0.466,1.166,0.604c0.742,0.209,1.766,0.283,2.475,0.283s1.73-0.074,2.475-0.283
				c0.488-0.138,0.908-0.41,1.166-0.604l-0.014,0.658C266.135,527.68,266.139,528.209,264.896,528.434z M266.42,513.209
				l-0.268,13.606c-0.229,0.183-0.684,0.508-1.213,0.656c-0.729,0.205-1.734,0.278-2.432,0.278c-0.699,0-1.705-0.073-2.434-0.278
				c-0.527-0.148-0.982-0.473-1.211-0.655l-0.268-13.608c0-0.016-0.033-1.47-0.01-2.341c0.188,0.105,0.502,0.216,1.035,0.281
				c1.693,0.209,2.877,0.188,2.885,0.188c0,0,0.037,0,0.104,0c0.322,0,1.377-0.015,2.785-0.188c0.531-0.065,0.848-0.176,1.035-0.281
				C266.451,511.738,266.42,513.192,266.42,513.209z"/>
		</g>
	</g>
	<g>
		<g>
			<text transform="matrix(1 0 0 1 147.3066 612.0078)" fill="#FFFFFF" font-family="'Gibson-Light'" font-size="10">Profile : Citrus, Sweet, Sour</text>
		</g>
		<g>
			<g>
				<g>
					<path fill="#FFFFFF" d="M273.93,571.91v45.543H141.184V571.91H273.93 M274.43,571.41H140.684v46.543H274.43V571.41
						L274.43,571.41z"/>
				</g>
			</g>
			<g>
				<path d="M262.627,597.182c-9.373,0-17-7.626-17-17s7.627-17,17-17c9.375,0,17,7.626,17,17S272.002,597.182,262.627,597.182z"/>
				<path fill="#FFFFFF" d="M262.627,563.682c9.098,0,16.5,7.402,16.5,16.5s-7.402,16.5-16.5,16.5s-16.5-7.402-16.5-16.5
					S253.529,563.682,262.627,563.682 M262.627,562.682c-9.664,0-17.5,7.836-17.5,17.5c0,9.665,7.836,17.5,17.5,17.5
					s17.5-7.835,17.5-17.5C280.127,570.518,272.291,562.682,262.627,562.682L262.627,562.682z"/>
			</g>
			<g>
				<text transform="matrix(1 0 0 1 147.3066 598.6748)" fill="#FFFFFF" font-family="'Gibson-Light'" font-size="10">Base Spirit : Burbon</text>
			</g>
			<text transform="matrix(1 0 0 1 147.3066 586.0088)" fill="#FFFFFF" font-family="'Gibson-SemiBold'" font-size="12">Consectetur  </text>
			<path fill="#FFFFFF" d="M266.832,571.536c-0.035-0.691-0.805-0.895-1.805-1.088c-0.705-0.137-1.631-0.157-2.119-0.157
				c-0.24,0-0.395,0.005-0.396,0.006c-0.012-0.001-0.166-0.006-0.406-0.006c-0.488,0-1.414,0.021-2.119,0.157
				c-1.002,0.193-1.77,0.396-1.805,1.088c-0.039,0.804-0.002,2.577,0,2.651l0.285,14.442c-0.004,0.136,0.045,0.904,1.578,1.181
				c1.377,0.249,2.266,0.262,2.43,0.262h0.027h0.037l0,0c0.164,0,1.053-0.013,2.43-0.262c1.533-0.276,1.582-1.045,1.578-1.181
				l0.285-14.441C266.832,574.113,266.871,572.34,266.832,571.536z M260.064,570.854c0.672-0.13,1.566-0.149,2.041-0.149
				c0.24,0,0.393,0.005,0.408,0.005c0,0,0.154-0.005,0.395-0.005c0.473,0,1.369,0.02,2.041,0.149
				c0.939,0.182,1.451,0.348,1.469,0.703c0.002,0.032,0.004,0.067,0.006,0.103c-0.143,0.1-0.438,0.231-1.049,0.307
				c-1.682,0.207-2.855,0.188-2.869,0.187c-0.012,0.001-1.186,0.021-2.867-0.187c-0.611-0.075-0.906-0.207-1.049-0.306
				c0.002-0.035,0.004-0.071,0.004-0.104C258.613,571.201,259.125,571.035,260.064,570.854z M264.895,589.404
				c-1.342,0.243-2.197,0.255-2.355,0.255l0,0h-0.037h-0.027c-0.158,0-1.014-0.012-2.355-0.255c-1.242-0.224-1.24-0.753-1.24-0.753
				l0.002-0.012l-0.014-0.651c0.256,0.193,0.676,0.466,1.164,0.604c0.744,0.209,1.768,0.283,2.475,0.283
				c0.709,0,1.732-0.074,2.475-0.283c0.49-0.138,0.91-0.41,1.166-0.604l-0.012,0.658C266.135,588.65,266.139,589.18,264.895,589.404
				z M266.418,574.18l-0.268,13.606c-0.227,0.183-0.682,0.508-1.211,0.656c-0.729,0.205-1.734,0.278-2.434,0.278
				c-0.697,0-1.703-0.073-2.432-0.278c-0.529-0.148-0.984-0.473-1.211-0.655l-0.268-13.608c-0.002-0.016-0.033-1.47-0.012-2.341
				c0.188,0.105,0.504,0.216,1.035,0.281c1.695,0.209,2.877,0.188,2.887,0.188c0,0,0.037,0,0.102,0c0.324,0,1.379-0.015,2.785-0.188
				c0.533-0.065,0.85-0.176,1.035-0.281C266.451,572.709,266.418,574.163,266.418,574.18z"/>
		</g>
	</g>
	<g>
		<g>
			<text transform="matrix(1 0 0 1 147.3076 672.9785)" fill="#FFFFFF" font-family="'Gibson-Light'" font-size="10">Profile : Citrus, Sweet, Sour</text>
		</g>
		<g>
			<g>
				<g>
					<path fill="#FFFFFF" d="M273.93,632.88v45.543H141.184V632.88H273.93 M274.43,632.38H140.684v46.543H274.43V632.38
						L274.43,632.38z"/>
				</g>
			</g>
			<g>
				<path d="M262.627,658.151c-9.373,0-17-7.626-17-17s7.627-17,17-17c9.375,0,17,7.626,17,17S272.002,658.151,262.627,658.151z"/>
				<path fill="#FFFFFF" d="M262.627,624.651c9.098,0,16.5,7.401,16.5,16.5s-7.402,16.5-16.5,16.5s-16.5-7.401-16.5-16.5
					S253.529,624.651,262.627,624.651 M262.627,623.651c-9.664,0-17.5,7.836-17.5,17.5c0,9.665,7.836,17.5,17.5,17.5
					c9.666,0,17.5-7.835,17.5-17.5C280.127,631.487,272.293,623.651,262.627,623.651L262.627,623.651z"/>
			</g>
			<g>
				<text transform="matrix(1 0 0 1 147.3076 659.6455)" fill="#FFFFFF" font-family="'Gibson-Light'" font-size="10">Base Spirit : Burbon</text>
			</g>
			<text transform="matrix(1 0 0 1 147.3076 646.9795)" fill="#FFFFFF" font-family="'Gibson-SemiBold'" font-size="12">Consectetur  </text>
			<path fill="#FFFFFF" d="M266.832,632.506c-0.035-0.691-0.803-0.895-1.803-1.088c-0.707-0.137-1.633-0.157-2.121-0.157
				c-0.238,0-0.395,0.005-0.395,0.006c-0.012-0.001-0.168-0.006-0.408-0.006c-0.488,0-1.414,0.021-2.119,0.157
				c-1,0.193-1.77,0.396-1.803,1.088c-0.041,0.804-0.002,2.577-0.002,2.651l0.285,14.442c-0.004,0.136,0.045,0.904,1.578,1.181
				c1.377,0.249,2.266,0.262,2.43,0.262h0.029h0.037l0,0c0.164,0,1.051-0.013,2.428-0.262c1.535-0.276,1.582-1.045,1.578-1.181
				l0.285-14.441C266.834,635.083,266.873,633.31,266.832,632.506z M260.064,631.823c0.672-0.13,1.568-0.149,2.041-0.149
				c0.24,0,0.393,0.005,0.408,0.005c0,0,0.154-0.005,0.395-0.005c0.475,0,1.369,0.02,2.041,0.149
				c0.939,0.182,1.451,0.348,1.471,0.703c0,0.032,0.002,0.067,0.004,0.103c-0.143,0.1-0.438,0.231-1.049,0.307
				c-1.682,0.207-2.855,0.188-2.869,0.187c-0.012,0.001-1.184,0.021-2.867-0.187c-0.611-0.075-0.906-0.207-1.047-0.306
				c0-0.035,0.002-0.071,0.004-0.104C258.613,632.171,259.125,632.005,260.064,631.823z M264.896,650.374
				c-1.344,0.243-2.199,0.255-2.355,0.255l0,0h-0.037h-0.029c-0.158,0-1.014-0.012-2.355-0.255c-1.242-0.224-1.24-0.753-1.24-0.753
				l0.002-0.012l-0.014-0.651c0.258,0.193,0.678,0.466,1.166,0.604c0.742,0.209,1.766,0.283,2.475,0.283s1.73-0.074,2.475-0.283
				c0.488-0.138,0.908-0.41,1.166-0.604l-0.014,0.658C266.135,649.62,266.139,650.149,264.896,650.374z M266.42,635.149
				l-0.268,13.606c-0.229,0.183-0.684,0.508-1.213,0.656c-0.729,0.205-1.734,0.278-2.432,0.278c-0.699,0-1.705-0.073-2.434-0.278
				c-0.527-0.148-0.982-0.473-1.211-0.655l-0.268-13.608c0-0.016-0.033-1.47-0.01-2.341c0.188,0.105,0.502,0.216,1.035,0.281
				c1.693,0.209,2.877,0.188,2.885,0.188c0,0,0.037,0,0.104,0c0.322,0,1.377-0.015,2.785-0.188c0.531-0.065,0.848-0.176,1.035-0.281
				C266.451,633.679,266.42,635.133,266.42,635.149z"/>
		</g>
	</g>
	<rect x="669.918" y="250" fill="#FFFFFF" width="150" height="1"/>
	<g>
		<text transform="matrix(1 0 0 1 669.918 244.8672)" fill="#FFFFFF" font-family="'Gibson-Regular'" font-size="18">Party Mix 3</text>
	</g>
	<g>
		
			<rect x="675.184" y="266.559" fill="none" stroke="#FFFFFF" stroke-width="0.5" stroke-miterlimit="10" width="133.746" height="46.543"/>
		<g>
			<path d="M797.127,292.331c-9.373,0-17-7.626-17-17s7.627-17,17-17c9.375,0,17,7.626,17,17S806.502,292.331,797.127,292.331z"/>
			<path fill="#FFFFFF" d="M797.127,258.831c9.098,0,16.5,7.402,16.5,16.5s-7.402,16.5-16.5,16.5s-16.5-7.402-16.5-16.5
				S788.029,258.831,797.127,258.831 M797.127,257.831c-9.664,0-17.5,7.836-17.5,17.5c0,9.665,7.836,17.5,17.5,17.5
				c9.666,0,17.5-7.835,17.5-17.5C814.627,265.667,806.793,257.831,797.127,257.831L797.127,257.831z"/>
		</g>
		<g>
			<text transform="matrix(1 0 0 1 681.8066 293.8247)" fill="#FFFFFF" font-family="'Gibson-Light'" font-size="10">Base Spirit : Vodka</text>
		</g>
		<g>
			<text transform="matrix(1 0 0 1 681.8066 307.1577)" fill="#FFFFFF" font-family="'Gibson-Light'" font-size="10">Profile : Spirit Forward, Sweet</text>
		</g>
		<text transform="matrix(1 0 0 1 681.8066 281.1587)" fill="#FFFFFF" font-family="'Gibson-SemiBold'" font-size="12">Lorem Ipsuim</text>
		<path fill="#FFFFFF" d="M804.33,267.039c-0.016-0.084-0.027-0.163-0.039-0.235c-0.178-1.163-0.631-1.287-2.133-1.697l-0.141-0.038
			c-1.338-0.365-4.855-0.442-5.016-0.446c-0.148,0.004-3.666,0.081-5.004,0.446l-0.141,0.038c-1.504,0.41-1.957,0.534-2.135,1.697
			c-0.01,0.072-0.023,0.151-0.037,0.235c-0.188,1.133-0.537,3.242,1.35,4.958c0.721,0.656,1.551,1.018,2.285,1.334
			c1.299,0.564,2.324,1.01,2.484,2.779c0.197,2.133,0.24,3.66-0.137,4.596c-0.799,0.099-3.762,0.58-4.248,2.357
			c-0.125,0.454-0.078,0.873,0.137,1.246c0.512,0.887,1.859,1.239,2.436,1.391c0.066,0.018,0.125,0.031,0.166,0.045
			c0.588,0.171,2.109,0.295,2.85,0.295c0.738,0,2.262-0.124,2.848-0.295c0.043-0.014,0.1-0.027,0.168-0.045
			c0.574-0.151,1.922-0.504,2.436-1.391c0.215-0.373,0.26-0.792,0.135-1.246c-0.484-1.777-3.449-2.259-4.246-2.357
			c-0.377-0.936-0.334-2.463-0.139-4.596c0.162-1.77,1.186-2.215,2.486-2.779c0.732-0.316,1.564-0.678,2.285-1.334
			C804.867,270.281,804.518,268.171,804.33,267.039z M792.002,265.638l0.141-0.038c1.273-0.348,4.834-0.426,4.859-0.427
			c0.035,0.001,3.596,0.079,4.869,0.427l0.141,0.038c0.924,0.253,1.322,0.368,1.52,0.606c-0.209,0.238-0.973,0.699-3.789,0.954
			c-0.916,0.083-2.033,0.12-2.734,0.12c-0.703,0-1.82-0.037-2.736-0.12c-2.828-0.256-3.586-0.724-3.789-0.954
			C790.68,266.006,791.076,265.891,792.002,265.638z M802.064,283.208c0.084,0.312,0.057,0.582-0.084,0.826
			c-0.396,0.688-1.588,0.998-2.098,1.132c-0.074,0.019-0.135,0.035-0.182,0.049c-0.518,0.151-2,0.273-2.693,0.273
			c-0.695,0-2.178-0.122-2.693-0.273c-0.047-0.014-0.109-0.03-0.184-0.049c-0.508-0.134-1.699-0.444-2.096-1.132
			c-0.143-0.244-0.168-0.515-0.084-0.826c0.369-1.35,2.854-1.817,3.67-1.937c-0.041,0.032-0.086,0.062-0.131,0.09v-0.001
			c-0.283,0.16-0.434,0.359-0.434,0.576c0,0.506,0.857,0.902,1.951,0.902s1.949-0.396,1.949-0.902c0-0.217-0.148-0.416-0.434-0.576
			v0.001c-0.045-0.027-0.088-0.058-0.131-0.09C799.209,281.39,801.693,281.858,802.064,283.208z M802.609,271.588
			c-0.654,0.596-1.406,0.921-2.135,1.236c-1.35,0.586-2.625,1.139-2.816,3.234c-0.213,2.334-0.246,3.988,0.252,5.023
			c0.014,0.027,0.031,0.051,0.051,0.072c0.023,0.023,0.049,0.041,0.076,0.054c0.117,0.142,0.254,0.259,0.42,0.352l0,0
			c0.189,0.115,0.295,0.249,0.295,0.376c0,0.33-0.717,0.697-1.744,0.697c-1.029,0-1.744-0.367-1.744-0.697
			c0-0.127,0.104-0.261,0.295-0.376l0,0c0.164-0.093,0.303-0.21,0.418-0.352c0.029-0.013,0.055-0.03,0.076-0.054
			c0.021-0.021,0.037-0.045,0.051-0.072c0.498-1.035,0.465-2.689,0.252-5.022c-0.191-2.097-1.467-2.649-2.816-3.235
			c-0.727-0.315-1.48-0.641-2.133-1.236c-1.664-1.514-1.359-3.357-1.176-4.459c0.014-0.087,0.027-0.168,0.037-0.242
			c0.029-0.189,0.059-0.337,0.107-0.456c0.354,0.341,1.336,0.743,3.879,0.974c0.922,0.084,2.047,0.122,2.754,0.122
			s1.832-0.038,2.754-0.122c2.541-0.23,3.525-0.633,3.879-0.975c0.047,0.12,0.076,0.268,0.105,0.457
			c0.01,0.074,0.023,0.155,0.039,0.242C803.967,268.231,804.273,270.075,802.609,271.588z"/>
	</g>
	<g>
		
			<rect x="675.184" y="449.47" fill="none" stroke="#FFFFFF" stroke-width="0.5" stroke-miterlimit="10" width="133.746" height="46.543"/>
		<g>
			<path d="M797.127,475.241c-9.373,0-17-7.626-17-17s7.627-17,17-17c9.375,0,17,7.626,17,17S806.502,475.241,797.127,475.241z"/>
			<path fill="#FFFFFF" d="M797.127,441.741c9.098,0,16.5,7.401,16.5,16.5s-7.402,16.5-16.5,16.5s-16.5-7.401-16.5-16.5
				S788.029,441.741,797.127,441.741 M797.127,440.741c-9.664,0-17.5,7.836-17.5,17.5c0,9.665,7.836,17.5,17.5,17.5
				c9.666,0,17.5-7.835,17.5-17.5C814.627,448.577,806.793,440.741,797.127,440.741L797.127,440.741z"/>
		</g>
		<g>
			<text transform="matrix(1 0 0 1 681.8066 476.7354)" fill="#FFFFFF" font-family="'Gibson-Light'" font-size="10">Base Spirit : Vodka</text>
		</g>
		<g>
			<text transform="matrix(1 0 0 1 681.8066 490.0684)" fill="#FFFFFF" font-family="'Gibson-Light'" font-size="10">Profile : Spirit Forward, Sweet</text>
		</g>
		<text transform="matrix(1 0 0 1 681.8066 464.0693)" fill="#FFFFFF" font-family="'Gibson-SemiBold'" font-size="12">Lorem Ipsuim</text>
		<path fill="#FFFFFF" d="M804.33,449.949c-0.016-0.084-0.027-0.163-0.039-0.235c-0.178-1.163-0.631-1.287-2.133-1.697l-0.141-0.038
			c-1.338-0.365-4.855-0.442-5.016-0.446c-0.148,0.004-3.666,0.081-5.004,0.446l-0.141,0.038c-1.504,0.41-1.957,0.534-2.135,1.697
			c-0.01,0.072-0.023,0.151-0.037,0.235c-0.188,1.133-0.537,3.242,1.35,4.958c0.721,0.656,1.551,1.018,2.285,1.334
			c1.299,0.564,2.324,1.01,2.484,2.779c0.197,2.133,0.24,3.66-0.137,4.596c-0.799,0.099-3.762,0.58-4.248,2.357
			c-0.125,0.454-0.078,0.873,0.137,1.246c0.512,0.887,1.859,1.239,2.436,1.391c0.066,0.018,0.125,0.031,0.166,0.045
			c0.588,0.171,2.109,0.295,2.85,0.295c0.738,0,2.262-0.124,2.848-0.295c0.043-0.014,0.1-0.027,0.168-0.045
			c0.574-0.151,1.922-0.504,2.436-1.391c0.215-0.373,0.26-0.792,0.135-1.246c-0.484-1.777-3.449-2.259-4.246-2.357
			c-0.377-0.936-0.334-2.463-0.139-4.596c0.162-1.77,1.186-2.215,2.486-2.779c0.732-0.316,1.564-0.678,2.285-1.334
			C804.867,453.191,804.518,451.082,804.33,449.949z M792.002,448.549l0.141-0.038c1.273-0.348,4.834-0.426,4.859-0.427
			c0.035,0.001,3.596,0.079,4.869,0.427l0.141,0.038c0.924,0.253,1.322,0.368,1.52,0.606c-0.209,0.238-0.973,0.699-3.789,0.954
			c-0.916,0.083-2.033,0.12-2.734,0.12c-0.703,0-1.82-0.037-2.736-0.12c-2.828-0.256-3.586-0.724-3.789-0.954
			C790.68,448.917,791.076,448.802,792.002,448.549z M802.064,466.118c0.084,0.312,0.057,0.582-0.084,0.826
			c-0.396,0.688-1.588,0.998-2.098,1.132c-0.074,0.019-0.135,0.035-0.182,0.049c-0.518,0.151-2,0.273-2.693,0.273
			c-0.695,0-2.178-0.122-2.693-0.273c-0.047-0.014-0.109-0.03-0.184-0.049c-0.508-0.134-1.699-0.444-2.096-1.132
			c-0.143-0.244-0.168-0.515-0.084-0.826c0.369-1.35,2.854-1.817,3.67-1.937c-0.041,0.032-0.086,0.062-0.131,0.09v-0.001
			c-0.283,0.16-0.434,0.359-0.434,0.576c0,0.506,0.857,0.902,1.951,0.902s1.949-0.396,1.949-0.902c0-0.217-0.148-0.416-0.434-0.576
			v0.001c-0.045-0.027-0.088-0.058-0.131-0.09C799.209,464.301,801.693,464.769,802.064,466.118z M802.609,454.499
			c-0.654,0.596-1.406,0.921-2.135,1.236c-1.35,0.586-2.625,1.139-2.816,3.234c-0.213,2.334-0.246,3.988,0.252,5.023
			c0.014,0.027,0.031,0.051,0.051,0.072c0.023,0.023,0.049,0.041,0.076,0.054c0.117,0.142,0.254,0.259,0.42,0.352l0,0
			c0.189,0.115,0.295,0.249,0.295,0.376c0,0.33-0.717,0.697-1.744,0.697c-1.029,0-1.744-0.367-1.744-0.697
			c0-0.127,0.104-0.261,0.295-0.376l0,0c0.164-0.093,0.303-0.21,0.418-0.352c0.029-0.013,0.055-0.03,0.076-0.054
			c0.021-0.021,0.037-0.045,0.051-0.072c0.498-1.035,0.465-2.689,0.252-5.022c-0.191-2.097-1.467-2.649-2.816-3.235
			c-0.727-0.315-1.48-0.641-2.133-1.236c-1.664-1.514-1.359-3.357-1.176-4.459c0.014-0.087,0.027-0.168,0.037-0.242
			c0.029-0.189,0.059-0.337,0.107-0.456c0.354,0.341,1.336,0.743,3.879,0.974c0.922,0.084,2.047,0.122,2.754,0.122
			s1.832-0.038,2.754-0.122c2.541-0.23,3.525-0.633,3.879-0.975c0.047,0.12,0.076,0.268,0.105,0.457
			c0.01,0.074,0.023,0.155,0.039,0.242C803.967,451.142,804.273,452.985,802.609,454.499z"/>
	</g>
	<g>
		<g>
			<path fill="#FFFFFF" d="M808.43,389v45.542H675.684V389H808.43 M808.93,388.5H675.184v46.542H808.93V388.5L808.93,388.5z"/>
		</g>
		<g>
			<path d="M797.127,414.271c-9.373,0-17-7.626-17-17c0-9.374,7.627-17,17-17c9.375,0,17,7.626,17,17
				C814.127,406.645,806.502,414.271,797.127,414.271z"/>
			<path fill="#FFFFFF" d="M797.127,380.771c9.098,0,16.5,7.402,16.5,16.5s-7.402,16.5-16.5,16.5s-16.5-7.401-16.5-16.5
				S788.029,380.771,797.127,380.771 M797.127,379.771c-9.664,0-17.5,7.836-17.5,17.5c0,9.666,7.836,17.5,17.5,17.5
				c9.666,0,17.5-7.834,17.5-17.5C814.627,387.607,806.793,379.771,797.127,379.771L797.127,379.771z"/>
		</g>
		<g>
			<text transform="matrix(1 0 0 1 681.8066 415.7656)" fill="#FFFFFF" font-family="'Gibson-Light'" font-size="10">Base Spirit : Burbon</text>
		</g>
		<g>
			<text transform="matrix(1 0 0 1 681.8066 429.0977)" fill="#FFFFFF" font-family="'Gibson-Light'" font-size="10">Profile : Spirit Forward, Sweet</text>
		</g>
		<text transform="matrix(1 0 0 1 681.8066 403.0996)" fill="#FFFFFF" font-family="'Gibson-SemiBold'" font-size="12">exercitation </text>
		<path fill="#FFFFFF" d="M802.332,389.415c-1.539-0.357-5.053-0.387-5.207-0.388c-0.148,0.001-3.662,0.03-5.201,0.388
			c-1.547,0.357-2.283,0.89-2.248,1.625c0.025,0.518,0.543,12.116,0.543,12.116c0,0.045,0.041,1.146,1.48,1.652
			c1.348,0.477,3.123,0.707,5.428,0.707c2.307,0,4.082-0.23,5.43-0.707c1.438-0.506,1.479-1.607,1.48-1.646
			c0.004-0.117,0.518-11.61,0.543-12.122C804.613,390.304,803.879,389.772,802.332,389.415z M792.039,389.917
			c1.484-0.344,5.055-0.374,5.086-0.374c0.037,0,3.605,0.03,5.092,0.374c1.211,0.281,1.867,0.671,1.848,1.099
			c-0.002,0.038-0.008,0.141-0.014,0.293c-0.199,0.172-0.625,0.397-1.543,0.585c-1.799,0.368-3.84,0.365-5.186,0.365h-0.195h-0.193
			c-1.35,0.001-3.387,0.003-5.186-0.365c-0.92-0.188-1.344-0.413-1.543-0.585c-0.008-0.152-0.012-0.254-0.014-0.293
			C790.172,390.587,790.828,390.198,792.039,389.917z M803.521,403.144c0,0.008-0.031,0.789-1.137,1.178
			c-1.291,0.455-3.012,0.678-5.258,0.678s-3.965-0.223-5.258-0.678c-1.088-0.383-1.135-1.148-1.135-1.184
			c0,0-0.01-0.195-0.023-0.533c0.816,0.578,1.166,0.719,2.148,0.951c1.084,0.256,3.211,0.398,4.268,0.398s3.186-0.143,4.27-0.398
			c0.982-0.232,1.33-0.373,2.148-0.953C803.531,402.933,803.521,403.128,803.521,403.144z M803.557,402.358
			c-0.883,0.635-1.207,0.773-2.205,1.01c-1.07,0.252-3.176,0.393-4.225,0.393c-1.047,0-3.152-0.141-4.223-0.393
			c-1-0.236-1.322-0.375-2.205-1.01c-0.102-2.27-0.395-8.845-0.484-10.804c0.27,0.178,0.721,0.37,1.494,0.527
			c1.818,0.373,3.871,0.371,5.225,0.371h0.193h0.195c0.068,0,0.141,0,0.213,0c1.354,0,3.287-0.018,5.012-0.371
			c0.771-0.157,1.225-0.35,1.492-0.527C803.951,393.512,803.658,400.081,803.557,402.358z"/>
	</g>
	<g>
		<g>
			<text transform="matrix(1 0 0 1 681.8066 368.1279)" fill="#FFFFFF" font-family="'Gibson-Light'" font-size="10">Profile : Citrus, Sweet, Sour</text>
		</g>
		<g>
			
				<rect x="675.184" y="327.529" fill="none" stroke="#FFFFFF" stroke-width="0.5" stroke-miterlimit="10" width="133.746" height="46.543"/>
			<g>
				<path d="M797.127,353.301c-9.373,0-17-7.626-17-17s7.627-17,17-17c9.375,0,17,7.626,17,17S806.502,353.301,797.127,353.301z"/>
				<path fill="#FFFFFF" d="M797.127,319.801c9.098,0,16.5,7.402,16.5,16.5s-7.402,16.5-16.5,16.5s-16.5-7.402-16.5-16.5
					S788.029,319.801,797.127,319.801 M797.127,318.801c-9.664,0-17.5,7.836-17.5,17.5c0,9.665,7.836,17.5,17.5,17.5
					c9.666,0,17.5-7.835,17.5-17.5C814.627,326.637,806.793,318.801,797.127,318.801L797.127,318.801z"/>
			</g>
			<g>
				<text transform="matrix(1 0 0 1 681.8066 354.7949)" fill="#FFFFFF" font-family="'Gibson-Light'" font-size="10">Base Spirit : Burbon</text>
			</g>
			<text transform="matrix(1 0 0 1 681.8066 342.1289)" fill="#FFFFFF" font-family="'Gibson-SemiBold'" font-size="12">Consectetur  </text>
			<path fill="#FFFFFF" d="M801.332,327.655c-0.035-0.691-0.803-0.895-1.803-1.088c-0.707-0.137-1.633-0.157-2.121-0.157
				c-0.238,0-0.395,0.005-0.395,0.006c-0.012-0.001-0.168-0.006-0.408-0.006c-0.488,0-1.414,0.021-2.119,0.157
				c-1,0.193-1.77,0.396-1.803,1.088c-0.041,0.804-0.002,2.577-0.002,2.651l0.285,14.442c-0.004,0.136,0.045,0.904,1.578,1.181
				c1.377,0.249,2.266,0.262,2.43,0.262h0.029h0.037l0,0c0.164,0,1.051-0.013,2.428-0.262c1.535-0.276,1.582-1.045,1.578-1.181
				l0.285-14.441C801.334,330.232,801.373,328.459,801.332,327.655z M794.564,326.973c0.672-0.13,1.568-0.149,2.041-0.149
				c0.24,0,0.393,0.005,0.408,0.005c0,0,0.154-0.005,0.395-0.005c0.475,0,1.369,0.02,2.041,0.149
				c0.939,0.182,1.451,0.348,1.471,0.703c0,0.032,0.002,0.067,0.004,0.103c-0.143,0.1-0.438,0.231-1.049,0.307
				c-1.682,0.207-2.855,0.188-2.869,0.187c-0.012,0.001-1.184,0.021-2.867-0.187c-0.611-0.075-0.906-0.207-1.047-0.306
				c0-0.035,0.002-0.071,0.004-0.104C793.113,327.32,793.625,327.154,794.564,326.973z M799.396,345.523
				c-1.344,0.243-2.199,0.255-2.355,0.255l0,0h-0.037h-0.029c-0.158,0-1.014-0.012-2.355-0.255c-1.242-0.224-1.24-0.753-1.24-0.753
				l0.002-0.012l-0.014-0.651c0.258,0.193,0.678,0.466,1.166,0.604c0.742,0.209,1.766,0.283,2.475,0.283s1.73-0.074,2.475-0.283
				c0.488-0.138,0.908-0.41,1.166-0.604l-0.014,0.658C800.635,344.77,800.639,345.299,799.396,345.523z M800.92,330.299
				l-0.268,13.606c-0.229,0.183-0.684,0.508-1.213,0.656c-0.729,0.205-1.734,0.278-2.432,0.278c-0.699,0-1.705-0.073-2.434-0.278
				c-0.527-0.148-0.982-0.473-1.211-0.655l-0.268-13.608c0-0.016-0.033-1.47-0.01-2.341c0.188,0.105,0.502,0.216,1.035,0.281
				c1.693,0.209,2.877,0.188,2.885,0.188c0,0,0.037,0,0.104,0c0.322,0,1.377-0.015,2.785-0.188c0.531-0.065,0.848-0.176,1.035-0.281
				C800.951,328.828,800.92,330.282,800.92,330.299z"/>
		</g>
	</g>
	<g>
		<g>
			<text transform="matrix(1 0 0 1 681.8066 551.0371)" fill="#FFFFFF" font-family="'Gibson-Light'" font-size="10">Profile : Citrus, Sweet, Sour</text>
		</g>
		<g>
			<g>
				<g>
					<path fill="#FFFFFF" d="M808.43,510.939v45.543H675.684v-45.543H808.43 M808.93,510.439H675.184v46.543H808.93V510.439
						L808.93,510.439z"/>
				</g>
			</g>
			<g>
				<path d="M797.127,536.211c-9.373,0-17-7.626-17-17s7.627-17,17-17c9.375,0,17,7.626,17,17S806.502,536.211,797.127,536.211z"/>
				<path fill="#FFFFFF" d="M797.127,502.711c9.098,0,16.5,7.402,16.5,16.5s-7.402,16.5-16.5,16.5s-16.5-7.402-16.5-16.5
					S788.029,502.711,797.127,502.711 M797.127,501.711c-9.664,0-17.5,7.836-17.5,17.5c0,9.665,7.836,17.5,17.5,17.5
					c9.666,0,17.5-7.835,17.5-17.5C814.627,509.547,806.793,501.711,797.127,501.711L797.127,501.711z"/>
			</g>
			<g>
				<text transform="matrix(1 0 0 1 681.8066 537.7051)" fill="#FFFFFF" font-family="'Gibson-Light'" font-size="10">Base Spirit : Burbon</text>
			</g>
			<text transform="matrix(1 0 0 1 681.8066 525.0391)" fill="#FFFFFF" font-family="'Gibson-SemiBold'" font-size="12">Consectetur  </text>
			<path fill="#FFFFFF" d="M801.332,510.565c-0.035-0.691-0.803-0.895-1.803-1.088c-0.707-0.137-1.633-0.157-2.121-0.157
				c-0.238,0-0.395,0.005-0.395,0.006c-0.012-0.001-0.168-0.006-0.408-0.006c-0.488,0-1.414,0.021-2.119,0.157
				c-1,0.193-1.77,0.396-1.803,1.088c-0.041,0.804-0.002,2.577-0.002,2.651l0.285,14.442c-0.004,0.136,0.045,0.904,1.578,1.181
				c1.377,0.249,2.266,0.262,2.43,0.262h0.029h0.037l0,0c0.164,0,1.051-0.013,2.428-0.262c1.535-0.276,1.582-1.045,1.578-1.181
				l0.285-14.441C801.334,513.143,801.373,511.369,801.332,510.565z M794.564,509.883c0.672-0.13,1.568-0.149,2.041-0.149
				c0.24,0,0.393,0.005,0.408,0.005c0,0,0.154-0.005,0.395-0.005c0.475,0,1.369,0.02,2.041,0.149
				c0.939,0.182,1.451,0.348,1.471,0.703c0,0.032,0.002,0.067,0.004,0.103c-0.143,0.1-0.438,0.231-1.049,0.307
				c-1.682,0.207-2.855,0.188-2.869,0.187c-0.012,0.001-1.184,0.021-2.867-0.187c-0.611-0.075-0.906-0.207-1.047-0.306
				c0-0.035,0.002-0.071,0.004-0.104C793.113,510.23,793.625,510.064,794.564,509.883z M799.396,528.434
				c-1.344,0.243-2.199,0.255-2.355,0.255l0,0h-0.037h-0.029c-0.158,0-1.014-0.012-2.355-0.255c-1.242-0.224-1.24-0.753-1.24-0.753
				l0.002-0.012l-0.014-0.651c0.258,0.193,0.678,0.466,1.166,0.604c0.742,0.209,1.766,0.283,2.475,0.283s1.73-0.074,2.475-0.283
				c0.488-0.138,0.908-0.41,1.166-0.604l-0.014,0.658C800.635,527.68,800.639,528.209,799.396,528.434z M800.92,513.209
				l-0.268,13.606c-0.229,0.183-0.684,0.508-1.213,0.656c-0.729,0.205-1.734,0.278-2.432,0.278c-0.699,0-1.705-0.073-2.434-0.278
				c-0.527-0.148-0.982-0.473-1.211-0.655l-0.268-13.608c0-0.016-0.033-1.47-0.01-2.341c0.188,0.105,0.502,0.216,1.035,0.281
				c1.693,0.209,2.877,0.188,2.885,0.188c0,0,0.037,0,0.104,0c0.322,0,1.377-0.015,2.785-0.188c0.531-0.065,0.848-0.176,1.035-0.281
				C800.951,511.738,800.92,513.192,800.92,513.209z"/>
		</g>
	</g>
	<rect x="314.918" y="250" fill="#FFFFFF" width="146" height="1"/>
	<g>
		<text transform="matrix(1 0 0 1 315.252 244.8672)" fill="#FFFFFF" font-family="'Gibson-Regular'" font-size="18">Party Mix 2</text>
	</g>
	<g>
		
			<rect x="319.018" y="271.559" fill="none" stroke="#FFFFFF" stroke-width="0.5" stroke-miterlimit="10" width="133.746" height="46.543"/>
		<g>
			<path d="M440.961,297.331c-9.375,0-17-7.626-17-17s7.625-17,17-17s17,7.626,17,17S450.336,297.331,440.961,297.331z"/>
			<path fill="#FFFFFF" d="M440.961,263.831c9.098,0,16.5,7.402,16.5,16.5s-7.402,16.5-16.5,16.5s-16.5-7.402-16.5-16.5
				S431.863,263.831,440.961,263.831 M440.961,262.831c-9.664,0-17.5,7.836-17.5,17.5c0,9.665,7.836,17.5,17.5,17.5
				c9.666,0,17.5-7.835,17.5-17.5C458.461,270.667,450.627,262.831,440.961,262.831L440.961,262.831z"/>
		</g>
		<g>
			<text transform="matrix(1 0 0 1 325.6406 298.8247)" fill="#FFFFFF" font-family="'Gibson-Light'" font-size="10">Base Spirit : Vodka</text>
		</g>
		<g>
			<text transform="matrix(1 0 0 1 325.6406 312.1577)" fill="#FFFFFF" font-family="'Gibson-Light'" font-size="10">Profile : Spirit Forward, Sweet</text>
		</g>
		<text transform="matrix(1 0 0 1 325.6406 286.1587)" fill="#FFFFFF" font-family="'Gibson-SemiBold'" font-size="12">Lorem Ipsuim</text>
		<path fill="#FFFFFF" d="M448.164,272.039c-0.016-0.084-0.027-0.163-0.039-0.235c-0.178-1.163-0.631-1.287-2.133-1.697
			l-0.141-0.038c-1.338-0.365-4.855-0.442-5.016-0.446c-0.148,0.004-3.666,0.081-5.004,0.446l-0.141,0.038
			c-1.504,0.41-1.957,0.534-2.135,1.697c-0.01,0.072-0.023,0.151-0.037,0.235c-0.188,1.133-0.537,3.242,1.35,4.958
			c0.721,0.656,1.551,1.018,2.285,1.334c1.299,0.564,2.324,1.01,2.484,2.779c0.197,2.133,0.24,3.66-0.137,4.596
			c-0.799,0.099-3.762,0.58-4.248,2.357c-0.125,0.454-0.078,0.873,0.137,1.246c0.512,0.887,1.859,1.239,2.436,1.391
			c0.066,0.018,0.125,0.031,0.166,0.045c0.588,0.171,2.109,0.295,2.85,0.295c0.738,0,2.262-0.124,2.848-0.295
			c0.043-0.014,0.1-0.027,0.168-0.045c0.574-0.151,1.922-0.504,2.436-1.391c0.215-0.373,0.26-0.792,0.135-1.246
			c-0.484-1.777-3.449-2.259-4.246-2.357c-0.377-0.936-0.334-2.463-0.139-4.596c0.162-1.77,1.186-2.215,2.486-2.779
			c0.732-0.316,1.564-0.678,2.285-1.334C448.701,275.281,448.352,273.171,448.164,272.039z M435.836,270.638l0.141-0.038
			c1.273-0.348,4.834-0.426,4.859-0.427c0.035,0.001,3.596,0.079,4.869,0.427l0.141,0.038c0.924,0.253,1.322,0.368,1.52,0.606
			c-0.209,0.238-0.973,0.699-3.789,0.954c-0.916,0.083-2.033,0.12-2.734,0.12c-0.703,0-1.82-0.037-2.736-0.12
			c-2.828-0.256-3.586-0.724-3.789-0.954C434.514,271.006,434.91,270.891,435.836,270.638z M445.898,288.208
			c0.084,0.312,0.057,0.582-0.084,0.826c-0.396,0.688-1.588,0.998-2.098,1.132c-0.074,0.019-0.135,0.035-0.182,0.049
			c-0.518,0.151-2,0.273-2.693,0.273c-0.695,0-2.178-0.122-2.693-0.273c-0.047-0.014-0.109-0.03-0.184-0.049
			c-0.508-0.134-1.699-0.444-2.096-1.132c-0.143-0.244-0.168-0.515-0.084-0.826c0.369-1.35,2.854-1.817,3.67-1.937
			c-0.041,0.032-0.086,0.062-0.131,0.09v-0.001c-0.283,0.16-0.434,0.359-0.434,0.576c0,0.506,0.857,0.902,1.951,0.902
			s1.949-0.396,1.949-0.902c0-0.217-0.148-0.416-0.434-0.576v0.001c-0.045-0.027-0.088-0.058-0.131-0.09
			C443.043,286.39,445.527,286.858,445.898,288.208z M446.443,276.588c-0.654,0.596-1.406,0.921-2.135,1.236
			c-1.35,0.586-2.625,1.139-2.816,3.234c-0.213,2.334-0.246,3.988,0.252,5.023c0.014,0.027,0.031,0.051,0.051,0.072
			c0.023,0.023,0.049,0.041,0.076,0.054c0.117,0.142,0.254,0.259,0.42,0.352l0,0c0.189,0.115,0.295,0.249,0.295,0.376
			c0,0.33-0.717,0.697-1.744,0.697c-1.029,0-1.744-0.367-1.744-0.697c0-0.127,0.104-0.261,0.295-0.376l0,0
			c0.164-0.093,0.303-0.21,0.418-0.352c0.029-0.013,0.055-0.03,0.076-0.054c0.021-0.021,0.037-0.045,0.051-0.072
			c0.498-1.035,0.465-2.689,0.252-5.022c-0.191-2.097-1.467-2.649-2.816-3.235c-0.727-0.315-1.48-0.641-2.133-1.236
			c-1.664-1.514-1.359-3.357-1.176-4.459c0.014-0.087,0.027-0.168,0.037-0.242c0.029-0.189,0.059-0.337,0.107-0.456
			c0.354,0.341,1.336,0.743,3.879,0.974c0.922,0.084,2.047,0.122,2.754,0.122s1.832-0.038,2.754-0.122
			c2.541-0.23,3.525-0.633,3.879-0.975c0.047,0.12,0.076,0.268,0.105,0.457c0.01,0.074,0.023,0.155,0.039,0.242
			C447.801,273.231,448.107,275.075,446.443,276.588z"/>
	</g>
	<g>
		
			<rect x="319.018" y="451.245" fill="none" stroke="#FFFFFF" stroke-width="0.5" stroke-miterlimit="10" width="133.746" height="46.543"/>
		<g>
			<path d="M440.961,477.017c-9.375,0-17-7.626-17-17s7.625-17,17-17s17,7.626,17,17S450.336,477.017,440.961,477.017z"/>
			<path fill="#FFFFFF" d="M440.961,443.517c9.098,0,16.5,7.401,16.5,16.5s-7.402,16.5-16.5,16.5s-16.5-7.401-16.5-16.5
				S431.863,443.517,440.961,443.517 M440.961,442.517c-9.664,0-17.5,7.836-17.5,17.5c0,9.665,7.836,17.5,17.5,17.5
				c9.666,0,17.5-7.835,17.5-17.5C458.461,450.353,450.627,442.517,440.961,442.517L440.961,442.517z"/>
		</g>
		<g>
			<text transform="matrix(1 0 0 1 325.6406 478.5098)" fill="#FFFFFF" font-family="'Gibson-Light'" font-size="10">Base Spirit : Vodka</text>
		</g>
		<g>
			<text transform="matrix(1 0 0 1 325.6406 491.8438)" fill="#FFFFFF" font-family="'Gibson-Light'" font-size="10">Profile : Spirit Forward, Sweet</text>
		</g>
		<text transform="matrix(1 0 0 1 325.6406 465.8438)" fill="#FFFFFF" font-family="'Gibson-SemiBold'" font-size="12">Lorem Ipsuim</text>
		<path fill="#FFFFFF" d="M448.164,451.725c-0.016-0.084-0.027-0.163-0.039-0.235c-0.178-1.163-0.631-1.287-2.133-1.697
			l-0.141-0.038c-1.338-0.365-4.855-0.442-5.016-0.446c-0.148,0.004-3.666,0.081-5.004,0.446l-0.141,0.038
			c-1.504,0.41-1.957,0.534-2.135,1.697c-0.01,0.072-0.023,0.151-0.037,0.235c-0.188,1.133-0.537,3.242,1.35,4.958
			c0.721,0.656,1.551,1.018,2.285,1.334c1.299,0.564,2.324,1.01,2.484,2.779c0.197,2.133,0.24,3.66-0.137,4.596
			c-0.799,0.099-3.762,0.58-4.248,2.357c-0.125,0.454-0.078,0.873,0.137,1.246c0.512,0.887,1.859,1.239,2.436,1.391
			c0.066,0.018,0.125,0.031,0.166,0.045c0.588,0.171,2.109,0.295,2.85,0.295c0.738,0,2.262-0.124,2.848-0.295
			c0.043-0.014,0.1-0.027,0.168-0.045c0.574-0.151,1.922-0.504,2.436-1.391c0.215-0.373,0.26-0.792,0.135-1.246
			c-0.484-1.777-3.449-2.259-4.246-2.357c-0.377-0.936-0.334-2.463-0.139-4.596c0.162-1.77,1.186-2.215,2.486-2.779
			c0.732-0.316,1.564-0.678,2.285-1.334C448.701,454.967,448.352,452.857,448.164,451.725z M435.836,450.324l0.141-0.038
			c1.273-0.348,4.834-0.426,4.859-0.427c0.035,0.001,3.596,0.079,4.869,0.427l0.141,0.038c0.924,0.253,1.322,0.368,1.52,0.606
			c-0.209,0.238-0.973,0.699-3.789,0.954c-0.916,0.083-2.033,0.12-2.734,0.12c-0.703,0-1.82-0.037-2.736-0.12
			c-2.828-0.256-3.586-0.724-3.789-0.954C434.514,450.692,434.91,450.577,435.836,450.324z M445.898,467.894
			c0.084,0.312,0.057,0.582-0.084,0.826c-0.396,0.688-1.588,0.998-2.098,1.132c-0.074,0.019-0.135,0.035-0.182,0.049
			c-0.518,0.151-2,0.273-2.693,0.273c-0.695,0-2.178-0.122-2.693-0.273c-0.047-0.014-0.109-0.03-0.184-0.049
			c-0.508-0.134-1.699-0.444-2.096-1.132c-0.143-0.244-0.168-0.515-0.084-0.826c0.369-1.35,2.854-1.817,3.67-1.937
			c-0.041,0.032-0.086,0.062-0.131,0.09v-0.001c-0.283,0.16-0.434,0.359-0.434,0.576c0,0.506,0.857,0.902,1.951,0.902
			s1.949-0.396,1.949-0.902c0-0.217-0.148-0.416-0.434-0.576v0.001c-0.045-0.027-0.088-0.058-0.131-0.09
			C443.043,466.076,445.527,466.544,445.898,467.894z M446.443,456.274c-0.654,0.596-1.406,0.921-2.135,1.236
			c-1.35,0.586-2.625,1.139-2.816,3.234c-0.213,2.334-0.246,3.988,0.252,5.023c0.014,0.027,0.031,0.051,0.051,0.072
			c0.023,0.023,0.049,0.041,0.076,0.054c0.117,0.142,0.254,0.259,0.42,0.352l0,0c0.189,0.115,0.295,0.249,0.295,0.376
			c0,0.33-0.717,0.697-1.744,0.697c-1.029,0-1.744-0.367-1.744-0.697c0-0.127,0.104-0.261,0.295-0.376l0,0
			c0.164-0.093,0.303-0.21,0.418-0.352c0.029-0.013,0.055-0.03,0.076-0.054c0.021-0.021,0.037-0.045,0.051-0.072
			c0.498-1.035,0.465-2.689,0.252-5.022c-0.191-2.097-1.467-2.649-2.816-3.235c-0.727-0.315-1.48-0.641-2.133-1.236
			c-1.664-1.514-1.359-3.357-1.176-4.459c0.014-0.087,0.027-0.168,0.037-0.242c0.029-0.189,0.059-0.337,0.107-0.456
			c0.354,0.341,1.336,0.743,3.879,0.974c0.922,0.084,2.047,0.122,2.754,0.122s1.832-0.038,2.754-0.122
			c2.541-0.23,3.525-0.633,3.879-0.975c0.047,0.12,0.076,0.268,0.105,0.457c0.01,0.074,0.023,0.155,0.039,0.242
			C447.801,452.917,448.107,454.761,446.443,456.274z"/>
	</g>
	<g>
		<g>
			<path fill="#FFFFFF" d="M452.264,391.85v45.543H319.518V391.85H452.264 M452.764,391.35H319.018v46.543h133.746V391.35
				L452.764,391.35z"/>
		</g>
		<g>
			<path d="M440.961,417.121c-9.375,0-17-7.626-17-17s7.625-17,17-17s17,7.626,17,17S450.336,417.121,440.961,417.121z"/>
			<path fill="#FFFFFF" d="M440.961,383.621c9.098,0,16.5,7.402,16.5,16.5c0,9.098-7.402,16.5-16.5,16.5s-16.5-7.402-16.5-16.5
				C424.461,391.023,431.863,383.621,440.961,383.621 M440.961,382.621c-9.664,0-17.5,7.836-17.5,17.5c0,9.665,7.836,17.5,17.5,17.5
				c9.666,0,17.5-7.835,17.5-17.5C458.461,390.457,450.627,382.621,440.961,382.621L440.961,382.621z"/>
		</g>
		<g>
			<text transform="matrix(1 0 0 1 325.6406 418.6152)" fill="#FFFFFF" font-family="'Gibson-Light'" font-size="10">Base Spirit : Burbon</text>
		</g>
		<g>
			<text transform="matrix(1 0 0 1 325.6406 431.9482)" fill="#FFFFFF" font-family="'Gibson-Light'" font-size="10">Profile : Spirit Forward, Sweet</text>
		</g>
		<text transform="matrix(1 0 0 1 325.6406 405.9492)" fill="#FFFFFF" font-family="'Gibson-SemiBold'" font-size="12">exercitation </text>
		<path fill="#FFFFFF" d="M446.166,392.265c-1.539-0.357-5.053-0.387-5.207-0.388c-0.148,0.001-3.662,0.03-5.201,0.388
			c-1.547,0.357-2.283,0.89-2.248,1.625c0.025,0.518,0.543,12.115,0.543,12.115c0,0.046,0.041,1.147,1.48,1.653
			c1.348,0.476,3.123,0.706,5.428,0.706c2.307,0,4.082-0.23,5.43-0.706c1.438-0.506,1.479-1.607,1.48-1.647
			c0.004-0.116,0.518-11.609,0.543-12.121C448.447,393.154,447.713,392.622,446.166,392.265z M435.873,392.767
			c1.484-0.344,5.055-0.374,5.086-0.374c0.037,0,3.605,0.03,5.092,0.374c1.211,0.281,1.867,0.671,1.848,1.099
			c-0.002,0.038-0.008,0.141-0.014,0.293c-0.199,0.172-0.625,0.397-1.543,0.585c-1.799,0.368-3.84,0.365-5.186,0.365h-0.195h-0.193
			c-1.35,0.001-3.387,0.003-5.186-0.365c-0.92-0.188-1.344-0.413-1.543-0.585c-0.008-0.152-0.012-0.254-0.014-0.293
			C434.006,393.438,434.662,393.048,435.873,392.767z M447.355,405.993c0,0.008-0.031,0.79-1.137,1.179
			c-1.291,0.455-3.012,0.677-5.258,0.677s-3.965-0.222-5.258-0.677c-1.088-0.383-1.135-1.148-1.135-1.184
			c0,0-0.01-0.196-0.023-0.534c0.816,0.579,1.166,0.72,2.148,0.952c1.084,0.256,3.211,0.397,4.268,0.397s3.186-0.142,4.27-0.397
			c0.982-0.232,1.33-0.373,2.148-0.953C447.365,405.783,447.355,405.979,447.355,405.993z M447.391,405.208
			c-0.883,0.636-1.207,0.774-2.205,1.01c-1.07,0.253-3.176,0.393-4.225,0.393c-1.047,0-3.152-0.14-4.223-0.393
			c-1-0.235-1.322-0.375-2.205-1.01c-0.102-2.27-0.395-8.845-0.484-10.804c0.27,0.178,0.721,0.37,1.494,0.527
			c1.818,0.373,3.871,0.371,5.225,0.371h0.193h0.195c0.068,0,0.141,0,0.213,0c1.354,0,3.287-0.018,5.012-0.371
			c0.771-0.157,1.225-0.35,1.492-0.527C447.785,396.362,447.492,402.931,447.391,405.208z"/>
	</g>
	<g>
		<g>
			<text transform="matrix(1 0 0 1 325.6406 372.0527)" fill="#FFFFFF" font-family="'Gibson-Light'" font-size="10">Profile : Citrus, Sweet, Sour</text>
		</g>
		<g>
			
				<rect x="319.018" y="331.454" fill="none" stroke="#FFFFFF" stroke-width="0.5" stroke-miterlimit="10" width="133.746" height="46.543"/>
			<g>
				<path d="M440.961,357.226c-9.375,0-17-7.626-17-17s7.625-17,17-17s17,7.626,17,17S450.336,357.226,440.961,357.226z"/>
				<path fill="#FFFFFF" d="M440.961,323.726c9.098,0,16.5,7.402,16.5,16.5s-7.402,16.5-16.5,16.5s-16.5-7.402-16.5-16.5
					S431.863,323.726,440.961,323.726 M440.961,322.726c-9.664,0-17.5,7.836-17.5,17.5c0,9.665,7.836,17.5,17.5,17.5
					c9.666,0,17.5-7.835,17.5-17.5C458.461,330.562,450.627,322.726,440.961,322.726L440.961,322.726z"/>
			</g>
			<g>
				<text transform="matrix(1 0 0 1 325.6406 358.7197)" fill="#FFFFFF" font-family="'Gibson-Light'" font-size="10">Base Spirit : Burbon</text>
			</g>
			<text transform="matrix(1 0 0 1 325.6406 346.0537)" fill="#FFFFFF" font-family="'Gibson-SemiBold'" font-size="12">Consectetur  </text>
			<path fill="#FFFFFF" d="M445.166,331.58c-0.035-0.691-0.803-0.895-1.803-1.088c-0.707-0.137-1.633-0.157-2.121-0.157
				c-0.238,0-0.395,0.005-0.395,0.006c-0.012-0.001-0.168-0.006-0.408-0.006c-0.488,0-1.414,0.021-2.119,0.157
				c-1,0.193-1.77,0.396-1.803,1.088c-0.041,0.804-0.002,2.577-0.002,2.651l0.285,14.442c-0.004,0.136,0.045,0.904,1.578,1.181
				c1.377,0.249,2.266,0.262,2.43,0.262h0.029h0.037l0,0c0.164,0,1.051-0.013,2.428-0.262c1.535-0.276,1.582-1.045,1.578-1.181
				l0.285-14.441C445.168,334.157,445.207,332.384,445.166,331.58z M438.398,330.897c0.672-0.13,1.568-0.149,2.041-0.149
				c0.24,0,0.393,0.005,0.408,0.005c0,0,0.154-0.005,0.395-0.005c0.475,0,1.369,0.02,2.041,0.149
				c0.939,0.182,1.451,0.348,1.471,0.703c0,0.032,0.002,0.067,0.004,0.103c-0.143,0.1-0.438,0.231-1.049,0.307
				c-1.682,0.207-2.855,0.188-2.869,0.187c-0.012,0.001-1.184,0.021-2.867-0.187c-0.611-0.075-0.906-0.207-1.047-0.306
				c0-0.035,0.002-0.071,0.004-0.104C436.947,331.245,437.459,331.079,438.398,330.897z M443.23,349.448
				c-1.344,0.243-2.199,0.255-2.355,0.255l0,0h-0.037h-0.029c-0.158,0-1.014-0.012-2.355-0.255c-1.242-0.224-1.24-0.753-1.24-0.753
				l0.002-0.012l-0.014-0.651c0.258,0.193,0.678,0.466,1.166,0.604c0.742,0.209,1.766,0.283,2.475,0.283s1.73-0.074,2.475-0.283
				c0.488-0.138,0.908-0.41,1.166-0.604l-0.014,0.658C444.469,348.694,444.473,349.224,443.23,349.448z M444.754,334.224
				l-0.268,13.606c-0.229,0.183-0.684,0.508-1.213,0.656c-0.729,0.205-1.734,0.278-2.432,0.278c-0.699,0-1.705-0.073-2.434-0.278
				c-0.527-0.148-0.982-0.473-1.211-0.655l-0.268-13.608c0-0.016-0.033-1.47-0.01-2.341c0.188,0.105,0.502,0.216,1.035,0.281
				c1.693,0.209,2.877,0.188,2.885,0.188c0,0,0.037,0,0.104,0c0.322,0,1.377-0.015,2.785-0.188c0.531-0.065,0.848-0.176,1.035-0.281
				C444.785,332.753,444.754,334.207,444.754,334.224z"/>
		</g>
	</g>
	<g>
		
			<rect x="319.018" y="511.14" fill="none" stroke="#FFFFFF" stroke-width="0.5" stroke-miterlimit="10" width="133.746" height="46.543"/>
		<g>
			<path d="M440.961,536.911c-9.375,0-17-7.626-17-17s7.625-17,17-17s17,7.626,17,17S450.336,536.911,440.961,536.911z"/>
			<path fill="#FFFFFF" d="M440.961,503.411c9.098,0,16.5,7.401,16.5,16.5s-7.402,16.5-16.5,16.5s-16.5-7.401-16.5-16.5
				S431.863,503.411,440.961,503.411 M440.961,502.411c-9.664,0-17.5,7.836-17.5,17.5c0,9.665,7.836,17.5,17.5,17.5
				c9.666,0,17.5-7.835,17.5-17.5C458.461,510.247,450.627,502.411,440.961,502.411L440.961,502.411z"/>
		</g>
		<g>
			<text transform="matrix(1 0 0 1 325.6406 538.4062)" fill="#FFFFFF" font-family="'Gibson-Light'" font-size="10">Base Spirit : Vodka</text>
		</g>
		<g>
			<text transform="matrix(1 0 0 1 325.6406 551.7383)" fill="#FFFFFF" font-family="'Gibson-Light'" font-size="10">Profile : Spirit Forward, Sweet</text>
		</g>
		<text transform="matrix(1 0 0 1 325.6406 525.7402)" fill="#FFFFFF" font-family="'Gibson-SemiBold'" font-size="12">Lorem Ipsuim</text>
		<path fill="#FFFFFF" d="M448.164,511.619c-0.016-0.084-0.027-0.163-0.039-0.235c-0.178-1.163-0.631-1.287-2.133-1.697
			l-0.141-0.038c-1.338-0.365-4.855-0.442-5.016-0.446c-0.148,0.004-3.666,0.081-5.004,0.446l-0.141,0.038
			c-1.504,0.41-1.957,0.534-2.135,1.697c-0.01,0.072-0.023,0.151-0.037,0.235c-0.188,1.133-0.537,3.242,1.35,4.958
			c0.721,0.656,1.551,1.018,2.285,1.334c1.299,0.564,2.324,1.01,2.484,2.779c0.197,2.133,0.24,3.66-0.137,4.596
			c-0.799,0.099-3.762,0.58-4.248,2.357c-0.125,0.454-0.078,0.873,0.137,1.246c0.512,0.887,1.859,1.239,2.436,1.391
			c0.066,0.018,0.125,0.031,0.166,0.045c0.588,0.171,2.109,0.295,2.85,0.295c0.738,0,2.262-0.124,2.848-0.295
			c0.043-0.014,0.1-0.027,0.168-0.045c0.574-0.151,1.922-0.504,2.436-1.391c0.215-0.373,0.26-0.792,0.135-1.246
			c-0.484-1.777-3.449-2.259-4.246-2.357c-0.377-0.936-0.334-2.463-0.139-4.596c0.162-1.77,1.186-2.215,2.486-2.779
			c0.732-0.316,1.564-0.678,2.285-1.334C448.701,514.861,448.352,512.752,448.164,511.619z M435.836,510.219l0.141-0.038
			c1.273-0.348,4.834-0.426,4.859-0.427c0.035,0.001,3.596,0.079,4.869,0.427l0.141,0.038c0.924,0.253,1.322,0.368,1.52,0.606
			c-0.209,0.238-0.973,0.699-3.789,0.954c-0.916,0.083-2.033,0.12-2.734,0.12c-0.703,0-1.82-0.037-2.736-0.12
			c-2.828-0.256-3.586-0.724-3.789-0.954C434.514,510.587,434.91,510.472,435.836,510.219z M445.898,527.788
			c0.084,0.312,0.057,0.582-0.084,0.826c-0.396,0.688-1.588,0.998-2.098,1.132c-0.074,0.019-0.135,0.035-0.182,0.049
			c-0.518,0.151-2,0.273-2.693,0.273c-0.695,0-2.178-0.122-2.693-0.273c-0.047-0.014-0.109-0.03-0.184-0.049
			c-0.508-0.134-1.699-0.444-2.096-1.132c-0.143-0.244-0.168-0.515-0.084-0.826c0.369-1.35,2.854-1.817,3.67-1.937
			c-0.041,0.032-0.086,0.062-0.131,0.09v-0.001c-0.283,0.16-0.434,0.359-0.434,0.576c0,0.506,0.857,0.902,1.951,0.902
			s1.949-0.396,1.949-0.902c0-0.217-0.148-0.416-0.434-0.576v0.001c-0.045-0.027-0.088-0.058-0.131-0.09
			C443.043,525.971,445.527,526.438,445.898,527.788z M446.443,516.169c-0.654,0.596-1.406,0.921-2.135,1.236
			c-1.35,0.586-2.625,1.139-2.816,3.234c-0.213,2.334-0.246,3.988,0.252,5.023c0.014,0.027,0.031,0.051,0.051,0.072
			c0.023,0.023,0.049,0.041,0.076,0.054c0.117,0.142,0.254,0.259,0.42,0.352l0,0c0.189,0.115,0.295,0.249,0.295,0.376
			c0,0.33-0.717,0.697-1.744,0.697c-1.029,0-1.744-0.367-1.744-0.697c0-0.127,0.104-0.261,0.295-0.376l0,0
			c0.164-0.093,0.303-0.21,0.418-0.352c0.029-0.013,0.055-0.03,0.076-0.054c0.021-0.021,0.037-0.045,0.051-0.072
			c0.498-1.035,0.465-2.689,0.252-5.022c-0.191-2.097-1.467-2.649-2.816-3.235c-0.727-0.315-1.48-0.641-2.133-1.236
			c-1.664-1.514-1.359-3.357-1.176-4.459c0.014-0.087,0.027-0.168,0.037-0.242c0.029-0.189,0.059-0.337,0.107-0.456
			c0.354,0.341,1.336,0.743,3.879,0.974c0.922,0.084,2.047,0.122,2.754,0.122s1.832-0.038,2.754-0.122
			c2.541-0.23,3.525-0.633,3.879-0.975c0.047,0.12,0.076,0.268,0.105,0.457c0.01,0.074,0.023,0.155,0.039,0.242
			C447.801,512.812,448.107,514.655,446.443,516.169z"/>
	</g>
	<g>
		<g>
			<text transform="matrix(1 0 0 1 325.6406 611.6338)" fill="#FFFFFF" font-family="'Gibson-Light'" font-size="10">Profile : Citrus, Sweet, Sour</text>
		</g>
		<g>
			
				<rect x="319.018" y="571.035" fill="none" stroke="#FFFFFF" stroke-width="0.5" stroke-miterlimit="10" width="133.746" height="46.543"/>
			<g>
				<path d="M440.961,596.807c-9.375,0-17-7.626-17-17s7.625-17,17-17s17,7.626,17,17S450.336,596.807,440.961,596.807z"/>
				<path fill="#FFFFFF" d="M440.961,563.307c9.098,0,16.5,7.402,16.5,16.5s-7.402,16.5-16.5,16.5s-16.5-7.402-16.5-16.5
					S431.863,563.307,440.961,563.307 M440.961,562.307c-9.664,0-17.5,7.836-17.5,17.5c0,9.665,7.836,17.5,17.5,17.5
					c9.666,0,17.5-7.835,17.5-17.5C458.461,570.143,450.627,562.307,440.961,562.307L440.961,562.307z"/>
			</g>
			<g>
				<text transform="matrix(1 0 0 1 325.6406 598.3008)" fill="#FFFFFF" font-family="'Gibson-Light'" font-size="10">Base Spirit : Burbon</text>
			</g>
			<text transform="matrix(1 0 0 1 325.6406 585.6348)" fill="#FFFFFF" font-family="'Gibson-SemiBold'" font-size="12">Consectetur  </text>
			<path fill="#FFFFFF" d="M445.166,571.161c-0.035-0.691-0.803-0.895-1.803-1.088c-0.707-0.137-1.633-0.157-2.121-0.157
				c-0.238,0-0.395,0.005-0.395,0.006c-0.012-0.001-0.168-0.006-0.408-0.006c-0.488,0-1.414,0.021-2.119,0.157
				c-1,0.193-1.77,0.396-1.803,1.088c-0.041,0.804-0.002,2.577-0.002,2.651l0.285,14.442c-0.004,0.136,0.045,0.904,1.578,1.181
				c1.377,0.249,2.266,0.262,2.43,0.262h0.029h0.037l0,0c0.164,0,1.051-0.013,2.428-0.262c1.535-0.276,1.582-1.045,1.578-1.181
				l0.285-14.441C445.168,573.738,445.207,571.965,445.166,571.161z M438.398,570.479c0.672-0.13,1.568-0.149,2.041-0.149
				c0.24,0,0.393,0.005,0.408,0.005c0,0,0.154-0.005,0.395-0.005c0.475,0,1.369,0.02,2.041,0.149
				c0.939,0.182,1.451,0.348,1.471,0.703c0,0.032,0.002,0.067,0.004,0.103c-0.143,0.1-0.438,0.231-1.049,0.307
				c-1.682,0.207-2.855,0.188-2.869,0.187c-0.012,0.001-1.184,0.021-2.867-0.187c-0.611-0.075-0.906-0.207-1.047-0.306
				c0-0.035,0.002-0.071,0.004-0.104C436.947,570.826,437.459,570.66,438.398,570.479z M443.23,589.029
				c-1.344,0.243-2.199,0.255-2.355,0.255l0,0h-0.037h-0.029c-0.158,0-1.014-0.012-2.355-0.255c-1.242-0.224-1.24-0.753-1.24-0.753
				l0.002-0.012l-0.014-0.651c0.258,0.193,0.678,0.466,1.166,0.604c0.742,0.209,1.766,0.283,2.475,0.283s1.73-0.074,2.475-0.283
				c0.488-0.138,0.908-0.41,1.166-0.604l-0.014,0.658C444.469,588.275,444.473,588.805,443.23,589.029z M444.754,573.805
				l-0.268,13.606c-0.229,0.183-0.684,0.508-1.213,0.656c-0.729,0.205-1.734,0.278-2.432,0.278c-0.699,0-1.705-0.073-2.434-0.278
				c-0.527-0.148-0.982-0.473-1.211-0.655l-0.268-13.608c0-0.016-0.033-1.47-0.01-2.341c0.188,0.105,0.502,0.216,1.035,0.281
				c1.693,0.209,2.877,0.188,2.885,0.188c0,0,0.037,0,0.104,0c0.322,0,1.377-0.015,2.785-0.188c0.531-0.065,0.848-0.176,1.035-0.281
				C444.785,572.334,444.754,573.788,444.754,573.805z"/>
		</g>
	</g>
	<rect x="493.918" y="250" fill="#FFFFFF" width="146" height="1"/>
	<g>
		<text transform="matrix(1 0 0 1 493.584 244.8672)" fill="#FFFFFF" font-family="'Gibson-Regular'" font-size="18">Party Mix 2</text>
	</g>
	<g>
		
			<rect x="497.352" y="271.559" fill="none" stroke="#FFFFFF" stroke-width="0.5" stroke-miterlimit="10" width="133.746" height="46.543"/>
		<g>
			<path d="M619.295,297.331c-9.375,0-17-7.626-17-17s7.625-17,17-17s17,7.626,17,17S628.67,297.331,619.295,297.331z"/>
			<path fill="#FFFFFF" d="M619.295,263.831c9.098,0,16.5,7.402,16.5,16.5s-7.402,16.5-16.5,16.5s-16.5-7.402-16.5-16.5
				S610.197,263.831,619.295,263.831 M619.295,262.831c-9.664,0-17.5,7.836-17.5,17.5c0,9.665,7.836,17.5,17.5,17.5
				c9.666,0,17.5-7.835,17.5-17.5C636.795,270.667,628.961,262.831,619.295,262.831L619.295,262.831z"/>
		</g>
		<g>
			<text transform="matrix(1 0 0 1 503.9756 298.8247)" fill="#FFFFFF" font-family="'Gibson-Light'" font-size="10">Base Spirit : Vodka</text>
		</g>
		<g>
			<text transform="matrix(1 0 0 1 503.9756 312.1577)" fill="#FFFFFF" font-family="'Gibson-Light'" font-size="10">Profile : Spirit Forward, Sweet</text>
		</g>
		<text transform="matrix(1 0 0 1 503.9756 286.1587)" fill="#FFFFFF" font-family="'Gibson-SemiBold'" font-size="12">Lorem Ipsuim</text>
		<path fill="#FFFFFF" d="M626.498,272.039c-0.016-0.084-0.027-0.163-0.039-0.235c-0.178-1.163-0.631-1.287-2.133-1.697
			l-0.141-0.038c-1.338-0.365-4.855-0.442-5.016-0.446c-0.148,0.004-3.666,0.081-5.004,0.446l-0.141,0.038
			c-1.504,0.41-1.957,0.534-2.135,1.697c-0.01,0.072-0.023,0.151-0.037,0.235c-0.188,1.133-0.537,3.242,1.35,4.958
			c0.721,0.656,1.551,1.018,2.285,1.334c1.299,0.564,2.324,1.01,2.484,2.779c0.197,2.133,0.24,3.66-0.137,4.596
			c-0.799,0.099-3.762,0.58-4.248,2.357c-0.125,0.454-0.078,0.873,0.137,1.246c0.512,0.887,1.859,1.239,2.436,1.391
			c0.066,0.018,0.125,0.031,0.166,0.045c0.588,0.171,2.109,0.295,2.85,0.295c0.738,0,2.262-0.124,2.848-0.295
			c0.043-0.014,0.1-0.027,0.168-0.045c0.574-0.151,1.922-0.504,2.436-1.391c0.215-0.373,0.26-0.792,0.135-1.246
			c-0.484-1.777-3.449-2.259-4.246-2.357c-0.377-0.936-0.334-2.463-0.139-4.596c0.162-1.77,1.186-2.215,2.486-2.779
			c0.732-0.316,1.564-0.678,2.285-1.334C627.035,275.281,626.686,273.171,626.498,272.039z M614.17,270.638l0.141-0.038
			c1.273-0.348,4.834-0.426,4.859-0.427c0.035,0.001,3.596,0.079,4.869,0.427l0.141,0.038c0.924,0.253,1.322,0.368,1.52,0.606
			c-0.209,0.238-0.973,0.699-3.789,0.954c-0.916,0.083-2.033,0.12-2.734,0.12c-0.703,0-1.82-0.037-2.736-0.12
			c-2.828-0.256-3.586-0.724-3.789-0.954C612.848,271.006,613.244,270.891,614.17,270.638z M624.232,288.208
			c0.084,0.312,0.057,0.582-0.084,0.826c-0.396,0.688-1.588,0.998-2.098,1.132c-0.074,0.019-0.135,0.035-0.182,0.049
			c-0.518,0.151-2,0.273-2.693,0.273c-0.695,0-2.178-0.122-2.693-0.273c-0.047-0.014-0.109-0.03-0.184-0.049
			c-0.508-0.134-1.699-0.444-2.096-1.132c-0.143-0.244-0.168-0.515-0.084-0.826c0.369-1.35,2.854-1.817,3.67-1.937
			c-0.041,0.032-0.086,0.062-0.131,0.09v-0.001c-0.283,0.16-0.434,0.359-0.434,0.576c0,0.506,0.857,0.902,1.951,0.902
			s1.949-0.396,1.949-0.902c0-0.217-0.148-0.416-0.434-0.576v0.001c-0.045-0.027-0.088-0.058-0.131-0.09
			C621.377,286.39,623.861,286.858,624.232,288.208z M624.777,276.588c-0.654,0.596-1.406,0.921-2.135,1.236
			c-1.35,0.586-2.625,1.139-2.816,3.234c-0.213,2.334-0.246,3.988,0.252,5.023c0.014,0.027,0.031,0.051,0.051,0.072
			c0.023,0.023,0.049,0.041,0.076,0.054c0.117,0.142,0.254,0.259,0.42,0.352l0,0c0.189,0.115,0.295,0.249,0.295,0.376
			c0,0.33-0.717,0.697-1.744,0.697c-1.029,0-1.744-0.367-1.744-0.697c0-0.127,0.104-0.261,0.295-0.376l0,0
			c0.164-0.093,0.303-0.21,0.418-0.352c0.029-0.013,0.055-0.03,0.076-0.054c0.021-0.021,0.037-0.045,0.051-0.072
			c0.498-1.035,0.465-2.689,0.252-5.022c-0.191-2.097-1.467-2.649-2.816-3.235c-0.727-0.315-1.48-0.641-2.133-1.236
			c-1.664-1.514-1.359-3.357-1.176-4.459c0.014-0.087,0.027-0.168,0.037-0.242c0.029-0.189,0.059-0.337,0.107-0.456
			c0.354,0.341,1.336,0.743,3.879,0.974c0.922,0.084,2.047,0.122,2.754,0.122s1.832-0.038,2.754-0.122
			c2.541-0.23,3.525-0.633,3.879-0.975c0.047,0.12,0.076,0.268,0.105,0.457c0.01,0.074,0.023,0.155,0.039,0.242
			C626.135,273.231,626.441,275.075,624.777,276.588z"/>
	</g>
	<g>
		
			<rect x="497.352" y="451.245" fill="none" stroke="#FFFFFF" stroke-width="0.5" stroke-miterlimit="10" width="133.746" height="46.543"/>
		<g>
			<path d="M619.295,477.017c-9.375,0-17-7.626-17-17s7.625-17,17-17s17,7.626,17,17S628.67,477.017,619.295,477.017z"/>
			<path fill="#FFFFFF" d="M619.295,443.517c9.098,0,16.5,7.401,16.5,16.5s-7.402,16.5-16.5,16.5s-16.5-7.401-16.5-16.5
				S610.197,443.517,619.295,443.517 M619.295,442.517c-9.664,0-17.5,7.836-17.5,17.5c0,9.665,7.836,17.5,17.5,17.5
				c9.666,0,17.5-7.835,17.5-17.5C636.795,450.353,628.961,442.517,619.295,442.517L619.295,442.517z"/>
		</g>
		<g>
			<text transform="matrix(1 0 0 1 503.9756 478.5098)" fill="#FFFFFF" font-family="'Gibson-Light'" font-size="10">Base Spirit : Vodka</text>
		</g>
		<g>
			<text transform="matrix(1 0 0 1 503.9756 491.8438)" fill="#FFFFFF" font-family="'Gibson-Light'" font-size="10">Profile : Spirit Forward, Sweet</text>
		</g>
		<text transform="matrix(1 0 0 1 503.9756 465.8438)" fill="#FFFFFF" font-family="'Gibson-SemiBold'" font-size="12">Lorem Ipsuim</text>
		<path fill="#FFFFFF" d="M626.498,451.725c-0.016-0.084-0.027-0.163-0.039-0.235c-0.178-1.163-0.631-1.287-2.133-1.697
			l-0.141-0.038c-1.338-0.365-4.855-0.442-5.016-0.446c-0.148,0.004-3.666,0.081-5.004,0.446l-0.141,0.038
			c-1.504,0.41-1.957,0.534-2.135,1.697c-0.01,0.072-0.023,0.151-0.037,0.235c-0.188,1.133-0.537,3.242,1.35,4.958
			c0.721,0.656,1.551,1.018,2.285,1.334c1.299,0.564,2.324,1.01,2.484,2.779c0.197,2.133,0.24,3.66-0.137,4.596
			c-0.799,0.099-3.762,0.58-4.248,2.357c-0.125,0.454-0.078,0.873,0.137,1.246c0.512,0.887,1.859,1.239,2.436,1.391
			c0.066,0.018,0.125,0.031,0.166,0.045c0.588,0.171,2.109,0.295,2.85,0.295c0.738,0,2.262-0.124,2.848-0.295
			c0.043-0.014,0.1-0.027,0.168-0.045c0.574-0.151,1.922-0.504,2.436-1.391c0.215-0.373,0.26-0.792,0.135-1.246
			c-0.484-1.777-3.449-2.259-4.246-2.357c-0.377-0.936-0.334-2.463-0.139-4.596c0.162-1.77,1.186-2.215,2.486-2.779
			c0.732-0.316,1.564-0.678,2.285-1.334C627.035,454.967,626.686,452.857,626.498,451.725z M614.17,450.324l0.141-0.038
			c1.273-0.348,4.834-0.426,4.859-0.427c0.035,0.001,3.596,0.079,4.869,0.427l0.141,0.038c0.924,0.253,1.322,0.368,1.52,0.606
			c-0.209,0.238-0.973,0.699-3.789,0.954c-0.916,0.083-2.033,0.12-2.734,0.12c-0.703,0-1.82-0.037-2.736-0.12
			c-2.828-0.256-3.586-0.724-3.789-0.954C612.848,450.692,613.244,450.577,614.17,450.324z M624.232,467.894
			c0.084,0.312,0.057,0.582-0.084,0.826c-0.396,0.688-1.588,0.998-2.098,1.132c-0.074,0.019-0.135,0.035-0.182,0.049
			c-0.518,0.151-2,0.273-2.693,0.273c-0.695,0-2.178-0.122-2.693-0.273c-0.047-0.014-0.109-0.03-0.184-0.049
			c-0.508-0.134-1.699-0.444-2.096-1.132c-0.143-0.244-0.168-0.515-0.084-0.826c0.369-1.35,2.854-1.817,3.67-1.937
			c-0.041,0.032-0.086,0.062-0.131,0.09v-0.001c-0.283,0.16-0.434,0.359-0.434,0.576c0,0.506,0.857,0.902,1.951,0.902
			s1.949-0.396,1.949-0.902c0-0.217-0.148-0.416-0.434-0.576v0.001c-0.045-0.027-0.088-0.058-0.131-0.09
			C621.377,466.076,623.861,466.544,624.232,467.894z M624.777,456.274c-0.654,0.596-1.406,0.921-2.135,1.236
			c-1.35,0.586-2.625,1.139-2.816,3.234c-0.213,2.334-0.246,3.988,0.252,5.023c0.014,0.027,0.031,0.051,0.051,0.072
			c0.023,0.023,0.049,0.041,0.076,0.054c0.117,0.142,0.254,0.259,0.42,0.352l0,0c0.189,0.115,0.295,0.249,0.295,0.376
			c0,0.33-0.717,0.697-1.744,0.697c-1.029,0-1.744-0.367-1.744-0.697c0-0.127,0.104-0.261,0.295-0.376l0,0
			c0.164-0.093,0.303-0.21,0.418-0.352c0.029-0.013,0.055-0.03,0.076-0.054c0.021-0.021,0.037-0.045,0.051-0.072
			c0.498-1.035,0.465-2.689,0.252-5.022c-0.191-2.097-1.467-2.649-2.816-3.235c-0.727-0.315-1.48-0.641-2.133-1.236
			c-1.664-1.514-1.359-3.357-1.176-4.459c0.014-0.087,0.027-0.168,0.037-0.242c0.029-0.189,0.059-0.337,0.107-0.456
			c0.354,0.341,1.336,0.743,3.879,0.974c0.922,0.084,2.047,0.122,2.754,0.122s1.832-0.038,2.754-0.122
			c2.541-0.23,3.525-0.633,3.879-0.975c0.047,0.12,0.076,0.268,0.105,0.457c0.01,0.074,0.023,0.155,0.039,0.242
			C626.135,452.917,626.441,454.761,624.777,456.274z"/>
	</g>
	<g>
		<g>
			<path fill="#FFFFFF" d="M630.598,391.85v45.543H497.852V391.85H630.598 M631.098,391.35H497.352v46.543h133.746V391.35
				L631.098,391.35z"/>
		</g>
		<g>
			<path d="M619.297,417.121c-9.375,0-17-7.626-17-17s7.625-17,17-17c9.373,0,17,7.626,17,17S628.67,417.121,619.297,417.121z"/>
			<path fill="#FFFFFF" d="M619.297,383.621c9.098,0,16.5,7.402,16.5,16.5c0,9.098-7.402,16.5-16.5,16.5s-16.5-7.402-16.5-16.5
				C602.797,391.023,610.199,383.621,619.297,383.621 M619.297,382.621c-9.666,0-17.5,7.836-17.5,17.5c0,9.665,7.834,17.5,17.5,17.5
				c9.664,0,17.5-7.835,17.5-17.5C636.797,390.457,628.961,382.621,619.297,382.621L619.297,382.621z"/>
		</g>
		<g>
			<text transform="matrix(1 0 0 1 503.9756 418.6152)" fill="#FFFFFF" font-family="'Gibson-Light'" font-size="10">Base Spirit : Burbon</text>
		</g>
		<g>
			<text transform="matrix(1 0 0 1 503.9756 431.9482)" fill="#FFFFFF" font-family="'Gibson-Light'" font-size="10">Profile : Spirit Forward, Sweet</text>
		</g>
		<text transform="matrix(1 0 0 1 503.9756 405.9492)" fill="#FFFFFF" font-family="'Gibson-SemiBold'" font-size="12">exercitation </text>
		<path fill="#FFFFFF" d="M624.5,392.265c-1.539-0.357-5.053-0.387-5.205-0.388c-0.15,0.001-3.664,0.03-5.203,0.388
			c-1.547,0.357-2.283,0.89-2.248,1.625c0.025,0.518,0.543,12.115,0.543,12.115c0.002,0.046,0.043,1.147,1.48,1.653
			c1.348,0.476,3.123,0.706,5.43,0.706c2.305,0,4.08-0.23,5.428-0.706c1.439-0.506,1.48-1.607,1.48-1.647
			c0.006-0.116,0.518-11.609,0.543-12.121C626.783,393.154,626.049,392.622,624.5,392.265z M614.209,392.767
			c1.482-0.344,5.053-0.374,5.086-0.374c0.035,0,3.605,0.03,5.09,0.374c1.213,0.281,1.869,0.671,1.848,1.099
			c-0.002,0.038-0.006,0.141-0.014,0.293c-0.199,0.172-0.623,0.397-1.543,0.585c-1.799,0.368-3.84,0.365-5.186,0.365h-0.193h-0.195
			c-1.348,0.001-3.387,0.003-5.186-0.365c-0.918-0.188-1.344-0.413-1.543-0.585c-0.006-0.152-0.012-0.254-0.014-0.293
			C612.34,393.438,612.996,393.048,614.209,392.767z M625.689,405.993c0,0.008-0.029,0.79-1.135,1.179
			c-1.293,0.455-3.012,0.677-5.258,0.677s-3.967-0.222-5.258-0.677c-1.088-0.383-1.135-1.148-1.137-1.184
			c0,0-0.008-0.196-0.023-0.534c0.818,0.579,1.166,0.72,2.148,0.952c1.084,0.256,3.213,0.397,4.27,0.397s3.184-0.142,4.268-0.397
			c0.982-0.232,1.332-0.373,2.15-0.953C625.699,405.783,625.691,405.979,625.689,405.993z M625.725,405.208
			c-0.883,0.636-1.205,0.774-2.205,1.01c-1.068,0.253-3.176,0.393-4.223,0.393c-1.049,0-3.154-0.14-4.225-0.393
			c-0.998-0.235-1.322-0.375-2.205-1.01c-0.102-2.27-0.395-8.845-0.482-10.804c0.268,0.178,0.721,0.37,1.492,0.527
			c1.818,0.373,3.871,0.371,5.225,0.371h0.195h0.193c0.07,0,0.141,0,0.215,0c1.352,0,3.285-0.018,5.01-0.371
			c0.773-0.157,1.225-0.35,1.492-0.527C626.119,396.362,625.826,402.931,625.725,405.208z"/>
	</g>
	<g>
		<g>
			<text transform="matrix(1 0 0 1 503.9766 372.0527)" fill="#FFFFFF" font-family="'Gibson-Light'" font-size="10">Profile : Citrus, Sweet, Sour</text>
		</g>
		<g>
			
				<rect x="497.352" y="331.454" fill="none" stroke="#FFFFFF" stroke-width="0.5" stroke-miterlimit="10" width="133.746" height="46.543"/>
			<g>
				<path d="M619.295,357.226c-9.375,0-17-7.626-17-17s7.625-17,17-17s17,7.626,17,17S628.67,357.226,619.295,357.226z"/>
				<path fill="#FFFFFF" d="M619.295,323.726c9.098,0,16.5,7.402,16.5,16.5s-7.402,16.5-16.5,16.5s-16.5-7.402-16.5-16.5
					S610.197,323.726,619.295,323.726 M619.295,322.726c-9.664,0-17.5,7.836-17.5,17.5c0,9.665,7.836,17.5,17.5,17.5
					c9.666,0,17.5-7.835,17.5-17.5C636.795,330.562,628.961,322.726,619.295,322.726L619.295,322.726z"/>
			</g>
			<g>
				<text transform="matrix(1 0 0 1 503.9766 358.7197)" fill="#FFFFFF" font-family="'Gibson-Light'" font-size="10">Base Spirit : Burbon</text>
			</g>
			<text transform="matrix(1 0 0 1 503.9766 346.0537)" fill="#FFFFFF" font-family="'Gibson-SemiBold'" font-size="12">Consectetur  </text>
			<path fill="#FFFFFF" d="M623.5,331.58c-0.035-0.691-0.803-0.895-1.803-1.088c-0.707-0.137-1.633-0.157-2.121-0.157
				c-0.238,0-0.395,0.005-0.395,0.006c-0.012-0.001-0.168-0.006-0.408-0.006c-0.488,0-1.414,0.021-2.119,0.157
				c-1,0.193-1.77,0.396-1.803,1.088c-0.041,0.804-0.002,2.577-0.002,2.651l0.285,14.442c-0.004,0.136,0.045,0.904,1.578,1.181
				c1.377,0.249,2.266,0.262,2.43,0.262h0.029h0.037l0,0c0.164,0,1.051-0.013,2.428-0.262c1.535-0.276,1.582-1.045,1.578-1.181
				l0.285-14.441C623.502,334.157,623.541,332.384,623.5,331.58z M616.732,330.897c0.672-0.13,1.568-0.149,2.041-0.149
				c0.24,0,0.393,0.005,0.408,0.005c0.002,0,0.154-0.005,0.395-0.005c0.475,0,1.369,0.02,2.041,0.149
				c0.939,0.182,1.451,0.348,1.471,0.703c0,0.032,0.002,0.067,0.004,0.103c-0.143,0.1-0.438,0.231-1.049,0.307
				c-1.682,0.207-2.855,0.188-2.869,0.187c-0.012,0.001-1.184,0.021-2.867-0.187c-0.611-0.075-0.906-0.207-1.047-0.306
				c0-0.035,0.002-0.071,0.004-0.104C615.281,331.245,615.793,331.079,616.732,330.897z M621.564,349.448
				c-1.344,0.243-2.199,0.255-2.355,0.255l0,0h-0.037h-0.029c-0.158,0-1.014-0.012-2.355-0.255c-1.242-0.224-1.24-0.753-1.24-0.753
				l0.002-0.012l-0.014-0.651c0.258,0.193,0.678,0.466,1.166,0.604c0.742,0.209,1.766,0.283,2.475,0.283s1.73-0.074,2.475-0.283
				c0.488-0.138,0.908-0.41,1.166-0.604l-0.014,0.658C622.803,348.694,622.807,349.224,621.564,349.448z M623.088,334.224
				l-0.268,13.606c-0.229,0.183-0.684,0.508-1.213,0.656c-0.729,0.205-1.734,0.278-2.432,0.278c-0.699,0-1.705-0.073-2.434-0.278
				c-0.527-0.148-0.982-0.473-1.211-0.655l-0.268-13.608c0-0.016-0.033-1.47-0.01-2.341c0.188,0.105,0.502,0.216,1.035,0.281
				c1.693,0.209,2.877,0.188,2.885,0.188c0,0,0.037,0,0.104,0c0.322,0,1.377-0.015,2.785-0.188c0.531-0.065,0.848-0.176,1.035-0.281
				C623.119,332.753,623.088,334.207,623.088,334.224z"/>
		</g>
	</g>
	<g>
		
			<rect x="497.352" y="511.14" fill="none" stroke="#FFFFFF" stroke-width="0.5" stroke-miterlimit="10" width="133.746" height="46.543"/>
		<g>
			<path d="M619.295,536.911c-9.375,0-17-7.626-17-17s7.625-17,17-17s17,7.626,17,17S628.67,536.911,619.295,536.911z"/>
			<path fill="#FFFFFF" d="M619.295,503.411c9.098,0,16.5,7.401,16.5,16.5s-7.402,16.5-16.5,16.5s-16.5-7.401-16.5-16.5
				S610.197,503.411,619.295,503.411 M619.295,502.411c-9.664,0-17.5,7.836-17.5,17.5c0,9.665,7.836,17.5,17.5,17.5
				c9.666,0,17.5-7.835,17.5-17.5C636.795,510.247,628.961,502.411,619.295,502.411L619.295,502.411z"/>
		</g>
		<g>
			<text transform="matrix(1 0 0 1 503.9766 538.4062)" fill="#FFFFFF" font-family="'Gibson-Light'" font-size="10">Base Spirit : Vodka</text>
		</g>
		<g>
			<text transform="matrix(1 0 0 1 503.9766 551.7383)" fill="#FFFFFF" font-family="'Gibson-Light'" font-size="10">Profile : Spirit Forward, Sweet</text>
		</g>
		<text transform="matrix(1 0 0 1 503.9766 525.7402)" fill="#FFFFFF" font-family="'Gibson-SemiBold'" font-size="12">Lorem Ipsuim</text>
		<path fill="#FFFFFF" d="M626.498,511.619c-0.016-0.084-0.027-0.163-0.039-0.235c-0.178-1.163-0.631-1.287-2.133-1.697
			l-0.141-0.038c-1.338-0.365-4.855-0.442-5.016-0.446c-0.148,0.004-3.666,0.081-5.004,0.446l-0.141,0.038
			c-1.504,0.41-1.957,0.534-2.135,1.697c-0.01,0.072-0.023,0.151-0.037,0.235c-0.188,1.133-0.537,3.242,1.35,4.958
			c0.721,0.656,1.551,1.018,2.285,1.334c1.299,0.564,2.324,1.01,2.484,2.779c0.197,2.133,0.24,3.66-0.137,4.596
			c-0.799,0.099-3.762,0.58-4.248,2.357c-0.125,0.454-0.078,0.873,0.137,1.246c0.512,0.887,1.859,1.239,2.436,1.391
			c0.066,0.018,0.125,0.031,0.166,0.045c0.588,0.171,2.109,0.295,2.85,0.295c0.738,0,2.262-0.124,2.848-0.295
			c0.043-0.014,0.1-0.027,0.168-0.045c0.574-0.151,1.922-0.504,2.436-1.391c0.215-0.373,0.26-0.792,0.135-1.246
			c-0.484-1.777-3.449-2.259-4.246-2.357c-0.377-0.936-0.334-2.463-0.139-4.596c0.162-1.77,1.186-2.215,2.486-2.779
			c0.732-0.316,1.564-0.678,2.285-1.334C627.035,514.861,626.686,512.752,626.498,511.619z M614.17,510.219l0.141-0.038
			c1.273-0.348,4.834-0.426,4.859-0.427c0.035,0.001,3.596,0.079,4.869,0.427l0.141,0.038c0.924,0.253,1.322,0.368,1.52,0.606
			c-0.209,0.238-0.973,0.699-3.789,0.954c-0.916,0.083-2.033,0.12-2.734,0.12c-0.703,0-1.82-0.037-2.736-0.12
			c-2.828-0.256-3.586-0.724-3.789-0.954C612.848,510.587,613.244,510.472,614.17,510.219z M624.232,527.788
			c0.084,0.312,0.057,0.582-0.084,0.826c-0.396,0.688-1.588,0.998-2.098,1.132c-0.074,0.019-0.135,0.035-0.182,0.049
			c-0.518,0.151-2,0.273-2.693,0.273c-0.695,0-2.178-0.122-2.693-0.273c-0.047-0.014-0.109-0.03-0.184-0.049
			c-0.508-0.134-1.699-0.444-2.096-1.132c-0.143-0.244-0.168-0.515-0.084-0.826c0.369-1.35,2.854-1.817,3.67-1.937
			c-0.041,0.032-0.086,0.062-0.131,0.09v-0.001c-0.283,0.16-0.434,0.359-0.434,0.576c0,0.506,0.857,0.902,1.951,0.902
			s1.949-0.396,1.949-0.902c0-0.217-0.148-0.416-0.434-0.576v0.001c-0.045-0.027-0.088-0.058-0.131-0.09
			C621.377,525.971,623.861,526.438,624.232,527.788z M624.777,516.169c-0.654,0.596-1.406,0.921-2.135,1.236
			c-1.35,0.586-2.625,1.139-2.816,3.234c-0.213,2.334-0.246,3.988,0.252,5.023c0.014,0.027,0.031,0.051,0.051,0.072
			c0.023,0.023,0.049,0.041,0.076,0.054c0.117,0.142,0.254,0.259,0.42,0.352l0,0c0.189,0.115,0.295,0.249,0.295,0.376
			c0,0.33-0.717,0.697-1.744,0.697c-1.029,0-1.744-0.367-1.744-0.697c0-0.127,0.104-0.261,0.295-0.376l0,0
			c0.164-0.093,0.303-0.21,0.418-0.352c0.029-0.013,0.055-0.03,0.076-0.054c0.021-0.021,0.037-0.045,0.051-0.072
			c0.498-1.035,0.465-2.689,0.252-5.022c-0.191-2.097-1.467-2.649-2.816-3.235c-0.727-0.315-1.48-0.641-2.133-1.236
			c-1.664-1.514-1.359-3.357-1.176-4.459c0.014-0.087,0.027-0.168,0.037-0.242c0.029-0.189,0.059-0.337,0.107-0.456
			c0.354,0.341,1.336,0.743,3.879,0.974c0.922,0.084,2.047,0.122,2.754,0.122s1.832-0.038,2.754-0.122
			c2.541-0.23,3.525-0.633,3.879-0.975c0.047,0.12,0.076,0.268,0.105,0.457c0.01,0.074,0.023,0.155,0.039,0.242
			C626.135,512.812,626.441,514.655,624.777,516.169z"/>
	</g>
	<g>
		
			<rect x="497.352" y="632.135" fill="none" stroke="#FFFFFF" stroke-width="0.5" stroke-miterlimit="10" width="133.746" height="46.543"/>
		<g>
			<path d="M619.295,657.906c-9.375,0-17-7.626-17-17s7.625-17,17-17s17,7.626,17,17S628.67,657.906,619.295,657.906z"/>
			<path fill="#FFFFFF" d="M619.295,624.406c9.098,0,16.5,7.402,16.5,16.5s-7.402,16.5-16.5,16.5s-16.5-7.402-16.5-16.5
				S610.197,624.406,619.295,624.406 M619.295,623.406c-9.664,0-17.5,7.836-17.5,17.5c0,9.665,7.836,17.5,17.5,17.5
				s17.5-7.835,17.5-17.5C636.795,631.242,628.959,623.406,619.295,623.406L619.295,623.406z"/>
		</g>
		<g>
			<text transform="matrix(1 0 0 1 503.9746 659.4004)" fill="#FFFFFF" font-family="'Gibson-Light'" font-size="10">Base Spirit : Vodka</text>
		</g>
		<g>
			<text transform="matrix(1 0 0 1 503.9746 672.7344)" fill="#FFFFFF" font-family="'Gibson-Light'" font-size="10">Profile : Spirit Forward, Sweet</text>
		</g>
		<text transform="matrix(1 0 0 1 503.9746 646.7344)" fill="#FFFFFF" font-family="'Gibson-SemiBold'" font-size="12">Lorem Ipsuim</text>
		<path fill="#FFFFFF" d="M626.496,632.614c-0.014-0.084-0.027-0.163-0.037-0.235c-0.178-1.163-0.631-1.287-2.135-1.697
			l-0.139-0.038c-1.338-0.365-4.855-0.442-5.018-0.446c-0.148,0.004-3.664,0.081-5.004,0.446l-0.141,0.038
			c-1.502,0.41-1.955,0.534-2.133,1.697c-0.012,0.072-0.023,0.151-0.037,0.235c-0.189,1.133-0.537,3.242,1.348,4.958
			c0.721,0.656,1.553,1.018,2.287,1.334c1.299,0.564,2.324,1.01,2.484,2.779c0.197,2.133,0.24,3.66-0.139,4.596
			c-0.797,0.099-3.762,0.58-4.248,2.357c-0.123,0.454-0.078,0.873,0.137,1.246c0.514,0.887,1.861,1.239,2.438,1.391
			c0.066,0.018,0.123,0.031,0.166,0.045c0.586,0.171,2.109,0.295,2.848,0.295c0.74,0,2.264-0.124,2.85-0.295
			c0.043-0.014,0.1-0.027,0.166-0.045c0.576-0.151,1.924-0.504,2.438-1.391c0.215-0.373,0.26-0.792,0.135-1.246
			c-0.484-1.777-3.449-2.259-4.246-2.357c-0.379-0.936-0.334-2.463-0.141-4.596c0.162-1.77,1.188-2.215,2.486-2.779
			c0.734-0.316,1.564-0.678,2.287-1.334C627.033,635.856,626.684,633.747,626.496,632.614z M614.17,631.214l0.141-0.038
			c1.271-0.348,4.834-0.426,4.857-0.427c0.037,0.001,3.598,0.079,4.871,0.427l0.141,0.038c0.924,0.253,1.322,0.368,1.52,0.606
			c-0.209,0.238-0.975,0.699-3.789,0.954c-0.916,0.083-2.033,0.12-2.736,0.12c-0.701,0-1.818-0.037-2.734-0.12
			c-2.828-0.256-3.586-0.724-3.789-0.954C612.848,631.582,613.244,631.467,614.17,631.214z M624.23,648.783
			c0.086,0.312,0.059,0.582-0.082,0.826c-0.396,0.688-1.59,0.998-2.098,1.132c-0.074,0.019-0.137,0.035-0.184,0.049
			c-0.516,0.151-1.998,0.273-2.693,0.273c-0.693,0-2.176-0.122-2.693-0.273c-0.047-0.014-0.107-0.03-0.182-0.049
			c-0.508-0.134-1.699-0.444-2.098-1.132c-0.141-0.244-0.168-0.515-0.082-0.826c0.369-1.35,2.854-1.817,3.67-1.937
			c-0.041,0.032-0.086,0.062-0.131,0.09v-0.001c-0.285,0.16-0.434,0.359-0.434,0.576c0,0.506,0.855,0.902,1.949,0.902
			c1.096,0,1.951-0.396,1.951-0.902c0-0.217-0.148-0.416-0.434-0.576v0.001c-0.045-0.027-0.09-0.058-0.131-0.09
			C621.377,646.966,623.861,647.434,624.23,648.783z M624.777,637.164c-0.654,0.596-1.406,0.921-2.135,1.236
			c-1.35,0.586-2.625,1.139-2.816,3.234c-0.213,2.334-0.246,3.988,0.252,5.023c0.014,0.027,0.029,0.051,0.051,0.072
			c0.023,0.023,0.047,0.041,0.076,0.054c0.115,0.142,0.254,0.259,0.42,0.352l0,0c0.189,0.115,0.293,0.249,0.293,0.376
			c0,0.33-0.715,0.697-1.744,0.697c-1.027,0-1.742-0.367-1.742-0.697c0-0.127,0.104-0.261,0.293-0.376l0,0
			c0.166-0.093,0.303-0.21,0.42-0.352c0.027-0.013,0.053-0.03,0.076-0.054c0.021-0.021,0.037-0.045,0.051-0.072
			c0.498-1.035,0.465-2.689,0.252-5.022c-0.191-2.097-1.467-2.649-2.816-3.235c-0.729-0.315-1.48-0.641-2.135-1.236
			c-1.664-1.514-1.357-3.357-1.176-4.459c0.016-0.087,0.029-0.168,0.039-0.242c0.029-0.189,0.059-0.337,0.107-0.456
			c0.352,0.341,1.336,0.743,3.877,0.974c0.924,0.084,2.049,0.122,2.754,0.122c0.707,0,1.832-0.038,2.756-0.122
			c2.541-0.23,3.525-0.633,3.877-0.975c0.049,0.12,0.078,0.268,0.107,0.457c0.01,0.074,0.023,0.155,0.037,0.242
			C626.135,633.807,626.441,635.65,624.777,637.164z"/>
	</g>
	<g>
		<g>
			<text transform="matrix(1 0 0 1 503.9756 611.6338)" fill="#FFFFFF" font-family="'Gibson-Light'" font-size="10">Profile : Citrus, Sweet, Sour</text>
		</g>
		<g>
			
				<rect x="497.352" y="571.035" fill="none" stroke="#FFFFFF" stroke-width="0.5" stroke-miterlimit="10" width="133.746" height="46.543"/>
			<g>
				<path d="M619.295,596.807c-9.375,0-17-7.626-17-17s7.625-17,17-17s17,7.626,17,17S628.67,596.807,619.295,596.807z"/>
				<path fill="#FFFFFF" d="M619.295,563.307c9.098,0,16.5,7.402,16.5,16.5s-7.402,16.5-16.5,16.5s-16.5-7.402-16.5-16.5
					S610.197,563.307,619.295,563.307 M619.295,562.307c-9.664,0-17.5,7.836-17.5,17.5c0,9.665,7.836,17.5,17.5,17.5
					c9.666,0,17.5-7.835,17.5-17.5C636.795,570.143,628.961,562.307,619.295,562.307L619.295,562.307z"/>
			</g>
			<g>
				<text transform="matrix(1 0 0 1 503.9756 598.3008)" fill="#FFFFFF" font-family="'Gibson-Light'" font-size="10">Base Spirit : Burbon</text>
			</g>
			<text transform="matrix(1 0 0 1 503.9756 585.6348)" fill="#FFFFFF" font-family="'Gibson-SemiBold'" font-size="12">Consectetur  </text>
			<path fill="#FFFFFF" d="M623.5,571.161c-0.035-0.691-0.803-0.895-1.803-1.088c-0.707-0.137-1.633-0.157-2.121-0.157
				c-0.238,0-0.395,0.005-0.395,0.006c-0.012-0.001-0.168-0.006-0.408-0.006c-0.488,0-1.414,0.021-2.119,0.157
				c-1,0.193-1.77,0.396-1.803,1.088c-0.041,0.804-0.002,2.577-0.002,2.651l0.285,14.442c-0.004,0.136,0.045,0.904,1.578,1.181
				c1.377,0.249,2.266,0.262,2.43,0.262h0.029h0.037l0,0c0.164,0,1.051-0.013,2.428-0.262c1.535-0.276,1.582-1.045,1.578-1.181
				l0.285-14.441C623.502,573.738,623.541,571.965,623.5,571.161z M616.732,570.479c0.672-0.13,1.568-0.149,2.041-0.149
				c0.24,0,0.393,0.005,0.408,0.005c0.002,0,0.154-0.005,0.395-0.005c0.475,0,1.369,0.02,2.041,0.149
				c0.939,0.182,1.451,0.348,1.471,0.703c0,0.032,0.002,0.067,0.004,0.103c-0.143,0.1-0.438,0.231-1.049,0.307
				c-1.682,0.207-2.855,0.188-2.869,0.187c-0.012,0.001-1.184,0.021-2.867-0.187c-0.611-0.075-0.906-0.207-1.047-0.306
				c0-0.035,0.002-0.071,0.004-0.104C615.281,570.826,615.793,570.66,616.732,570.479z M621.564,589.029
				c-1.344,0.243-2.199,0.255-2.355,0.255l0,0h-0.037h-0.029c-0.158,0-1.014-0.012-2.355-0.255c-1.242-0.224-1.24-0.753-1.24-0.753
				l0.002-0.012l-0.014-0.651c0.258,0.193,0.678,0.466,1.166,0.604c0.742,0.209,1.766,0.283,2.475,0.283s1.73-0.074,2.475-0.283
				c0.488-0.138,0.908-0.41,1.166-0.604l-0.014,0.658C622.803,588.275,622.807,588.805,621.564,589.029z M623.088,573.805
				l-0.268,13.606c-0.229,0.183-0.684,0.508-1.213,0.656c-0.729,0.205-1.734,0.278-2.432,0.278c-0.699,0-1.705-0.073-2.434-0.278
				c-0.527-0.148-0.982-0.473-1.211-0.655l-0.268-13.608c0-0.016-0.033-1.47-0.01-2.341c0.188,0.105,0.502,0.216,1.035,0.281
				c1.693,0.209,2.877,0.188,2.885,0.188c0,0,0.037,0,0.104,0c0.322,0,1.377-0.015,2.785-0.188c0.531-0.065,0.848-0.176,1.035-0.281
				C623.119,572.334,623.088,573.788,623.088,573.805z"/>
		</g>
	</g>
</g>
<g id="Layer_3">
	<g opacity="0.5">
		<g>
			<path fill="#FFFFFF" d="M841.168,105.473c-16.543,0-30-13.458-30-30s13.457-30,30-30s30,13.458,30,30
				S857.711,105.473,841.168,105.473z M841.168,49.668c-14.229,0-25.805,11.575-25.805,25.805s11.576,25.805,25.805,25.805
				s25.805-11.575,25.805-25.805S855.396,49.668,841.168,49.668z"/>
		</g>
		<g>
			<path fill="#FFFFFF" d="M834.783,85.367c-0.467,0-0.895-0.051-1.066-0.496L827.113,68h-3.932c-0.633,0-1.146-0.868-1.146-1.5
				c0-0.631,0.514-1.5,1.146-1.5h4.717c0.473,0,0.896,0.41,1.066,0.852l6.568,17.075l17.449-2.32L855.895,71h-20.512
				c-0.631,0-1.143-0.368-1.143-1c0-0.633,0.512-1,1.143-1h22.07c0.363,0,0.705,0.391,0.922,0.684
				c0.215,0.293,0.279,0.781,0.17,1.129l-3.604,11.525c-0.135,0.432-0.512,0.77-0.961,0.822l-19.066,2.187
				C834.871,85.353,834.826,85.367,834.783,85.367z"/>
		</g>
		<g>
			<circle fill="#FFFFFF" cx="835.726" cy="89.058" r="2.177"/>
		</g>
		<g>
			<circle fill="#FFFFFF" cx="852.674" cy="89.058" r="2.178"/>
		</g>
	</g>
	<g opacity="0.5">
		<g>
			<path fill="#FFFFFF" d="M437.668,105.473c-16.543,0-30-13.458-30-30c0-16.543,13.457-30,30-30s30,13.457,30,30
				C467.668,92.015,454.211,105.473,437.668,105.473z M437.668,49.667c-14.229,0-25.805,11.577-25.805,25.806
				s11.576,25.805,25.805,25.805s25.805-11.576,25.805-25.805S451.896,49.667,437.668,49.667z"/>
		</g>
		<g>
			<g>
				
					<line fill="none" stroke="#FFFFFF" stroke-width="2" stroke-linecap="round" stroke-miterlimit="10" x1="430.105" y1="62.805" x2="452.105" y2="62.805"/>
				<path fill="#FFFFFF" d="M427.23,62.805c0,1.105-0.898,2-2,2c-1.109,0-2-0.895-2-2s0.891-2,2-2
					C426.332,60.805,427.23,61.699,427.23,62.805z"/>
			</g>
			<g>
				
					<line fill="none" stroke="#FFFFFF" stroke-width="2" stroke-linecap="round" stroke-miterlimit="10" x1="430.105" y1="70.598" x2="452.105" y2="70.598"/>
				<path fill="#FFFFFF" d="M427.23,70.598c0,1.105-0.898,2-2,2c-1.109,0-2-0.895-2-2s0.891-2,2-2
					C426.332,68.598,427.23,69.492,427.23,70.598z"/>
			</g>
			<g>
				
					<line fill="none" stroke="#FFFFFF" stroke-width="2" stroke-linecap="round" stroke-miterlimit="10" x1="430.105" y1="78.389" x2="452.105" y2="78.389"/>
				<path fill="#FFFFFF" d="M427.23,78.389c0,1.105-0.898,2-2,2c-1.109,0-2-0.895-2-2s0.891-2,2-2
					C426.332,76.389,427.23,77.283,427.23,78.389z"/>
			</g>
			<g>
				
					<line fill="none" stroke="#FFFFFF" stroke-width="2" stroke-linecap="round" stroke-miterlimit="10" x1="430.105" y1="86.181" x2="452.105" y2="86.181"/>
				<path fill="#FFFFFF" d="M427.23,86.181c0,1.105-0.898,2-2,2c-1.109,0-2-0.895-2-2s0.891-2,2-2
					C426.332,84.181,427.23,85.075,427.23,86.181z"/>
			</g>
		</g>
	</g>
	<g opacity="0.5">
		<g>
			<path fill="#FFFFFF" d="M750.293,105.473c-16.543,0-30-13.458-30-30c0-16.541,13.457-30,30-30s30,13.459,30,30
				C780.293,92.015,766.836,105.473,750.293,105.473z M750.293,49.668c-14.229,0-25.805,11.576-25.805,25.805
				s11.576,25.806,25.805,25.806s25.805-11.577,25.805-25.806S764.521,49.668,750.293,49.668z"/>
		</g>
		<polygon fill="#FFFFFF" points="744.869,60.623 760.875,75.473 744.869,90.322 		"/>
	</g>
	<g opacity="0.5">
		<g>
			<path fill="#FFFFFF" d="M528.543,105.473c-16.543,0-30-13.458-30-30c0-16.541,13.457-30,30-30s30,13.459,30,30
				C558.543,92.015,545.086,105.473,528.543,105.473z M528.543,49.668c-14.229,0-25.805,11.576-25.805,25.805
				s11.576,25.806,25.805,25.806s25.805-11.577,25.805-25.806S542.771,49.668,528.543,49.668z"/>
		</g>
		<g>
			<circle fill="none" stroke="#FFFFFF" stroke-width="2" stroke-miterlimit="10" cx="531.8" cy="71.066" r="7.992"/>
			
				<line fill="none" stroke="#FFFFFF" stroke-width="2" stroke-miterlimit="10" x1="517.295" y1="87.871" x2="525.186" y2="78.729"/>
		</g>
	</g>
</g>
<g id="Layer_4">
</g>
</svg>
