<?xml version="1.0" encoding="utf-8"?>
<!-- Generator: Adobe Illustrator 16.0.0, SVG Export Plug-In . SVG Version: 6.00 Build 0)  -->
<!DOCTYPE svg PUBLIC "-//W3C//DTD SVG 1.1//EN" "http://www.w3.org/Graphics/SVG/1.1/DTD/svg11.dtd">
<svg version="1.1" xmlns="http://www.w3.org/2000/svg" xmlns:xlink="http://www.w3.org/1999/xlink" x="0px" y="0px" width="1280px"
	 height="800px" viewBox="0 0 1280 800" enable-background="new 0 0 1280 800" xml:space="preserve">
<g id="Background_Color">
	<rect x="-1.647" width="1280" height="800"/>
</g>
<g id="Layer_2">
	<g>
		
			<line fill="none" stroke="#FFFFFF" stroke-width="3" stroke-linecap="round" stroke-miterlimit="10" x1="690.801" y1="451.278" x2="750.301" y2="451.278"/>
		<polygon fill="#FFFFFF" points="750.301,446.456 750.301,456.1 763.801,451.277 		"/>
	</g>
	<g>
		<text transform="matrix(1 0 0 1 226.3008 187.8672)" fill="#FFFFFF" font-family="'Gibson-SemiBold'" font-size="20">Sazarac Cocktail</text>
	</g>
	<g>
		<text transform="matrix(1 0 0 1 226.3008 227.8672)"><tspan x="0" y="0" fill="#FFFFFF" font-family="'Gibson-Regular'" font-size="18">Base Spirit: Rye, Absinthe</tspan><tspan x="0" y="21.6" fill="#FFFFFF" font-family="'Gibson-Regular'" font-size="18">Flavor Profile: Spirit Forward</tspan></text>
	</g>
	<rect x="226.301" y="199.905" fill="#FFFFFF" width="821" height="3"/>
	<polygon fill="none" stroke="#FFFFFF" stroke-miterlimit="10" points="1033.045,211.766 1037.298,220.384 1046.81,221.767 
		1039.927,228.475 1041.552,237.946 1033.045,233.475 1024.538,237.946 1026.163,228.475 1019.28,221.767 1028.792,220.384 	"/>
	<g>
		<text transform="matrix(1 0 0 1 226.1484 287.2217)" fill="#FFFFFF" font-family="'Gibson-SemiBold'" font-size="18">Add</text>
		<g>
			<g>
				<line fill="none" stroke="#FFFFFF" stroke-miterlimit="10" x1="299.08" y1="450.229" x2="299.08" y2="307.413"/>
				<circle fill="#FFFFFF" cx="299.081" cy="450.229" r="2.607"/>
				<g>
					<text transform="matrix(1 0 0 1 231.6455 315.7471)"><tspan x="0" y="0" fill="#FFFFFF" font-family="'Gibson-SemiBold'" font-size="9.8625">1/2 tsp Sugar</tspan><tspan x="-1.371" y="11.835" fill="#FFFFFF" font-family="'Gibson-SemiBold'" font-size="9.8625">1/2 tsp Water</tspan><tspan x="47.595" y="23.67" fill="#FFFFFF" font-family="'Gibson-SemiBold'" font-size="9.8625">Ice</tspan></text>
				</g>
				<g>
					<text transform="matrix(1 0 0 1 306.6865 315.7471)"><tspan x="0" y="0" fill="#FFFFFF" font-family="'Gibson-SemiBold'" font-size="9.8625">2 oz Rye</tspan><tspan x="0" y="11.835" fill="#FFFFFF" font-family="'Gibson-SemiBold'" font-size="9.8625">2 dashes </tspan><tspan x="0" y="23.67" fill="#FFFFFF" font-family="'Gibson-SemiBold'" font-size="9.8625">Paychaud</tspan><tspan x="0" y="35.505" fill="#FFFFFF" font-family="'Gibson-SemiBold'" font-size="9.8625">Bitters</tspan></text>
				</g>
			</g>
			<line fill="none" stroke="#FFFFFF" stroke-miterlimit="10" x1="226.302" y1="270.573" x2="372.765" y2="270.573"/>
			<circle fill="#FFFFFF" cx="299.081" cy="515.742" r="5"/>
			<line fill="none" stroke="#FFFFFF" stroke-miterlimit="10" x1="226.302" y1="292.573" x2="372.765" y2="292.573"/>
			<path fill="#FFFFFF" d="M318.903,375.043l-0.917-0.148c-6.468-1.053-18.388-1.211-18.918-1.216
				c-0.505,0.005-12.426,0.163-18.894,1.216l-0.918,0.148c-6.226,1.005-12.109,1.952-11.558,6.548
				c0.774,6.448,1.305,10.614,1.487,11.665c0,0.087,0,0.291,8.539,71.144c0.018,0.126,0.457,3.107,3.577,4.463
				c3.182,1.382,7.78,2.796,17.777,2.796c10,0,14.596-1.414,17.778-2.796c3.12-1.355,3.56-4.337,3.579-4.48
				c8.536-70.835,8.536-71.039,8.532-71.061c0.188-1.116,0.717-5.282,1.491-11.73C331.014,376.995,325.13,376.048,318.903,375.043z
				 M279.606,377.206l0.92-0.147c6.305-1.028,18.445-1.188,18.542-1.189c0.122,0.002,12.259,0.161,18.565,1.189l0.921,0.147
				c5.308,0.855,8.816,1.552,9.579,3.176c-0.891,0.595-2.704,1.412-6.38,2.102c-7.076,1.327-16.762,2.021-22.674,2.021
				c-5.91,0-15.597-0.694-22.674-2.021c-3.677-0.689-5.49-1.507-6.38-2.097C270.785,378.758,274.296,378.063,279.606,377.206z
				 M318.266,464.094c-0.012,0.076-0.315,1.904-2.28,2.76c-2.975,1.293-7.31,2.613-16.905,2.613c-9.595,0-13.93-1.32-16.902-2.613
				c-1.965-0.855-2.272-2.684-2.28-2.732c-0.012-0.104-0.201-1.668-0.513-4.262c2.131,1.465,5.18,3.138,10.007,3.674
				c6.107,0.678,7.23,0.678,9.688,0.678s3.582,0,9.689-0.678c4.827-0.536,7.876-2.209,10.006-3.674
				C318.465,462.44,318.278,463.996,318.266,464.094z M326.811,392.956c-0.031,0.184-0.027,0.186-0.022,0.206
				c-0.088,0.9-5.911,49.255-7.879,65.6c-2.078,1.497-5.128,3.389-10.23,3.956c-6.063,0.673-7.171,0.673-9.599,0.673
				c-2.427,0-3.534,0-9.598-0.673c-5.103-0.567-8.151-2.459-10.23-3.956c-1.971-16.373-7.79-64.685-7.873-65.506
				c0-0.114,0.003-0.116-0.027-0.3c-0.106-0.628-0.438-2.971-1.476-11.626c-0.002-0.023,0-0.043-0.002-0.066
				c1.106,0.651,3.022,1.396,6.382,2.027c7.125,1.336,16.876,2.035,22.824,2.035c5.947,0,15.7-0.699,22.826-2.035
				c3.357-0.631,5.275-1.376,6.381-2.027c-0.003,0.023,0.001,0.043-0.003,0.066C327.248,389.985,326.917,392.328,326.811,392.956z"
				/>
		</g>
		<g>
			<text transform="matrix(1 0 0 1 397.0469 287.2217)" fill="#FFFFFF" font-family="'Gibson-SemiBold'" font-size="18">Stir</text>
			<line fill="none" stroke="#FFFFFF" stroke-miterlimit="10" x1="397.046" y1="270.573" x2="543.51" y2="270.573"/>
			<circle fill="#FFFFFF" cx="470.277" cy="515.742" r="5"/>
			<line fill="none" stroke="#FFFFFF" stroke-miterlimit="10" x1="397.046" y1="292.573" x2="543.51" y2="292.573"/>
			<g>
				<g>
					<g>
						<g>
							<path fill="#FFFFFF" d="M469.176,471.658c-10.229,0-14.934-1.437-18.188-2.842c-3.188-1.379-3.638-4.405-3.654-4.534
								c-8.739-72.089-8.739-72.297-8.739-72.386c-0.188-1.07-0.731-5.308-1.521-11.869c-0.565-4.667,5.451-5.633,11.821-6.652
								l0.935-0.151c6.617-1.069,18.815-1.229,19.332-1.235c0.543,0.006,12.742,0.166,19.36,1.235l0.935,0.151
								c6.37,1.02,12.386,1.985,11.821,6.652c-0.791,6.562-1.333,10.799-1.525,11.938c0.002,0.021,0.002,0.229-8.732,72.3
								c-0.02,0.146-0.472,3.173-3.657,4.552C484.106,470.222,479.402,471.658,469.176,471.658z M469.161,374.2
								c-0.098,0-12.524,0.164-18.979,1.208l-0.937,0.151c-6.399,1.025-10.265,1.819-9.976,4.203
								c1.061,8.805,1.402,11.192,1.51,11.831c0.031,0.185,0.029,0.186,0.029,0.303c0.102,1.001,8.633,71.392,8.719,72.103
								c0.009,0.052,0.322,1.915,2.341,2.786c3.045,1.316,7.483,2.66,17.308,2.66s14.263-1.344,17.309-2.66
								c2.055-0.889,2.338-2.785,2.34-2.804c0.085-0.693,8.616-71.084,8.721-72.179c-0.004-0.023-0.006-0.024,0.024-0.209
								c0.108-0.639,0.45-3.026,1.511-11.83c0.289-2.385-3.576-3.179-9.975-4.204l-0.938-0.151
								C481.713,374.364,469.286,374.2,469.161,374.2z"/>
						</g>
						<g>
							<path fill="#FFFFFF" d="M469.176,464.088c-2.518,0-3.664,0-9.916-0.691c-6.132-0.677-9.463-3.134-11.668-4.76l-0.216-0.16
								l0.491-0.669l0.217,0.161c2.134,1.572,5.356,3.951,11.268,4.604c6.205,0.685,7.339,0.685,9.824,0.685s3.618,0,9.824-0.685
								c5.907-0.653,9.13-3.028,11.262-4.602l0.221-0.164l0.491,0.669l-0.22,0.162c-2.204,1.625-5.534,4.081-11.663,4.758
								C472.838,464.088,471.691,464.088,469.176,464.088z"/>
						</g>
						<g>
							<path fill="#FFFFFF" d="M469.176,383.827c-6.088,0-16.068-0.711-23.359-2.07c-7.295-1.359-7.989-3.256-8.055-3.623
								l0.818-0.145l0,0c0.002,0,0.61,1.689,7.388,2.951c7.241,1.351,17.156,2.056,23.208,2.056c6.051,0,15.965-0.705,23.206-2.056
								c6.793-1.266,7.39-2.959,7.394-2.976l0.812,0.169c-0.063,0.367-0.758,2.264-8.053,3.623
								C485.243,383.116,475.264,383.827,469.176,383.827z"/>
						</g>
					</g>
					<g>
						<path fill="#FFFFFF" d="M468.756,416.984c-15.07,0-26.875-2.324-26.875-5.296s11.805-5.296,26.875-5.296
							c15.262,0,27.679,2.375,27.679,5.296C496.435,414.608,484.018,416.984,468.756,416.984z M468.756,406.668
							c-16.431,0-26.6,2.605-26.6,5.021c0,2.413,10.169,5.02,26.6,5.02c16.391,0,27.401-2.596,27.401-5.02
							C496.157,409.264,485.146,406.668,468.756,406.668z"/>
					</g>
					<g>
						<g>
							<path fill="#FFFFFF" d="M489.652,356.685c2.405-10.113,4.33-18.212,5.12-21.537l3.468,0.845l-2.021,7.932
								c-0.903,3.536-1.973,7.737-3.149,12.347c0.208-0.028,0.401-0.061,0.602-0.089c1.153-4.521,2.203-8.644,3.091-12.121
								l2.16-8.477l-4.565-1.111l-0.065,0.273c-0.75,3.156-2.736,11.512-5.232,22.002
								C489.264,356.728,489.452,356.705,489.652,356.685z"/>
						</g>
						<g>
							<path fill="#FFFFFF" d="M476.761,434.494c-0.814-1.846-1.927-4.371-1.664-5.443c0.093-0.382,10.452-41.014,17.677-69.354
								c-0.2,0.027-0.395,0.057-0.598,0.079c-7.223,28.33-17.528,68.76-17.623,69.144c-0.31,1.254,0.757,3.668,1.695,5.798
								c0.249,0.566,0.484,1.099,0.666,1.553c1.762,4.373,2.221,8.586,1.336,12.189c-0.646,2.612-2.141,5.614-3.902,7.833
								c-1.531,1.929-4.004,4.23-7.088,4.23l0,0c-0.497,0-0.998-0.062-1.492-0.181c-3.451-0.842-4.926-4.119-5.555-6.721
								c-0.854-3.54-0.555-7.257,0.008-9.552c0.889-3.604,3.258-7.131,6.846-10.197c0.372-0.318,0.827-0.681,1.311-1.068
								c1.828-1.457,3.896-3.108,4.207-4.365c0.094-0.377,9.603-40.362,16.25-68.311c-0.199,0.018-0.393,0.037-0.592,0.055
								c-6.644,27.939-16.113,67.748-16.203,68.121c-0.266,1.075-2.432,2.803-4.013,4.066c-0.491,0.392-0.95,0.758-1.324,1.079
								c-3.681,3.144-6.109,6.771-7.022,10.486c-0.582,2.36-0.89,6.177-0.012,9.814c0.665,2.753,2.239,6.224,5.967,7.131
								c0.537,0.132,1.084,0.198,1.625,0.198l0,0c5.768,0,10.292-7.452,11.534-12.489c0.914-3.714,0.445-8.046-1.358-12.525
								C477.251,435.605,477.014,435.068,476.761,434.494z"/>
						</g>
					</g>
					<g>
						<path fill="#FFFFFF" d="M504.345,354.289c-0.226-0.211-0.581-0.197-0.79,0.028c-1.881,2.015-12.387,4.101-26.725,4.101
							c-16.854,0-26.176-2.721-26.176-4.602c0-0.773,1.815-1.979,6.779-2.997l0.152,0.996l4.483-2.366l-4.948-0.686l0.145,0.952
							c-5.127,1.042-7.733,2.417-7.733,4.101c0,3.752,13.732,5.716,27.298,5.716c13.555,0,25.139-1.874,27.547-4.458
							C504.588,354.85,504.573,354.496,504.345,354.289z"/>
					</g>
				</g>
				<g>
					<g>
						<g>
							<path fill="#FFFFFF" d="M448.652,427.626c-0.582,0-1.069-0.437-1.13-1.015l-1.462-13.633
								c-0.031-0.301,0.056-0.596,0.247-0.832c0.19-0.235,0.46-0.382,0.761-0.414l13.822-1.446c0.038-0.004,0.079-0.007,0.118-0.007
								c0.582,0,1.067,0.437,1.13,1.016l1.462,13.636c0.032,0.298-0.056,0.593-0.245,0.829c-0.191,0.236-0.463,0.385-0.762,0.415
								l-13.823,1.446C448.732,427.624,448.691,427.626,448.652,427.626z M461.009,410.335c-0.038,0-0.076,0.003-0.112,0.006
								l-13.822,1.448c-0.285,0.029-0.542,0.168-0.725,0.393c-0.181,0.225-0.265,0.506-0.233,0.791l1.46,13.635
								c0.059,0.55,0.521,0.966,1.076,0.966c0.036,0,0.076-0.003,0.112-0.007l13.823-1.446c0.285-0.029,0.542-0.171,0.724-0.396
								s0.265-0.505,0.233-0.79l-1.461-13.632C462.023,410.751,461.562,410.335,461.009,410.335z"/>
						</g>
					</g>
					<g>
						<g>
							<path fill="#FFFFFF" d="M461.704,410.534c-0.006,0-0.014-0.002-0.017-0.007c-0.014-0.01-0.014-0.028-0.004-0.038l2.158-2.426
								c0.008-0.011,0.024-0.013,0.038-0.003c0.011,0.01,0.013,0.027,0.003,0.038l-2.157,2.427
								C461.72,410.532,461.713,410.534,461.704,410.534z"/>
						</g>
					</g>
					<g>
						<g>
							<path fill="#FFFFFF" d="M463.312,425.827c-0.007,0-0.011-0.003-0.015-0.005c-0.014-0.009-0.017-0.027-0.01-0.039l1.774-2.662
								c0.335-0.502,0.555-1.4,0.491-2.001l-1.312-12.245c-0.061-0.553-0.532-0.965-1.077-0.965c-0.036,0-0.073,0.001-0.111,0.005
								l-12.418,1.3c-0.601,0.061-1.492,0.402-1.982,0.758l-2.664,1.925c-0.014,0.008-0.031,0.006-0.039-0.006
								c-0.01-0.013-0.006-0.03,0.006-0.038l2.664-1.926c0.498-0.359,1.4-0.705,2.011-0.768l12.417-1.301
								c0.041-0.004,0.079-0.006,0.117-0.006c0.574,0,1.069,0.434,1.131,1.016l1.314,12.244c0.064,0.611-0.16,1.527-0.502,2.038
								l-1.773,2.662C463.328,425.822,463.32,425.827,463.312,425.827z"/>
						</g>
					</g>
				</g>
				<g>
					<g>
						<g>
							<path fill="#FFFFFF" d="M466.809,458.641c-0.06,0-0.117-0.004-0.176-0.012l-13.728-2.155
								c-0.298-0.047-0.561-0.208-0.739-0.453c-0.178-0.246-0.249-0.544-0.202-0.844l2.177-13.539
								c0.09-0.546,0.572-0.958,1.124-0.958c0.06,0,0.12,0.005,0.177,0.014l13.727,2.153c0.3,0.048,0.561,0.208,0.739,0.456
								c0.179,0.244,0.251,0.543,0.202,0.841l-2.178,13.541C467.846,458.229,467.361,458.641,466.809,458.641z M455.265,440.735
								c-0.524,0-0.985,0.392-1.069,0.911l-2.176,13.54c-0.046,0.283,0.021,0.567,0.192,0.801c0.169,0.233,0.418,0.388,0.703,0.432
								l13.727,2.152c0.054,0.01,0.111,0.015,0.167,0.015c0.526,0,0.985-0.392,1.069-0.911l2.177-13.54
								c0.046-0.281-0.023-0.568-0.191-0.801c-0.17-0.233-0.419-0.387-0.702-0.432l-13.728-2.153
								C455.377,440.739,455.32,440.735,455.265,440.735z"/>
						</g>
					</g>
					<g>
						<g>
							<path fill="#FFFFFF" d="M469.986,443.506c-0.012,0-0.02-0.004-0.024-0.012c-0.008-0.014-0.004-0.03,0.008-0.04l2.721-1.789
								c0.015-0.005,0.031-0.004,0.038,0.01c0.008,0.013,0.006,0.029-0.007,0.038l-2.721,1.789
								C469.995,443.506,469.991,443.506,469.986,443.506z"/>
						</g>
					</g>
					<g>
						<g>
							<path fill="#FFFFFF" d="M467.483,458.446c-0.008,0-0.016-0.004-0.021-0.011c-0.011-0.012-0.009-0.027,0.002-0.037
								l2.359-2.082c0.454-0.4,0.899-1.212,0.996-1.809l1.954-12.161c0.046-0.283-0.021-0.568-0.19-0.802s-0.42-0.388-0.703-0.43
								l-12.331-1.937c-0.601-0.095-1.523,0.052-2.062,0.329l-2.411,1.227c-0.012,0.006-0.03,0.002-0.037-0.013
								c-0.007-0.013-0.001-0.028,0.013-0.037l2.409-1.229c0.549-0.277,1.489-0.427,2.097-0.331l12.332,1.934
								c0.299,0.047,0.56,0.209,0.737,0.454c0.179,0.245,0.249,0.544,0.202,0.842l-1.955,12.161
								c-0.098,0.609-0.553,1.434-1.013,1.842l-2.36,2.082C467.496,458.443,467.49,458.446,467.483,458.446z"/>
						</g>
					</g>
				</g>
				<g>
					<g>
						<g>
							<path fill="#FFFFFF" d="M466.497,440.269c-0.012,0-0.021-0.007-0.025-0.019c-0.007-0.014,0.002-0.029,0.016-0.035
								l4.244-1.567c0.271-0.101,0.483-0.299,0.604-0.56c0.12-0.264,0.128-0.554,0.025-0.822l-3.942-10.424
								c-0.211-0.555-0.838-0.84-1.395-0.635l-10.564,3.904c-0.27,0.099-0.482,0.299-0.602,0.562
								c-0.117,0.261-0.127,0.553-0.024,0.821l2.991,7.812c0.006,0.015-0.002,0.03-0.016,0.036
								c-0.016,0.004-0.031-0.002-0.035-0.017l-2.992-7.812c-0.109-0.282-0.1-0.591,0.025-0.864
								c0.125-0.275,0.351-0.483,0.634-0.589l10.563-3.905c0.586-0.217,1.242,0.082,1.466,0.669l3.942,10.421
								c0.108,0.282,0.097,0.589-0.028,0.864c-0.124,0.275-0.35,0.486-0.633,0.589l-4.245,1.569
								C466.503,440.268,466.5,440.269,466.497,440.269z"/>
						</g>
					</g>
					<g>
						<g>
							<path fill="#FFFFFF" d="M466.889,426.239c-0.006,0-0.01,0-0.013-0.002c-0.015-0.007-0.019-0.022-0.011-0.037l1.234-2.413
								c0.006-0.015,0.025-0.019,0.036-0.015c0.014,0.009,0.02,0.025,0.013,0.039l-1.234,2.412
								C466.909,426.234,466.897,426.239,466.889,426.239z"/>
						</g>
					</g>
					<g>
						<g>
							<path fill="#FFFFFF" d="M471.346,438.318c-0.002,0-0.006-0.002-0.01-0.002c-0.014-0.005-0.021-0.021-0.016-0.036l0.881-2.467
								c0.203-0.567,0.195-1.491-0.02-2.057l-3.529-9.327c-0.1-0.27-0.302-0.48-0.565-0.598c-0.263-0.121-0.556-0.127-0.823-0.022
								l-3.491,1.34c-0.015,0.001-0.03-0.003-0.036-0.019c-0.006-0.013,0.001-0.03,0.017-0.033l3.491-1.34
								c0.281-0.111,0.589-0.103,0.866,0.022c0.277,0.124,0.488,0.348,0.594,0.63l3.529,9.327c0.22,0.576,0.228,1.516,0.021,2.095
								l-0.882,2.468C471.368,438.311,471.356,438.318,471.346,438.318z"/>
						</g>
					</g>
					<g>
						<g>
							<path fill="#FFFFFF" d="M454.83,430.699c-0.004,0-0.01-0.002-0.014-0.004c-0.013-0.01-0.016-0.026-0.009-0.04l1.332-2.091
								c0.328-0.519,1.067-1.114,1.645-1.328l2.254-0.833c0.016-0.004,0.03,0.003,0.036,0.017c0.006,0.013-0.004,0.03-0.017,0.035
								l-2.254,0.833c-0.567,0.21-1.295,0.797-1.618,1.308l-1.331,2.09C454.849,430.695,454.841,430.699,454.83,430.699z"/>
						</g>
					</g>
				</g>
				<g>
					<g>
						<g>
							<path fill="#FFFFFF" d="M487.958,445.063c-0.059,0-0.118-0.006-0.177-0.015l-10.48-1.663
								c-0.297-0.048-0.561-0.208-0.737-0.453c-0.177-0.247-0.249-0.546-0.2-0.843l1.679-10.332
								c0.089-0.544,0.573-0.954,1.124-0.954c0.06,0,0.12,0.004,0.178,0.014l10.479,1.662c0.299,0.048,0.561,0.21,0.739,0.456
								c0.177,0.245,0.249,0.546,0.199,0.842l-1.677,10.331C488.994,444.652,488.511,445.063,487.958,445.063z M479.166,430.859
								c-0.525,0-0.984,0.389-1.068,0.907l-1.679,10.331c-0.048,0.283,0.021,0.568,0.19,0.801c0.169,0.235,0.417,0.388,0.701,0.434
								l10.479,1.662c0.057,0.011,0.112,0.014,0.168,0.014c0.525,0,0.985-0.391,1.069-0.909l1.68-10.331
								c0.045-0.283-0.021-0.565-0.189-0.8c-0.17-0.235-0.42-0.388-0.703-0.433l-10.479-1.664
								C479.279,430.863,479.224,430.859,479.166,430.859z"/>
						</g>
					</g>
					<g>
						<g>
							<path fill="#FFFFFF" d="M478.517,431.055c-0.01,0-0.016-0.003-0.022-0.01l-2.077-2.796c-0.009-0.013-0.007-0.03,0.006-0.039
								c0.015-0.009,0.028-0.007,0.038,0.006l2.077,2.795c0.01,0.013,0.008,0.03-0.005,0.038
								C478.528,431.054,478.522,431.055,478.517,431.055z"/>
						</g>
					</g>
					<g>
						<g>
							<path fill="#FFFFFF" d="M476.702,443.074c-0.008,0-0.017-0.002-0.021-0.011l-1.801-2.233c-0.388-0.48-0.62-1.367-0.522-1.976
								l1.607-9.891c0.092-0.557,0.574-0.955,1.125-0.955c0.058,0,0.118,0.005,0.178,0.013l10.035,1.594
								c0.608,0.096,1.389,0.588,1.741,1.095l1.614,2.334c0.008,0.012,0.006,0.028-0.007,0.037c-0.014,0.008-0.03,0.005-0.038-0.007
								l-1.617-2.333c-0.343-0.496-1.107-0.978-1.703-1.072l-10.034-1.592c-0.587-0.096-1.144,0.31-1.239,0.896l-1.607,9.891
								c-0.097,0.596,0.132,1.462,0.512,1.932l1.8,2.234c0.011,0.013,0.007,0.03-0.004,0.038
								C476.716,443.072,476.71,443.074,476.702,443.074z"/>
						</g>
					</g>
				</g>
				<g>
					<g>
						<g>
							<path fill="#FFFFFF" d="M478.209,425.998c-0.582,0-1.078-0.453-1.133-1.032l-1.188-12.755
								c-0.026-0.3,0.066-0.593,0.259-0.826c0.194-0.232,0.466-0.377,0.767-0.405l12.935-1.172c0.033-0.004,0.067-0.006,0.104-0.006
								c0.579,0,1.077,0.452,1.13,1.031l1.187,12.755c0.028,0.301-0.063,0.594-0.257,0.826c-0.194,0.234-0.467,0.378-0.768,0.405
								l-12.934,1.173C478.275,425.996,478.241,425.998,478.209,425.998z M489.952,409.857c-0.033,0-0.066,0.001-0.1,0.004
								l-12.933,1.175c-0.287,0.025-0.545,0.162-0.73,0.384c-0.184,0.223-0.271,0.502-0.243,0.787l1.185,12.754
								c0.052,0.549,0.525,0.98,1.078,0.98c0.031,0,0.064-0.001,0.097-0.004l12.933-1.175c0.288-0.024,0.547-0.161,0.729-0.384
								c0.185-0.222,0.271-0.502,0.245-0.787l-1.184-12.754C490.977,410.289,490.503,409.857,489.952,409.857z"/>
						</g>
					</g>
					<g>
						<g>
							<path fill="#FFFFFF" d="M476.21,411.393c-0.006,0-0.013-0.003-0.019-0.006l-3.215-2.604
								c-0.012-0.009-0.014-0.026-0.004-0.039c0.008-0.012,0.027-0.013,0.039-0.005l3.215,2.605
								c0.014,0.011,0.016,0.027,0.005,0.038C476.227,411.39,476.219,411.393,476.21,411.393z"/>
						</g>
					</g>
					<g>
						<g>
							<path fill="#FFFFFF" d="M477.637,425.827c-0.008,0-0.013-0.003-0.018-0.007l-2.822-2.185
								c-0.486-0.379-0.93-1.185-0.986-1.799l-1.137-12.229c-0.028-0.299,0.062-0.594,0.258-0.828
								c0.193-0.232,0.467-0.376,0.768-0.403l12.4-1.126c0.611-0.059,1.498,0.223,1.969,0.619l2.734,2.311
								c0.012,0.009,0.014,0.026,0.004,0.038c-0.009,0.013-0.026,0.014-0.039,0.004l-2.735-2.308
								c-0.422-0.356-1.181-0.615-1.767-0.615c-0.055,0-0.109,0.002-0.159,0.008l-12.403,1.125
								c-0.285,0.024-0.545,0.163-0.729,0.384c-0.185,0.222-0.271,0.502-0.245,0.787l1.137,12.23
								c0.056,0.601,0.488,1.391,0.967,1.759l2.822,2.186c0.011,0.008,0.013,0.025,0.003,0.039
								C477.652,425.822,477.645,425.827,477.637,425.827z"/>
						</g>
					</g>
				</g>
			</g>
		</g>
		<g>
			<g>
				<g>
					<path fill="#FFFFFF" d="M664.997,435.191c-0.203-0.19-0.525-0.178-0.715,0.027c-1.705,1.825-11.23,3.717-24.23,3.717
						c-15.281,0-23.732-2.468-23.732-4.173c0-0.701,1.645-1.794,6.147-2.717l0.138,0.902l4.063-2.145l-4.486-0.623l0.132,0.864
						c-4.648,0.944-7.013,2.191-7.013,3.718c0,3.401,12.45,5.182,24.751,5.182c12.29,0,22.792-1.698,24.977-4.041
						C665.219,435.7,665.204,435.38,664.997,435.191z"/>
				</g>
			</g>
			<path fill="#FFFFFF" d="M661.727,404.777c-6.4-1.481-20.996-1.607-21.633-1.611c-0.619,0.004-15.217,0.13-21.613,1.611
				c-6.428,1.487-9.482,3.693-9.336,6.751c0.104,2.147,2.254,50.321,2.254,50.321c0.002,0.199,0.176,4.772,6.15,6.873
				c5.6,1.978,12.979,2.936,22.555,2.936s16.951-0.958,22.553-2.936c5.973-2.101,6.143-6.674,6.146-6.842
				c0.021-0.485,2.152-48.229,2.252-50.353C671.203,408.471,668.146,406.265,661.727,404.777z M618.965,406.863
				c6.166-1.427,20.996-1.555,21.129-1.555c0.148,0,14.979,0.128,21.146,1.555c5.033,1.168,7.758,2.784,7.676,4.564
				c-0.006,0.157-0.025,0.58-0.057,1.215c-0.824,0.714-2.588,1.651-6.41,2.436c-7.469,1.522-15.955,1.51-21.539,1.515h-0.807h-0.809
				c-5.604,0.004-14.07,0.008-21.543-1.515c-3.814-0.784-5.582-1.722-6.412-2.436c-0.025-0.635-0.045-1.058-0.053-1.215
				C611.199,409.647,613.928,408.031,618.965,406.863z M666.662,461.806c0,0.034-0.125,3.282-4.715,4.897
				c-5.369,1.893-12.518,2.812-21.844,2.812c-9.332,0-16.475-0.919-21.846-2.812c-4.516-1.591-4.713-4.773-4.717-4.92
				c0,0-0.037-0.81-0.1-2.216c3.398,2.403,4.846,2.991,8.928,3.956c4.502,1.062,13.342,1.652,17.734,1.652
				c4.391,0,13.229-0.59,17.729-1.652c4.084-0.965,5.531-1.553,8.934-3.956C666.703,460.932,666.664,461.742,666.662,461.806z
				 M666.809,458.546c-3.67,2.637-5.012,3.217-9.16,4.194c-4.443,1.05-13.195,1.631-17.545,1.631
				c-4.354,0-13.104-0.581-17.547-1.631c-4.152-0.978-5.492-1.558-9.158-4.194c-0.426-9.429-1.645-36.743-2.01-44.881
				c1.115,0.74,2.996,1.537,6.205,2.197c7.549,1.544,16.078,1.532,21.701,1.532h0.809h0.807c0.287,0,0.584,0,0.887,0
				c5.619,0,13.65-0.07,20.814-1.532c3.211-0.655,5.09-1.457,6.203-2.197C668.451,421.797,667.23,449.086,666.809,458.546z"/>
			<text transform="matrix(1 0 0 1 567.1426 287.2217)" fill="#FFFFFF" font-family="'Gibson-SemiBold'" font-size="18">Rinse</text>
			<line fill="none" stroke="#FFFFFF" stroke-miterlimit="10" x1="567.07" y1="270.573" x2="713.535" y2="270.573"/>
			<circle fill="#FFFFFF" cx="640.1" cy="515.742" r="5"/>
			<line fill="none" stroke="#FFFFFF" stroke-miterlimit="10" x1="567.07" y1="292.573" x2="713.535" y2="292.573"/>
			<g>
				<line fill="none" stroke="#FFFFFF" stroke-miterlimit="10" x1="640" y1="450.934" x2="640" y2="308.115"/>
				<circle fill="#FFFFFF" cx="640" cy="450.935" r="2.607"/>
				<g>
					<text transform="matrix(1 0 0 1 599.4844 316.4492)"><tspan x="0" y="0" fill="#FFFFFF" font-family="'Gibson-SemiBold'" font-size="9.8625">1/2 tsp </tspan><tspan x="-6.469" y="11.835" fill="#FFFFFF" font-family="'Gibson-SemiBold'" font-size="9.8625">Absinthe</tspan></text>
				</g>
			</g>
			<g>
				<g>
					<path fill="#FFFFFF" d="M705.287,274.3c3.998,0,7.25,3.252,7.25,7.25s-3.252,7.25-7.25,7.25s-7.25-3.252-7.25-7.25
						S701.289,274.3,705.287,274.3 M705.287,273.3c-4.557,0-8.25,3.693-8.25,8.25s3.693,8.25,8.25,8.25s8.25-3.693,8.25-8.25
						S709.844,273.3,705.287,273.3L705.287,273.3z"/>
				</g>
				<polygon fill="#FFFFFF" points="702.127,279.174 708.448,279.174 705.287,284.882 				"/>
			</g>
		</g>
		<g>
			<path fill="#FFFFFF" d="M832.208,404.777c-6.4-1.481-20.996-1.607-21.633-1.611c-0.619,0.004-15.217,0.13-21.613,1.611
				c-6.428,1.487-9.482,3.693-9.336,6.751c0.104,2.147,2.254,50.321,2.254,50.321c0.002,0.199,0.176,4.772,6.15,6.873
				c5.6,1.978,12.979,2.936,22.555,2.936s16.951-0.958,22.553-2.936c5.973-2.101,6.143-6.674,6.146-6.842
				c0.021-0.485,2.152-48.229,2.252-50.353C841.685,408.471,838.628,406.265,832.208,404.777z M789.446,406.863
				c6.166-1.427,20.996-1.555,21.129-1.555c0.148,0,14.979,0.128,21.146,1.555c5.033,1.168,7.758,2.784,7.676,4.564
				c-0.006,0.157-0.025,0.58-0.057,1.215c-0.824,0.714-2.588,1.651-6.41,2.436c-7.469,1.522-15.955,1.51-21.539,1.515h-0.807h-0.809
				c-5.604,0.004-14.07,0.008-21.543-1.515c-3.814-0.784-5.582-1.722-6.412-2.436c-0.025-0.635-0.045-1.058-0.053-1.215
				C781.681,409.647,784.409,408.031,789.446,406.863z M837.144,461.806c0,0.034-0.125,3.282-4.715,4.897
				c-5.369,1.893-12.518,2.812-21.844,2.812c-9.332,0-16.475-0.919-21.846-2.812c-4.516-1.591-4.713-4.773-4.717-4.92
				c0,0-0.037-0.81-0.1-2.216c3.398,2.403,4.846,2.991,8.928,3.956c4.502,1.062,13.342,1.652,17.734,1.652
				c4.391,0,13.229-0.59,17.729-1.652c4.084-0.965,5.531-1.553,8.934-3.956C837.185,460.932,837.146,461.742,837.144,461.806z
				 M837.29,458.546c-3.67,2.637-5.012,3.217-9.16,4.194c-4.443,1.05-13.195,1.631-17.545,1.631c-4.354,0-13.104-0.581-17.547-1.631
				c-4.152-0.978-5.492-1.558-9.158-4.194c-0.426-9.429-1.645-36.743-2.01-44.881c1.115,0.74,2.996,1.537,6.205,2.197
				c7.549,1.544,16.078,1.532,21.701,1.532h0.809h0.807c0.287,0,0.584,0,0.887,0c5.619,0,13.65-0.07,20.814-1.532
				c3.211-0.655,5.09-1.457,6.203-2.197C838.933,421.797,837.712,449.086,837.29,458.546z"/>
			<text transform="matrix(1 0 0 1 737.4551 287.2217)" fill="#FFFFFF" font-family="'Gibson-SemiBold'" font-size="18">Strain</text>
			<line fill="none" stroke="#FFFFFF" stroke-miterlimit="10" x1="737.455" y1="270.573" x2="883.919" y2="270.573"/>
			<line fill="none" stroke="#FFFFFF" stroke-miterlimit="10" x1="737.455" y1="292.573" x2="883.919" y2="292.573"/>
			<circle fill="#FFFFFF" cx="810.46" cy="515.742" r="5"/>
			<g>
				<path fill="#FFFFFF" d="M798.149,393.226c0.979,0.322,3.042-0.777,6.479-2.691l1.921-1.061c4.704-2.59,13.044-8.559,13.12-8.615
					c0.076-0.055,8.268-6.189,12.158-9.893l1.564-1.484c2.143-2.019,3.848-3.624,4.375-4.723l34.807-25.483l-0.548-1.304
					l-0.745-1.018l-33.516,24.534c0.037-0.868-0.252-1.695-0.977-2.47c-3.956-4.231-6.533-6.946-7.221-7.606
					c-0.047-0.062-0.154-0.21-43.654-46.662c-0.079-0.082-1.965-1.989-4.932-1.314c-3.029,0.691-7.1,2.111-14.334,7.407
					c-7.23,5.294-9.813,8.744-11.388,11.424c-1.538,2.625-0.292,5-0.229,5.112c31.135,55.487,31.242,55.634,31.254,55.647
					c0.454,0.904,2.266,4.182,5.103,9.23C792.627,394.464,795.401,394.206,798.149,393.226z M793.689,391.911
					c0.188-0.517,0.571-1.256,1.287-2.248c0.055,0.079,0.111,0.16,0.16,0.229c0.396,0.539,1.053,1.343,1.601,1.797
					C795.527,392.071,794.309,392.247,793.689,391.911z M797.145,391.96l-0.008-0.008c0.002,0.002,0.005,0.002,0.008,0.002
					C797.143,391.957,797.145,391.958,797.145,391.96z M797.121,391.707c-0.357-0.237-1.016-0.864-1.807-1.944
					c-0.073-0.101-0.135-0.193-0.203-0.289c0.159-0.213,0.336-0.438,0.525-0.675c0.02,0.024,0.041,0.057,0.059,0.082
					c0.24,0.328,0.578,0.755,0.93,1.14c0.302,0.477,0.51,0.873,0.637,1.172C797.181,391.372,797.131,391.542,797.121,391.707z
					 M794.686,388.829c-0.602-0.975-0.795-1.598-0.694-1.672c0.089-0.064,0.529,0.23,1.154,0.914
					c0.021,0.034,0.041,0.064,0.063,0.098C795.021,388.398,794.846,388.618,794.686,388.829z M871.771,339.05l-34.532,25.281
					l-0.036,0.082c-0.425,0.977-2.202,2.651-4.261,4.592l-1.566,1.484c-3.883,3.696-12.016,9.781-12.093,9.839
					s-8.36,5.989-13.05,8.568l-1.922,1.063c-0.975,0.542-2.04,1.136-3.004,1.627c5.445-2.877,10.949-6.297,16.365-10.186
					c0.369-0.266,0.732-0.529,1.088-0.791c7.776-5.691,12.543-10.305,12.574-10.338c0.108-0.116,0.16-0.246,0.141-0.357
					c-0.014-0.078-0.06-0.14-0.127-0.175c-0.154-0.081-0.401-0.01-0.586,0.163c-0.046,0.045-4.793,4.607-12.431,10.198
					c-5.8,4.247-11.7,7.952-17.537,11.013c-0.033,0.019-0.065,0.038-0.096,0.061c-0.177,0.128-0.272,0.312-0.239,0.457
					c0.016,0.076,0.064,0.136,0.135,0.17c0.09,0.039,0.203,0.025,0.321-0.019c-1.353,0.667-2.437,1.074-2.658,0.751l-0.22-0.308
					c0.153-0.622,1.1-1.547,2.434-2.843c0.326-0.317,0.674-0.656,1.043-1.021c4.269-4.229,10.569-9.418,14.587-12.359
					c4.017-2.94,10.868-7.38,16.189-10.173c0.445-0.234,0.864-0.46,1.255-0.67c1.664-0.893,2.865-1.538,3.51-1.483l0.01-0.109
					l0.064,0.089l34.402-25.188L871.771,339.05z M800.892,391.563c-0.093,0.049-0.171,0.054-0.22,0.021
					c-0.012-0.052,0.061-0.193,0.225-0.275c5.846-3.067,11.755-6.778,17.564-11.031c7.648-5.6,12.408-10.174,12.453-10.217
					c0.12-0.113,0.271-0.16,0.346-0.109c0.006,0.032-0.02,0.1-0.086,0.17c-0.036,0.038-4.707,4.574-12.543,10.312
					c-0.356,0.261-0.72,0.524-1.088,0.789C812.033,385.181,806.431,388.66,800.892,391.563z M871.143,337.87l0.296,0.396
					l-34.411,25.193c-0.713-0.031-1.861,0.582-3.586,1.51c-0.39,0.209-0.809,0.434-1.254,0.667
					c-5.33,2.798-12.193,7.245-16.217,10.19c-4.023,2.946-10.334,8.145-14.611,12.381c-0.367,0.363-0.716,0.702-1.042,1.019
					c-1.271,1.235-2.165,2.108-2.441,2.774l-0.11-0.154c-0.174-0.464,1.016-1.62,2.394-2.957c0.324-0.314,0.672-0.653,1.037-1.015
					c4.265-4.226,10.553-9.405,14.56-12.339c4.008-2.935,10.848-7.365,16.164-10.154c0.456-0.24,0.883-0.469,1.281-0.684
					c1.427-0.767,2.553-1.371,3.189-1.443l0.088-0.01L871.143,337.87z M795.84,388.551c0.153-0.187,0.315-0.377,0.49-0.577
					c0.014,0.018,0.028,0.04,0.041,0.058c0.227,0.31,0.543,0.708,0.873,1.077c0.307,0.493,0.51,0.898,0.623,1.188
					c-0.099,0.117-0.195,0.231-0.275,0.34c-0.199-0.147-0.471-0.396-0.793-0.748c-0.19-0.301-0.385-0.584-0.55-0.811
					C796.133,388.921,795.991,388.738,795.84,388.551z M795.905,387.352c-0.194,0.219-0.373,0.429-0.544,0.634
					c-0.014-0.016-0.026-0.031-0.041-0.046c-0.661-1.043-0.877-1.715-0.773-1.791c0.092-0.067,0.558,0.247,1.216,0.978
					C795.81,387.202,795.857,387.277,795.905,387.352z M797.478,390.81c-0.03,0.047-0.065,0.093-0.091,0.138
					c-0.051-0.11-0.105-0.222-0.166-0.337C797.309,390.688,797.395,390.752,797.478,390.81z M796.549,387.728
					c0.156-0.177,0.324-0.359,0.498-0.547l0,0c0.227,0.309,0.539,0.703,0.867,1.07c0.34,0.548,0.554,0.985,0.658,1.279
					c-0.094,0.097-0.182,0.189-0.268,0.28c-0.215-0.151-0.521-0.427-0.89-0.837c-0.208-0.337-0.427-0.658-0.609-0.906
					C796.729,387.964,796.642,387.847,796.549,387.728z M796.623,386.565c-0.191,0.204-0.37,0.4-0.544,0.594
					c-0.049-0.057-0.097-0.112-0.146-0.168c-0.612-0.986-0.811-1.619-0.709-1.693c0.09-0.066,0.558,0.25,1.218,0.984
					C796.503,386.38,796.561,386.473,796.623,386.565z M798.16,389.964c-0.044,0.049-0.094,0.1-0.136,0.146
					c-0.053-0.13-0.116-0.266-0.189-0.406C797.948,389.808,798.057,389.893,798.16,389.964z M809.819,375.716
					c-0.013-0.018-0.029-0.038-0.043-0.057c0.192-0.15,0.38-0.299,0.566-0.443c0.023,0.031,0.049,0.068,0.07,0.098
					c0.214,0.291,0.503,0.658,0.811,1.005c0.381,0.628,0.582,1.097,0.649,1.361c-0.072,0.056-0.146,0.116-0.218,0.173
					c-0.233-0.143-0.625-0.484-1.11-1.04C810.303,376.407,810.035,376.011,809.819,375.716z M809.072,374.784
					c-0.527-0.887-0.694-1.449-0.6-1.518c0.084-0.062,0.568,0.254,1.273,1.046c0.062,0.102,0.123,0.202,0.186,0.3
					c-0.199,0.155-0.398,0.312-0.603,0.474C809.245,374.985,809.16,374.886,809.072,374.784z M811.525,374.5
					c-0.029-0.038-0.063-0.083-0.095-0.123c0.197-0.149,0.389-0.294,0.576-0.435c0.036,0.052,0.075,0.108,0.109,0.154
					c0.214,0.292,0.508,0.661,0.816,1.012c0.342,0.563,0.532,0.991,0.616,1.264c-0.088,0.067-0.177,0.137-0.266,0.205
					c-0.236-0.161-0.591-0.476-1.031-0.979C812.009,375.192,811.74,374.795,811.525,374.5z M810.776,373.565
					c-0.533-0.898-0.685-1.453-0.601-1.514s0.57,0.252,1.272,1.04c0.05,0.083,0.099,0.166,0.15,0.247
					c-0.202,0.15-0.407,0.305-0.618,0.465C810.914,373.725,810.846,373.646,810.776,373.565z M813.992,372.661
					c-0.023-0.029-0.052-0.066-0.076-0.098c0.193-0.136,0.389-0.271,0.591-0.411c0.015,0.021,0.032,0.046,0.046,0.065
					c0.217,0.296,0.516,0.672,0.828,1.025c0.355,0.585,0.549,1.025,0.629,1.298c-0.091,0.065-0.176,0.128-0.266,0.192
					c-0.234-0.159-0.588-0.473-1.024-0.971C814.477,373.355,814.209,372.958,813.992,372.661z M813.227,371.71
					c-0.527-0.886-0.693-1.447-0.599-1.518c0.084-0.061,0.565,0.251,1.261,1.029c0.069,0.112,0.137,0.223,0.207,0.33
					c-0.215,0.148-0.424,0.293-0.63,0.438C813.389,371.896,813.309,371.804,813.227,371.71z M815.666,371.403
					c-0.006-0.008-0.014-0.018-0.02-0.026c0.196-0.133,0.393-0.264,0.594-0.399c0.217,0.295,0.509,0.662,0.816,1.012
					c0.379,0.62,0.584,1.089,0.65,1.356c-0.08,0.056-0.158,0.11-0.239,0.167c-0.231-0.145-0.607-0.474-1.073-1.007
					C816.15,372.099,815.883,371.7,815.666,371.403z M814.9,370.451c-0.527-0.886-0.693-1.444-0.6-1.514
					c0.095-0.069,0.578,0.259,1.262,1.026c0.088,0.143,0.175,0.281,0.264,0.417c-0.214,0.142-0.421,0.281-0.629,0.421
					C815.101,370.684,815.003,370.569,814.9,370.451z M832.147,362.046c0.25-0.098,0.489-0.188,0.716-0.269
					c0.156,0.206,0.334,0.429,0.529,0.655c0.291,0.496,0.463,0.882,0.539,1.132c-0.102,0.054-0.211,0.111-0.318,0.169
					c-0.248-0.179-0.611-0.516-1.05-1.027C832.43,362.478,832.286,362.255,832.147,362.046z M831.109,360.678
					c-0.494-0.843-0.652-1.379-0.561-1.445c0.102-0.073,0.644,0.306,1.4,1.188c0.152,0.257,0.314,0.512,0.471,0.741
					c-0.224,0.082-0.461,0.175-0.703,0.273C831.543,361.204,831.336,360.942,831.109,360.678z M833.961,363.054
					c0.118,0.117,0.235,0.225,0.347,0.317c-0.061,0.031-0.125,0.063-0.188,0.096C834.082,363.341,834.029,363.202,833.961,363.054z
					 M833.406,363.843c-0.084,0.045-0.172,0.093-0.259,0.139c-0.035-0.154-0.108-0.342-0.198-0.537
					C833.109,363.602,833.26,363.732,833.406,363.843z M831.158,362.457c0.242-0.106,0.469-0.199,0.691-0.29
					c0.156,0.205,0.334,0.428,0.527,0.653c0.352,0.603,0.526,1.04,0.571,1.269c-0.021,0.011-0.037,0.02-0.058,0.03
					c-0.051,0.027-0.113,0.06-0.165,0.089c-0.232-0.139-0.622-0.476-1.107-1.031C831.467,362.927,831.31,362.678,831.158,362.457z
					 M830.14,361.145c-0.532-0.892-0.7-1.457-0.604-1.526c0.088-0.064,0.63,0.295,1.397,1.188c0.155,0.262,0.321,0.52,0.479,0.754
					c-0.225,0.094-0.451,0.188-0.691,0.295C830.55,361.63,830.352,361.388,830.14,361.145z M832.518,364.319
					c-0.094,0.049-0.191,0.102-0.287,0.152c-0.043-0.168-0.122-0.363-0.221-0.57C832.188,364.073,832.359,364.215,832.518,364.319z
					 M830.191,362.901c0.232-0.11,0.454-0.211,0.672-0.31c0.17,0.222,0.367,0.463,0.576,0.704c0.346,0.578,0.537,1.02,0.602,1.275
					c-0.091,0.049-0.176,0.096-0.271,0.146c-0.234-0.155-0.598-0.478-1.046-0.993C830.547,363.433,830.364,363.148,830.191,362.901z
					 M829.244,361.691c-0.531-0.892-0.701-1.454-0.606-1.523c0.098-0.071,0.606,0.276,1.324,1.098
					c0.152,0.253,0.312,0.502,0.464,0.726c-0.221,0.1-0.439,0.199-0.676,0.312C829.598,362.106,829.424,361.897,829.244,361.691z
					 M831.564,364.826c-0.082,0.043-0.166,0.089-0.25,0.133c-0.044-0.153-0.112-0.325-0.199-0.509
					C831.272,364.603,831.422,364.726,831.564,364.826z M829.231,363.368c0.222-0.111,0.444-0.221,0.663-0.326
					c0.186,0.247,0.408,0.525,0.65,0.802c0.321,0.54,0.506,0.954,0.582,1.216c-0.102,0.055-0.205,0.109-0.309,0.166
					c-0.25-0.179-0.619-0.521-1.067-1.045C829.584,363.896,829.402,363.616,829.231,363.368z M828.308,362.168
					c-0.497-0.848-0.657-1.385-0.565-1.452c0.098-0.071,0.607,0.276,1.324,1.097c0.132,0.219,0.268,0.431,0.4,0.628
					c-0.221,0.108-0.444,0.218-0.671,0.33C828.65,362.579,828.484,362.375,828.308,362.168z M830.612,365.335
					c-0.089,0.047-0.182,0.1-0.271,0.148c-0.034-0.16-0.107-0.353-0.202-0.56C830.305,365.088,830.462,365.222,830.612,365.335z
					 M828.288,363.845c0.216-0.111,0.437-0.226,0.65-0.333c0.176,0.237,0.396,0.514,0.632,0.792
					c0.362,0.617,0.543,1.062,0.578,1.287c-0.068,0.037-0.135,0.074-0.203,0.111c-0.227-0.125-0.623-0.461-1.131-1.04
					C828.642,364.372,828.458,364.092,828.288,363.845z M827.333,362.623c-0.532-0.888-0.698-1.452-0.604-1.521
					c0.089-0.065,0.631,0.298,1.401,1.194c0.126,0.213,0.256,0.417,0.388,0.613c-0.221,0.111-0.444,0.228-0.669,0.342
					C827.694,363.05,827.516,362.835,827.333,362.623z M829.736,365.819c-0.102,0.055-0.201,0.109-0.302,0.166
					c-0.041-0.174-0.125-0.381-0.229-0.6C829.392,365.565,829.571,365.715,829.736,365.819z M827.348,364.334
					c0.218-0.114,0.435-0.229,0.648-0.34c0.184,0.243,0.403,0.517,0.641,0.788c0.363,0.609,0.555,1.063,0.607,1.311
					c-0.076,0.045-0.154,0.089-0.232,0.133c-0.231-0.143-0.617-0.475-1.101-1.027C827.725,364.888,827.527,364.591,827.348,364.334z
					 M826.441,363.178c-0.54-0.907-0.693-1.466-0.609-1.526c0.098-0.071,0.605,0.273,1.32,1.092
					c0.137,0.228,0.277,0.448,0.416,0.652c-0.218,0.113-0.438,0.23-0.658,0.348C826.767,363.561,826.605,363.368,826.441,363.178z
					 M828.805,366.343c-0.092,0.053-0.184,0.104-0.275,0.156c-0.045-0.166-0.123-0.359-0.221-0.565
					C828.482,366.102,828.65,366.24,828.805,366.343z M826.417,364.832c0.216-0.116,0.428-0.229,0.642-0.344
					c0.19,0.253,0.425,0.547,0.676,0.837c0.352,0.59,0.54,1.031,0.604,1.285c-0.085,0.049-0.17,0.099-0.255,0.146
					c-0.236-0.15-0.604-0.475-1.062-0.998C826.82,365.424,826.608,365.102,826.417,364.832z M825.539,363.721
					c-0.529-0.891-0.697-1.454-0.602-1.523c0.096-0.07,0.604,0.276,1.322,1.097c0.123,0.207,0.25,0.406,0.376,0.594
					c-0.219,0.117-0.438,0.236-0.659,0.355C825.84,364.073,825.693,363.896,825.539,363.721z M827.885,366.874
					c-0.086,0.05-0.173,0.1-0.26,0.15c-0.045-0.161-0.119-0.346-0.212-0.543C827.578,366.641,827.736,366.772,827.885,366.874z
					 M825.492,365.338c0.213-0.117,0.423-0.231,0.636-0.349c0.195,0.265,0.446,0.58,0.716,0.89c0.338,0.565,0.526,0.995,0.596,1.254
					c-0.09,0.053-0.182,0.106-0.271,0.16c-0.234-0.154-0.593-0.472-1.035-0.978C825.92,365.961,825.691,365.618,825.492,365.338z
					 M824.639,364.263c-0.526-0.886-0.692-1.447-0.598-1.516c0.097-0.07,0.604,0.275,1.32,1.094c0.114,0.189,0.23,0.373,0.347,0.549
					c-0.219,0.121-0.438,0.24-0.659,0.363C824.921,364.592,824.783,364.427,824.639,364.263z M826.971,367.41
					c-0.081,0.05-0.164,0.099-0.247,0.147c-0.045-0.157-0.115-0.335-0.206-0.525C826.677,367.185,826.828,367.311,826.971,367.41z
					 M824.572,365.856c0.21-0.119,0.42-0.238,0.629-0.355c0.201,0.273,0.468,0.607,0.751,0.933c0.329,0.553,0.517,0.976,0.586,1.233
					c-0.092,0.056-0.185,0.11-0.278,0.166c-0.235-0.159-0.594-0.479-1.034-0.984C825.006,366.485,824.773,366.137,824.572,365.856z
					 M823.751,364.823c-0.533-0.895-0.702-1.459-0.606-1.528c0.085-0.062,0.592,0.267,1.321,1.095
					c0.104,0.176,0.212,0.346,0.319,0.51c-0.219,0.123-0.438,0.248-0.659,0.373C824.009,365.124,823.882,364.974,823.751,364.823z
					 M826.066,367.951c-0.082,0.049-0.161,0.097-0.242,0.146c-0.045-0.156-0.115-0.332-0.204-0.52
					C825.775,367.728,825.925,367.851,826.066,367.951z M823.659,366.379c0.208-0.121,0.417-0.241,0.625-0.361
					c0.001,0.003,0.005,0.009,0.009,0.012c0.199,0.273,0.469,0.613,0.754,0.941c0.332,0.555,0.521,0.978,0.595,1.237
					c-0.093,0.057-0.187,0.113-0.279,0.17c-0.237-0.16-0.592-0.478-1.03-0.979C824.107,367.024,823.866,366.665,823.659,366.379z
					 M822.854,365.367c-0.531-0.892-0.701-1.457-0.604-1.526c0.096-0.07,0.606,0.278,1.325,1.104
					c0.098,0.161,0.195,0.319,0.296,0.473c-0.22,0.125-0.438,0.253-0.655,0.38C823.099,365.655,822.979,365.511,822.854,365.367z
					 M825.168,368.496c-0.081,0.05-0.16,0.099-0.239,0.147c-0.046-0.156-0.114-0.33-0.204-0.518
					C824.879,368.274,825.027,368.397,825.168,368.496z M822.751,366.907c0.206-0.121,0.415-0.242,0.622-0.364
					c0.008,0.011,0.016,0.024,0.023,0.033c0.199,0.273,0.47,0.614,0.758,0.943c0.33,0.554,0.518,0.978,0.59,1.238
					c-0.09,0.055-0.182,0.111-0.271,0.168c-0.235-0.159-0.593-0.476-1.039-0.983C823.205,367.562,822.959,367.195,822.751,366.907z
					 M821.959,365.915c-0.539-0.906-0.691-1.464-0.607-1.525c0.098-0.07,0.606,0.277,1.324,1.1c0.094,0.155,0.189,0.306,0.285,0.453
					c-0.219,0.128-0.438,0.256-0.657,0.385C822.194,366.19,822.08,366.054,821.959,365.915z M824.273,369.048
					c-0.08,0.049-0.16,0.1-0.24,0.148c-0.045-0.156-0.113-0.332-0.205-0.522C823.984,368.825,824.133,368.948,824.273,369.048z
					 M821.846,367.444c0.206-0.123,0.414-0.246,0.621-0.368c0.011,0.016,0.023,0.033,0.033,0.048
					c0.201,0.275,0.473,0.615,0.761,0.947c0.331,0.557,0.519,0.98,0.589,1.24c-0.09,0.058-0.18,0.114-0.271,0.172
					c-0.235-0.158-0.593-0.477-1.036-0.982C822.311,368.112,822.057,367.734,821.846,367.444z M821.059,366.459
					c-0.53-0.888-0.697-1.45-0.604-1.519c0.098-0.071,0.605,0.272,1.323,1.091c0.09,0.152,0.183,0.3,0.276,0.443
					c-0.219,0.13-0.438,0.259-0.656,0.39C821.29,366.729,821.177,366.597,821.059,366.459z M823.387,369.603
					c-0.082,0.052-0.162,0.104-0.244,0.154c-0.045-0.159-0.117-0.34-0.209-0.533C823.093,369.376,823.244,369.503,823.387,369.603z
					 M820.946,367.987c0.205-0.123,0.411-0.248,0.616-0.372c0.014,0.019,0.028,0.04,0.041,0.058c0.2,0.273,0.471,0.613,0.758,0.943
					c0.34,0.573,0.524,1.004,0.593,1.26c-0.087,0.055-0.171,0.109-0.257,0.164c-0.235-0.153-0.598-0.475-1.047-0.988
					C821.414,368.66,821.159,368.28,820.946,367.987z M820.161,367.006c-0.528-0.888-0.695-1.45-0.601-1.519
					c0.086-0.063,0.594,0.268,1.324,1.1c0.087,0.146,0.176,0.288,0.267,0.427c-0.217,0.132-0.436,0.263-0.651,0.396
					C820.392,367.274,820.279,367.142,820.161,367.006z M822.506,370.161c-0.084,0.055-0.169,0.108-0.254,0.164
					c-0.044-0.164-0.119-0.352-0.215-0.553C822.203,369.931,822.36,370.061,822.506,370.161z M820.052,368.538
					c0.204-0.126,0.407-0.252,0.612-0.377c0.013,0.019,0.029,0.041,0.043,0.061c0.201,0.274,0.474,0.617,0.764,0.949
					c0.344,0.576,0.533,1.017,0.6,1.27c-0.084,0.055-0.167,0.107-0.25,0.161c-0.234-0.149-0.607-0.479-1.072-1.01
					C820.515,369.204,820.263,368.827,820.052,368.538z M819.271,367.56c-0.533-0.892-0.702-1.455-0.606-1.525
					s0.604,0.274,1.318,1.092c0.089,0.148,0.178,0.292,0.271,0.432c-0.218,0.135-0.433,0.268-0.647,0.4
					C819.498,367.826,819.387,367.693,819.271,367.56z M821.632,370.725c-0.09,0.058-0.179,0.116-0.269,0.173
					c-0.042-0.17-0.123-0.367-0.223-0.578C821.313,370.483,821.479,370.621,821.632,370.725z M819.159,369.094
					c0.204-0.128,0.407-0.255,0.612-0.383c0.014,0.019,0.029,0.041,0.041,0.06c0.199,0.271,0.469,0.609,0.754,0.938
					c0.363,0.611,0.552,1.064,0.608,1.312c-0.074,0.049-0.15,0.098-0.226,0.146c-0.233-0.143-0.624-0.484-1.107-1.039
					C819.613,369.747,819.367,369.38,819.159,369.094z M818.381,368.118c-0.538-0.898-0.707-1.466-0.613-1.535
					c0.098-0.07,0.607,0.277,1.324,1.098c0.088,0.146,0.177,0.289,0.268,0.43c-0.217,0.135-0.431,0.271-0.645,0.405
					C818.607,368.384,818.497,368.251,818.381,368.118z M820.762,371.29c-0.096,0.062-0.188,0.125-0.283,0.188
					c-0.043-0.177-0.13-0.39-0.237-0.615C820.424,371.039,820.602,371.185,820.762,371.29z M818.275,369.655
					c0.201-0.129,0.404-0.258,0.608-0.387c0.011,0.015,0.022,0.033,0.034,0.049c0.197,0.27,0.465,0.606,0.749,0.934
					c0.386,0.643,0.577,1.11,0.622,1.352c-0.066,0.044-0.134,0.088-0.199,0.132c-0.226-0.124-0.623-0.46-1.129-1.038
					C818.732,370.313,818.483,369.944,818.275,369.655z M817.472,368.649c-0.527-0.886-0.693-1.448-0.6-1.518
					c0.098-0.071,0.611,0.281,1.332,1.109c0.089,0.146,0.177,0.287,0.268,0.427c-0.214,0.136-0.431,0.271-0.643,0.407
					C817.717,368.935,817.597,368.792,817.472,368.649z M819.896,371.861c-0.104,0.07-0.204,0.137-0.306,0.206
					c-0.038-0.186-0.127-0.409-0.241-0.65C819.543,371.603,819.729,371.759,819.896,371.861z M817.391,370.224
					c0.199-0.129,0.402-0.261,0.605-0.391c0.008,0.01,0.016,0.023,0.022,0.031c0.201,0.275,0.474,0.619,0.765,0.951
					c0.402,0.676,0.59,1.155,0.616,1.38c-0.053,0.035-0.104,0.069-0.158,0.106c-0.212-0.103-0.634-0.442-1.19-1.078
					C817.831,370.857,817.595,370.504,817.391,370.224z M816.583,369.206c-0.534-0.893-0.702-1.457-0.607-1.526
					c0.098-0.071,0.604,0.272,1.317,1.089c0.095,0.159,0.193,0.314,0.291,0.465c-0.212,0.137-0.428,0.273-0.637,0.41
					C816.833,369.498,816.71,369.354,816.583,369.206z M819.037,372.437c-0.114,0.078-0.227,0.154-0.341,0.232
					c-0.028-0.196-0.117-0.438-0.245-0.709C818.659,372.161,818.861,372.333,819.037,372.437z M816.517,370.797
					c0.197-0.132,0.397-0.263,0.601-0.394c0.002,0.002,0.005,0.006,0.007,0.009c0.2,0.273,0.469,0.612,0.755,0.94
					c0.438,0.734,0.63,1.246,0.631,1.443c-0.039,0.027-0.078,0.053-0.117,0.08c-0.187-0.063-0.609-0.396-1.167-1.021
					c-0.225-0.369-0.466-0.728-0.665-0.998C816.548,370.838,816.53,370.815,816.517,370.797z M816.705,369.803
					c-0.217,0.14-0.43,0.28-0.639,0.419c-0.107-0.131-0.219-0.262-0.336-0.393c-0.57-0.936-0.748-1.529-0.652-1.602
					c0.098-0.071,0.609,0.277,1.328,1.102C816.504,369.492,816.604,369.649,816.705,369.803z M818.199,373.009
					c-0.104,0.069-0.211,0.143-0.312,0.213c-0.052-0.189-0.141-0.408-0.255-0.642C817.835,372.77,818.029,372.921,818.199,373.009z
					 M817.285,373.64c-0.091,0.062-0.186,0.127-0.274,0.19c-0.041-0.176-0.126-0.386-0.231-0.606
					C816.958,373.396,817.129,373.535,817.285,373.64z M814.777,371.967c0.195-0.135,0.392-0.269,0.595-0.405
					c0.024,0.035,0.052,0.076,0.076,0.109c0.202,0.275,0.476,0.62,0.765,0.952c0.381,0.64,0.569,1.103,0.609,1.341
					c-0.062,0.044-0.123,0.087-0.186,0.131c-0.213-0.112-0.593-0.43-1.08-0.978c-0.228-0.372-0.47-0.731-0.669-1.005
					C814.855,372.068,814.813,372.016,814.777,371.967z M814.962,370.959c-0.218,0.147-0.427,0.291-0.638,0.435
					c-0.087-0.104-0.18-0.21-0.272-0.313c-0.565-0.933-0.743-1.522-0.646-1.594s0.603,0.271,1.314,1.083
					C814.799,370.702,814.88,370.832,814.962,370.959z M816.447,374.229c-0.083,0.06-0.172,0.122-0.254,0.18
					c-0.054-0.172-0.131-0.362-0.233-0.568C816.133,374,816.299,374.138,816.447,374.229z M815.565,374.862
					c-0.063,0.047-0.134,0.097-0.196,0.143c-0.016,0.012-0.032,0.023-0.047,0.033c-0.043-0.164-0.121-0.354-0.217-0.557
					C815.267,374.634,815.421,374.762,815.565,374.862z M813.113,373.134c0.175-0.127,0.353-0.253,0.536-0.383
					c0.041,0.06,0.085,0.125,0.125,0.178c0.202,0.276,0.476,0.62,0.765,0.953c0.354,0.592,0.545,1.039,0.604,1.29
					c-0.071,0.053-0.146,0.106-0.218,0.161c-0.189-0.111-0.487-0.364-0.857-0.755c-0.27-0.474-0.59-0.951-0.841-1.295
					C813.193,373.237,813.152,373.183,813.113,373.134z M813.242,372.147c-0.199,0.141-0.393,0.277-0.58,0.414
					c-0.144-0.172-0.293-0.342-0.445-0.504c-0.433-0.766-0.572-1.251-0.484-1.314c0.097-0.071,0.602,0.271,1.314,1.085
					C813.111,371.936,813.175,372.044,813.242,372.147z M814.746,375.466c-0.067,0.05-0.133,0.098-0.2,0.149
					c-0.039-0.132-0.096-0.275-0.166-0.432C814.509,375.297,814.632,375.395,814.746,375.466z M814.369,375.749
					c-0.08,0.06-0.161,0.121-0.241,0.183c-0.226-0.142-0.579-0.455-1.019-0.948c-0.229-0.375-0.473-0.736-0.674-1.011
					c-0.05-0.068-0.11-0.146-0.17-0.223c0.095-0.069,0.193-0.145,0.285-0.211c0.079-0.059,0.166-0.119,0.247-0.179
					c0.026,0.038,0.056,0.081,0.081,0.115c0.259,0.354,0.632,0.82,1.014,1.229C814.152,375.165,814.309,375.524,814.369,375.749z
					 M812.388,372.759c-0.087,0.062-0.182,0.13-0.267,0.191c-0.101,0.074-0.207,0.154-0.311,0.23
					c-0.064-0.076-0.131-0.152-0.197-0.229c-0.564-0.928-0.74-1.518-0.643-1.589c0.084-0.062,0.487,0.204,1.066,0.819
					C812.148,372.378,812.266,372.569,812.388,372.759z M813.952,376.063c-0.075,0.058-0.147,0.111-0.223,0.17
					c-0.053-0.161-0.125-0.337-0.218-0.525C813.666,375.853,813.815,375.974,813.952,376.063z M813.105,376.715
					c-0.082,0.062-0.16,0.122-0.242,0.186c-0.041-0.167-0.121-0.362-0.219-0.57C812.805,376.485,812.959,376.612,813.105,376.715z
					 M810.599,375.017c0.195-0.152,0.385-0.299,0.573-0.443c0.052,0.073,0.105,0.15,0.152,0.215c0.199,0.271,0.467,0.61,0.753,0.938
					c0.37,0.622,0.559,1.077,0.604,1.317c-0.061,0.047-0.123,0.098-0.186,0.145c-0.217-0.113-0.602-0.436-1.096-0.994
					c-0.229-0.372-0.471-0.732-0.67-1.006C810.691,375.136,810.643,375.074,810.599,375.017z M810.767,373.968
					c-0.204,0.156-0.409,0.314-0.62,0.478c-0.076-0.091-0.154-0.18-0.234-0.27c-0.566-0.933-0.744-1.526-0.647-1.597
					s0.608,0.277,1.327,1.102C810.648,373.776,810.707,373.872,810.767,373.968z M812.316,377.33
					c-0.088,0.068-0.174,0.136-0.264,0.206c-0.052-0.182-0.136-0.389-0.247-0.613C811.986,377.091,812.162,377.237,812.316,377.33z
					 M811.484,377.988c-0.103,0.082-0.203,0.162-0.307,0.244c-0.029-0.192-0.117-0.429-0.24-0.69
					C811.131,377.728,811.316,377.882,811.484,377.988z M808.957,376.312c0.192-0.153,0.377-0.3,0.564-0.449
					c0.031,0.046,0.067,0.098,0.099,0.139c0.197,0.271,0.464,0.606,0.747,0.931c0.45,0.757,0.637,1.273,0.624,1.452
					c-0.029,0.021-0.057,0.044-0.084,0.066c-0.166-0.03-0.608-0.362-1.208-1.038c-0.229-0.375-0.471-0.736-0.672-1.009
					C809.007,376.377,808.979,376.343,808.957,376.312z M809.111,375.259c-0.199,0.16-0.398,0.316-0.604,0.481
					c-0.097-0.118-0.197-0.233-0.301-0.353c-0.564-0.931-0.742-1.521-0.646-1.592c0.097-0.07,0.61,0.281,1.333,1.109
					C808.966,375.025,809.038,375.144,809.111,375.259z M810.728,378.597c-0.114,0.092-0.229,0.186-0.346,0.279
					c-0.042-0.207-0.144-0.462-0.279-0.738C810.332,378.351,810.544,378.513,810.728,378.597z M810.195,379.026
					c-0.042,0.034-0.084,0.068-0.125,0.102c-0.193-0.071-0.611-0.402-1.162-1.023c-0.229-0.375-0.473-0.737-0.673-1.012
					c-0.028-0.037-0.062-0.081-0.091-0.119c0.188-0.153,0.373-0.303,0.558-0.453c0.003,0.003,0.005,0.006,0.007,0.009
					c0.215,0.292,0.51,0.664,0.82,1.015C809.98,378.289,810.181,378.809,810.195,379.026z M808.289,375.918
					c-0.197,0.159-0.395,0.32-0.595,0.483c-0.092-0.11-0.187-0.22-0.284-0.329c-0.562-0.928-0.74-1.516-0.643-1.587
					c0.096-0.069,0.582,0.262,1.271,1.037C808.121,375.658,808.204,375.79,808.289,375.918z M809.896,379.271
					c-0.104,0.086-0.208,0.172-0.311,0.258c-0.047-0.199-0.148-0.441-0.275-0.699C809.523,379.026,809.724,379.183,809.896,379.271z
					 M809.397,379.683c-0.05,0.04-0.098,0.08-0.147,0.12c-0.203-0.089-0.606-0.414-1.135-1.007c-0.229-0.377-0.473-0.74-0.674-1.015
					c-0.031-0.043-0.07-0.093-0.106-0.139c0.187-0.155,0.372-0.309,0.556-0.46c0.009,0.01,0.018,0.023,0.025,0.035
					c0.217,0.294,0.512,0.667,0.824,1.02C809.17,378.946,809.368,379.448,809.397,379.683z M807.478,376.579
					c-0.196,0.16-0.395,0.328-0.593,0.492c-0.088-0.105-0.178-0.209-0.27-0.312c-0.562-0.928-0.738-1.516-0.642-1.587
					c0.095-0.069,0.581,0.261,1.269,1.034C807.321,376.334,807.398,376.457,807.478,376.579z M809.076,379.946
					c-0.098,0.082-0.197,0.164-0.294,0.244c-0.048-0.193-0.144-0.426-0.265-0.673C808.717,379.704,808.906,379.856,809.076,379.946z
					 M808.6,380.343c-0.054,0.045-0.107,0.091-0.162,0.135c-0.207-0.102-0.602-0.418-1.12-1c-0.227-0.372-0.47-0.733-0.669-1.006
					c-0.035-0.048-0.079-0.104-0.118-0.155c0.185-0.156,0.37-0.312,0.552-0.464c0.014,0.018,0.027,0.038,0.039,0.055
					c0.217,0.296,0.514,0.669,0.826,1.023C808.359,379.61,808.559,380.099,808.6,380.343z M806.67,377.25
					c-0.196,0.163-0.393,0.329-0.591,0.495c-0.079-0.097-0.164-0.19-0.249-0.287c-0.573-0.948-0.736-1.533-0.65-1.597
					c0.094-0.069,0.581,0.26,1.267,1.032C806.521,377.015,806.594,377.134,806.67,377.25z M808.259,380.628
					c-0.093,0.077-0.185,0.154-0.277,0.232c-0.048-0.19-0.14-0.414-0.259-0.652C807.914,380.384,808.098,380.536,808.259,380.628z
					 M807.803,381.013c-0.059,0.049-0.118,0.099-0.177,0.15c-0.212-0.109-0.6-0.431-1.097-0.99
					c-0.229-0.375-0.473-0.738-0.674-1.013c-0.037-0.052-0.084-0.109-0.125-0.165c0.186-0.156,0.367-0.312,0.55-0.468
					c0.016,0.022,0.033,0.048,0.048,0.069c0.217,0.295,0.512,0.666,0.824,1.019C807.555,380.279,807.754,380.761,807.803,381.013z
					 M805.867,377.925c-0.195,0.166-0.392,0.332-0.588,0.499c-0.081-0.096-0.166-0.191-0.25-0.287
					c-0.562-0.927-0.738-1.515-0.641-1.585c0.094-0.07,0.58,0.26,1.267,1.033C805.726,377.7,805.796,377.813,805.867,377.925z
					 M807.453,381.31c-0.09,0.076-0.18,0.149-0.268,0.226c-0.051-0.188-0.139-0.405-0.254-0.64
					C807.115,381.065,807.295,381.218,807.453,381.31z M807.009,381.688c-0.062,0.051-0.124,0.104-0.184,0.156
					c-0.212-0.114-0.593-0.427-1.086-0.979c-0.229-0.378-0.476-0.743-0.678-1.019c-0.038-0.051-0.084-0.11-0.127-0.166
					c0.184-0.159,0.366-0.315,0.548-0.472c0.018,0.024,0.037,0.054,0.053,0.076c0.217,0.295,0.514,0.669,0.826,1.021
					C806.754,380.956,806.955,381.432,807.009,381.688z M805.07,378.605c-0.196,0.168-0.392,0.334-0.588,0.503
					c-0.08-0.096-0.164-0.19-0.248-0.285c-0.568-0.941-0.727-1.521-0.642-1.584c0.095-0.069,0.581,0.261,1.269,1.032
					C804.93,378.385,804.998,378.496,805.07,378.605z M806.65,381.995c-0.086,0.075-0.174,0.149-0.26,0.224
					c-0.049-0.185-0.137-0.399-0.25-0.63C806.32,381.757,806.496,381.903,806.65,381.995z M806.215,382.371
					c-0.062,0.054-0.122,0.106-0.184,0.159c-0.213-0.116-0.596-0.43-1.092-0.984c-0.229-0.375-0.471-0.736-0.672-1.009
					c-0.036-0.05-0.082-0.108-0.123-0.163c0.181-0.16,0.361-0.318,0.542-0.477c0.019,0.025,0.038,0.055,0.055,0.077
					c0.219,0.298,0.519,0.677,0.834,1.032C805.96,381.645,806.158,382.114,806.215,382.371z M804.274,379.292
					c-0.194,0.17-0.389,0.339-0.582,0.51c-0.079-0.094-0.162-0.188-0.244-0.28c-0.571-0.946-0.732-1.531-0.647-1.594
					c0.096-0.069,0.578,0.259,1.262,1.024C804.132,379.068,804.202,379.182,804.274,379.292z M805.858,382.681
					c-0.087,0.076-0.174,0.152-0.259,0.229c-0.052-0.188-0.139-0.402-0.254-0.636C805.527,382.443,805.701,382.589,805.858,382.681z
					 M805.423,383.063c-0.062,0.053-0.124,0.106-0.184,0.16c-0.217-0.115-0.604-0.438-1.101-0.998c-0.226-0.37-0.467-0.729-0.666-1
					c-0.033-0.047-0.076-0.102-0.116-0.152c0.181-0.161,0.36-0.323,0.541-0.484c0.017,0.024,0.035,0.052,0.052,0.073
					c0.217,0.296,0.514,0.671,0.827,1.025C805.168,382.333,805.368,382.808,805.423,383.063z M803.483,379.985
					c-0.192,0.171-0.386,0.343-0.577,0.517c-0.079-0.096-0.162-0.188-0.244-0.282c-0.571-0.938-0.75-1.532-0.652-1.604
					c0.094-0.068,0.578,0.26,1.264,1.031C803.343,379.761,803.412,379.874,803.483,379.985z M805.072,383.372
					c-0.09,0.079-0.177,0.158-0.266,0.236c-0.05-0.19-0.141-0.414-0.26-0.653C804.732,383.129,804.912,383.279,805.072,383.372z
					 M804.63,383.767c-0.058,0.051-0.115,0.101-0.173,0.152c-0.212-0.106-0.603-0.43-1.105-0.996
					c-0.228-0.375-0.471-0.735-0.671-1.009c-0.03-0.042-0.069-0.093-0.104-0.138c0.18-0.162,0.357-0.324,0.538-0.486
					c0.013,0.02,0.029,0.042,0.042,0.061c0.213,0.291,0.504,0.658,0.812,1.006C804.376,383.025,804.58,383.513,804.63,383.767z
					 M802.701,380.685c-0.193,0.173-0.385,0.347-0.575,0.52c-0.087-0.104-0.177-0.204-0.266-0.307
					c-0.564-0.932-0.741-1.521-0.646-1.592c0.095-0.068,0.584,0.264,1.275,1.044C802.56,380.464,802.629,380.575,802.701,380.685z
					 M804.289,384.068c-0.09,0.082-0.18,0.163-0.269,0.245c-0.048-0.193-0.143-0.42-0.263-0.665
					C803.946,383.824,804.129,383.976,804.289,384.068z M803.841,384.476c-0.052,0.047-0.104,0.094-0.155,0.142
					c-0.207-0.097-0.604-0.419-1.121-1.001c-0.229-0.377-0.474-0.74-0.675-1.016c-0.025-0.036-0.06-0.078-0.088-0.115
					c0.177-0.164,0.354-0.324,0.532-0.487c0.01,0.013,0.02,0.027,0.028,0.04c0.216,0.294,0.51,0.665,0.821,1.018
					C803.6,383.739,803.8,384.23,803.841,384.476z M801.919,381.392c-0.19,0.174-0.381,0.346-0.568,0.52
					c-0.093-0.111-0.19-0.223-0.288-0.334c-0.561-0.926-0.735-1.513-0.639-1.584c0.094-0.068,0.581,0.263,1.268,1.038
					C801.767,381.155,801.842,381.274,801.919,381.392z M803.521,384.767c-0.095,0.087-0.19,0.174-0.285,0.26
					c-0.046-0.197-0.145-0.436-0.27-0.688C803.165,384.522,803.355,384.675,803.521,384.767z M803.049,385.2
					c-0.042,0.04-0.084,0.079-0.128,0.119c-0.19-0.076-0.583-0.389-1.097-0.959c-0.211-0.338-0.428-0.659-0.61-0.909
					c-0.056-0.075-0.122-0.161-0.187-0.243c0.176-0.166,0.354-0.331,0.532-0.496c0.003,0.004,0.007,0.01,0.011,0.015
					c0.215,0.294,0.51,0.665,0.819,1.016C802.83,384.47,803.021,384.974,803.049,385.2z M801.144,382.104
					c-0.193,0.179-0.384,0.357-0.573,0.535c-0.076-0.09-0.154-0.18-0.234-0.27c-0.609-0.984-0.807-1.615-0.707-1.688
					c0.084-0.062,0.57,0.251,1.27,1.036C800.979,381.851,801.061,381.979,801.144,382.104z M802.761,385.468
					c-0.085,0.078-0.173,0.159-0.256,0.238c-0.062-0.188-0.147-0.395-0.263-0.617C802.431,385.257,802.605,385.39,802.761,385.468z
					 M802.336,385.864c-0.081,0.076-0.158,0.149-0.237,0.227c-0.226-0.147-0.575-0.455-1.007-0.943
					c-0.228-0.372-0.471-0.733-0.671-1.006c-0.047-0.063-0.104-0.137-0.157-0.207c0.176-0.168,0.348-0.334,0.526-0.503
					c0.227,0.31,0.538,0.701,0.864,1.063C802.031,385.106,802.249,385.575,802.336,385.864z M800.371,382.827
					c-0.189,0.178-0.376,0.357-0.562,0.536c-0.068-0.079-0.139-0.158-0.207-0.238c-0.566-0.932-0.744-1.522-0.647-1.593
					c0.092-0.067,0.557,0.247,1.212,0.975C800.234,382.616,800.303,382.722,800.371,382.827z M801.943,386.236
					c-0.072,0.069-0.146,0.138-0.217,0.207c-0.053-0.173-0.129-0.362-0.23-0.568C801.653,386.022,801.805,386.146,801.943,386.236z
					 M801.555,386.608c-0.071,0.068-0.139,0.133-0.207,0.201c-0.223-0.135-0.593-0.457-1.053-0.975
					c-0.228-0.372-0.47-0.732-0.67-1.006c-0.035-0.049-0.08-0.105-0.121-0.159c0.174-0.169,0.348-0.34,0.523-0.51
					c0.025,0.033,0.051,0.073,0.074,0.104c0.213,0.291,0.506,0.658,0.813,1.008C801.283,385.883,801.482,386.339,801.555,386.608z
					 M799.612,383.55c-0.189,0.182-0.376,0.365-0.562,0.547c-0.077-0.094-0.16-0.187-0.24-0.279
					c-0.568-0.935-0.746-1.525-0.649-1.597c0.095-0.07,0.582,0.262,1.271,1.037C799.492,383.357,799.551,383.454,799.612,383.55z
					 M801.195,386.958c-0.083,0.079-0.162,0.158-0.242,0.236c-0.051-0.186-0.139-0.402-0.253-0.631
					C800.875,386.726,801.044,386.864,801.195,386.958z M800.777,387.366c-0.014,0.014-0.03,0.027-0.044,0.042
					c-0.042,0.041-0.077,0.076-0.119,0.117c-0.202-0.101-0.57-0.403-1.046-0.928c-0.212-0.341-0.433-0.668-0.616-0.919
					c-0.06-0.081-0.13-0.174-0.2-0.264c0.17-0.171,0.344-0.343,0.518-0.514c0.014,0.016,0.027,0.037,0.039,0.054
					c0.213,0.29,0.504,0.656,0.81,1.004C800.523,386.628,800.725,387.112,800.777,387.366z M798.854,384.29
					c-0.19,0.187-0.379,0.371-0.563,0.557c-0.073-0.088-0.147-0.175-0.224-0.26c-0.605-0.979-0.799-1.604-0.698-1.678
					c0.084-0.061,0.571,0.254,1.273,1.045C798.713,384.069,798.781,384.181,798.854,384.29z M800.457,387.679
					c-0.077,0.076-0.15,0.146-0.227,0.22c-0.061-0.179-0.141-0.37-0.246-0.577C800.152,387.472,800.313,387.599,800.457,387.679z
					 M800.064,388.062c-0.08,0.079-0.166,0.164-0.243,0.238c-0.226-0.15-0.569-0.449-0.997-0.932c-0.227-0.37-0.468-0.729-0.666-1
					c-0.045-0.061-0.102-0.132-0.151-0.199c0.167-0.172,0.341-0.346,0.512-0.52c0.23,0.314,0.549,0.715,0.882,1.086
					C799.762,387.319,799.973,387.773,800.064,388.062z M798.098,385.04c-0.184,0.186-0.369,0.372-0.549,0.557
					c-0.066-0.079-0.134-0.155-0.202-0.231c-0.577-0.955-0.741-1.542-0.655-1.605c0.092-0.067,0.553,0.245,1.205,0.965
					C797.965,384.835,798.031,384.937,798.098,385.04z M799.666,388.452c-0.073,0.071-0.138,0.134-0.208,0.201
					c-0.052-0.168-0.126-0.353-0.227-0.553C799.385,388.242,799.529,388.362,799.666,388.452z M799.291,388.817
					c-0.07,0.068-0.148,0.145-0.217,0.211c-0.215-0.132-0.562-0.436-0.988-0.91c-0.207-0.334-0.424-0.652-0.605-0.899
					c-0.062-0.085-0.137-0.183-0.211-0.278c0.166-0.177,0.338-0.355,0.51-0.533c0.02,0.025,0.041,0.06,0.061,0.086
					c0.214,0.292,0.508,0.66,0.816,1.01C799.016,388.097,799.215,388.546,799.291,388.817z M797.36,385.792
					c-0.188,0.194-0.373,0.388-0.555,0.578c-0.063-0.074-0.126-0.147-0.191-0.221c-0.617-0.991-0.816-1.627-0.716-1.701
					c0.095-0.069,0.583,0.263,1.271,1.041C797.234,385.593,797.295,385.692,797.36,385.792z M798.924,389.179
					c-0.064,0.064-0.125,0.125-0.186,0.187c-0.062-0.161-0.137-0.332-0.23-0.514C798.654,388.983,798.795,389.099,798.924,389.179z
					 M835.387,362.87c-0.092,0.037-0.186,0.076-0.283,0.119c-0.162-0.478-0.52-1.096-0.872-1.631
					c0.651-0.165,1.155-0.237,1.531-0.255c0.099,0.507-0.058,1.093-0.43,1.77L835.387,362.87z M833.17,361.675
					c0.305-0.102,0.585-0.188,0.844-0.258c0.486,0.729,0.771,1.299,0.9,1.659c-0.127,0.059-0.259,0.122-0.395,0.188
					c-0.242-0.193-0.568-0.512-0.948-0.955C833.441,362.091,833.305,361.877,833.17,361.675z M832.129,360.298
					c-0.498-0.848-0.657-1.385-0.564-1.452c0.125-0.092,0.938,0.518,1.999,1.94c-0.259,0.076-0.535,0.165-0.83,0.268
					C832.562,360.824,832.354,360.562,832.129,360.298z M756.729,326.442c-0.009-0.014-0.789-1.501,0.203-3.193
					c1.473-2.508,3.915-5.756,10.862-10.842s10.781-6.434,13.615-7.079c1.879-0.429,3.066,0.727,3.099,0.758
					c0.062,0.065,1.028,1.099,2.626,2.805c-2.316,0.072-5.41,0.481-9.196,2.66c-4.778,2.747-5.589,3.341-7.37,4.645
					c-1.778,1.302-2.59,1.896-6.653,5.622c-3.22,2.951-4.544,5.779-5.313,7.963C757.461,327.749,756.773,326.521,756.729,326.442z
					 M793.078,391.307c-3.809-6.775-4.803-8.64-5.057-9.147c-0.074-0.147-0.075-0.146-0.091-0.161
					c-0.411-0.69-21.659-38.55-28.851-51.365c0.715-2.181,1.926-5.162,5.326-8.28c4.033-3.696,4.834-4.283,6.592-5.57
					c1.758-1.286,2.56-1.873,7.303-4.602c3.998-2.301,7.208-2.554,9.504-2.576c10.054,10.739,39.706,42.408,40.198,42.954
					c0.061,0.083,0.06,0.085,0.177,0.199c0.408,0.396,1.885,1.907,7.193,7.585c0.017,0.017,0.026,0.036,0.041,0.055
					c-0.438,0.043-0.977,0.143-1.626,0.322c-0.644-0.872-1.921-2.368-2.354-2.051c-0.188,0.137-0.09,0.535,0.125,1.008
					c-0.47-0.465-0.917-0.784-1.14-0.621c-0.187,0.137-0.091,0.533,0.122,1.004c-0.467-0.465-0.914-0.781-1.137-0.618
					c-0.2,0.147-0.078,0.585,0.165,1.098c-0.44-0.423-0.852-0.702-1.062-0.548c-0.198,0.145-0.077,0.583,0.166,1.095
					c-0.44-0.423-0.852-0.702-1.062-0.548c-0.188,0.139-0.09,0.536,0.124,1.008c-0.468-0.466-0.914-0.783-1.137-0.621
					c-0.2,0.146-0.079,0.584,0.164,1.096c-0.44-0.423-0.851-0.7-1.061-0.546c-0.199,0.146-0.078,0.583,0.164,1.094
					c-0.439-0.423-0.851-0.701-1.06-0.548c-0.2,0.146-0.08,0.585,0.163,1.097c-0.439-0.422-0.85-0.701-1.06-0.547
					c-0.2,0.146-0.079,0.582,0.161,1.092c-0.438-0.421-0.848-0.698-1.059-0.544c-0.198,0.146-0.076,0.584,0.166,1.096
					c-0.44-0.424-0.852-0.702-1.061-0.55c-0.201,0.147-0.079,0.585,0.165,1.097c-0.44-0.422-0.852-0.701-1.062-0.547
					c-0.198,0.145-0.079,0.583,0.165,1.095c-0.439-0.421-0.85-0.7-1.061-0.546c-0.199,0.146-0.078,0.582,0.163,1.094
					c-0.438-0.423-0.849-0.7-1.058-0.547c-0.201,0.146-0.08,0.584,0.162,1.095c-0.439-0.421-0.85-0.7-1.06-0.546
					c-0.198,0.146-0.079,0.584,0.165,1.096c-0.439-0.423-0.852-0.702-1.061-0.548c-0.199,0.146-0.076,0.586,0.168,1.101
					c-0.441-0.425-0.854-0.705-1.063-0.551c-0.199,0.145-0.081,0.582,0.161,1.092c-0.438-0.42-0.849-0.699-1.059-0.545
					c-0.199,0.146-0.077,0.584,0.166,1.097c-0.441-0.424-0.852-0.702-1.062-0.549c-0.212,0.154-0.067,0.636,0.207,1.188
					c-0.411-0.381-0.787-0.623-0.985-0.478c-0.199,0.145-0.079,0.581,0.162,1.09c-0.438-0.419-0.848-0.695-1.059-0.542
					c-0.211,0.154-0.066,0.633,0.206,1.183c-0.409-0.38-0.786-0.62-0.982-0.476c-0.2,0.146-0.081,0.583,0.161,1.094
					c-0.438-0.421-0.848-0.697-1.059-0.544c-0.188,0.138-0.089,0.536,0.125,1.011c-0.371-0.328-0.705-0.523-0.887-0.391
					c-0.21,0.154-0.068,0.629,0.201,1.176c-0.414-0.387-0.795-0.633-0.995-0.487c-0.197,0.146-0.08,0.577,0.157,1.082
					c-0.441-0.427-0.856-0.71-1.068-0.555c-0.21,0.153-0.068,0.63,0.203,1.177c-0.416-0.387-0.797-0.635-0.995-0.49
					c-0.198,0.146-0.08,0.58,0.159,1.088c-0.443-0.428-0.859-0.711-1.07-0.558c-0.21,0.154-0.068,0.629,0.201,1.177
					c-0.413-0.386-0.795-0.633-0.994-0.486c-0.209,0.152-0.068,0.627,0.2,1.172c-0.413-0.386-0.795-0.633-0.995-0.486
					c-0.209,0.153-0.069,0.629,0.202,1.176c-0.416-0.387-0.796-0.632-0.996-0.485c-0.209,0.152-0.067,0.628,0.202,1.174
					c-0.414-0.384-0.795-0.631-0.993-0.485c-0.21,0.154-0.069,0.629,0.2,1.174c-0.414-0.385-0.796-0.632-0.996-0.484
					c-0.209,0.152-0.068,0.625,0.199,1.169c-0.412-0.383-0.791-0.628-0.99-0.481c-0.211,0.152-0.069,0.629,0.199,1.173
					c-0.413-0.384-0.792-0.63-0.99-0.484c-0.212,0.154-0.068,0.632,0.202,1.181c-0.415-0.389-0.798-0.637-0.998-0.49
					c-0.21,0.153-0.067,0.629,0.202,1.174c-0.414-0.385-0.794-0.632-0.992-0.486c-0.21,0.152-0.07,0.627,0.198,1.172
					c-0.413-0.385-0.794-0.631-0.993-0.484c-0.223,0.162-0.055,0.685,0.246,1.271c-0.385-0.345-0.734-0.559-0.922-0.421
					c-0.209,0.153-0.066,0.629,0.201,1.177c-0.414-0.387-0.795-0.635-0.994-0.488c-0.211,0.153-0.069,0.631,0.202,1.178
					c-0.415-0.387-0.796-0.635-0.994-0.489c-0.223,0.163-0.057,0.683,0.243,1.271c-0.384-0.346-0.732-0.558-0.922-0.42
					c-0.208,0.152-0.066,0.63,0.204,1.178c-0.414-0.387-0.797-0.635-0.996-0.489c-0.223,0.162-0.052,0.687,0.252,1.276
					c-0.388-0.349-0.738-0.564-0.927-0.427c-0.223,0.163-0.053,0.686,0.248,1.273c-0.385-0.347-0.735-0.562-0.925-0.423
					c-0.235,0.172-0.028,0.748,0.308,1.379c-0.362-0.314-0.685-0.5-0.863-0.369c-0.318,0.232,0.158,1.191,0.686,2.033
					c-0.723,0.968-1.17,1.744-1.429,2.348C793.105,391.343,793.09,391.328,793.078,391.307z"/>
				<path fill="#FFFFFF" d="M829.599,367.897c-0.044,0.021-5.666,3.068-13.286,8.646c-0.465,0.342-0.939,0.692-1.419,1.052
					c-5.435,4.078-10.442,8.39-14.884,12.815c-0.117,0.116-0.176,0.252-0.161,0.369c0.009,0.078,0.052,0.142,0.119,0.182
					c0.15,0.088,0.411,0.016,0.595-0.164c4.768-4.75,10.186-9.354,16.106-13.689c7.478-5.474,13.058-8.525,13.111-8.555
					c0.221-0.122,0.358-0.338,0.331-0.51c-0.016-0.078-0.062-0.141-0.133-0.176C829.878,367.817,829.739,367.829,829.599,367.897z
					 M829.732,368.325c-0.019,0.014-0.037,0.027-0.058,0.037c-0.051,0.027-5.646,3.086-13.136,8.569
					c-5.928,4.341-11.355,8.954-16.131,13.709c-0.125,0.128-0.283,0.163-0.342,0.112c-0.006-0.039,0.022-0.112,0.098-0.186
					c4.435-4.419,9.435-8.725,14.861-12.797c0.479-0.357,0.951-0.709,1.416-1.049c7.646-5.598,13.207-8.604,13.254-8.629
					c0.085-0.042,0.154-0.045,0.199-0.013C829.903,368.135,829.844,368.245,829.732,368.325z"/>
			</g>
		</g>
		<g>
			<path fill="#FFFFFF" d="M995.099,404.777c-6.4-1.481-20.996-1.607-21.633-1.611c-0.619,0.004-15.217,0.13-21.613,1.611
				c-6.428,1.487-9.482,3.693-9.336,6.751c0.104,2.147,2.254,50.321,2.254,50.321c0.002,0.199,0.176,4.772,6.15,6.873
				c5.6,1.978,12.979,2.936,22.555,2.936s16.951-0.958,22.553-2.936c5.973-2.101,6.143-6.674,6.146-6.842
				c0.021-0.485,2.152-48.229,2.252-50.353C1004.575,408.471,1001.519,406.265,995.099,404.777z M952.337,406.863
				c6.166-1.427,20.996-1.555,21.129-1.555c0.148,0,14.979,0.128,21.146,1.555c5.033,1.168,7.758,2.784,7.676,4.564
				c-0.006,0.157-0.025,0.58-0.057,1.215c-0.824,0.714-2.588,1.651-6.41,2.436c-7.469,1.522-15.955,1.51-21.539,1.515h-0.807h-0.809
				c-5.604,0.004-14.07,0.008-21.543-1.515c-3.814-0.784-5.582-1.722-6.412-2.436c-0.025-0.635-0.045-1.058-0.053-1.215
				C944.571,409.647,947.3,408.031,952.337,406.863z M1000.034,461.806c0,0.034-0.125,3.282-4.715,4.897
				c-5.369,1.893-12.518,2.812-21.844,2.812c-9.332,0-16.475-0.919-21.846-2.812c-4.516-1.591-4.713-4.773-4.717-4.92
				c0,0-0.037-0.81-0.1-2.216c3.398,2.403,4.846,2.991,8.928,3.956c4.502,1.062,13.342,1.652,17.734,1.652
				c4.391,0,13.229-0.59,17.729-1.652c4.084-0.965,5.531-1.553,8.934-3.956C1000.075,460.932,1000.036,461.742,1000.034,461.806z
				 M1000.181,458.546c-3.67,2.637-5.012,3.217-9.16,4.194c-4.443,1.05-13.195,1.631-17.545,1.631
				c-4.354,0-13.104-0.581-17.547-1.631c-4.152-0.978-5.492-1.558-9.158-4.194c-0.426-9.429-1.645-36.743-2.01-44.881
				c1.115,0.74,2.996,1.537,6.205,2.197c7.549,1.544,16.078,1.532,21.701,1.532h0.809h0.807c0.287,0,0.584,0,0.887,0
				c5.619,0,13.65-0.07,20.814-1.532c3.211-0.655,5.09-1.457,6.203-2.197C1001.823,421.797,1000.603,449.086,1000.181,458.546z"/>
			<g>
				<line fill="none" stroke="#FFFFFF" stroke-miterlimit="10" x1="973.54" y1="450.231" x2="973.54" y2="307.413"/>
				<circle fill="#FFFFFF" cx="973.54" cy="450.231" r="2.607"/>
				<g>
					<text transform="matrix(1 0 0 1 906.5 315.7471)" fill="#FFFFFF" font-family="'Gibson-SemiBold'" font-size="9.8625">Orange Twist</text>
				</g>
			</g>
			<text transform="matrix(1 0 0 1 900.3457 287.2217)" fill="#FFFFFF" font-family="'Gibson-SemiBold'" font-size="18">Garnish</text>
			<line fill="none" stroke="#FFFFFF" stroke-miterlimit="10" x1="900.346" y1="270.573" x2="1046.81" y2="270.573"/>
			<line fill="none" stroke="#FFFFFF" stroke-miterlimit="10" x1="900.346" y1="292.573" x2="1046.81" y2="292.573"/>
			<circle fill="#FFFFFF" cx="973.351" cy="515.742" r="5"/>
		</g>
	</g>
	<g>
		
			<line fill="none" stroke="#FFFFFF" stroke-linecap="round" stroke-linejoin="round" stroke-miterlimit="10" x1="1037.25" y1="170.967" x2="1046.81" y2="180.524"/>
		
			<line fill="none" stroke="#FFFFFF" stroke-linecap="round" stroke-linejoin="round" stroke-miterlimit="10" x1="1037.25" y1="190.084" x2="1046.81" y2="180.524"/>
	</g>
	
		<line fill="none" stroke="#FFFFFF" stroke-linecap="round" stroke-linejoin="round" stroke-miterlimit="10" x1="1016.625" y1="180.525" x2="1046.81" y2="180.524"/>
	<g>
		
			<line fill="none" stroke="#FFFFFF" stroke-width="3" stroke-linecap="round" stroke-miterlimit="10" x1="690.801" y1="451.278" x2="750.301" y2="451.278"/>
		<polygon fill="#FFFFFF" points="750.301,446.456 750.301,456.1 763.801,451.277 		"/>
	</g>
</g>
<g id="Layer_3">
	<g>
		<g opacity="0.5">
			<g>
				<path fill="#FFFFFF" d="M441.168,104.378c-16.543,0-30-13.458-30-30s13.457-30,30-30s30,13.458,30,30
					S457.711,104.378,441.168,104.378z M441.168,48.573c-14.229,0-25.805,11.575-25.805,25.805s11.576,25.805,25.805,25.805
					s25.805-11.575,25.805-25.805S455.396,48.573,441.168,48.573z"/>
			</g>
			<g>
				<path fill="#FFFFFF" d="M434.783,84.272c-0.467,0-0.895-0.051-1.066-0.496l-6.604-16.871h-3.932c-0.633,0-1.146-0.868-1.146-1.5
					c0-0.631,0.514-1.5,1.146-1.5h4.717c0.473,0,0.896,0.41,1.066,0.852l6.568,17.075l17.449-2.32l2.912-9.606h-20.512
					c-0.631,0-1.143-0.368-1.143-1c0-0.633,0.512-1,1.143-1h22.07c0.363,0,0.705,0.391,0.922,0.684
					c0.215,0.293,0.279,0.781,0.17,1.129l-3.604,11.525c-0.135,0.432-0.512,0.77-0.961,0.822l-19.066,2.187
					C434.871,84.258,434.826,84.272,434.783,84.272z"/>
			</g>
			<g>
				<circle fill="#FFFFFF" cx="435.726" cy="87.963" r="2.177"/>
			</g>
			<g>
				<circle fill="#FFFFFF" cx="452.674" cy="87.963" r="2.178"/>
			</g>
		</g>
		<g opacity="0.5">
			<g>
				<path fill="#FFFFFF" d="M532.668,104.378c-16.543,0-30-13.458-30-30c0-16.543,13.457-30,30-30s30,13.457,30,30
					C562.668,90.92,549.211,104.378,532.668,104.378z M532.668,48.572c-14.229,0-25.805,11.577-25.805,25.806
					s11.576,25.805,25.805,25.805s25.805-11.576,25.805-25.805S546.896,48.572,532.668,48.572z"/>
			</g>
			<g>
				<g>
					
						<line fill="none" stroke="#FFFFFF" stroke-width="2" stroke-linecap="round" stroke-miterlimit="10" x1="525.105" y1="61.71" x2="547.105" y2="61.71"/>
					<path fill="#FFFFFF" d="M522.23,61.71c0,1.105-0.898,2-2,2c-1.109,0-2-0.895-2-2s0.891-2,2-2
						C521.332,59.71,522.23,60.604,522.23,61.71z"/>
				</g>
				<g>
					
						<line fill="none" stroke="#FFFFFF" stroke-width="2" stroke-linecap="round" stroke-miterlimit="10" x1="525.105" y1="69.503" x2="547.105" y2="69.503"/>
					<path fill="#FFFFFF" d="M522.23,69.503c0,1.105-0.898,2-2,2c-1.109,0-2-0.895-2-2s0.891-2,2-2
						C521.332,67.503,522.23,68.397,522.23,69.503z"/>
				</g>
				<g>
					
						<line fill="none" stroke="#FFFFFF" stroke-width="2" stroke-linecap="round" stroke-miterlimit="10" x1="525.105" y1="77.294" x2="547.105" y2="77.294"/>
					<path fill="#FFFFFF" d="M522.23,77.294c0,1.105-0.898,2-2,2c-1.109,0-2-0.895-2-2s0.891-2,2-2
						C521.332,75.294,522.23,76.188,522.23,77.294z"/>
				</g>
				<g>
					
						<line fill="none" stroke="#FFFFFF" stroke-width="2" stroke-linecap="round" stroke-miterlimit="10" x1="525.105" y1="85.086" x2="547.105" y2="85.086"/>
					<path fill="#FFFFFF" d="M522.23,85.086c0,1.105-0.898,2-2,2c-1.109,0-2-0.895-2-2s0.891-2,2-2
						C521.332,83.086,522.23,83.98,522.23,85.086z"/>
				</g>
			</g>
		</g>
		<g opacity="0.5">
			<g>
				<path fill="#FFFFFF" d="M845.293,104.378c-16.543,0-30-13.458-30-30c0-16.541,13.457-30,30-30s30,13.459,30,30
					C875.293,90.92,861.836,104.378,845.293,104.378z M845.293,48.573c-14.229,0-25.805,11.576-25.805,25.805
					s11.576,25.806,25.805,25.806s25.805-11.577,25.805-25.806S859.521,48.573,845.293,48.573z"/>
			</g>
			<polygon fill="#FFFFFF" points="839.869,59.528 855.875,74.378 839.869,89.228 			"/>
		</g>
		<g>
			<g>
				<path fill="#FFFFFF" d="M643.543,124.283c-27.571,0-50-22.43-50-50c0-27.568,22.429-50,50-50s50,22.432,50,50
					C693.543,101.854,671.114,124.283,643.543,124.283z M643.543,31.275c-23.714,0-43.008,19.294-43.008,43.008
					s19.294,43.01,43.008,43.01s43.008-19.296,43.008-43.01S667.257,31.275,643.543,31.275z"/>
			</g>
			<g>
				<circle fill="none" stroke="#FFFFFF" stroke-width="3" stroke-miterlimit="10" cx="648.971" cy="66.939" r="13.32"/>
				
					<line fill="none" stroke="#FFFFFF" stroke-width="3" stroke-miterlimit="10" x1="624.796" y1="94.947" x2="637.947" y2="79.711"/>
			</g>
		</g>
		<g opacity="0.5">
			<g>
				<path fill="#FFFFFF" d="M746.832,86.896c-0.025-0.381-0.055-0.811-0.055-1.354V68.413c0-0.238-0.178-0.6-0.674-1.301h0.014
					l-0.484-0.643c-0.184-0.246-0.371-0.486-0.545-0.709c-0.018-0.023-0.035-0.047-0.053-0.07c-0.014-0.016-0.029-0.033-0.041-0.051
					c-0.061-0.08-0.123-0.158-0.189-0.242c-0.521-0.668-0.605-2.037-0.592-2.52v-5.984c0-0.396-0.293-0.604-1.895-0.629
					c-1.59,0.025-1.879,0.232-1.879,0.629v5.996c0.012,0.471-0.068,1.838-0.594,2.508c-0.248,0.316-0.543,0.693-0.828,1.07
					l-0.486,0.645h0.016c-0.496,0.701-0.674,1.062-0.674,1.301v17.129c0,0.541-0.029,0.973-0.053,1.354
					c-0.021,0.299-0.039,0.582-0.039,0.859c0,1.484,1.166,1.561,4.545,1.561c3.377,0,4.543-0.076,4.543-1.561
					C746.869,87.478,746.852,87.194,746.832,86.896z M743.406,62.325h-2.162v-3.043h2.162V62.325z M743.408,63.13
					c0.012,0.422,0.074,1.277,0.361,2.027c-0.4-0.035-0.902-0.064-1.443-0.064s-1.043,0.029-1.445,0.064
					c0.291-0.754,0.352-1.611,0.361-2.027H743.408z M740.385,66.015c0.391-0.047,1.121-0.117,1.941-0.117
					c0.818,0,1.551,0.07,1.939,0.117c0.074,0.094,0.152,0.191,0.23,0.293h-4.342C740.24,66.198,740.318,66.101,740.385,66.015z
					 M742.318,57.069c0.412,0.006,0.848,0.041,1.088,0.08v1.328h-2.162v-1.328C741.484,57.11,741.918,57.075,742.318,57.069z
					 M742.326,88.511c-3.738,0-3.738-0.221-3.738-0.756c0-0.25,0.016-0.508,0.035-0.807c0.025-0.393,0.055-0.838,0.055-1.406
					l-0.002-17.096c0.043-0.193,0.443-0.764,0.867-1.334h5.566c0.422,0.566,0.82,1.127,0.863,1.301v17.129
					c0,0.568,0.029,1.014,0.055,1.406c0.02,0.299,0.037,0.557,0.037,0.807C746.064,88.29,746.064,88.511,742.326,88.511z"/>
				<path fill="#FFFFFF" d="M739.08,73.36v8.92v1.199h6.49V82.28v-8.92v-1.199h-6.49V73.36z M739.885,74.165h4.881v7.311h-4.881
					V74.165z M744.766,82.675h-4.881V82.28h4.881V82.675z M744.766,72.966v0.395h-4.881v-0.395H744.766z"/>
				<path fill="#FFFFFF" d="M739.924,70.468c0.008-0.008,0.998-0.717,2.402-0.717c1.402,0,2.393,0.709,2.4,0.715
					c0.072,0.055,0.156,0.08,0.24,0.08c0.123,0,0.244-0.057,0.324-0.164c0.131-0.178,0.094-0.432-0.086-0.562
					c-0.047-0.035-1.201-0.873-2.879-0.873c-1.68,0-2.834,0.838-2.881,0.873c-0.178,0.131-0.217,0.383-0.084,0.562
					C739.492,70.56,739.744,70.599,739.924,70.468z"/>
				<path fill="#FFFFFF" d="M740.465,70.802c-0.223,0-0.404,0.18-0.404,0.402s0.182,0.404,0.404,0.404h3.721
					c0.223,0,0.404-0.182,0.404-0.404s-0.182-0.402-0.404-0.402H740.465z"/>
			</g>
			<path fill="#FFFFFF" d="M771.305,87.056c-0.023-0.355-0.051-0.758-0.051-1.264V69.8c0-0.221-0.166-0.559-0.627-1.213h0.012
				l-0.453-0.602c-0.172-0.229-0.348-0.455-0.508-0.662c-0.018-0.021-0.035-0.043-0.051-0.064c-0.012-0.016-0.025-0.031-0.037-0.047
				c-0.059-0.074-0.115-0.148-0.176-0.227c-0.488-0.623-0.566-1.902-0.555-2.352v-5.588c0-0.371-0.271-0.562-1.768-0.588
				c-1.484,0.025-1.756,0.217-1.756,0.588l0.002,5.598c0.012,0.439-0.064,1.717-0.557,2.342c-0.23,0.295-0.506,0.646-0.77,1
				l-0.455,0.602h0.012c-0.461,0.654-0.627,0.992-0.627,1.213v15.992c0,0.506-0.027,0.908-0.051,1.264
				c-0.02,0.279-0.035,0.543-0.035,0.803c0,1.387,1.09,1.457,4.242,1.457c3.154,0,4.244-0.07,4.244-1.457
				C771.342,87.599,771.324,87.335,771.305,87.056z M768.107,64.118h-2.02v-2.842h2.02V64.118z M768.109,64.87
				c0.01,0.393,0.068,1.189,0.338,1.891c-0.375-0.033-0.844-0.061-1.35-0.061c-0.504,0-0.973,0.029-1.35,0.061
				c0.271-0.703,0.328-1.504,0.338-1.891H768.109z M765.285,67.562c0.365-0.043,1.049-0.109,1.812-0.109
				c0.766,0,1.449,0.066,1.812,0.109c0.068,0.088,0.141,0.18,0.213,0.273h-4.051C765.15,67.733,765.225,67.642,765.285,67.562z
				 M767.092,59.21c0.385,0.006,0.791,0.037,1.016,0.074v1.24h-2.02v-1.24C766.312,59.247,766.717,59.216,767.092,59.21z
				 M767.098,88.563c-3.49,0-3.49-0.207-3.49-0.705c0-0.234,0.016-0.475,0.035-0.754c0.023-0.365,0.051-0.781,0.051-1.312
				l-0.004-15.961c0.043-0.18,0.414-0.713,0.811-1.244h5.197c0.395,0.527,0.766,1.051,0.805,1.213v15.992
				c0,0.531,0.027,0.947,0.053,1.312c0.02,0.279,0.033,0.52,0.033,0.754C770.59,88.356,770.59,88.563,767.098,88.563z"/>
			<path fill="#FFFFFF" d="M759.771,86.667c0-0.164-0.021-1-0.189-1.408c-0.09-0.217-0.15-0.758-0.168-1.016
				c0.004-0.15,0.346-15.135,0.357-16.434c0.016-1.568-1.379-3.043-2.262-3.604c-0.594-0.379-0.732-1.725-0.734-2.164v-6.285
				c0-0.51-0.508-0.768-1.508-0.768c-0.145,0-0.258,0.006-0.307,0.008c-0.049-0.002-0.164-0.008-0.307-0.008
				c-1,0-1.508,0.258-1.508,0.768v6.283c-0.002,0.441-0.143,1.787-0.736,2.166c-0.883,0.561-2.277,2.035-2.262,3.604
				c0.012,1.299,0.355,16.283,0.359,16.4c-0.018,0.289-0.078,0.832-0.168,1.049c-0.17,0.406-0.189,1.244-0.189,1.369
				c-0.008,0.074-0.062,0.742,0.537,1.41c0.762,0.85,2.199,1.281,4.273,1.281s3.512-0.432,4.273-1.281
				C759.832,87.37,759.777,86.702,759.771,86.667z M755.984,60.903h-2.047V58.22h2.047V60.903z M754.654,55.78
				c0.158,0,0.273,0.008,0.279,0.008l0.027,0.002l0.027-0.002c0.006,0,0.119-0.008,0.277-0.008c0.4,0,0.619,0.047,0.719,0.082v1.564
				h-2.047v-1.564C754.035,55.827,754.254,55.78,754.654,55.78z M758.625,87.53c-0.422,0.455-1.402,0.996-3.664,0.996
				c-2.264,0-3.242-0.541-3.666-0.996c-0.383-0.412-0.359-0.807-0.355-0.854c0.006-0.344,0.049-0.916,0.131-1.115
				c0.168-0.408,0.223-1.213,0.229-1.336c-0.004-0.15-0.348-15.131-0.359-16.424c-0.012-1.17,1.125-2.439,1.895-2.928
				c0.912-0.58,1.07-2.076,1.098-2.635h2.057c0.027,0.559,0.186,2.055,1.098,2.635c0.77,0.488,1.906,1.758,1.895,2.928
				c-0.012,1.293-0.355,16.271-0.357,16.457c0.006,0.09,0.059,0.895,0.227,1.303c0.082,0.197,0.125,0.771,0.133,1.146
				C758.984,86.726,759.008,87.118,758.625,87.53z"/>
			<path fill="#FFFFFF" d="M756.857,70.397c-0.012-1.035-0.859-1.875-1.896-1.875c-1.039,0-1.885,0.84-1.896,1.875
				c-0.465,0.043-0.912,0.102-1.34,0.176l-0.334,0.059l0.008,0.34c0.039,1.873,0.094,4.293,0.145,6.555l0.008,0.387h6.818
				l0.008-0.387c0.053-2.262,0.105-4.682,0.146-6.555l0.006-0.34l-0.334-0.059C757.77,70.499,757.322,70.44,756.857,70.397z
				 M757.596,77.122h-5.271c-0.043-2.012-0.09-4.113-0.127-5.824c0.424-0.064,0.871-0.111,1.332-0.145l0.463-0.031l-0.105-0.453
				c-0.021-0.092-0.031-0.172-0.031-0.248c0-0.611,0.494-1.105,1.105-1.105c0.609,0,1.104,0.494,1.104,1.105
				c0,0.074-0.01,0.156-0.031,0.248l-0.104,0.453l0.461,0.031c0.461,0.033,0.908,0.08,1.332,0.145
				C757.688,73.009,757.641,75.11,757.596,77.122z"/>
			<path fill="#FFFFFF" d="M754.979,81.06c-1.117,0-2.1-0.035-2.92-0.107l-0.439-0.039l0.068,2.996l0.33,0.049
				c0.84,0.123,1.836,0.186,2.961,0.186c1.113,0,2.098-0.061,2.924-0.184l0.332-0.047l0.066-2.996l-0.439,0.037
				C757.051,81.024,756.08,81.06,754.979,81.06z M757.457,83.222c-0.717,0.086-1.549,0.131-2.479,0.131
				c-0.939,0-1.783-0.045-2.516-0.135l-0.033-1.443c0.746,0.051,1.602,0.076,2.549,0.076c0.932,0,1.775-0.025,2.512-0.074
				L757.457,83.222z"/>
			<rect x="765.301" y="72.905" fill="#FFFFFF" width="5" height="11"/>
			<g>
				<g>
					<path fill="#FFFFFF" d="M753.889,93.896c-3.656-5.605-9.092-8.516-9.146-8.543c-2.047-1.062-2.85-3.6-1.785-5.652
						c0.725-1.396,2.152-2.264,3.725-2.264c0.668,0,1.336,0.162,1.932,0.471c0.484,0.252,4.344,2.324,8.291,6.404
						c3.393-5.418,8.602-13.129,12.834-16.756c0.76-0.65,1.729-1.01,2.729-1.01c1.227,0,2.389,0.535,3.188,1.465
						c0.729,0.852,1.084,1.936,0.996,3.053c-0.086,1.117-0.602,2.133-1.453,2.863c-4.535,3.887-11.758,15.586-14.158,19.766
						l-3.408,5.939L753.889,93.896z"/>
					<path d="M772.467,68.452c0.645,0,1.287,0.271,1.74,0.801c0.82,0.959,0.711,2.402-0.25,3.225
						c-5.719,4.902-14.484,20.111-14.572,20.266l-1.859,3.238l-2.039-3.129c-3.973-6.09-9.801-9.16-9.859-9.191
						c-1.121-0.58-1.559-1.963-0.979-3.084c0.408-0.785,1.207-1.234,2.033-1.234c0.355,0,0.715,0.082,1.053,0.258
						c0.242,0.125,5.15,2.711,9.457,7.879c2.977-4.896,9.092-14.451,13.789-18.477C771.412,68.634,771.941,68.452,772.467,68.452
						 M772.467,64.64L772.467,64.64c-1.455,0-2.865,0.521-3.971,1.471c-2.309,1.979-6.17,6.203-11.949,15.199
						c-3.512-3.201-6.611-4.863-7.055-5.094c-0.867-0.449-1.838-0.688-2.811-0.688c-2.287,0-4.363,1.262-5.416,3.291
						c-1.547,2.982-0.385,6.664,2.588,8.219c0.164,0.09,5.115,2.805,8.438,7.898l2.041,3.129l3.4,5.217l3.102-5.4l1.859-3.24
						c2.359-4.104,9.428-15.566,13.746-19.268c1.236-1.061,1.988-2.539,2.113-4.164s-0.391-3.203-1.451-4.439
						C775.941,65.417,774.252,64.64,772.467,64.64L772.467,64.64z"/>
				</g>
			</g>
			<g>
				<path fill="#FFFFFF" d="M754.418,104.378c-16.543,0-30-13.457-30-30c0-16.541,13.457-30,30-30s30,13.459,30,30
					C784.418,90.921,770.961,104.378,754.418,104.378z M754.418,48.573c-14.229,0-25.805,11.576-25.805,25.805
					s11.576,25.807,25.805,25.807s25.805-11.578,25.805-25.807S768.646,48.573,754.418,48.573z"/>
			</g>
		</g>
	</g>
</g>
<g id="Layer_4">
</g>
</svg>
