<?xml version="1.0" encoding="utf-8"?>
<!-- Generator: Adobe Illustrator 16.0.0, SVG Export Plug-In . SVG Version: 6.00 Build 0)  -->
<!DOCTYPE svg PUBLIC "-//W3C//DTD SVG 1.1//EN" "http://www.w3.org/Graphics/SVG/1.1/DTD/svg11.dtd">
<svg version="1.1" xmlns="http://www.w3.org/2000/svg" xmlns:xlink="http://www.w3.org/1999/xlink" x="0px" y="0px" width="1280px"
	 height="800px" viewBox="0 0 1280 800" enable-background="new 0 0 1280 800" xml:space="preserve">
<g id="Background_Color">
	<rect width="1280" height="800"/>
</g>
<g id="Layer_2">
	<g>
		<g>
			<text transform="matrix(1 0 0 1 101.3008 199.8672)" fill="#FFFFFF" font-family="'Gibson-SemiBold'" font-size="20">Results</text>
		</g>
		<rect x="101.301" y="210" fill="#FFFFFF" width="624" height="3"/>
		<g>
			<text transform="matrix(1 0 0 1 105.9961 199.8672)" fill="#FFFFFF" font-family="'Gibson-SemiBold'" font-size="20">   </text>
		</g>
		<g>
			
				<rect x="101.301" y="234.503" fill="none" stroke="#FFFFFF" stroke-width="0.5" stroke-miterlimit="10" width="133.746" height="46.543"/>
			<g>
				<path d="M223.244,260.274c-9.374,0-17-7.626-17-17s7.626-17,17-17s17,7.626,17,17S232.618,260.274,223.244,260.274z"/>
				<path fill="#FFFFFF" d="M223.244,226.774c9.098,0,16.5,7.401,16.5,16.5s-7.402,16.5-16.5,16.5s-16.5-7.401-16.5-16.5
					S214.146,226.774,223.244,226.774 M223.244,225.774c-9.664,0-17.5,7.836-17.5,17.5c0,9.666,7.836,17.5,17.5,17.5
					c9.665,0,17.5-7.834,17.5-17.5C240.744,233.61,232.909,225.774,223.244,225.774L223.244,225.774z"/>
			</g>
			<g>
				<text transform="matrix(1 0 0 1 107.9238 261.7695)" fill="#FFFFFF" font-family="'Gibson-Light'" font-size="10">Base Spirit : Vodka</text>
			</g>
			<g>
				<text transform="matrix(1 0 0 1 107.9238 275.1016)" fill="#FFFFFF" font-family="'Gibson-Light'" font-size="10">Profile : Spirit Forward, Sweet</text>
			</g>
			<text transform="matrix(1 0 0 1 107.9238 249.1035)" fill="#FFFFFF" font-family="'Gibson-SemiBold'" font-size="12">Lorem Ipsuim</text>
			<path fill="#FFFFFF" d="M230.446,234.983c-0.015-0.084-0.027-0.164-0.038-0.236c-0.178-1.162-0.631-1.287-2.134-1.697
				l-0.14-0.037c-1.338-0.365-4.855-0.443-5.017-0.447c-0.148,0.004-3.665,0.082-5.004,0.447l-0.141,0.037
				c-1.503,0.41-1.956,0.535-2.134,1.697c-0.011,0.072-0.023,0.152-0.037,0.236c-0.188,1.133-0.537,3.242,1.349,4.957
				c0.721,0.656,1.552,1.018,2.286,1.334c1.299,0.564,2.324,1.01,2.484,2.779c0.197,2.133,0.24,3.66-0.138,4.596
				c-0.798,0.1-3.762,0.58-4.248,2.357c-0.124,0.455-0.078,0.873,0.137,1.246c0.513,0.887,1.86,1.24,2.437,1.391
				c0.066,0.018,0.124,0.031,0.166,0.045c0.587,0.172,2.109,0.295,2.849,0.295s2.263-0.123,2.849-0.295
				c0.043-0.014,0.1-0.027,0.167-0.045c0.575-0.15,1.923-0.504,2.437-1.391c0.215-0.373,0.26-0.791,0.135-1.246
				c-0.484-1.777-3.449-2.258-4.246-2.357c-0.378-0.936-0.334-2.463-0.14-4.596c0.162-1.77,1.187-2.215,2.486-2.779
				c0.733-0.316,1.564-0.678,2.286-1.334C230.983,238.226,230.634,236.116,230.446,234.983z M218.119,233.583l0.141-0.039
				c1.272-0.348,4.834-0.426,4.858-0.426c0.036,0,3.597,0.078,4.87,0.426l0.141,0.039c0.924,0.252,1.322,0.367,1.52,0.605
				c-0.209,0.238-0.974,0.699-3.789,0.955c-0.916,0.082-2.033,0.119-2.735,0.119s-1.819-0.037-2.735-0.119
				c-2.828-0.256-3.586-0.725-3.789-0.955C216.797,233.95,217.193,233.835,218.119,233.583z M228.181,251.151
				c0.085,0.312,0.058,0.582-0.083,0.826c-0.396,0.688-1.589,0.998-2.098,1.133c-0.074,0.018-0.136,0.035-0.183,0.049
				c-0.517,0.15-1.999,0.273-2.693,0.273s-2.177-0.123-2.693-0.273c-0.047-0.014-0.108-0.031-0.183-0.049
				c-0.508-0.135-1.699-0.445-2.097-1.133c-0.142-0.244-0.168-0.514-0.083-0.826c0.369-1.35,2.854-1.816,3.67-1.936
				c-0.041,0.031-0.086,0.062-0.131,0.09v-0.002c-0.284,0.16-0.434,0.359-0.434,0.576c0,0.506,0.856,0.902,1.95,0.902
				c1.095,0,1.95-0.396,1.95-0.902c0-0.217-0.148-0.416-0.434-0.576v0.002c-0.045-0.027-0.089-0.059-0.131-0.09
				C225.326,249.335,227.811,249.802,228.181,251.151z M228.727,239.532c-0.654,0.596-1.406,0.922-2.135,1.236
				c-1.35,0.586-2.625,1.139-2.816,3.234c-0.213,2.334-0.246,3.988,0.252,5.023c0.014,0.027,0.03,0.051,0.051,0.072
				c0.023,0.023,0.048,0.041,0.076,0.055c0.116,0.141,0.254,0.258,0.42,0.352l0,0c0.189,0.115,0.294,0.248,0.294,0.375
				c0,0.33-0.716,0.697-1.744,0.697s-1.743-0.367-1.743-0.697c0-0.127,0.104-0.26,0.294-0.375l0,0
				c0.165-0.094,0.303-0.211,0.419-0.352c0.028-0.014,0.054-0.031,0.076-0.055c0.021-0.021,0.037-0.045,0.051-0.072
				c0.498-1.035,0.465-2.689,0.252-5.021c-0.191-2.098-1.467-2.65-2.816-3.236c-0.728-0.314-1.48-0.641-2.134-1.236
				c-1.664-1.514-1.358-3.357-1.176-4.459c0.015-0.086,0.028-0.168,0.038-0.242c0.029-0.189,0.059-0.336,0.107-0.455
				c0.353,0.34,1.336,0.742,3.878,0.973c0.923,0.084,2.048,0.123,2.754,0.123c0.707,0,1.832-0.039,2.755-0.123
				c2.541-0.23,3.525-0.633,3.878-0.975c0.048,0.121,0.077,0.268,0.106,0.457c0.01,0.074,0.023,0.156,0.038,0.242
				C230.084,236.175,230.391,238.019,228.727,239.532z"/>
		</g>
		<g>
			
				<rect x="259.486" y="234.503" fill="none" stroke="#FFFFFF" stroke-width="0.5" stroke-miterlimit="10" width="133.746" height="46.543"/>
			<g>
				<path d="M381.43,260.274c-9.374,0-17-7.626-17-17s7.626-17,17-17s17,7.626,17,17S390.804,260.274,381.43,260.274z"/>
				<path fill="#FFFFFF" d="M381.43,226.774c9.098,0,16.5,7.401,16.5,16.5s-7.402,16.5-16.5,16.5s-16.5-7.401-16.5-16.5
					S372.332,226.774,381.43,226.774 M381.43,225.774c-9.664,0-17.5,7.836-17.5,17.5c0,9.666,7.836,17.5,17.5,17.5
					c9.665,0,17.5-7.834,17.5-17.5C398.93,233.61,391.095,225.774,381.43,225.774L381.43,225.774z"/>
			</g>
			<g>
				<text transform="matrix(1 0 0 1 266.1094 261.7695)" fill="#FFFFFF" font-family="'Gibson-Light'" font-size="10">Base Spirit : Vodka</text>
			</g>
			<g>
				<text transform="matrix(1 0 0 1 266.1094 275.1016)" fill="#FFFFFF" font-family="'Gibson-Light'" font-size="10">Profile : Spirit Forward, Sweet</text>
			</g>
			<text transform="matrix(1 0 0 1 266.1094 249.1035)" fill="#FFFFFF" font-family="'Gibson-SemiBold'" font-size="12">Lorem Ipsuim</text>
			<path fill="#FFFFFF" d="M388.632,234.983c-0.015-0.084-0.027-0.164-0.038-0.236c-0.178-1.162-0.631-1.287-2.134-1.697
				l-0.14-0.037c-1.338-0.365-4.855-0.443-5.017-0.447c-0.148,0.004-3.665,0.082-5.004,0.447l-0.141,0.037
				c-1.503,0.41-1.956,0.535-2.134,1.697c-0.011,0.072-0.023,0.152-0.037,0.236c-0.188,1.133-0.537,3.242,1.349,4.957
				c0.721,0.656,1.552,1.018,2.286,1.334c1.299,0.564,2.324,1.01,2.484,2.779c0.197,2.133,0.24,3.66-0.138,4.596
				c-0.798,0.1-3.762,0.58-4.248,2.357c-0.124,0.455-0.078,0.873,0.137,1.246c0.513,0.887,1.86,1.24,2.437,1.391
				c0.066,0.018,0.124,0.031,0.166,0.045c0.587,0.172,2.109,0.295,2.849,0.295s2.263-0.123,2.849-0.295
				c0.043-0.014,0.1-0.027,0.167-0.045c0.575-0.15,1.923-0.504,2.437-1.391c0.215-0.373,0.26-0.791,0.135-1.246
				c-0.484-1.777-3.449-2.258-4.246-2.357c-0.378-0.936-0.334-2.463-0.14-4.596c0.162-1.77,1.187-2.215,2.486-2.779
				c0.733-0.316,1.564-0.678,2.286-1.334C389.169,238.226,388.819,236.116,388.632,234.983z M376.305,233.583l0.141-0.039
				c1.272-0.348,4.834-0.426,4.858-0.426c0.036,0,3.597,0.078,4.87,0.426l0.141,0.039c0.924,0.252,1.322,0.367,1.52,0.605
				c-0.209,0.238-0.974,0.699-3.789,0.955c-0.916,0.082-2.033,0.119-2.735,0.119s-1.819-0.037-2.735-0.119
				c-2.828-0.256-3.586-0.725-3.789-0.955C374.982,233.95,375.379,233.835,376.305,233.583z M386.366,251.151
				c0.085,0.312,0.058,0.582-0.083,0.826c-0.396,0.688-1.589,0.998-2.098,1.133c-0.074,0.018-0.136,0.035-0.183,0.049
				c-0.517,0.15-1.999,0.273-2.693,0.273s-2.177-0.123-2.693-0.273c-0.047-0.014-0.108-0.031-0.183-0.049
				c-0.508-0.135-1.699-0.445-2.097-1.133c-0.142-0.244-0.168-0.514-0.083-0.826c0.369-1.35,2.854-1.816,3.67-1.936
				c-0.041,0.031-0.086,0.062-0.131,0.09v-0.002c-0.284,0.16-0.434,0.359-0.434,0.576c0,0.506,0.856,0.902,1.95,0.902
				c1.095,0,1.95-0.396,1.95-0.902c0-0.217-0.148-0.416-0.434-0.576v0.002c-0.045-0.027-0.089-0.059-0.131-0.09
				C383.512,249.335,385.996,249.802,386.366,251.151z M386.912,239.532c-0.654,0.596-1.406,0.922-2.135,1.236
				c-1.35,0.586-2.625,1.139-2.816,3.234c-0.213,2.334-0.246,3.988,0.252,5.023c0.014,0.027,0.03,0.051,0.051,0.072
				c0.023,0.023,0.048,0.041,0.076,0.055c0.116,0.141,0.254,0.258,0.42,0.352l0,0c0.189,0.115,0.294,0.248,0.294,0.375
				c0,0.33-0.716,0.697-1.744,0.697s-1.743-0.367-1.743-0.697c0-0.127,0.104-0.26,0.294-0.375l0,0
				c0.165-0.094,0.303-0.211,0.419-0.352c0.028-0.014,0.054-0.031,0.076-0.055c0.021-0.021,0.037-0.045,0.051-0.072
				c0.498-1.035,0.465-2.689,0.252-5.021c-0.191-2.098-1.467-2.65-2.816-3.236c-0.728-0.314-1.48-0.641-2.134-1.236
				c-1.664-1.514-1.358-3.357-1.176-4.459c0.015-0.086,0.028-0.168,0.038-0.242c0.029-0.189,0.059-0.336,0.107-0.455
				c0.353,0.34,1.336,0.742,3.878,0.973c0.923,0.084,2.048,0.123,2.754,0.123c0.707,0,1.832-0.039,2.755-0.123
				c2.541-0.23,3.525-0.633,3.878-0.975c0.048,0.121,0.077,0.268,0.106,0.457c0.01,0.074,0.023,0.156,0.038,0.242
				C388.27,236.175,388.576,238.019,386.912,239.532z"/>
		</g>
		<g>
			
				<rect x="417.672" y="234.503" fill="none" stroke="#FFFFFF" stroke-width="0.5" stroke-miterlimit="10" width="133.746" height="46.543"/>
			<g>
				<path d="M539.615,260.274c-9.374,0-17-7.626-17-17s7.626-17,17-17s17,7.626,17,17S548.989,260.274,539.615,260.274z"/>
				<path fill="#FFFFFF" d="M539.615,226.774c9.098,0,16.5,7.401,16.5,16.5s-7.402,16.5-16.5,16.5s-16.5-7.401-16.5-16.5
					S530.518,226.774,539.615,226.774 M539.615,225.774c-9.664,0-17.5,7.836-17.5,17.5c0,9.666,7.836,17.5,17.5,17.5
					c9.665,0,17.5-7.834,17.5-17.5C557.115,233.61,549.28,225.774,539.615,225.774L539.615,225.774z"/>
			</g>
			<g>
				<text transform="matrix(1 0 0 1 424.2949 261.7695)" fill="#FFFFFF" font-family="'Gibson-Light'" font-size="10">Base Spirit : Vodka</text>
			</g>
			<g>
				<text transform="matrix(1 0 0 1 424.2949 275.1016)" fill="#FFFFFF" font-family="'Gibson-Light'" font-size="10">Profile : Spirit Forward, Sweet</text>
			</g>
			<text transform="matrix(1 0 0 1 424.2949 249.1035)" fill="#FFFFFF" font-family="'Gibson-SemiBold'" font-size="12">Lorem Ipsuim</text>
			<path fill="#FFFFFF" d="M546.817,234.983c-0.015-0.084-0.027-0.164-0.038-0.236c-0.178-1.162-0.631-1.287-2.134-1.697
				l-0.14-0.037c-1.338-0.365-4.855-0.443-5.017-0.447c-0.148,0.004-3.665,0.082-5.004,0.447l-0.141,0.037
				c-1.503,0.41-1.956,0.535-2.134,1.697c-0.011,0.072-0.023,0.152-0.037,0.236c-0.188,1.133-0.537,3.242,1.349,4.957
				c0.721,0.656,1.552,1.018,2.286,1.334c1.299,0.564,2.324,1.01,2.484,2.779c0.197,2.133,0.24,3.66-0.138,4.596
				c-0.798,0.1-3.762,0.58-4.248,2.357c-0.124,0.455-0.078,0.873,0.137,1.246c0.513,0.887,1.86,1.24,2.437,1.391
				c0.066,0.018,0.124,0.031,0.166,0.045c0.587,0.172,2.109,0.295,2.849,0.295s2.263-0.123,2.849-0.295
				c0.043-0.014,0.1-0.027,0.167-0.045c0.575-0.15,1.923-0.504,2.437-1.391c0.215-0.373,0.26-0.791,0.135-1.246
				c-0.484-1.777-3.449-2.258-4.246-2.357c-0.378-0.936-0.334-2.463-0.14-4.596c0.162-1.77,1.187-2.215,2.486-2.779
				c0.733-0.316,1.564-0.678,2.286-1.334C547.354,238.226,547.005,236.116,546.817,234.983z M534.49,233.583l0.141-0.039
				c1.272-0.348,4.834-0.426,4.858-0.426c0.036,0,3.597,0.078,4.87,0.426l0.141,0.039c0.924,0.252,1.322,0.367,1.52,0.605
				c-0.209,0.238-0.974,0.699-3.789,0.955c-0.916,0.082-2.033,0.119-2.735,0.119s-1.819-0.037-2.735-0.119
				c-2.828-0.256-3.586-0.725-3.789-0.955C533.168,233.95,533.564,233.835,534.49,233.583z M544.552,251.151
				c0.085,0.312,0.058,0.582-0.083,0.826c-0.396,0.688-1.589,0.998-2.098,1.133c-0.074,0.018-0.136,0.035-0.183,0.049
				c-0.517,0.15-1.999,0.273-2.693,0.273s-2.177-0.123-2.693-0.273c-0.047-0.014-0.108-0.031-0.183-0.049
				c-0.508-0.135-1.699-0.445-2.097-1.133c-0.142-0.244-0.168-0.514-0.083-0.826c0.369-1.35,2.854-1.816,3.67-1.936
				c-0.041,0.031-0.086,0.062-0.131,0.09v-0.002c-0.284,0.16-0.434,0.359-0.434,0.576c0,0.506,0.856,0.902,1.95,0.902
				c1.095,0,1.95-0.396,1.95-0.902c0-0.217-0.148-0.416-0.434-0.576v0.002c-0.045-0.027-0.089-0.059-0.131-0.09
				C541.697,249.335,544.182,249.802,544.552,251.151z M545.098,239.532c-0.654,0.596-1.406,0.922-2.135,1.236
				c-1.35,0.586-2.625,1.139-2.816,3.234c-0.213,2.334-0.246,3.988,0.252,5.023c0.014,0.027,0.03,0.051,0.051,0.072
				c0.023,0.023,0.048,0.041,0.076,0.055c0.116,0.141,0.254,0.258,0.42,0.352l0,0c0.189,0.115,0.294,0.248,0.294,0.375
				c0,0.33-0.716,0.697-1.744,0.697s-1.743-0.367-1.743-0.697c0-0.127,0.104-0.26,0.294-0.375l0,0
				c0.165-0.094,0.303-0.211,0.419-0.352c0.028-0.014,0.054-0.031,0.076-0.055c0.021-0.021,0.037-0.045,0.051-0.072
				c0.498-1.035,0.465-2.689,0.252-5.021c-0.191-2.098-1.467-2.65-2.816-3.236c-0.728-0.314-1.48-0.641-2.134-1.236
				c-1.664-1.514-1.358-3.357-1.176-4.459c0.015-0.086,0.028-0.168,0.038-0.242c0.029-0.189,0.059-0.336,0.107-0.455
				c0.353,0.34,1.336,0.742,3.878,0.973c0.923,0.084,2.048,0.123,2.754,0.123c0.707,0,1.832-0.039,2.755-0.123
				c2.541-0.23,3.525-0.633,3.878-0.975c0.048,0.121,0.077,0.268,0.106,0.457c0.01,0.074,0.023,0.156,0.038,0.242
				C546.455,236.175,546.762,238.019,545.098,239.532z"/>
		</g>
		<g>
			
				<rect x="101.301" y="299.94" fill="none" stroke="#FFFFFF" stroke-width="0.5" stroke-miterlimit="10" width="133.746" height="46.543"/>
			<g>
				<path d="M223.244,325.712c-9.374,0-17-7.626-17-17s7.626-17,17-17s17,7.626,17,17S232.618,325.712,223.244,325.712z"/>
				<path fill="#FFFFFF" d="M223.244,292.212c9.098,0,16.5,7.401,16.5,16.5s-7.402,16.5-16.5,16.5s-16.5-7.401-16.5-16.5
					S214.146,292.212,223.244,292.212 M223.244,291.212c-9.664,0-17.5,7.836-17.5,17.5c0,9.666,7.836,17.5,17.5,17.5
					c9.665,0,17.5-7.834,17.5-17.5C240.744,299.048,232.909,291.212,223.244,291.212L223.244,291.212z"/>
			</g>
			<g>
				<text transform="matrix(1 0 0 1 107.9238 327.207)" fill="#FFFFFF" font-family="'Gibson-Light'" font-size="10">Base Spirit : Vodka</text>
			</g>
			<g>
				<text transform="matrix(1 0 0 1 107.9238 340.5391)" fill="#FFFFFF" font-family="'Gibson-Light'" font-size="10">Profile : Spirit Forward, Sweet</text>
			</g>
			<text transform="matrix(1 0 0 1 107.9238 314.541)" fill="#FFFFFF" font-family="'Gibson-SemiBold'" font-size="12">Lorem Ipsuim</text>
			<path fill="#FFFFFF" d="M230.446,300.421c-0.015-0.084-0.027-0.164-0.038-0.236c-0.178-1.162-0.631-1.287-2.134-1.697
				l-0.14-0.037c-1.338-0.365-4.855-0.443-5.017-0.447c-0.148,0.004-3.665,0.082-5.004,0.447l-0.141,0.037
				c-1.503,0.41-1.956,0.535-2.134,1.697c-0.011,0.072-0.023,0.152-0.037,0.236c-0.188,1.133-0.537,3.242,1.349,4.957
				c0.721,0.656,1.552,1.018,2.286,1.334c1.299,0.564,2.324,1.01,2.484,2.779c0.197,2.133,0.24,3.66-0.138,4.596
				c-0.798,0.1-3.762,0.58-4.248,2.357c-0.124,0.455-0.078,0.873,0.137,1.246c0.513,0.887,1.86,1.24,2.437,1.391
				c0.066,0.018,0.124,0.031,0.166,0.045c0.587,0.172,2.109,0.295,2.849,0.295s2.263-0.123,2.849-0.295
				c0.043-0.014,0.1-0.027,0.167-0.045c0.575-0.15,1.923-0.504,2.437-1.391c0.215-0.373,0.26-0.791,0.135-1.246
				c-0.484-1.777-3.449-2.258-4.246-2.357c-0.378-0.936-0.334-2.463-0.14-4.596c0.162-1.77,1.187-2.215,2.486-2.779
				c0.733-0.316,1.564-0.678,2.286-1.334C230.983,303.663,230.634,301.554,230.446,300.421z M218.119,299.021l0.141-0.039
				c1.272-0.348,4.834-0.426,4.858-0.426c0.036,0,3.597,0.078,4.87,0.426l0.141,0.039c0.924,0.252,1.322,0.367,1.52,0.605
				c-0.209,0.238-0.974,0.699-3.789,0.955c-0.916,0.082-2.033,0.119-2.735,0.119s-1.819-0.037-2.735-0.119
				c-2.828-0.256-3.586-0.725-3.789-0.955C216.797,299.388,217.193,299.272,218.119,299.021z M228.181,316.589
				c0.085,0.312,0.058,0.582-0.083,0.826c-0.396,0.688-1.589,0.998-2.098,1.133c-0.074,0.018-0.136,0.035-0.183,0.049
				c-0.517,0.15-1.999,0.273-2.693,0.273s-2.177-0.123-2.693-0.273c-0.047-0.014-0.108-0.031-0.183-0.049
				c-0.508-0.135-1.699-0.445-2.097-1.133c-0.142-0.244-0.168-0.514-0.083-0.826c0.369-1.35,2.854-1.816,3.67-1.936
				c-0.041,0.031-0.086,0.062-0.131,0.09v-0.002c-0.284,0.16-0.434,0.359-0.434,0.576c0,0.506,0.856,0.902,1.95,0.902
				c1.095,0,1.95-0.396,1.95-0.902c0-0.217-0.148-0.416-0.434-0.576v0.002c-0.045-0.027-0.089-0.059-0.131-0.09
				C225.326,314.772,227.811,315.239,228.181,316.589z M228.727,304.97c-0.654,0.596-1.406,0.922-2.135,1.236
				c-1.35,0.586-2.625,1.139-2.816,3.234c-0.213,2.334-0.246,3.988,0.252,5.023c0.014,0.027,0.03,0.051,0.051,0.072
				c0.023,0.023,0.048,0.041,0.076,0.055c0.116,0.141,0.254,0.258,0.42,0.352l0,0c0.189,0.115,0.294,0.248,0.294,0.375
				c0,0.33-0.716,0.697-1.744,0.697s-1.743-0.367-1.743-0.697c0-0.127,0.104-0.26,0.294-0.375l0,0
				c0.165-0.094,0.303-0.211,0.419-0.352c0.028-0.014,0.054-0.031,0.076-0.055c0.021-0.021,0.037-0.045,0.051-0.072
				c0.498-1.035,0.465-2.689,0.252-5.021c-0.191-2.098-1.467-2.65-2.816-3.236c-0.728-0.314-1.48-0.641-2.134-1.236
				c-1.664-1.514-1.358-3.357-1.176-4.459c0.015-0.086,0.028-0.168,0.038-0.242c0.029-0.189,0.059-0.336,0.107-0.455
				c0.353,0.34,1.336,0.742,3.878,0.973c0.923,0.084,2.048,0.123,2.754,0.123c0.707,0,1.832-0.039,2.755-0.123
				c2.541-0.23,3.525-0.633,3.878-0.975c0.048,0.121,0.077,0.268,0.106,0.457c0.01,0.074,0.023,0.156,0.038,0.242
				C230.084,301.612,230.391,303.456,228.727,304.97z"/>
		</g>
		<g>
			
				<rect x="259.486" y="299.94" fill="none" stroke="#FFFFFF" stroke-width="0.5" stroke-miterlimit="10" width="133.746" height="46.543"/>
			<g>
				<path d="M381.43,325.712c-9.374,0-17-7.626-17-17s7.626-17,17-17s17,7.626,17,17S390.804,325.712,381.43,325.712z"/>
				<path fill="#FFFFFF" d="M381.43,292.212c9.098,0,16.5,7.401,16.5,16.5s-7.402,16.5-16.5,16.5s-16.5-7.401-16.5-16.5
					S372.332,292.212,381.43,292.212 M381.43,291.212c-9.664,0-17.5,7.836-17.5,17.5c0,9.666,7.836,17.5,17.5,17.5
					c9.665,0,17.5-7.834,17.5-17.5C398.93,299.048,391.095,291.212,381.43,291.212L381.43,291.212z"/>
			</g>
			<g>
				<text transform="matrix(1 0 0 1 266.1094 327.207)" fill="#FFFFFF" font-family="'Gibson-Light'" font-size="10">Base Spirit : Vodka</text>
			</g>
			<g>
				<text transform="matrix(1 0 0 1 266.1094 340.5391)" fill="#FFFFFF" font-family="'Gibson-Light'" font-size="10">Profile : Spirit Forward, Sweet</text>
			</g>
			<text transform="matrix(1 0 0 1 266.1094 314.541)" fill="#FFFFFF" font-family="'Gibson-SemiBold'" font-size="12">Lorem Ipsuim</text>
			<path fill="#FFFFFF" d="M388.632,300.421c-0.015-0.084-0.027-0.164-0.038-0.236c-0.178-1.162-0.631-1.287-2.134-1.697
				l-0.14-0.037c-1.338-0.365-4.855-0.443-5.017-0.447c-0.148,0.004-3.665,0.082-5.004,0.447l-0.141,0.037
				c-1.503,0.41-1.956,0.535-2.134,1.697c-0.011,0.072-0.023,0.152-0.037,0.236c-0.188,1.133-0.537,3.242,1.349,4.957
				c0.721,0.656,1.552,1.018,2.286,1.334c1.299,0.564,2.324,1.01,2.484,2.779c0.197,2.133,0.24,3.66-0.138,4.596
				c-0.798,0.1-3.762,0.58-4.248,2.357c-0.124,0.455-0.078,0.873,0.137,1.246c0.513,0.887,1.86,1.24,2.437,1.391
				c0.066,0.018,0.124,0.031,0.166,0.045c0.587,0.172,2.109,0.295,2.849,0.295s2.263-0.123,2.849-0.295
				c0.043-0.014,0.1-0.027,0.167-0.045c0.575-0.15,1.923-0.504,2.437-1.391c0.215-0.373,0.26-0.791,0.135-1.246
				c-0.484-1.777-3.449-2.258-4.246-2.357c-0.378-0.936-0.334-2.463-0.14-4.596c0.162-1.77,1.187-2.215,2.486-2.779
				c0.733-0.316,1.564-0.678,2.286-1.334C389.169,303.663,388.819,301.554,388.632,300.421z M376.305,299.021l0.141-0.039
				c1.272-0.348,4.834-0.426,4.858-0.426c0.036,0,3.597,0.078,4.87,0.426l0.141,0.039c0.924,0.252,1.322,0.367,1.52,0.605
				c-0.209,0.238-0.974,0.699-3.789,0.955c-0.916,0.082-2.033,0.119-2.735,0.119s-1.819-0.037-2.735-0.119
				c-2.828-0.256-3.586-0.725-3.789-0.955C374.982,299.388,375.379,299.272,376.305,299.021z M386.366,316.589
				c0.085,0.312,0.058,0.582-0.083,0.826c-0.396,0.688-1.589,0.998-2.098,1.133c-0.074,0.018-0.136,0.035-0.183,0.049
				c-0.517,0.15-1.999,0.273-2.693,0.273s-2.177-0.123-2.693-0.273c-0.047-0.014-0.108-0.031-0.183-0.049
				c-0.508-0.135-1.699-0.445-2.097-1.133c-0.142-0.244-0.168-0.514-0.083-0.826c0.369-1.35,2.854-1.816,3.67-1.936
				c-0.041,0.031-0.086,0.062-0.131,0.09v-0.002c-0.284,0.16-0.434,0.359-0.434,0.576c0,0.506,0.856,0.902,1.95,0.902
				c1.095,0,1.95-0.396,1.95-0.902c0-0.217-0.148-0.416-0.434-0.576v0.002c-0.045-0.027-0.089-0.059-0.131-0.09
				C383.512,314.772,385.996,315.239,386.366,316.589z M386.912,304.97c-0.654,0.596-1.406,0.922-2.135,1.236
				c-1.35,0.586-2.625,1.139-2.816,3.234c-0.213,2.334-0.246,3.988,0.252,5.023c0.014,0.027,0.03,0.051,0.051,0.072
				c0.023,0.023,0.048,0.041,0.076,0.055c0.116,0.141,0.254,0.258,0.42,0.352l0,0c0.189,0.115,0.294,0.248,0.294,0.375
				c0,0.33-0.716,0.697-1.744,0.697s-1.743-0.367-1.743-0.697c0-0.127,0.104-0.26,0.294-0.375l0,0
				c0.165-0.094,0.303-0.211,0.419-0.352c0.028-0.014,0.054-0.031,0.076-0.055c0.021-0.021,0.037-0.045,0.051-0.072
				c0.498-1.035,0.465-2.689,0.252-5.021c-0.191-2.098-1.467-2.65-2.816-3.236c-0.728-0.314-1.48-0.641-2.134-1.236
				c-1.664-1.514-1.358-3.357-1.176-4.459c0.015-0.086,0.028-0.168,0.038-0.242c0.029-0.189,0.059-0.336,0.107-0.455
				c0.353,0.34,1.336,0.742,3.878,0.973c0.923,0.084,2.048,0.123,2.754,0.123c0.707,0,1.832-0.039,2.755-0.123
				c2.541-0.23,3.525-0.633,3.878-0.975c0.048,0.121,0.077,0.268,0.106,0.457c0.01,0.074,0.023,0.156,0.038,0.242
				C388.27,301.612,388.576,303.456,386.912,304.97z"/>
		</g>
		<g>
			
				<rect x="575.857" y="234.503" fill="none" stroke="#FFFFFF" stroke-width="0.5" stroke-miterlimit="10" width="133.746" height="46.543"/>
			<g>
				<path d="M697.801,260.274c-9.374,0-17-7.626-17-17s7.626-17,17-17s17,7.626,17,17S707.175,260.274,697.801,260.274z"/>
				<path fill="#FFFFFF" d="M697.801,226.774c9.098,0,16.5,7.401,16.5,16.5s-7.402,16.5-16.5,16.5s-16.5-7.401-16.5-16.5
					S688.703,226.774,697.801,226.774 M697.801,225.774c-9.664,0-17.5,7.836-17.5,17.5c0,9.666,7.836,17.5,17.5,17.5
					c9.665,0,17.5-7.834,17.5-17.5C715.301,233.61,707.466,225.774,697.801,225.774L697.801,225.774z"/>
			</g>
			<g>
				<text transform="matrix(1 0 0 1 582.4805 261.7695)" fill="#FFFFFF" font-family="'Gibson-Light'" font-size="10">Base Spirit : Vodka</text>
			</g>
			<g>
				<text transform="matrix(1 0 0 1 582.4805 275.1016)" fill="#FFFFFF" font-family="'Gibson-Light'" font-size="10">Profile : Spirit Forward, Sweet</text>
			</g>
			<text transform="matrix(1 0 0 1 582.4805 249.1035)" fill="#FFFFFF" font-family="'Gibson-SemiBold'" font-size="12">Lorem Ipsuim</text>
			<path fill="#FFFFFF" d="M705.003,234.983c-0.015-0.084-0.027-0.164-0.038-0.236c-0.178-1.162-0.631-1.287-2.134-1.697
				l-0.14-0.037c-1.338-0.365-4.855-0.443-5.017-0.447c-0.148,0.004-3.665,0.082-5.004,0.447l-0.141,0.037
				c-1.503,0.41-1.956,0.535-2.134,1.697c-0.011,0.072-0.023,0.152-0.037,0.236c-0.188,1.133-0.537,3.242,1.349,4.957
				c0.721,0.656,1.552,1.018,2.286,1.334c1.299,0.564,2.324,1.01,2.484,2.779c0.197,2.133,0.24,3.66-0.138,4.596
				c-0.798,0.1-3.762,0.58-4.248,2.357c-0.124,0.455-0.078,0.873,0.137,1.246c0.513,0.887,1.86,1.24,2.437,1.391
				c0.066,0.018,0.124,0.031,0.166,0.045c0.587,0.172,2.109,0.295,2.849,0.295s2.263-0.123,2.849-0.295
				c0.043-0.014,0.1-0.027,0.167-0.045c0.575-0.15,1.923-0.504,2.437-1.391c0.215-0.373,0.26-0.791,0.135-1.246
				c-0.484-1.777-3.449-2.258-4.246-2.357c-0.378-0.936-0.334-2.463-0.14-4.596c0.162-1.77,1.187-2.215,2.486-2.779
				c0.733-0.316,1.564-0.678,2.286-1.334C705.54,238.226,705.19,236.116,705.003,234.983z M692.676,233.583l0.141-0.039
				c1.272-0.348,4.834-0.426,4.858-0.426c0.036,0,3.597,0.078,4.87,0.426l0.141,0.039c0.924,0.252,1.322,0.367,1.52,0.605
				c-0.209,0.238-0.974,0.699-3.789,0.955c-0.916,0.082-2.033,0.119-2.735,0.119s-1.819-0.037-2.735-0.119
				c-2.828-0.256-3.586-0.725-3.789-0.955C691.354,233.95,691.75,233.835,692.676,233.583z M702.737,251.151
				c0.085,0.312,0.058,0.582-0.083,0.826c-0.396,0.688-1.589,0.998-2.098,1.133c-0.074,0.018-0.136,0.035-0.183,0.049
				c-0.517,0.15-1.999,0.273-2.693,0.273s-2.177-0.123-2.693-0.273c-0.047-0.014-0.108-0.031-0.183-0.049
				c-0.508-0.135-1.699-0.445-2.097-1.133c-0.142-0.244-0.168-0.514-0.083-0.826c0.369-1.35,2.854-1.816,3.67-1.936
				c-0.041,0.031-0.086,0.062-0.131,0.09v-0.002c-0.284,0.16-0.434,0.359-0.434,0.576c0,0.506,0.856,0.902,1.95,0.902
				c1.095,0,1.95-0.396,1.95-0.902c0-0.217-0.148-0.416-0.434-0.576v0.002c-0.045-0.027-0.089-0.059-0.131-0.09
				C699.883,249.335,702.367,249.802,702.737,251.151z M703.283,239.532c-0.654,0.596-1.406,0.922-2.135,1.236
				c-1.35,0.586-2.625,1.139-2.816,3.234c-0.213,2.334-0.246,3.988,0.252,5.023c0.014,0.027,0.03,0.051,0.051,0.072
				c0.023,0.023,0.048,0.041,0.076,0.055c0.116,0.141,0.254,0.258,0.42,0.352l0,0c0.189,0.115,0.294,0.248,0.294,0.375
				c0,0.33-0.716,0.697-1.744,0.697s-1.743-0.367-1.743-0.697c0-0.127,0.104-0.26,0.294-0.375l0,0
				c0.165-0.094,0.303-0.211,0.419-0.352c0.028-0.014,0.054-0.031,0.076-0.055c0.021-0.021,0.037-0.045,0.051-0.072
				c0.498-1.035,0.465-2.689,0.252-5.021c-0.191-2.098-1.467-2.65-2.816-3.236c-0.728-0.314-1.48-0.641-2.134-1.236
				c-1.664-1.514-1.358-3.357-1.176-4.459c0.015-0.086,0.028-0.168,0.038-0.242c0.029-0.189,0.059-0.336,0.107-0.455
				c0.353,0.34,1.336,0.742,3.878,0.973c0.923,0.084,2.048,0.123,2.754,0.123c0.707,0,1.832-0.039,2.755-0.123
				c2.541-0.23,3.525-0.633,3.878-0.975c0.048,0.121,0.077,0.268,0.106,0.457c0.01,0.074,0.023,0.156,0.038,0.242
				C704.641,236.175,704.947,238.019,703.283,239.532z"/>
		</g>
		<g>
			<rect x="784.301" y="209" fill="#FFFFFF" width="400" height="3"/>
			<g>
				<text transform="matrix(1 0 0 1 788.9961 198.8672)" fill="#FFFFFF" font-family="'Gibson-SemiBold'" font-size="20">Filters</text>
			</g>
			<g>
				<rect x="784.301" y="395" fill="#FFFFFF" width="400" height="1"/>
				<g>
					<text transform="matrix(1 0 0 1 788.9961 388.8672)" fill="#FFFFFF" font-family="'Gibson-SemiBold'" font-size="14">Flavor Profile</text>
				</g>
				<rect x="784.301" y="612" fill="#FFFFFF" width="400" height="1"/>
				<g>
					<text transform="matrix(1 0 0 1 788.9961 605.8672)"><tspan x="0" y="0" fill="#FFFFFF" font-family="'Gibson-SemiBold'" font-size="14">Recipe Tolerance : </tspan><tspan x="119.292" y="0" fill="#FFFFFF" font-family="'Gibson-Light'" font-size="14">A LITTLE LEEWAY</tspan></text>
				</g>
				<g>
					<g>
						<text transform="matrix(1 0 0 1 802.123 426.2725)" fill="#FFFFFF" font-family="'Gibson-Light'" font-size="17.1469">Bitter</text>
					</g>
					
						<rect x="784.61" y="410.334" fill="none" stroke="#FFFFFF" stroke-width="0.75" stroke-miterlimit="10" width="71.445" height="21.434"/>
				</g>
				<g>
					<rect x="866.415" y="410.334" fill="#FFFFFF" width="71.445" height="21.434"/>
					<g>
						<text transform="matrix(1 0 0 1 873.9658 426.2715)" font-family="'Gibson-SemiBold'" font-size="17.1469">Bubbly</text>
					</g>
				</g>
				<g>
					<g>
						<text transform="matrix(1 0 0 1 957.0918 426.2725)" fill="#FFFFFF" font-family="'Gibson-Light'" font-size="17.1469">Creamy</text>
					</g>
					
						<rect x="948.221" y="410.334" fill="none" stroke="#FFFFFF" stroke-width="0.75" stroke-miterlimit="10" width="71.445" height="21.434"/>
				</g>
				<g>
					<g>
						<text transform="matrix(1 0 0 1 1046.8096 426.2725)" fill="#FFFFFF" font-family="'Gibson-Light'" font-size="17.1469">Fruity</text>
					</g>
					
						<rect x="1030.025" y="410.334" fill="none" stroke="#FFFFFF" stroke-width="0.75" stroke-miterlimit="10" width="71.445" height="21.434"/>
				</g>
				<g>
					<g>
						<text transform="matrix(1 0 0 1 1124.3887 426.2715)" fill="#FFFFFF" font-family="'Gibson-Light'" font-size="17.1469">Savory</text>
					</g>
					
						<rect x="1111.831" y="410.334" fill="none" stroke="#FFFFFF" stroke-width="0.75" stroke-miterlimit="10" width="71.445" height="21.434"/>
				</g>
				<g>
					<g>
						<text transform="matrix(1 0 0 1 804.1807 458.6055)" fill="#FFFFFF" font-family="'Gibson-Light'" font-size="17.1469">Sour</text>
					</g>
					
						<rect x="784.61" y="442.667" fill="none" stroke="#FFFFFF" stroke-width="0.75" stroke-miterlimit="10" width="71.445" height="21.434"/>
				</g>
				<g>
					<g>
						<text transform="matrix(1 0 0 1 883.1562 458.6045)" fill="#FFFFFF" font-family="'Gibson-Light'" font-size="17.1469">Spicy</text>
					</g>
					
						<rect x="866.415" y="442.667" fill="none" stroke="#FFFFFF" stroke-width="0.75" stroke-miterlimit="10" width="71.445" height="21.434"/>
				</g>
				<g>
					<rect x="948.221" y="442.667" fill="#FFFFFF" width="71.445" height="21.434"/>
					<g>
						<text transform="matrix(1 0 0 1 959.6895 458.6045)" font-family="'Gibson-SemiBold'" font-size="17.1469">Sweet</text>
					</g>
				</g>
			</g>
			<g>
				<rect x="784.301" y="293" fill="#FFFFFF" width="400" height="1"/>
				<g>
					<text transform="matrix(1 0 0 1 788.9961 286.8672)" fill="#FFFFFF" font-family="'Gibson-SemiBold'" font-size="14">Spirit</text>
				</g>
				<g>
					<text transform="matrix(1 0 0 1 788.9199 323.0693)" fill="#FFFFFF" font-family="'Gibson-Light'" font-size="17.1469">Absinthe</text>
					
						<rect x="784.61" y="307.131" fill="none" stroke="#FFFFFF" stroke-width="0.75" stroke-miterlimit="10" width="71.445" height="21.434"/>
				</g>
				<g>
					<text transform="matrix(1 0 0 1 870.7246 323.0693)" fill="#FFFFFF" font-family="'Gibson-Light'" font-size="17.1469">Bourbon</text>
					
						<rect x="866.415" y="307.131" fill="none" stroke="#FFFFFF" stroke-width="0.75" stroke-miterlimit="10" width="71.445" height="21.434"/>
				</g>
				<g>
					<text transform="matrix(1 0 0 1 959.7412 323.0703)" fill="#FFFFFF" font-family="'Gibson-Light'" font-size="17.1469">Brandy</text>
					
						<rect x="948.221" y="307.131" fill="none" stroke="#FFFFFF" stroke-width="0.75" stroke-miterlimit="10" width="71.445" height="21.434"/>
				</g>
				<g>
					<rect x="1030.025" y="307.131" fill="#FFFFFF" width="71.446" height="21.434"/>
					<g>
						<g>
							<text transform="matrix(1 0 0 1 1052.0225 323.0703)" font-family="'Gibson-SemiBold'" font-size="17.1469">Gin</text>
						</g>
					</g>
				</g>
				<g opacity="0.5">
					<text transform="matrix(1 0 0 1 1129.3184 323.0703)" fill="#FFFFFF" font-family="'Gibson-Light'" font-size="17.1469">Pisco</text>
					
						<rect x="1111.831" y="307.131" fill="none" stroke="#FFFFFF" stroke-width="0.75" stroke-miterlimit="10" width="71.445" height="21.434"/>
				</g>
				<g>
					<text transform="matrix(1 0 0 1 805.0391 355.8369)" fill="#FFFFFF" font-family="'Gibson-Light'" font-size="17.1469">Rum</text>
					
						<rect x="784.61" y="339.897" fill="none" stroke="#FFFFFF" stroke-width="0.75" stroke-miterlimit="10" width="71.445" height="21.434"/>
				</g>
				<g>
					<rect x="866.415" y="339.897" fill="#FFFFFF" width="71.445" height="21.434"/>
					<text transform="matrix(1 0 0 1 887.6309 355.8369)" font-family="'Gibson-SemiBold'" font-size="17.1469">Rye</text>
				</g>
				<g>
					<text transform="matrix(1 0 0 1 959.8701 355.8369)" fill="#FFFFFF" font-family="'Gibson-Light'" font-size="17.1469">Scotch</text>
					
						<rect x="948.221" y="339.897" fill="none" stroke="#FFFFFF" stroke-width="0.75" stroke-miterlimit="10" width="71.445" height="21.434"/>
				</g>
				<g opacity="0.5">
					<g>
						<text transform="matrix(1 0 0 1 1041.4854 355.8369)" fill="#FFFFFF" font-family="'Gibson-Light'" font-size="17.1469">Tequila</text>
					</g>
					
						<rect x="1030.025" y="339.897" fill="none" stroke="#FFFFFF" stroke-width="0.75" stroke-miterlimit="10" width="71.446" height="21.434"/>
				</g>
				<g>
					<text transform="matrix(1 0 0 1 1125.3496 355.8369)" fill="#FFFFFF" font-family="'Gibson-Light'" font-size="17.1469">Vodka</text>
					
						<rect x="1111.831" y="339.897" fill="none" stroke="#FFFFFF" stroke-width="0.75" stroke-miterlimit="10" width="71.445" height="21.434"/>
				</g>
			</g>
			<rect x="784.301" y="501" fill="#FFFFFF" width="253" height="1"/>
			<g>
				<text transform="matrix(1 0 0 1 788.9961 494.8672)" fill="#FFFFFF" font-family="'Gibson-SemiBold'" font-size="14">Glass Type</text>
			</g>
			<rect x="1056.301" y="500" fill="#FFFFFF" width="123" height="1"/>
			<g>
				<text transform="matrix(1 0 0 1 1060.9961 493.8672)" fill="#FFFFFF" font-family="'Gibson-SemiBold'" font-size="14">Shaken Or Stirred</text>
			</g>
			<g>
				
					<line fill="none" stroke="#FFFFFF" stroke-width="0.75" stroke-miterlimit="10" x1="1170.342" y1="186" x2="1183.21" y2="198.867"/>
				
					<line fill="none" stroke="#FFFFFF" stroke-width="0.75" stroke-miterlimit="10" x1="1170.342" y1="198.867" x2="1183.21" y2="186"/>
			</g>
			<g>
				
					<rect x="784.301" y="229.081" fill="#FFFFFF" stroke="#FFFFFF" stroke-width="0.75" stroke-miterlimit="10" width="200" height="30"/>
				<g>
					<text transform="matrix(1 0 0 1 811.4004 249.3027)" font-family="'Gibson-SemiBold'" font-size="17.1469">Avaliable Cocktails</text>
				</g>
			</g>
			<g>
				<text transform="matrix(1 0 0 1 1041.8379 249.3027)" fill="#FFFFFF" font-family="'Gibson-Light'" font-size="17.1469">All Cocktails</text>
				
					<rect x="984.301" y="229.081" fill="none" stroke="#FFFFFF" stroke-width="0.75" stroke-miterlimit="10" width="200" height="30"/>
			</g>
			<path opacity="0.5" fill="#FFFFFF" d="M1100.339,542.961l-0.031-0.092c-0.009-0.021-0.881-2.458,0-4.244
				c0.578-1.176,0.709-2.155,0.386-2.911c-0.214-0.505-0.623-0.871-1.138-1.031c-0.328-0.181-0.714-1.795-0.921-2.661
				c-0.106-0.456-0.215-0.908-0.327-1.309c-0.387-1.367-2.081-2.904-3.515-4.09c-0.135-0.112-0.229-0.19-0.267-0.228
				c-0.093-0.093-0.152-0.188-0.183-0.249l0.001-1.897c0.212-0.197,0.267-0.414,0.265-0.601c-0.005-0.039-0.298-4.03-0.471-7.073
				c-0.048-0.803-0.401-1.469-0.996-1.871c-0.805-0.548-2.846-0.837-6.246-0.884c-3.388,0.047-5.426,0.336-6.229,0.884
				c-0.595,0.402-0.948,1.068-0.995,1.871c-0.176,3.043-0.468,7.034-0.475,7.113c0,0.157,0.053,0.365,0.266,0.562l0.001,1.896
				c-0.034,0.062-0.09,0.156-0.181,0.247c-0.038,0.04-0.138,0.117-0.272,0.231c-1.432,1.185-3.123,2.723-3.51,4.088
				c-0.114,0.401-0.223,0.855-0.332,1.313c-0.205,0.863-0.591,2.476-0.904,2.653c-0.529,0.163-0.936,0.529-1.15,1.034
				c-0.323,0.756-0.194,1.735,0.386,2.911c0.882,1.786,0.01,4.223,0,4.244l-0.033,0.092v0.094c0,0.243,0.065,0.473,0.193,0.695
				c-0.03,0.968-0.186,5.602-0.155,7.085c0.027,1.528,1.465,10.616,2.869,19.303c1.051,6.518,1.593,9.04,1.599,9.064l0.019,0.1
				l0.058,0.086c0.164,0.246,1.802,2.406,8.839,2.628h0.017h0.016c7.037-0.222,8.675-2.382,8.838-2.628l0.058-0.086l0.021-0.1
				c0.008-0.024,0.547-2.547,1.599-9.064c1.403-8.686,2.84-17.772,2.869-19.303c0.025-1.483-0.123-6.117-0.155-7.085
				c0.126-0.223,0.19-0.452,0.19-0.695V542.961z M1099.344,538.151c-0.969,1.971-0.275,4.395-0.086,4.968
				c-0.014,0.049-0.04,0.099-0.084,0.152l-0.013,0.02c-1.355,1.112-5.77,2.158-12.257,2.158c-6.488,0-10.901-1.046-12.259-2.156
				l-0.014-0.021c-0.04-0.054-0.069-0.104-0.081-0.152c0.188-0.573,0.884-2.997-0.086-4.968c-0.129-0.263-0.221-0.505-0.293-0.736
				c2.065,1.277,7.526,1.956,12.732,1.956s10.668-0.679,12.733-1.956C1099.564,537.646,1099.474,537.889,1099.344,538.151z
				 M1086.896,514.896c4.216,0.06,5.343,0.498,5.634,0.69c-0.327,0.163-1.484,0.455-5.623,0.51
				c-4.188-0.057-5.329-0.355-5.642-0.503l0.001-0.001C1081.549,515.402,1082.658,514.955,1086.896,514.896z M1080.744,516.639
				c0.013-0.229,0.075-0.514,0.243-0.755c0.357,0.229,1.522,0.557,5.92,0.615c4.39-0.059,5.554-0.386,5.914-0.615
				c0.167,0.241,0.23,0.525,0.243,0.754c0.155,2.676,0.398,6.081,0.459,6.876c-1.055,0.414-3.954,0.758-6.618,0.767
				c-2.665-0.009-5.566-0.353-6.619-0.767C1080.349,522.648,1080.592,519.284,1080.744,516.639z M1076.215,532.273
				c0.104-0.441,0.208-0.877,0.319-1.27c0.344-1.217,2.467-2.977,3.164-3.552c0.181-0.151,0.305-0.258,0.351-0.304
				c0.324-0.332,0.445-0.682,0.459-0.72l0.031-0.082l-0.001-2.326c1.417,0.403,4.186,0.653,6.367,0.662
				c2.226-0.009,4.954-0.251,6.365-0.66v2.324l0.027,0.082c0.015,0.038,0.137,0.388,0.462,0.721c0.046,0.045,0.17,0.151,0.348,0.3
				c0.697,0.577,2.82,2.336,3.163,3.555c0.112,0.388,0.218,0.826,0.32,1.267c0.335,1.399,0.635,2.629,1.223,3.175
				c-2.26,0.911-6.953,1.505-11.909,1.505c-5.185,0-9.644-0.637-11.806-1.609C1075.619,534.751,1075.902,533.588,1076.215,532.273z
				 M1074.104,536.134c0.112-0.266,0.323-0.383,0.484-0.433c0.053-0.019,0.104-0.053,0.154-0.08
				c2.157,1.062,6.703,1.731,12.161,1.731c5.271,0,10.09-0.638,12.327-1.646c0.156,0.051,0.359,0.165,0.475,0.427
				c0.079,0.188,0.09,0.431,0.059,0.708c-1.273,1.109-6.122,2.126-12.86,2.126c-6.74,0-11.588-1.017-12.86-2.126
				C1074.012,536.566,1074.021,536.322,1074.104,536.134z M1099.229,550.816c-0.028,1.659-2.009,13.917-2.854,19.152
				c-0.916,5.672-1.44,8.297-1.562,8.881c-0.323,0.342-2.117,1.907-7.908,2.093c-5.816-0.187-7.599-1.767-7.911-2.091
				c-0.118-0.581-0.644-3.204-1.56-8.885c-0.846-5.234-2.825-17.493-2.857-19.15c-0.024-1.411,0.12-5.901,0.157-6.97
				c1.912,1.204,6.614,2.004,12.171,2.004c5.554,0,10.257-0.8,12.171-2.004C1099.11,544.913,1099.253,549.405,1099.229,550.816z"/>
			<g>
				<g>
					<g>
						<path fill="#FFFFFF" d="M1153.454,580.502c-5.105,0-7.457-0.719-9.079-1.42c-1.592-0.688-1.817-2.2-1.825-2.263
							c-4.362-35.987-4.362-36.091-4.362-36.137c-0.094-0.532-0.364-2.648-0.761-5.925c-0.281-2.328,2.724-2.811,5.902-3.321
							l0.467-0.076c3.304-0.534,9.393-0.612,9.649-0.617c0.271,0.005,6.362,0.083,9.667,0.617l0.466,0.076
							c3.18,0.511,6.184,0.993,5.902,3.321c-0.396,3.276-0.666,5.393-0.764,5.958c0.003,0.013,0.003,0.116-4.358,36.095
							c-0.01,0.071-0.235,1.584-1.827,2.271C1160.907,579.783,1158.56,580.502,1153.454,580.502z M1153.445,531.849
							c-0.047,0.001-6.251,0.08-9.474,0.604l-0.467,0.074c-3.196,0.511-5.123,0.908-4.979,2.1c0.528,4.396,0.698,5.587,0.754,5.905
							c0.014,0.092,0.012,0.094,0.012,0.151c0.052,0.501,4.312,35.641,4.354,35.995c0.006,0.025,0.159,0.956,1.168,1.391
							c1.521,0.657,3.735,1.329,8.641,1.329c4.904,0,7.12-0.672,8.641-1.329c1.006-0.435,1.163-1.365,1.17-1.402
							c0.04-0.343,4.301-35.482,4.353-36.029c-0.002-0.012-0.005-0.014,0.013-0.105c0.052-0.318,0.223-1.509,0.754-5.905
							c0.143-1.191-1.786-1.589-4.979-2.1l-0.47-0.074C1159.714,531.929,1153.509,531.85,1153.445,531.849z"/>
					</g>
					<g>
						<path fill="#FFFFFF" d="M1153.454,576.723c-1.257,0-1.829,0-4.949-0.346c-3.062-0.338-4.725-1.564-5.824-2.375l-0.11-0.08
							l0.248-0.334l0.106,0.081c1.065,0.783,2.674,1.972,5.624,2.296c3.099,0.342,3.665,0.342,4.905,0.342
							c1.239,0,1.807,0,4.904-0.342c2.947-0.324,4.558-1.513,5.621-2.295l0.111-0.082l0.245,0.334l-0.109,0.08
							c-1.1,0.811-2.764,2.038-5.822,2.375C1155.284,576.723,1154.71,576.723,1153.454,576.723z"/>
					</g>
					<g>
						<path fill="#FFFFFF" d="M1153.454,536.653c-3.04,0-8.021-0.353-11.662-1.032c-3.643-0.68-3.989-1.625-4.02-1.809l0.408-0.072
							l0,0c0,0,0.304,0.843,3.688,1.473c3.614,0.675,8.563,1.027,11.585,1.027c3.019,0,7.97-0.353,11.586-1.027
							c3.389-0.631,3.688-1.476,3.69-1.483l0.404,0.083c-0.032,0.184-0.377,1.129-4.02,1.809
							C1161.475,536.301,1156.493,536.653,1153.454,536.653z"/>
					</g>
				</g>
				<g>
					<path fill="#FFFFFF" d="M1153.243,553.209c-7.524,0-13.415-1.161-13.415-2.645c0-1.484,5.891-2.647,13.415-2.647
						c7.618,0,13.818,1.188,13.818,2.647C1167.062,552.021,1160.861,553.209,1153.243,553.209z M1153.243,548.057
						c-8.201,0-13.279,1.301-13.279,2.508c0,1.206,5.078,2.507,13.279,2.507c8.185,0,13.681-1.297,13.681-2.507
						C1166.924,549.354,1161.428,548.057,1153.243,548.057z"/>
				</g>
				<g>
					<g>
						<path fill="#FFFFFF" d="M1163.678,523.105c1.198-5.05,2.162-9.092,2.555-10.751l1.732,0.42l-1.011,3.959
							c-0.451,1.767-0.985,3.864-1.571,6.165c0.103-0.015,0.2-0.029,0.301-0.044c0.576-2.257,1.098-4.316,1.542-6.052l1.08-4.232
							l-2.281-0.555l-0.032,0.137c-0.376,1.576-1.365,5.746-2.611,10.984C1163.481,523.125,1163.576,523.114,1163.678,523.105z"/>
					</g>
					<g>
						<path fill="#FFFFFF" d="M1157.24,561.947c-0.405-0.921-0.961-2.182-0.829-2.715c0.045-0.192,5.218-20.476,8.824-34.625
							c-0.101,0.014-0.197,0.03-0.299,0.042c-3.606,14.142-8.751,34.325-8.798,34.516c-0.155,0.627,0.375,1.831,0.847,2.895
							c0.125,0.284,0.241,0.548,0.331,0.774c0.881,2.184,1.111,4.288,0.669,6.085c-0.323,1.306-1.071,2.802-1.95,3.912
							c-0.765,0.963-1.999,2.11-3.538,2.11h-0.001c-0.246,0-0.498-0.031-0.744-0.09c-1.722-0.421-2.457-2.056-2.773-3.354
							c-0.426-1.769-0.277-3.623,0.006-4.77c0.442-1.799,1.625-3.558,3.417-5.09c0.186-0.158,0.411-0.34,0.653-0.534
							c0.912-0.728,1.947-1.553,2.1-2.179c0.047-0.188,4.793-20.146,8.112-34.103c-0.099,0.011-0.194,0.02-0.293,0.028
							c-3.317,13.947-8.045,33.82-8.09,34.009c-0.134,0.534-1.214,1.398-2.003,2.027c-0.246,0.198-0.476,0.38-0.662,0.54
							c-1.838,1.569-3.05,3.38-3.506,5.234c-0.289,1.179-0.446,3.084-0.005,4.899c0.332,1.375,1.116,3.106,2.976,3.56
							c0.27,0.066,0.542,0.1,0.812,0.1h0.001c2.879,0,5.14-3.72,5.759-6.235c0.456-1.854,0.222-4.015-0.679-6.251
							C1157.485,562.503,1157.365,562.236,1157.24,561.947z"/>
					</g>
				</g>
				<g>
					<path fill="#FFFFFF" d="M1171.012,521.908c-0.115-0.105-0.291-0.099-0.396,0.016c-0.937,1.006-6.183,2.045-13.341,2.045
						c-8.413,0-13.068-1.357-13.068-2.297c0-0.385,0.907-0.986,3.387-1.495l0.076,0.499l2.236-1.184l-2.469-0.342l0.071,0.475
						c-2.561,0.521-3.859,1.207-3.859,2.047c0,1.875,6.855,2.854,13.626,2.854c6.769,0,12.552-0.937,13.752-2.224
						C1171.133,522.188,1171.125,522.012,1171.012,521.908z"/>
				</g>
			</g>
			<path opacity="0.5" fill="#FFFFFF" d="M819.727,518.928c-0.115-2.264-2.63-2.928-5.908-3.562
				c-2.316-0.448-5.349-0.518-6.951-0.518c-0.782,0-1.295,0.02-1.295,0.02c-0.042,0-0.551-0.02-1.334-0.02
				c-1.604,0-4.635,0.069-6.951,0.518c-3.279,0.635-5.797,1.299-5.911,3.563c-0.133,2.639-0.005,8.448,0,8.692l0.933,47.341
				c-0.011,0.444,0.145,2.963,5.175,3.87c4.513,0.815,7.424,0.858,7.962,0.858l0.095-0.001l0.121,0.001l0,0
				c0.537,0,3.449-0.043,7.962-0.858c5.025-0.907,5.185-3.426,5.171-3.87l0.933-47.338
				C819.734,527.377,819.859,521.567,819.727,518.928z M797.546,516.693c2.201-0.427,5.138-0.49,6.692-0.49
				c0.786,0,1.286,0.018,1.334,0.018c0.007,0,0.508-0.018,1.295-0.018c1.556,0,4.491,0.063,6.692,0.49
				c3.077,0.597,4.76,1.14,4.814,2.304c0.007,0.104,0.013,0.223,0.02,0.339c-0.47,0.325-1.437,0.756-3.44,1.003
				c-5.512,0.681-9.357,0.615-9.405,0.613c-0.039,0.002-3.882,0.067-9.396-0.613c-2.003-0.247-2.972-0.681-3.435-1.003
				c0.003-0.114,0.008-0.233,0.012-0.339C792.788,517.833,794.466,517.29,797.546,516.693z M813.38,577.503
				c-4.397,0.794-7.198,0.833-7.719,0.833l0,0h-0.12h-0.096c-0.517,0-3.322-0.039-7.724-0.833c-4.067-0.738-4.06-2.469-4.06-2.469
				l0.002-0.042l-0.041-2.135c0.841,0.636,2.219,1.529,3.818,1.98c2.438,0.687,5.789,0.93,8.112,0.93s5.673-0.243,8.109-0.93
				c1.601-0.451,2.982-1.345,3.822-1.981l-0.044,2.157C817.442,575.031,817.456,576.765,813.38,577.503z M818.371,527.596
				l-0.872,44.6c-0.744,0.601-2.237,1.665-3.972,2.153c-2.392,0.672-5.686,0.909-7.974,0.909c-2.291,0-5.587-0.237-7.976-0.909
				c-1.732-0.486-3.223-1.551-3.97-2.149l-0.878-44.605c-0.002-0.053-0.104-4.82-0.032-7.676c0.613,0.348,1.646,0.709,3.391,0.924
				c5.554,0.687,9.43,0.615,9.459,0.615c0.006,0,0.121,0.002,0.337,0.002c1.058,0,4.517-0.049,9.128-0.617
				c1.749-0.215,2.782-0.576,3.397-0.924C818.48,522.773,818.375,527.541,818.371,527.596z"/>
			<g opacity="0.5">
				<g>
					<path fill="#FFFFFF" d="M873.632,519.573c-2.652,0-7.662-0.356-7.662-1.696h0.506c0,0.403,2.527,1.186,7.156,1.186
						c4.631,0,7.154-0.782,7.154-1.186h0.51C881.296,519.217,876.282,519.573,873.632,519.573z"/>
				</g>
				<g>
					<path fill="#FFFFFF" d="M873.632,579.69c-5.873,0-10.305-2.039-10.305-4.74c0-2.276,3.244-4.144,7.953-4.625
						c0.551-3.492,0.459-9.776,0.402-13.609c-0.012-0.905-0.025-1.667-0.025-2.219c0-2.355-0.998-3.922-2.16-5.729
						c-0.539-0.84-1.092-1.703-1.604-2.716c-1.688-3.382-2.207-8.426-2.549-11.768l-0.084-0.801
						c-0.342-3.23,0.262-15.138,0.287-15.646c-0.002-1.65,5.447-2.196,8.084-2.196c2.641,0,8.088,0.546,8.088,2.234
						c0.023,0.47,0.627,12.377,0.285,15.607l-0.084,0.801c-0.346,3.342-0.861,8.386-2.553,11.768
						c-0.504,1.013-1.059,1.876-1.598,2.716c-1.162,1.807-2.162,3.373-2.162,5.729c0,0.552-0.012,1.313-0.025,2.219
						c-0.057,3.833-0.146,10.117,0.404,13.609c4.707,0.481,7.953,2.349,7.953,4.625C883.94,577.651,879.509,579.69,873.632,579.69z
						 M866.89,518.093c-0.082,1.666-0.588,12.352-0.281,15.25l0.082,0.803c0.336,3.241,0.838,8.142,2.416,11.3
						c0.479,0.948,1.012,1.783,1.527,2.591c1.221,1.907,2.377,3.706,2.377,6.461c0,0.547,0.012,1.302,0.023,2.199
						c0.062,4.071,0.16,10.887-0.516,14.384l-0.096,0.506l-0.514,0.039c-4.523,0.356-7.229,1.97-7.229,3.325
						c0,1.601,3.676,3.386,8.951,3.386c5.277,0,8.953-1.785,8.953-3.386c0-1.355-2.701-2.969-7.227-3.325l-0.514-0.039l-0.098-0.506
						c-0.678-3.497-0.574-10.312-0.516-14.384c0.012-0.897,0.021-1.652,0.021-2.199c0-2.755,1.156-4.554,2.379-6.461
						c0.518-0.808,1.053-1.643,1.525-2.591c1.582-3.158,2.084-8.056,2.416-11.296l0.084-0.809
						c0.311-2.914-0.205-13.709-0.277-15.248c-0.564-0.353-3.072-1.095-6.748-1.095S867.446,517.741,866.89,518.093z"/>
				</g>
				<g>
					<path fill="#FFFFFF" d="M873.632,574.93c-1.777,0-3.576-0.448-3.576-1.307c0-0.383,0.348-0.575,0.791-0.829l0.117-0.065
						c0.287-0.166,0.98-0.655,1.051-1.562l0.504,0.042c-0.088,1.145-0.943,1.753-1.303,1.958l-0.123,0.072
						c-0.236,0.133-0.529,0.298-0.529,0.384c0,0.272,1.084,0.798,3.068,0.798c1.986,0,3.072-0.525,3.072-0.798
						c0-0.086-0.297-0.251-0.529-0.384l-0.121-0.072c-0.365-0.205-1.219-0.813-1.307-1.958l0.506-0.042
						c0.07,0.906,0.758,1.396,1.049,1.562l0.121,0.065c0.443,0.254,0.789,0.446,0.789,0.829
						C877.212,574.481,875.409,574.93,873.632,574.93z"/>
				</g>
			</g>
			<path fill="#FFFFFF" d="M959.684,533.063c-0.033-0.207-0.062-0.398-0.092-0.578c-0.438-2.854-1.549-3.159-5.236-4.165
				l-0.346-0.093c-3.281-0.899-11.912-1.089-12.307-1.097c-0.365,0.008-8.998,0.197-12.279,1.097l-0.342,0.093
				c-3.691,1.006-4.803,1.312-5.238,4.165c-0.025,0.18-0.061,0.371-0.094,0.578c-0.461,2.78-1.316,7.954,3.309,12.165
				c1.77,1.61,3.812,2.496,5.611,3.279c3.184,1.381,5.703,2.473,6.102,6.818c0.479,5.232,0.58,8.98-0.346,11.279
				c-1.953,0.238-9.227,1.417-10.424,5.777c-0.301,1.116-0.191,2.146,0.34,3.062c1.258,2.176,4.562,3.039,5.975,3.41
				c0.168,0.045,0.305,0.079,0.41,0.108c1.441,0.424,5.176,0.728,6.99,0.728c1.816,0,5.551-0.304,6.99-0.728
				c0.104-0.029,0.246-0.063,0.41-0.108c1.412-0.371,4.719-1.234,5.975-3.41c0.529-0.915,0.645-1.945,0.338-3.062
				c-1.193-4.36-8.469-5.539-10.422-5.777c-0.93-2.299-0.82-6.047-0.344-11.279c0.4-4.346,2.914-5.438,6.1-6.818
				c1.803-0.783,3.84-1.669,5.611-3.279C961.002,541.018,960.143,535.844,959.684,533.063z M929.436,529.629l0.346-0.096
				c3.121-0.855,11.863-1.046,11.922-1.049c0.088,0.003,8.83,0.193,11.951,1.049l0.346,0.096c2.268,0.618,3.242,0.9,3.727,1.482
				c-0.508,0.589-2.389,1.719-9.295,2.346c-2.248,0.205-4.992,0.296-6.715,0.296c-1.719,0-4.467-0.091-6.711-0.296
				c-6.939-0.631-8.801-1.777-9.297-2.345C926.191,530.529,927.166,530.248,929.436,529.629z M954.125,572.739
				c0.209,0.767,0.141,1.43-0.207,2.029c-0.971,1.685-3.898,2.449-5.143,2.778c-0.184,0.044-0.334,0.086-0.449,0.118
				c-1.266,0.371-4.902,0.672-6.609,0.672c-1.703,0-5.34-0.301-6.611-0.672c-0.111-0.032-0.264-0.074-0.443-0.118
				c-1.25-0.329-4.174-1.094-5.146-2.778c-0.348-0.6-0.416-1.263-0.207-2.029c0.91-3.311,7.004-4.459,9.008-4.751
				c-0.102,0.079-0.207,0.152-0.324,0.221v-0.002c-0.695,0.394-1.061,0.882-1.061,1.417c0,1.238,2.102,2.213,4.785,2.213
				s4.787-0.975,4.787-2.213c0-0.535-0.367-1.023-1.064-1.417l-0.002,0.002c-0.109-0.068-0.217-0.142-0.318-0.221
				C947.121,568.28,953.219,569.429,954.125,572.739z M955.465,544.229c-1.605,1.46-3.453,2.26-5.236,3.036
				c-3.312,1.436-6.441,2.792-6.914,7.935c-0.521,5.727-0.602,9.788,0.621,12.326c0.031,0.068,0.072,0.127,0.125,0.182
				c0.051,0.051,0.117,0.095,0.184,0.131c0.287,0.345,0.623,0.634,1.031,0.861l0,0c0.465,0.28,0.721,0.605,0.721,0.925
				c0,0.804-1.756,1.704-4.279,1.704c-2.521,0-4.281-0.9-4.281-1.704c0-0.319,0.256-0.645,0.725-0.925l0,0
				c0.406-0.228,0.744-0.517,1.031-0.861c0.068-0.036,0.129-0.08,0.186-0.131c0.049-0.055,0.09-0.113,0.123-0.182
				c1.223-2.538,1.143-6.6,0.617-12.324c-0.467-5.145-3.598-6.501-6.912-7.937c-1.785-0.776-3.631-1.576-5.234-3.036
				c-4.086-3.717-3.334-8.239-2.885-10.945c0.033-0.211,0.066-0.409,0.096-0.593c0.072-0.464,0.141-0.827,0.26-1.119
				c0.863,0.835,3.281,1.826,9.518,2.391c2.264,0.205,5.023,0.296,6.758,0.296s4.496-0.091,6.76-0.296
				c6.236-0.564,8.648-1.556,9.518-2.392c0.115,0.293,0.189,0.656,0.26,1.12c0.027,0.184,0.061,0.382,0.094,0.593
				C958.797,535.989,959.549,540.512,955.465,544.229z"/>
			<path opacity="0.5" fill="#FFFFFF" d="M1023.463,537.433c-4.043-0.937-13.268-1.016-13.67-1.017
				c-0.388,0.001-9.612,0.08-13.655,1.017c-4.061,0.939-5.991,2.334-5.898,4.266c0.066,1.357,1.425,31.797,1.425,31.797
				c0.001,0.125,0.112,3.014,3.887,4.343c3.537,1.249,8.201,1.853,14.25,1.853c6.051,0,10.712-0.604,14.251-1.853
				c3.773-1.329,3.882-4.218,3.884-4.324c0.014-0.307,1.359-30.473,1.422-31.815
				C1029.452,539.767,1027.521,538.372,1023.463,537.433z M996.445,538.751c3.896-0.9,13.264-0.981,13.348-0.981
				c0.096,0,9.466,0.081,13.364,0.981c3.179,0.739,4.901,1.759,4.85,2.884c-0.004,0.102-0.017,0.367-0.038,0.768
				c-0.52,0.45-1.634,1.043-4.048,1.538c-4.721,0.963-10.083,0.955-13.61,0.959h-0.51h-0.51c-3.542,0.002-8.892,0.004-13.612-0.959
				c-2.412-0.495-3.528-1.088-4.05-1.538c-0.019-0.4-0.029-0.666-0.036-0.768C991.537,540.51,993.263,539.49,996.445,538.751z
				 M1026.581,573.467c0,0.021-0.077,2.072-2.979,3.096c-3.391,1.194-7.907,1.774-13.802,1.774c-5.896,0-10.41-0.58-13.804-1.774
				c-2.852-1.006-2.977-3.019-2.979-3.11c0,0-0.021-0.511-0.062-1.4c2.146,1.518,3.062,1.892,5.64,2.501
				c2.845,0.671,8.431,1.043,11.205,1.043s8.359-0.372,11.201-1.043c2.582-0.609,3.496-0.983,5.646-2.501
				C1026.607,572.913,1026.584,573.426,1026.581,573.467z M1026.674,571.407c-2.318,1.665-3.165,2.033-5.787,2.649
				c-2.808,0.663-8.336,1.031-11.086,1.031c-2.752,0-8.279-0.368-11.087-1.031c-2.622-0.616-3.47-0.984-5.786-2.649
				c-0.268-5.957-1.04-23.217-1.27-28.358c0.703,0.467,1.893,0.971,3.919,1.389c4.771,0.976,10.16,0.967,13.714,0.967h0.51h0.51
				c0.182,0,0.368,0,0.562,0c3.55,0,8.624-0.043,13.149-0.967c2.03-0.415,3.216-0.922,3.922-1.389
				C1027.711,548.187,1026.94,565.429,1026.674,571.407z"/>
			<g>
				<rect x="784.301" y="636.667" fill="none" stroke="#FFFFFF" stroke-miterlimit="10" width="400" height="4.014"/>
				<rect x="784.301" y="636.667" fill="#FFFFFF" width="267.555" height="4.014"/>
				<circle stroke="#FFFFFF" stroke-width="2" stroke-miterlimit="10" cx="1051.301" cy="638.674" r="15"/>
				<g>
					<line stroke="#FFFFFF" stroke-miterlimit="10" x1="1054.301" y1="634.944" x2="1054.301" y2="642.791"/>
					<line stroke="#FFFFFF" stroke-miterlimit="10" x1="1051.301" y1="634.944" x2="1051.301" y2="642.791"/>
					<line stroke="#FFFFFF" stroke-miterlimit="10" x1="1048.301" y1="634.791" x2="1048.301" y2="642.638"/>
				</g>
			</g>
			<circle fill="#FFFFFF" cx="786.967" cy="670" r="2.667"/>
			<circle fill="#FFFFFF" cx="919.412" cy="670" r="2.667"/>
			<circle fill="#FFFFFF" cx="1051.856" cy="670" r="2.667"/>
			<circle fill="#FFFFFF" cx="1184.3" cy="670" r="2.667"/>
		</g>
	</g>
</g>
<g id="Layer_3">
	<g>
		<g opacity="0.5">
			<g>
				<path fill="#FFFFFF" d="M437.168,106.473c-16.543,0-30-13.458-30-30s13.457-30,30-30s30,13.458,30,30
					S453.711,106.473,437.168,106.473z M437.168,50.668c-14.229,0-25.805,11.575-25.805,25.805s11.576,25.805,25.805,25.805
					s25.805-11.575,25.805-25.805S451.396,50.668,437.168,50.668z"/>
			</g>
			<g>
				<path fill="#FFFFFF" d="M430.783,86.367c-0.467,0-0.895-0.051-1.066-0.496L423.113,69h-3.932c-0.633,0-1.146-0.868-1.146-1.5
					c0-0.631,0.514-1.5,1.146-1.5h4.717c0.473,0,0.896,0.41,1.066,0.852l6.568,17.075l17.449-2.32L451.895,72h-20.512
					c-0.631,0-1.143-0.368-1.143-1c0-0.633,0.512-1,1.143-1h22.07c0.363,0,0.705,0.391,0.922,0.684
					c0.215,0.293,0.279,0.781,0.17,1.129l-3.604,11.525c-0.135,0.432-0.512,0.77-0.961,0.822l-19.066,2.187
					C430.871,86.353,430.826,86.367,430.783,86.367z"/>
			</g>
			<g>
				<circle fill="#FFFFFF" cx="431.726" cy="90.058" r="2.177"/>
			</g>
			<g>
				<circle fill="#FFFFFF" cx="448.674" cy="90.058" r="2.178"/>
			</g>
		</g>
		<g opacity="0.5">
			<g>
				<path fill="#FFFFFF" d="M528.668,106.473c-16.543,0-30-13.458-30-30c0-16.543,13.457-30,30-30s30,13.457,30,30
					C558.668,93.015,545.211,106.473,528.668,106.473z M528.668,50.667c-14.229,0-25.805,11.577-25.805,25.806
					s11.576,25.805,25.805,25.805s25.805-11.576,25.805-25.805S542.896,50.667,528.668,50.667z"/>
			</g>
			<g>
				<g>
					
						<line fill="none" stroke="#FFFFFF" stroke-width="2" stroke-linecap="round" stroke-miterlimit="10" x1="521.105" y1="63.805" x2="543.105" y2="63.805"/>
					<path fill="#FFFFFF" d="M518.23,63.805c0,1.105-0.898,2-2,2c-1.109,0-2-0.895-2-2s0.891-2,2-2
						C517.332,61.805,518.23,62.699,518.23,63.805z"/>
				</g>
				<g>
					
						<line fill="none" stroke="#FFFFFF" stroke-width="2" stroke-linecap="round" stroke-miterlimit="10" x1="521.105" y1="71.598" x2="543.105" y2="71.598"/>
					<path fill="#FFFFFF" d="M518.23,71.598c0,1.105-0.898,2-2,2c-1.109,0-2-0.895-2-2s0.891-2,2-2
						C517.332,69.598,518.23,70.492,518.23,71.598z"/>
				</g>
				<g>
					
						<line fill="none" stroke="#FFFFFF" stroke-width="2" stroke-linecap="round" stroke-miterlimit="10" x1="521.105" y1="79.389" x2="543.105" y2="79.389"/>
					<path fill="#FFFFFF" d="M518.23,79.389c0,1.105-0.898,2-2,2c-1.109,0-2-0.895-2-2s0.891-2,2-2
						C517.332,77.389,518.23,78.283,518.23,79.389z"/>
				</g>
				<g>
					
						<line fill="none" stroke="#FFFFFF" stroke-width="2" stroke-linecap="round" stroke-miterlimit="10" x1="521.105" y1="87.181" x2="543.105" y2="87.181"/>
					<path fill="#FFFFFF" d="M518.23,87.181c0,1.105-0.898,2-2,2c-1.109,0-2-0.895-2-2s0.891-2,2-2
						C517.332,85.181,518.23,86.075,518.23,87.181z"/>
				</g>
			</g>
		</g>
		<g opacity="0.5">
			<g>
				<path fill="#FFFFFF" d="M841.293,106.473c-16.543,0-30-13.458-30-30c0-16.541,13.457-30,30-30s30,13.459,30,30
					C871.293,93.015,857.836,106.473,841.293,106.473z M841.293,50.668c-14.229,0-25.805,11.576-25.805,25.805
					s11.576,25.806,25.805,25.806s25.805-11.577,25.805-25.806S855.521,50.668,841.293,50.668z"/>
			</g>
			<polygon fill="#FFFFFF" points="835.869,61.623 851.875,76.473 835.869,91.322 			"/>
		</g>
		<g>
			<g>
				<path fill="#FFFFFF" d="M639.543,126.378c-27.571,0-50-22.43-50-50c0-27.568,22.429-50,50-50s50,22.432,50,50
					C689.543,103.948,667.114,126.378,639.543,126.378z M639.543,33.37c-23.714,0-43.008,19.294-43.008,43.008
					s19.294,43.01,43.008,43.01s43.008-19.296,43.008-43.01S663.257,33.37,639.543,33.37z"/>
			</g>
			<g>
				<circle fill="none" stroke="#FFFFFF" stroke-width="3" stroke-miterlimit="10" cx="644.971" cy="69.034" r="13.32"/>
				
					<line fill="none" stroke="#FFFFFF" stroke-width="3" stroke-miterlimit="10" x1="620.796" y1="97.042" x2="633.947" y2="81.806"/>
			</g>
		</g>
		<g opacity="0.5">
			<g>
				<path fill="#FFFFFF" d="M742.832,88.99c-0.025-0.381-0.055-0.811-0.055-1.354V70.508c0-0.238-0.178-0.6-0.674-1.301h0.014
					l-0.484-0.643c-0.184-0.246-0.371-0.486-0.545-0.709c-0.018-0.023-0.035-0.047-0.053-0.07c-0.014-0.016-0.029-0.033-0.041-0.051
					c-0.061-0.08-0.123-0.158-0.189-0.242c-0.521-0.668-0.605-2.037-0.592-2.52v-5.984c0-0.396-0.293-0.604-1.895-0.629
					c-1.59,0.025-1.879,0.232-1.879,0.629v5.996c0.012,0.471-0.068,1.838-0.594,2.508c-0.248,0.316-0.543,0.693-0.828,1.07
					l-0.486,0.645h0.016c-0.496,0.701-0.674,1.062-0.674,1.301v17.129c0,0.541-0.029,0.973-0.053,1.354
					c-0.021,0.299-0.039,0.582-0.039,0.859c0,1.484,1.166,1.561,4.545,1.561c3.377,0,4.543-0.076,4.543-1.561
					C742.869,89.572,742.852,89.289,742.832,88.99z M739.406,64.42h-2.162v-3.043h2.162V64.42z M739.408,65.225
					c0.012,0.422,0.074,1.277,0.361,2.027c-0.4-0.035-0.902-0.064-1.443-0.064s-1.043,0.029-1.445,0.064
					c0.291-0.754,0.352-1.611,0.361-2.027H739.408z M736.385,68.109c0.391-0.047,1.121-0.117,1.941-0.117
					c0.818,0,1.551,0.07,1.939,0.117c0.074,0.094,0.152,0.191,0.23,0.293h-4.342C736.24,68.293,736.318,68.195,736.385,68.109z
					 M738.318,59.164c0.412,0.006,0.848,0.041,1.088,0.08v1.328h-2.162v-1.328C737.484,59.205,737.918,59.17,738.318,59.164z
					 M738.326,90.605c-3.738,0-3.738-0.221-3.738-0.756c0-0.25,0.016-0.508,0.035-0.807c0.025-0.393,0.055-0.838,0.055-1.406
					l-0.002-17.096c0.043-0.193,0.443-0.764,0.867-1.334h5.566c0.422,0.566,0.82,1.127,0.863,1.301v17.129
					c0,0.568,0.029,1.014,0.055,1.406c0.02,0.299,0.037,0.557,0.037,0.807C742.064,90.385,742.064,90.605,738.326,90.605z"/>
				<path fill="#FFFFFF" d="M735.08,75.455v8.92v1.199h6.49v-1.199v-8.92v-1.199h-6.49V75.455z M735.885,76.26h4.881v7.311h-4.881
					V76.26z M740.766,84.77h-4.881v-0.395h4.881V84.77z M740.766,75.061v0.395h-4.881v-0.395H740.766z"/>
				<path fill="#FFFFFF" d="M735.924,72.562c0.008-0.008,0.998-0.717,2.402-0.717c1.402,0,2.393,0.709,2.4,0.715
					c0.072,0.055,0.156,0.08,0.24,0.08c0.123,0,0.244-0.057,0.324-0.164c0.131-0.178,0.094-0.432-0.086-0.562
					c-0.047-0.035-1.201-0.873-2.879-0.873c-1.68,0-2.834,0.838-2.881,0.873c-0.178,0.131-0.217,0.383-0.084,0.562
					C735.492,72.654,735.744,72.693,735.924,72.562z"/>
				<path fill="#FFFFFF" d="M736.465,72.896c-0.223,0-0.404,0.18-0.404,0.402s0.182,0.404,0.404,0.404h3.721
					c0.223,0,0.404-0.182,0.404-0.404s-0.182-0.402-0.404-0.402H736.465z"/>
			</g>
			<path fill="#FFFFFF" d="M767.305,89.15c-0.023-0.355-0.051-0.758-0.051-1.264V71.895c0-0.221-0.166-0.559-0.627-1.213h0.012
				l-0.453-0.602c-0.172-0.229-0.348-0.455-0.508-0.662c-0.018-0.021-0.035-0.043-0.051-0.064c-0.012-0.016-0.025-0.031-0.037-0.047
				c-0.059-0.074-0.115-0.148-0.176-0.227c-0.488-0.623-0.566-1.902-0.555-2.352v-5.588c0-0.371-0.271-0.562-1.768-0.588
				c-1.484,0.025-1.756,0.217-1.756,0.588l0.002,5.598c0.012,0.439-0.064,1.717-0.557,2.342c-0.23,0.295-0.506,0.646-0.77,1
				l-0.455,0.602h0.012c-0.461,0.654-0.627,0.992-0.627,1.213v15.992c0,0.506-0.027,0.908-0.051,1.264
				c-0.02,0.279-0.035,0.543-0.035,0.803c0,1.387,1.09,1.457,4.242,1.457c3.154,0,4.244-0.07,4.244-1.457
				C767.342,89.693,767.324,89.43,767.305,89.15z M764.107,66.213h-2.02v-2.842h2.02V66.213z M764.109,66.965
				c0.01,0.393,0.068,1.189,0.338,1.891c-0.375-0.033-0.844-0.061-1.35-0.061c-0.504,0-0.973,0.029-1.35,0.061
				c0.271-0.703,0.328-1.504,0.338-1.891H764.109z M761.285,69.656c0.365-0.043,1.049-0.109,1.812-0.109
				c0.766,0,1.449,0.066,1.812,0.109c0.068,0.088,0.141,0.18,0.213,0.273h-4.051C761.15,69.828,761.225,69.736,761.285,69.656z
				 M763.092,61.305c0.385,0.006,0.791,0.037,1.016,0.074v1.24h-2.02v-1.24C762.312,61.342,762.717,61.311,763.092,61.305z
				 M763.098,90.658c-3.49,0-3.49-0.207-3.49-0.705c0-0.234,0.016-0.475,0.035-0.754c0.023-0.365,0.051-0.781,0.051-1.312
				l-0.004-15.961c0.043-0.18,0.414-0.713,0.811-1.244h5.197c0.395,0.527,0.766,1.051,0.805,1.213v15.992
				c0,0.531,0.027,0.947,0.053,1.312c0.02,0.279,0.033,0.52,0.033,0.754C766.59,90.451,766.59,90.658,763.098,90.658z"/>
			<path fill="#FFFFFF" d="M755.771,88.762c0-0.164-0.021-1-0.189-1.408c-0.09-0.217-0.15-0.758-0.168-1.016
				c0.004-0.15,0.346-15.135,0.357-16.434c0.016-1.568-1.379-3.043-2.262-3.604c-0.594-0.379-0.732-1.725-0.734-2.164v-6.285
				c0-0.51-0.508-0.768-1.508-0.768c-0.145,0-0.258,0.006-0.307,0.008c-0.049-0.002-0.164-0.008-0.307-0.008
				c-1,0-1.508,0.258-1.508,0.768v6.283c-0.002,0.441-0.143,1.787-0.736,2.166c-0.883,0.561-2.277,2.035-2.262,3.604
				c0.012,1.299,0.355,16.283,0.359,16.4c-0.018,0.289-0.078,0.832-0.168,1.049c-0.17,0.406-0.189,1.244-0.189,1.369
				c-0.008,0.074-0.062,0.742,0.537,1.41c0.762,0.85,2.199,1.281,4.273,1.281s3.512-0.432,4.273-1.281
				C755.832,89.465,755.777,88.797,755.771,88.762z M751.984,62.998h-2.047v-2.684h2.047V62.998z M750.654,57.875
				c0.158,0,0.273,0.008,0.279,0.008l0.027,0.002l0.027-0.002c0.006,0,0.119-0.008,0.277-0.008c0.4,0,0.619,0.047,0.719,0.082v1.564
				h-2.047v-1.564C750.035,57.922,750.254,57.875,750.654,57.875z M754.625,89.625c-0.422,0.455-1.402,0.996-3.664,0.996
				c-2.264,0-3.242-0.541-3.666-0.996c-0.383-0.412-0.359-0.807-0.355-0.854c0.006-0.344,0.049-0.916,0.131-1.115
				c0.168-0.408,0.223-1.213,0.229-1.336c-0.004-0.15-0.348-15.131-0.359-16.424c-0.012-1.17,1.125-2.439,1.895-2.928
				c0.912-0.58,1.07-2.076,1.098-2.635h2.057c0.027,0.559,0.186,2.055,1.098,2.635c0.77,0.488,1.906,1.758,1.895,2.928
				c-0.012,1.293-0.355,16.271-0.357,16.457c0.006,0.09,0.059,0.895,0.227,1.303c0.082,0.197,0.125,0.771,0.133,1.146
				C754.984,88.82,755.008,89.213,754.625,89.625z"/>
			<path fill="#FFFFFF" d="M752.857,72.492c-0.012-1.035-0.859-1.875-1.896-1.875c-1.039,0-1.885,0.84-1.896,1.875
				c-0.465,0.043-0.912,0.102-1.34,0.176l-0.334,0.059l0.008,0.34c0.039,1.873,0.094,4.293,0.145,6.555l0.008,0.387h6.818
				l0.008-0.387c0.053-2.262,0.105-4.682,0.146-6.555l0.006-0.34l-0.334-0.059C753.77,72.594,753.322,72.535,752.857,72.492z
				 M753.596,79.217h-5.271c-0.043-2.012-0.09-4.113-0.127-5.824c0.424-0.064,0.871-0.111,1.332-0.145l0.463-0.031l-0.105-0.453
				c-0.021-0.092-0.031-0.172-0.031-0.248c0-0.611,0.494-1.105,1.105-1.105c0.609,0,1.104,0.494,1.104,1.105
				c0,0.074-0.01,0.156-0.031,0.248l-0.104,0.453l0.461,0.031c0.461,0.033,0.908,0.08,1.332,0.145
				C753.688,75.104,753.641,77.205,753.596,79.217z"/>
			<path fill="#FFFFFF" d="M750.979,83.154c-1.117,0-2.1-0.035-2.92-0.107l-0.439-0.039l0.068,2.996l0.33,0.049
				c0.84,0.123,1.836,0.186,2.961,0.186c1.113,0,2.098-0.061,2.924-0.184l0.332-0.047l0.066-2.996l-0.439,0.037
				C753.051,83.119,752.08,83.154,750.979,83.154z M753.457,85.316c-0.717,0.086-1.549,0.131-2.479,0.131
				c-0.939,0-1.783-0.045-2.516-0.135l-0.033-1.443c0.746,0.051,1.602,0.076,2.549,0.076c0.932,0,1.775-0.025,2.512-0.074
				L753.457,85.316z"/>
			<rect x="761.301" y="75" fill="#FFFFFF" width="5" height="11"/>
			<g>
				<g>
					<path fill="#FFFFFF" d="M749.889,95.99c-3.656-5.605-9.092-8.516-9.146-8.543c-2.047-1.062-2.85-3.6-1.785-5.652
						c0.725-1.396,2.152-2.264,3.725-2.264c0.668,0,1.336,0.162,1.932,0.471c0.484,0.252,4.344,2.324,8.291,6.404
						c3.393-5.418,8.602-13.129,12.834-16.756c0.76-0.65,1.729-1.01,2.729-1.01c1.227,0,2.389,0.535,3.188,1.465
						c0.729,0.852,1.084,1.936,0.996,3.053c-0.086,1.117-0.602,2.133-1.453,2.863c-4.535,3.887-11.758,15.586-14.158,19.766
						l-3.408,5.939L749.889,95.99z"/>
					<path d="M768.467,70.547c0.645,0,1.287,0.271,1.74,0.801c0.82,0.959,0.711,2.402-0.25,3.225
						c-5.719,4.902-14.484,20.111-14.572,20.266l-1.859,3.238l-2.039-3.129c-3.973-6.09-9.801-9.16-9.859-9.191
						c-1.121-0.58-1.559-1.963-0.979-3.084c0.408-0.785,1.207-1.234,2.033-1.234c0.355,0,0.715,0.082,1.053,0.258
						c0.242,0.125,5.15,2.711,9.457,7.879c2.977-4.896,9.092-14.451,13.789-18.477C767.412,70.729,767.941,70.547,768.467,70.547
						 M768.467,66.734L768.467,66.734c-1.455,0-2.865,0.521-3.971,1.471c-2.309,1.979-6.17,6.203-11.949,15.199
						c-3.512-3.201-6.611-4.863-7.055-5.094c-0.867-0.449-1.838-0.688-2.811-0.688c-2.287,0-4.363,1.262-5.416,3.291
						c-1.547,2.982-0.385,6.664,2.588,8.219c0.164,0.09,5.115,2.805,8.438,7.898l2.041,3.129l3.4,5.217l3.102-5.4l1.859-3.24
						c2.359-4.104,9.428-15.566,13.746-19.268c1.236-1.061,1.988-2.539,2.113-4.164s-0.391-3.203-1.451-4.439
						C771.941,67.512,770.252,66.734,768.467,66.734L768.467,66.734z"/>
				</g>
			</g>
			<g>
				<path fill="#FFFFFF" d="M750.418,106.473c-16.543,0-30-13.457-30-30c0-16.541,13.457-30,30-30s30,13.459,30,30
					C780.418,93.016,766.961,106.473,750.418,106.473z M750.418,50.668c-14.229,0-25.805,11.576-25.805,25.805
					s11.576,25.807,25.805,25.807s25.805-11.578,25.805-25.807S764.646,50.668,750.418,50.668z"/>
			</g>
		</g>
	</g>
</g>
<g id="Layer_4">
</g>
</svg>
