<?xml version="1.0" encoding="utf-8"?>
<!-- Generator: Adobe Illustrator 16.0.0, SVG Export Plug-In . SVG Version: 6.00 Build 0)  -->
<!DOCTYPE svg PUBLIC "-//W3C//DTD SVG 1.1//EN" "http://www.w3.org/Graphics/SVG/1.1/DTD/svg11.dtd">
<svg version="1.1" xmlns="http://www.w3.org/2000/svg" xmlns:xlink="http://www.w3.org/1999/xlink" x="0px" y="0px" width="35px"
	 height="35px" viewBox="0 0 35 35" enable-background="new 0 0 35 35" xml:space="preserve">
<g id="Layer_2" display="none">
	<rect x="-183" y="-244" display="inline" stroke="#FFFFFF" stroke-miterlimit="10" width="914" height="652"/>
</g>
<g id="Layer_1">
	<g>
		<path fill="#FFFFFF" d="M17.5,1C26.598,1,34,8.402,34,17.5S26.598,34,17.5,34S1,26.598,1,17.5S8.402,1,17.5,1 M17.5,0
			C7.836,0,0,7.836,0,17.5C0,27.165,7.836,35,17.5,35S35,27.165,35,17.5C35,7.836,27.164,0,17.5,0L17.5,0z"/>
		<path fill="#FFFFFF" d="M18.356,25.764c-0.2-1.273-0.166-3.566-0.146-4.963c0.004-0.33,0.008-0.608,0.008-0.809
			c0-0.86,0.365-1.432,0.79-2.091c0.194-0.305,0.397-0.621,0.583-0.99c0.615-1.233,0.805-3.073,0.929-4.291l0.031-0.293
			c0.124-1.178-0.094-5.521-0.104-5.691c0-0.616-1.986-0.814-2.948-0.814c-0.964,0-2.95,0.198-2.95,0.801
			c-0.01,0.185-0.228,4.527-0.103,5.706l0.028,0.291c0.126,1.219,0.315,3.059,0.931,4.292c0.186,0.369,0.389,0.686,0.583,0.99
			c0.425,0.659,0.79,1.23,0.79,2.091c0,0.2,0.004,0.479,0.008,0.809c0.021,1.396,0.055,3.689-0.146,4.963
			c-1.719,0.175-2.9,0.856-2.9,1.687c0,0.985,1.615,1.729,3.759,1.729c2.142,0,3.759-0.744,3.759-1.729
			C21.259,26.62,20.075,25.938,18.356,25.764z M17.5,6.314c1.338,0,2.254,0.271,2.459,0.399c0,0.01,0.002,0.027,0.002,0.039
			c-0.319,0.146-1.159,0.315-2.461,0.315c-1.304,0-2.144-0.17-2.463-0.315c0.002-0.012,0.002-0.029,0.002-0.039
			C15.244,6.585,16.158,6.314,17.5,6.314z M16.406,17.635c-0.189-0.295-0.384-0.599-0.559-0.944
			c-0.575-1.152-0.759-2.938-0.881-4.121l-0.028-0.294c-0.104-0.966,0.042-4.301,0.092-5.329c0.567,0.235,1.753,0.307,2.47,0.307
			c0.715,0,1.902-0.071,2.471-0.307c0.047,1.013,0.192,4.36,0.09,5.329l-0.029,0.294c-0.122,1.183-0.306,2.969-0.881,4.121
			c-0.175,0.346-0.369,0.649-0.557,0.944c-0.447,0.694-0.868,1.352-0.868,2.357c0,0.198-0.004,0.474-0.01,0.801
			c-0.021,1.485-0.058,3.971,0.189,5.246l0.008,0.046l-0.008,0.001c0.032,0.418,0.345,0.639,0.476,0.714l0.045,0.026
			c0.086,0.049,0.192,0.108,0.192,0.142c0,0.098-0.396,0.29-1.118,0.29c-0.725,0-1.12-0.192-1.12-0.29
			c0-0.033,0.106-0.093,0.192-0.142l0.047-0.026c0.13-0.075,0.441-0.296,0.474-0.714l-0.008-0.001l0.008-0.046
			c0.247-1.275,0.21-3.761,0.189-5.246c-0.006-0.327-0.01-0.603-0.01-0.801C17.272,18.986,16.852,18.329,16.406,17.635z
			 M17.5,28.686c-1.926,0-3.266-0.651-3.266-1.235c0-0.493,0.982-1.081,2.631-1.211c-0.078,0.221-0.254,0.352-0.34,0.4l-0.045,0.025
			c-0.16,0.091-0.286,0.163-0.286,0.303c0,0.312,0.655,0.476,1.306,0.476c0.648,0,1.304-0.163,1.304-0.476
			c0-0.14-0.126-0.212-0.286-0.303l-0.045-0.025c-0.086-0.049-0.262-0.18-0.34-0.4c1.646,0.13,2.633,0.718,2.633,1.211
			C20.766,28.034,19.424,28.686,17.5,28.686z"/>
	</g>
</g>
</svg>
