<?xml version="1.0" encoding="utf-8"?>
<!-- Generator: Adobe Illustrator 16.0.0, SVG Export Plug-In . SVG Version: 6.00 Build 0)  -->
<!DOCTYPE svg PUBLIC "-//W3C//DTD SVG 1.1//EN" "http://www.w3.org/Graphics/SVG/1.1/DTD/svg11.dtd">
<svg version="1.1" xmlns="http://www.w3.org/2000/svg" xmlns:xlink="http://www.w3.org/1999/xlink" x="0px" y="0px" width="40px"
	 height="70px" viewBox="0 0 40 70" enable-background="new 0 0 40 70" xml:space="preserve">
<g id="Layer_2" display="none">
	<rect x="-1341.5" y="-1419.5" display="inline" stroke="#FFFFFF" stroke-miterlimit="10" width="3450" height="3390"/>
</g>
<g id="Layer_1">
	<g>
		<path fill="#FFFFFF" d="M19.998,70C12.64,70,7.5,67.229,7.5,63.263c0-3.101,3.209-5.527,8.309-6.397
			c0.329-3.467,0.253-8.572,0.204-11.793l-0.009-0.592c-0.01-0.659-0.018-1.221-0.018-1.655c0-1.689-0.677-2.803-1.873-4.628
			c-0.543-0.829-1.158-1.768-1.739-2.894c-1.897-3.73-2.445-8.988-2.808-12.468l-0.085-0.793C9.127,18.755,9.688,7.576,9.764,6.127
			c0.013-0.524,0.181-1.269,0.872-1.961C12.695,2.104,18.796,2,19.998,2c8.783,0,10.2,2.578,10.238,4.166
			c0.075,1.442,0.635,12.585,0.28,15.877l-0.086,0.799c-0.369,3.508-0.922,8.757-2.808,12.454c-0.565,1.114-1.188,2.064-1.736,2.901
			c-1.089,1.661-1.875,2.86-1.875,4.628c0,0.56-0.012,1.332-0.026,2.249c-0.049,3.217-0.125,8.318,0.206,11.792
			c5.1,0.87,8.309,3.296,8.309,6.397C32.5,67.229,27.359,70,19.998,70z"/>
		<path fill="#FFFFFF" d="M19.998,68C14.015,68,9.5,65.962,9.5,63.263c0-2.274,3.305-4.14,8.103-4.622
			c0.561-3.489,0.468-9.769,0.41-13.599c-0.013-0.904-0.026-1.666-0.026-2.217c0-2.354-1.017-3.919-2.2-5.725
			c-0.55-0.839-1.112-1.702-1.634-2.714c-1.72-3.379-2.249-8.419-2.597-11.759l-0.086-0.8c-0.348-3.228,0.267-15.126,0.293-15.634
			C11.761,4.545,17.312,4,19.998,4c2.69,0,8.239,0.545,8.239,2.233c0.024,0.469,0.639,12.368,0.291,15.596l-0.086,0.8
			c-0.352,3.339-0.877,8.38-2.601,11.759c-0.514,1.012-1.078,1.875-1.628,2.714c-1.184,1.806-2.202,3.371-2.202,5.725
			c0,0.551-0.012,1.312-0.026,2.217c-0.058,3.83-0.148,10.11,0.412,13.599c4.796,0.481,8.103,2.347,8.103,4.622
			C30.5,65.962,25.985,68,19.998,68z"/>
		<g>
			<g>
				<path d="M19.998,7.928c-2.702,0-7.806-0.356-7.806-1.695h0.515c0,0.403,2.575,1.185,7.291,1.185
					c4.718,0,7.288-0.782,7.288-1.185h0.52C27.806,7.572,22.698,7.928,19.998,7.928z"/>
			</g>
			<g>
				<path d="M19.998,68C14.015,68,9.5,65.962,9.5,63.263c0-2.274,3.305-4.14,8.103-4.622c0.561-3.489,0.468-9.769,0.41-13.599
					c-0.013-0.904-0.026-1.666-0.026-2.217c0-2.354-1.017-3.919-2.2-5.725c-0.55-0.839-1.112-1.702-1.634-2.714
					c-1.72-3.379-2.249-8.419-2.597-11.759l-0.086-0.8c-0.348-3.228,0.267-15.126,0.293-15.634C11.761,4.545,17.312,4,19.998,4
					c2.69,0,8.239,0.545,8.239,2.233c0.024,0.469,0.639,12.368,0.291,15.596l-0.086,0.8c-0.352,3.339-0.877,8.38-2.601,11.759
					c-0.514,1.012-1.078,1.875-1.628,2.714c-1.184,1.806-2.202,3.371-2.202,5.725c0,0.551-0.012,1.312-0.026,2.217
					c-0.058,3.83-0.148,10.11,0.412,13.599c4.796,0.481,8.103,2.347,8.103,4.622C30.5,65.962,25.985,68,19.998,68z M13.129,6.448
					c-0.083,1.665-0.599,12.342-0.286,15.239l0.084,0.802c0.342,3.239,0.854,8.135,2.461,11.291c0.487,0.948,1.03,1.782,1.556,2.589
					c1.244,1.906,2.422,3.704,2.422,6.457c0,0.546,0.012,1.301,0.023,2.197c0.064,4.068,0.164,10.879-0.524,14.373l-0.098,0.505
					l-0.523,0.039c-4.608,0.356-7.364,1.968-7.364,3.323c0,1.6,3.745,3.383,9.119,3.383c5.376,0,9.121-1.784,9.121-3.383
					c0-1.354-2.752-2.966-7.362-3.323l-0.523-0.039l-0.1-0.505c-0.69-3.494-0.585-10.305-0.525-14.373
					c0.013-0.896,0.022-1.651,0.022-2.197c0-2.753,1.178-4.55,2.424-6.457c0.527-0.807,1.072-1.641,1.554-2.589
					c1.611-3.156,2.123-8.049,2.461-11.287l0.086-0.808c0.316-2.912-0.209-13.699-0.282-15.237c-0.575-0.352-3.13-1.094-6.875-1.094
					S13.696,6.097,13.129,6.448z"/>
			</g>
			<g>
				<path d="M19.998,63.243c-1.811,0-3.644-0.448-3.644-1.306c0-0.382,0.354-0.575,0.806-0.828l0.12-0.065
					c0.292-0.166,0.999-0.655,1.07-1.561l0.514,0.042c-0.09,1.144-0.962,1.751-1.327,1.957l-0.126,0.072
					c-0.24,0.133-0.539,0.297-0.539,0.383c0,0.272,1.104,0.797,3.126,0.797c2.023,0,3.13-0.525,3.13-0.797
					c0-0.086-0.303-0.25-0.539-0.383l-0.124-0.072c-0.372-0.205-1.241-0.813-1.331-1.957l0.516-0.042
					c0.071,0.906,0.772,1.395,1.068,1.561l0.124,0.065c0.451,0.253,0.804,0.446,0.804,0.828
					C23.646,62.795,21.809,63.243,19.998,63.243z"/>
			</g>
		</g>
	</g>
</g>
</svg>
