<?xml version="1.0" encoding="utf-8"?>
<!-- Generator: Adobe Illustrator 16.0.0, SVG Export Plug-In . SVG Version: 6.00 Build 0)  -->
<!DOCTYPE svg PUBLIC "-//W3C//DTD SVG 1.1//EN" "http://www.w3.org/Graphics/SVG/1.1/DTD/svg11.dtd">
<svg version="1.1" xmlns="http://www.w3.org/2000/svg" xmlns:xlink="http://www.w3.org/1999/xlink" x="0px" y="0px" width="30px"
	 height="45px" viewBox="0 0 30 45" enable-background="new 0 0 30 45" xml:space="preserve">
<g id="Layer_2" display="none">
	<rect x="-1512.5" y="-2010" display="inline" stroke="#FFFFFF" stroke-miterlimit="10" width="3450" height="3390"/>
</g>
<g id="Layer_1">
	<g>
		<g>
			<g>
				<path fill="#FFFFFF" d="M10.738,23.455c-0.117,0-0.236-0.021-0.351-0.069c-0.479-0.198-0.712-0.756-0.519-1.247l8.522-21.54
					c0.194-0.488,0.741-0.728,1.221-0.528c0.479,0.197,0.712,0.755,0.519,1.246l-8.522,21.541
					C11.461,23.229,11.109,23.455,10.738,23.455z"/>
			</g>
			<g>
				<path fill="#FFFFFF" d="M19.262,45c-0.371,0-0.723-0.227-0.87-0.6L9.869,22.857c-0.193-0.491,0.039-1.049,0.519-1.247
					c0.481-0.196,1.026,0.039,1.221,0.528l8.522,21.545c0.193,0.491-0.039,1.049-0.519,1.246C19.498,44.977,19.379,45,19.262,45z"/>
			</g>
		</g>
		<g>
			<g>
				<path fill="#FFFFFF" d="M0.938,23.455c-0.117,0-0.236-0.021-0.351-0.069c-0.48-0.198-0.713-0.756-0.518-1.247L8.59,0.599
					C8.783,0.11,9.33-0.129,9.81,0.07c0.481,0.197,0.714,0.755,0.519,1.246L1.807,22.857C1.66,23.229,1.309,23.455,0.938,23.455z"/>
			</g>
			<g>
				<path fill="#FFFFFF" d="M9.459,45c-0.371,0-0.723-0.227-0.869-0.6L0.069,22.857c-0.195-0.491,0.037-1.049,0.518-1.247
					c0.48-0.196,1.026,0.039,1.22,0.528l8.521,21.545c0.195,0.491-0.037,1.049-0.519,1.246C9.695,44.977,9.576,45,9.459,45z"/>
			</g>
		</g>
		<g>
			<g>
				<path fill="#FFFFFF" d="M20.541,23.455c-0.117,0-0.236-0.021-0.352-0.069c-0.48-0.198-0.713-0.756-0.518-1.247l8.521-21.54
					c0.193-0.488,0.739-0.728,1.22-0.528c0.48,0.197,0.713,0.755,0.518,1.246L21.41,22.857
					C21.264,23.229,20.912,23.455,20.541,23.455z"/>
			</g>
			<g>
				<path fill="#FFFFFF" d="M29.062,45c-0.371,0-0.723-0.227-0.869-0.6l-8.521-21.543c-0.195-0.491,0.037-1.049,0.518-1.247
					c0.48-0.196,1.027,0.039,1.221,0.528l8.521,21.545c0.195,0.491-0.037,1.049-0.518,1.246C29.299,44.977,29.18,45,29.062,45z"/>
			</g>
		</g>
	</g>
</g>
</svg>
