<?xml version="1.0" encoding="utf-8"?>
<!-- Generator: Adobe Illustrator 16.0.0, SVG Export Plug-In . SVG Version: 6.00 Build 0)  -->
<!DOCTYPE svg PUBLIC "-//W3C//DTD SVG 1.1//EN" "http://www.w3.org/Graphics/SVG/1.1/DTD/svg11.dtd">
<svg version="1.1" xmlns="http://www.w3.org/2000/svg" xmlns:xlink="http://www.w3.org/1999/xlink" x="0px" y="0px" width="60px"
	 height="60px" viewBox="0 0 60 60" enable-background="new 0 0 60 60" xml:space="preserve">
<g id="Layer_2" display="none">
	<rect x="-135.5" y="-128.5" display="inline" stroke="#FFFFFF" stroke-miterlimit="10" width="914" height="652"/>
</g>
<g id="Layer_1">
	<g>
		<g>
			<path fill="#FFFFFF" d="M30,60C13.457,60,0,46.542,0,30C0,13.457,13.457,0,30,0s30,13.457,30,30C60,46.542,46.543,60,30,60z
				 M30,4.194C15.771,4.194,4.195,15.771,4.195,30S15.771,55.805,30,55.805S55.805,44.229,55.805,30S44.229,4.194,30,4.194z"/>
		</g>
		<g>
			<g>
				<g>
					<path fill="#FFFFFF" d="M45,19H23c-0.552,0-1-0.448-1-1s0.448-1,1-1h22c0.552,0,1,0.448,1,1S45.552,19,45,19z"/>
				</g>
				<g>
					<path fill="#FFFFFF" d="M19.562,17.822c0,1.105-0.898,2-2,2c-1.109,0-2-0.895-2-2s0.891-2,2-2
						C18.664,15.822,19.562,16.717,19.562,17.822z"/>
				</g>
			</g>
			<g>
				<g>
					<path fill="#FFFFFF" d="M45,26H23c-0.552,0-1-0.448-1-1s0.448-1,1-1h22c0.552,0,1,0.448,1,1S45.552,26,45,26z"/>
				</g>
				<g>
					<path fill="#FFFFFF" d="M19.562,25.615c0,1.105-0.898,2-2,2c-1.109,0-2-0.895-2-2s0.891-2,2-2
						C18.664,23.615,19.562,24.51,19.562,25.615z"/>
				</g>
			</g>
			<g>
				<g>
					<path fill="#FFFFFF" d="M45,34H23c-0.552,0-1-0.448-1-1s0.448-1,1-1h22c0.552,0,1,0.448,1,1S45.552,34,45,34z"/>
				</g>
				<g>
					<path fill="#FFFFFF" d="M19.562,33.406c0,1.105-0.898,2-2,2c-1.109,0-2-0.895-2-2s0.891-2,2-2
						C18.664,31.406,19.562,32.301,19.562,33.406z"/>
				</g>
			</g>
			<g>
				<g>
					<path fill="#FFFFFF" d="M45,42H23c-0.552,0-1-0.448-1-1s0.448-1,1-1h22c0.552,0,1,0.448,1,1S45.552,42,45,42z"/>
				</g>
				<g>
					<path fill="#FFFFFF" d="M19.562,41.198c0,1.105-0.898,2-2,2c-1.109,0-2-0.895-2-2s0.891-2,2-2
						C18.664,39.198,19.562,40.093,19.562,41.198z"/>
				</g>
			</g>
		</g>
	</g>
</g>
</svg>
