<?xml version="1.0" encoding="utf-8"?>
<!-- Generator: Adobe Illustrator 16.0.0, SVG Export Plug-In . SVG Version: 6.00 Build 0)  -->
<!DOCTYPE svg PUBLIC "-//W3C//DTD SVG 1.1//EN" "http://www.w3.org/Graphics/SVG/1.1/DTD/svg11.dtd">
<svg version="1.1" xmlns="http://www.w3.org/2000/svg" xmlns:xlink="http://www.w3.org/1999/xlink" x="0px" y="0px" width="83px"
	 height="83px" viewBox="0 0 83 83" enable-background="new 0 0 83 83" xml:space="preserve">
<g id="Layer_2" display="none">
</g>
<g id="Layer_1">
	<g>
		<g>
			<g>
				<g>
					<path fill="#FFFFFF" d="M66.468,42.996c-0.384,0-0.768-0.146-1.061-0.439l-15.814-15.81c-0.586-0.585-0.586-1.535,0-2.121
						s1.535-0.586,2.121,0l15.814,15.81c0.586,0.585,0.586,1.535,0,2.121C67.235,42.85,66.852,42.996,66.468,42.996z"/>
				</g>
				<g>
					<path fill="#FFFFFF" d="M50.653,58.812c-0.384,0-0.768-0.146-1.061-0.439c-0.586-0.586-0.586-1.535,0-2.121l15.814-15.815
						c0.586-0.586,1.535-0.586,2.121,0s0.586,1.535,0,2.121L51.714,58.372C51.421,58.665,51.037,58.812,50.653,58.812z"/>
				</g>
			</g>
			<g>
				<path fill="#FFFFFF" d="M16.532,43.003c-0.828,0-1.5-0.672-1.5-1.5s0.672-1.5,1.5-1.5l49.936-0.002c0.828,0,1.5,0.672,1.5,1.5
					s-0.672,1.5-1.5,1.5L16.532,43.003z"/>
			</g>
		</g>
		<g>
			<path fill="#FFFFFF" d="M41.5,83C18.617,83,0,64.383,0,41.5S18.617,0,41.5,0S83,18.617,83,41.5S64.383,83,41.5,83z M41.5,3
				C20.271,3,3,20.271,3,41.5S20.271,80,41.5,80S80,62.729,80,41.5S62.729,3,41.5,3z"/>
		</g>
	</g>
</g>
</svg>
