<?xml version="1.0" encoding="utf-8"?>
<!-- Generator: Adobe Illustrator 16.0.0, SVG Export Plug-In . SVG Version: 6.00 Build 0)  -->
<!DOCTYPE svg PUBLIC "-//W3C//DTD SVG 1.1//EN" "http://www.w3.org/Graphics/SVG/1.1/DTD/svg11.dtd">
<svg version="1.1" id="Layer_1" xmlns="http://www.w3.org/2000/svg" xmlns:xlink="http://www.w3.org/1999/xlink" x="0px" y="0px"
	 width="40px" height="40px" viewBox="0 0 40 40" enable-background="new 0 0 40 40" xml:space="preserve">
<g id="Layer_2" display="none">
	<rect x="-782.5" y="-421.5" display="inline" stroke="#FFFFFF" stroke-miterlimit="10" width="914" height="652"/>
</g>
<g id="Layer_1_1_">
	<path fill="#FFFFFF" d="M19.998,0C8.971,0,0,8.972,0,19.999C0,31.027,8.971,40,19.998,40C31.027,40,40,31.027,40,19.999
		C40,8.972,31.027,0,19.998,0z M31.817,33.672c-0.515-0.947-1.226-2.291-1.653-3.259c-0.729-1.646-0.762-1.916-0.705-3.097
		c0.055-1.181-0.29-3.25-0.396-4.311c-0.105-1.061-0.553-1.561-0.807-1.785c-0.256-0.226-0.834-1.379-1.053-1.723
		c-0.221-0.343-0.582-0.542-1.057-0.417c-0.478,0.124-0.369,0.664-0.513,0.696c-0.084,0.019-0.62-1.468-0.813-1.832
		c-0.191-0.361-0.401-0.514-0.641-0.562c0.159-0.567,0.25-1.162,0.25-1.779c0-3.654-2.975-6.627-6.629-6.627
		c-3.652,0-6.623,2.973-6.623,6.627s2.971,6.625,6.623,6.625c0.345,0,0.682-0.034,1.013-0.086c-0.078,0.036-0.15,0.133-0.201,0.342
		c-0.172,0.688-0.594,1.291-0.961,1.793c-0.365,0.5,0.032,1.06,0.188,1.225c0.15,0.165,0.871,1.35,1.199,2.256
		c0.2,0.551,0.892,1.073,1.662,1.682c0.498,0.395,1.67,1.235,2.379,1.744c0.797,0.572,0.977,0.885,1.637,1.806
		c0.995,1.396,1.676,2.962,2.004,3.797c-2.081,0.837-4.346,1.31-6.723,1.31c-9.978,0-18.094-8.119-18.094-18.098
		c0-9.976,8.116-18.094,18.094-18.094c9.98,0,18.098,8.118,18.098,18.094C38.096,25.458,35.654,30.351,31.817,33.672z
		 M21.764,21.218c0.034,0.197,0.049,0.447-0.218,0.55c-0.265,0.105-0.397-0.16-0.397-0.16s-0.033-0.088-0.091-0.24
		c0.231-0.131,0.451-0.277,0.664-0.434C21.741,21.069,21.755,21.178,21.764,21.218z M19.359,22.434
		c0.021,0.131-0.247-0.314-0.483-0.301c0.133-0.021,0.265-0.045,0.395-0.074C19.312,22.211,19.345,22.345,19.359,22.434z
		 M23.98,17.359c-0.087,0.003-0.175,0.011-0.27,0.034c-0.345,0.083-0.543,0.45-0.564,0.454c-0.02,0-0.123-0.073-0.188-0.156
		c-0.124-0.163-0.251-0.343-0.424-0.457c0.178-0.514,0.295-1.057,0.295-1.631c0-2.771-2.254-5.029-5.029-5.029
		c-2.771,0-5.025,2.258-5.025,5.029c0,2.77,2.254,5.029,5.025,5.029c0.34,0,0.671-0.036,0.992-0.101
		c0.172,0.514,0.322,0.979,0.425,1.336c-0.457,0.103-0.93,0.162-1.417,0.162c-3.545,0-6.426-2.883-6.426-6.426
		s2.881-6.427,6.426-6.427c3.547,0,6.43,2.884,6.43,6.427C24.23,16.212,24.14,16.8,23.98,17.359z M18.824,15.463
		c-0.194-0.485-0.434-1.07-1.221-0.779c-0.781,0.288-0.51,1.079-0.51,1.079s0.543,1.46,1.099,3.03
		c-0.129,0.016-0.257,0.04-0.391,0.04c-1.779,0-3.229-1.448-3.229-3.229s1.449-3.23,3.229-3.23c1.783,0,3.23,1.449,3.23,3.23
		c0,1.011-0.477,1.904-1.206,2.497C19.349,16.839,18.906,15.672,18.824,15.463z M21.23,15.603c0-1.891-1.538-3.43-3.43-3.43
		c-1.889,0-3.43,1.539-3.43,3.43c0,1.889,1.541,3.429,3.43,3.429c0.157,0,0.307-0.026,0.458-0.046
		c0.161,0.457,0.321,0.917,0.467,1.35c-0.3,0.058-0.608,0.093-0.926,0.093c-2.662,0-4.826-2.164-4.826-4.826
		c0-2.664,2.164-4.828,4.826-4.828c2.664,0,4.83,2.165,4.83,4.828c0,0.543-0.11,1.056-0.276,1.544
		c-0.161-0.048-0.36-0.041-0.618,0.065c-0.771,0.316-0.586,1.281-0.479,1.751c-0.255,0.261-0.539,0.491-0.847,0.689
		c-0.163-0.433-0.338-0.896-0.512-1.356C20.703,17.667,21.23,16.7,21.23,15.603z M21.311,19.194c0.042,0.169,0.19,0.625,0.291,1.068
		c0.036,0.159,0.062,0.309,0.085,0.449c-0.223,0.17-0.456,0.327-0.7,0.467c-0.121-0.32-0.298-0.79-0.504-1.336
		C20.78,19.652,21.06,19.439,21.311,19.194z"/>
	<path d="M20.09,27.124c0,0-0.141-1.188-0.312-2.375c-0.086-0.593-0.186-1.185-0.275-1.623c-0.023-0.11-0.045-0.211-0.068-0.298
		c-0.02-0.088-0.041-0.166-0.064-0.225c-0.014-0.062-0.035-0.11-0.051-0.14c-0.01-0.03-0.02-0.044-0.02-0.044l-0.002-0.007
		c-0.008-0.017,0-0.042,0.018-0.049c0.02-0.009,0.041,0,0.051,0.018l0,0c0,0,0.008,0.017,0.023,0.054
		c0.012,0.03,0.035,0.08,0.053,0.146s0.039,0.142,0.061,0.233c0.02,0.086,0.043,0.188,0.061,0.3c0.086,0.444,0.174,1.038,0.252,1.63
		C19.975,25.932,20.09,27.124,20.09,27.124z"/>
	<path d="M24.32,20.984c0,0-0.008-0.012-0.025-0.026c-0.018-0.017-0.041-0.048-0.076-0.077c-0.02-0.013-0.039-0.031-0.058-0.05
		c-0.026-0.017-0.05-0.03-0.077-0.054c-0.027-0.016-0.057-0.03-0.086-0.057c-0.027-0.025-0.045-0.062-0.064-0.097
		c-0.039-0.072-0.067-0.153-0.104-0.239c-0.029-0.089-0.062-0.18-0.094-0.273c-0.062-0.191-0.123-0.397-0.185-0.604
		c-0.239-0.822-0.44-1.653-0.44-1.653c-0.008-0.019,0.006-0.04,0.027-0.044c0.018-0.005,0.041,0.006,0.045,0.027l0,0
		c0,0,0.184,0.833,0.401,1.662c0.058,0.206,0.113,0.412,0.174,0.606c0.027,0.095,0.06,0.187,0.089,0.273
		c0.032,0.087,0.061,0.168,0.098,0.24c0.018,0.035,0.029,0.068,0.06,0.096c0.026,0.023,0.058,0.041,0.083,0.059
		c0.025,0.02,0.055,0.037,0.074,0.055s0.037,0.036,0.059,0.051c0.035,0.028,0.057,0.062,0.074,0.077
		C24.312,20.975,24.32,20.984,24.32,20.984z"/>
	<path d="M26.705,21.204c0,0-0.021-0.015-0.064-0.043c-0.02-0.015-0.043-0.034-0.065-0.054c-0.029-0.022-0.062-0.045-0.091-0.078
		c-0.032-0.026-0.062-0.059-0.098-0.09c-0.039-0.035-0.072-0.074-0.109-0.115c-0.032-0.039-0.069-0.079-0.106-0.124
		c-0.032-0.041-0.067-0.087-0.103-0.132c-0.031-0.045-0.071-0.09-0.102-0.136c-0.029-0.046-0.057-0.093-0.087-0.14
		c-0.03-0.041-0.058-0.088-0.081-0.129c-0.027-0.042-0.047-0.081-0.066-0.118c-0.08-0.153-0.133-0.253-0.133-0.253
		c-0.008-0.018-0.002-0.038,0.017-0.051c0.018-0.01,0.038-0.003,0.053,0.016c0,0,0,0,0,0.003l0.002,0.002
		c0,0,0.047,0.099,0.119,0.252c0.019,0.037,0.037,0.08,0.058,0.121c0.026,0.043,0.051,0.085,0.077,0.132
		c0.027,0.047,0.056,0.093,0.08,0.139c0.027,0.05,0.063,0.092,0.095,0.142c0.032,0.048,0.063,0.089,0.094,0.138
		c0.037,0.041,0.074,0.084,0.104,0.125c0.033,0.039,0.063,0.082,0.101,0.114c0.033,0.034,0.065,0.066,0.096,0.101
		c0.029,0.025,0.059,0.052,0.084,0.078c0.023,0.021,0.047,0.041,0.068,0.057C26.684,21.188,26.705,21.204,26.705,21.204z"/>
	<path d="M17.854,15.776c-0.098,0.016-0.193,0.007-0.307-0.067c-0.186-0.126-0.34-0.727-0.344-0.754
		c0-0.003,0.002-0.009,0.004-0.009c0.004,0,0.004,0,0.004,0c0.004,0,0.01,0,0.012,0.007c0.002,0.004,0.152,0.62,0.336,0.737
		c0.164,0.111,0.295,0.072,0.445,0.026c0.018-0.004,0.037-0.009,0.053-0.017c0.26-0.076,0.404-0.181,0.438-0.313
		c0.045-0.195-0.192-0.688-0.193-0.692c0-0.003,0-0.01,0.004-0.012c0.006-0.002,0.012,0,0.014,0.004
		c0.012,0.022,0.24,0.502,0.193,0.706c-0.033,0.136-0.182,0.247-0.449,0.325c-0.018,0.006-0.035,0.012-0.053,0.017
		C17.955,15.747,17.906,15.766,17.854,15.776z"/>
</g>
</svg>
