<?xml version="1.0" encoding="utf-8"?>
<!-- Generator: Adobe Illustrator 16.0.0, SVG Export Plug-In . SVG Version: 6.00 Build 0)  -->
<!DOCTYPE svg PUBLIC "-//W3C//DTD SVG 1.1//EN" "http://www.w3.org/Graphics/SVG/1.1/DTD/svg11.dtd">
<svg version="1.1" id="Layer_1" xmlns="http://www.w3.org/2000/svg" xmlns:xlink="http://www.w3.org/1999/xlink" x="0px" y="0px"
	 width="40px" height="40px" viewBox="0 0 40 40" enable-background="new 0 0 40 40" xml:space="preserve">
<g id="Layer_2" display="none">
	<rect x="-731.5" y="-421.5" display="inline" stroke="#FFFFFF" stroke-miterlimit="10" width="914" height="652"/>
</g>
<path fill="#FFFFFF" d="M19.998,0C8.971,0,0,8.972,0,20c0,11.027,8.971,20,19.998,20C31.027,40,40,31.027,40,20
	C40,8.972,31.027,0,19.998,0z M38.096,20c0,1.853-0.282,3.64-0.802,5.324h-7.239v-5.152h0.654v0.391L32.281,20l-1.572-0.563v0.388
	h-0.654v-5.149h7.239C37.813,16.36,38.096,18.147,38.096,20z M1.904,20c0-1.853,0.282-3.64,0.802-5.324h7.235v5.149H8.129
	c-0.097,0-0.175,0.078-0.175,0.175s0.078,0.172,0.175,0.172h1.812v5.152H2.706C2.186,23.64,1.904,21.853,1.904,20z M29.102,19.825
	h-2.865v-6.102H13.682v6.102h-2.788v-6.102H3.049C5.609,6.834,12.23,1.904,19.998,1.904c7.771,0,14.393,4.931,16.952,11.819h-7.849
	V19.825z M19.998,38.096c-7.769,0-14.389-4.93-16.949-11.818h7.845v-6.105h2.788v6.105h12.554v-6.105h2.865v6.105h7.849
	C34.39,33.166,27.768,38.096,19.998,38.096z M16.641,20l-1.575-0.563v0.388h-0.433v-5.149h10.652v5.149h-1.518
	c-0.098,0-0.172,0.078-0.172,0.175s0.074,0.172,0.172,0.172h1.518v5.152H14.633v-5.152h0.433v0.391L16.641,20z"/>
</svg>
