<?xml version="1.0" encoding="utf-8"?>
<!-- Generator: Adobe Illustrator 16.0.0, SVG Export Plug-In . SVG Version: 6.00 Build 0)  -->
<!DOCTYPE svg PUBLIC "-//W3C//DTD SVG 1.1//EN" "http://www.w3.org/Graphics/SVG/1.1/DTD/svg11.dtd">
<svg version="1.1" xmlns="http://www.w3.org/2000/svg" xmlns:xlink="http://www.w3.org/1999/xlink" x="0px" y="0px" width="30px"
	 height="45px" viewBox="0 0 30 45" enable-background="new 0 0 30 45" xml:space="preserve">
<g id="Layer_2" display="none">
	<rect x="-1596.5" y="-2010" display="inline" stroke="#FFFFFF" stroke-miterlimit="10" width="3450" height="3390"/>
</g>
<g id="Layer_1">
	<g>
		<g>
			<g>
				<path fill="#FFFFFF" d="M19.262,23.455c0.117,0,0.236-0.021,0.351-0.069c0.479-0.198,0.712-0.756,0.519-1.247l-8.522-21.54
					c-0.194-0.488-0.741-0.728-1.221-0.528C9.908,0.268,9.676,0.825,9.869,1.316l8.522,21.541
					C18.539,23.229,18.891,23.455,19.262,23.455z"/>
			</g>
			<g>
				<path fill="#FFFFFF" d="M10.738,45c0.371,0,0.723-0.227,0.87-0.6l8.522-21.543c0.193-0.491-0.039-1.049-0.519-1.247
					c-0.481-0.196-1.026,0.039-1.221,0.528L9.869,43.684c-0.193,0.491,0.039,1.049,0.519,1.246C10.502,44.977,10.621,45,10.738,45z"
					/>
			</g>
		</g>
		<g>
			<g>
				<path fill="#FFFFFF" d="M29.062,23.455c0.117,0,0.236-0.021,0.351-0.069c0.48-0.198,0.713-0.756,0.519-1.247L21.41,0.599
					c-0.193-0.488-0.74-0.728-1.22-0.528c-0.481,0.197-0.714,0.755-0.519,1.246l8.521,21.541
					C28.34,23.229,28.691,23.455,29.062,23.455z"/>
			</g>
			<g>
				<path fill="#FFFFFF" d="M20.541,45c0.371,0,0.723-0.227,0.869-0.6l8.521-21.543c0.194-0.491-0.038-1.049-0.519-1.247
					c-0.48-0.196-1.026,0.039-1.22,0.528l-8.521,21.545c-0.195,0.491,0.037,1.049,0.519,1.246C20.305,44.977,20.424,45,20.541,45z"
					/>
			</g>
		</g>
		<g>
			<g>
				<path fill="#FFFFFF" d="M9.459,23.455c0.117,0,0.236-0.021,0.352-0.069c0.48-0.198,0.713-0.756,0.518-1.247L1.807,0.599
					C1.613,0.11,1.066-0.129,0.587,0.07c-0.48,0.197-0.713,0.755-0.519,1.246L8.59,22.857C8.736,23.229,9.088,23.455,9.459,23.455z"
					/>
			</g>
			<g>
				<path fill="#FFFFFF" d="M0.938,45c0.371,0,0.723-0.227,0.869-0.6l8.521-21.543c0.195-0.491-0.037-1.049-0.518-1.247
					c-0.48-0.196-1.027,0.039-1.221,0.528L0.068,43.684c-0.194,0.491,0.038,1.049,0.519,1.246C0.701,44.977,0.82,45,0.938,45z"/>
			</g>
		</g>
	</g>
</g>
</svg>
