<?xml version="1.0" encoding="utf-8"?>
<!-- Generator: Adobe Illustrator 16.0.0, SVG Export Plug-In . SVG Version: 6.00 Build 0)  -->
<!DOCTYPE svg PUBLIC "-//W3C//DTD SVG 1.1//EN" "http://www.w3.org/Graphics/SVG/1.1/DTD/svg11.dtd">
<svg version="1.1" xmlns="http://www.w3.org/2000/svg" xmlns:xlink="http://www.w3.org/1999/xlink" x="0px" y="0px" width="40px"
	 height="70px" viewBox="0 0 40 70" enable-background="new 0 0 40 70" xml:space="preserve">
<g id="Layer_2" display="none">
	<rect x="-1449.5" y="-1419.5" display="inline" stroke="#FFFFFF" stroke-miterlimit="10" width="3450" height="3390"/>
</g>
<g id="Layer_1">
	<g>
		<path fill="#FFFFFF" d="M20.002,70C14.181,70,9.665,69.421,6.2,68.231c-3.802-1.301-4.856-4.177-4.881-5.672l0,0
			c0,0.002-1.253-27.311-1.313-28.529c-0.209-4.178,5.171-5.388,6.939-5.786c4.051-0.912,12.957-0.96,13.044-0.96
			c0.1,0,9.019,0.048,13.071,0.96c1.769,0.397,7.147,1.608,6.934,5.788c-0.055,1.195-1.297,28.218-1.313,28.591
			c-0.026,1.447-1.086,4.312-4.876,5.608C30.338,69.421,25.822,70,20.002,70z"/>
		<path fill="#FFFFFF" d="M32.644,30.099c-3.74-0.842-12.274-0.914-12.649-0.915c-0.356,0.001-8.89,0.072-12.632,0.915
			c-3.759,0.845-5.546,2.099-5.458,3.836c0.06,1.22,1.314,28.593,1.314,28.593c0.002,0.113,0.107,2.711,3.598,3.905
			c3.273,1.124,7.589,1.667,13.186,1.667c5.6,0,9.912-0.543,13.188-1.667c3.49-1.194,3.592-3.792,3.594-3.888
			c0.01-0.276,1.258-27.403,1.312-28.611C38.186,32.197,36.398,30.943,32.644,30.099z"/>
		<path d="M32.644,30.099c-3.74-0.842-12.274-0.914-12.649-0.915c-0.356,0.001-8.89,0.072-12.632,0.915
			c-3.759,0.845-5.546,2.099-5.458,3.836c0.06,1.22,1.314,28.593,1.314,28.593c0.002,0.113,0.107,2.711,3.598,3.905
			c3.273,1.124,7.589,1.667,13.186,1.667c5.6,0,9.912-0.543,13.188-1.667c3.49-1.194,3.592-3.792,3.594-3.888
			c0.01-0.276,1.258-27.403,1.312-28.611C38.186,32.197,36.398,30.943,32.644,30.099z M7.645,31.284
			c3.606-0.81,12.271-0.882,12.35-0.882c0.09,0,8.761,0.073,12.367,0.882c2.94,0.665,4.534,1.582,4.487,2.594
			c-0.004,0.092-0.017,0.33-0.035,0.69c-0.48,0.405-1.512,0.938-3.745,1.382c-4.37,0.867-9.331,0.859-12.595,0.863h-0.472H19.53
			c-3.275,0.002-8.228,0.004-12.595-0.863c-2.231-0.445-3.263-0.978-3.747-1.382c-0.016-0.36-0.026-0.598-0.031-0.69
			C3.103,32.865,4.7,31.948,7.645,31.284z M35.53,62.503c0,0.019-0.072,1.862-2.755,2.783c-3.139,1.074-7.319,1.596-12.773,1.596
			c-5.455,0-9.632-0.522-12.771-1.596c-2.64-0.903-2.754-2.714-2.757-2.797c0,0-0.02-0.459-0.057-1.259
			c1.985,1.365,2.832,1.702,5.217,2.25c2.634,0.604,7.802,0.938,10.368,0.938c2.568,0,7.734-0.335,10.364-0.938
			c2.389-0.547,3.235-0.884,5.225-2.25C35.554,62.005,35.532,62.466,35.53,62.503z M35.615,60.651
			c-2.146,1.497-2.929,1.828-5.356,2.382c-2.597,0.596-7.712,0.927-10.257,0.927s-7.66-0.331-10.257-0.927
			c-2.428-0.554-3.211-0.886-5.354-2.382C4.143,55.294,3.43,39.772,3.215,35.148c0.65,0.421,1.752,0.874,3.628,1.249
			c4.416,0.878,9.4,0.87,12.688,0.87h0.472h0.472c0.17,0,0.341,0,0.521,0c3.283,0,7.977-0.038,12.164-0.87
			c1.88-0.373,2.978-0.828,3.629-1.249C36.574,39.77,35.861,55.274,35.615,60.651z"/>
	</g>
</g>
</svg>
