<?xml version="1.0" encoding="utf-8"?>
<!-- Generator: Adobe Illustrator 16.0.0, SVG Export Plug-In . SVG Version: 6.00 Build 0)  -->
<!DOCTYPE svg PUBLIC "-//W3C//DTD SVG 1.1//EN" "http://www.w3.org/Graphics/SVG/1.1/DTD/svg11.dtd">
<svg version="1.1" xmlns="http://www.w3.org/2000/svg" xmlns:xlink="http://www.w3.org/1999/xlink" x="0px" y="0px" width="40px"
	 height="70px" viewBox="0 0 40 70" enable-background="new 0 0 40 70" xml:space="preserve">
<g id="Layer_2">
</g>
<g id="Layer_1">
	<path d="M33.97,28.01C29.837,27.08,20.405,27.001,19.994,27c-0.396,0.001-9.826,0.08-13.96,1.01
		c-4.151,0.934-6.127,2.319-6.031,4.238c0.068,1.349,1.456,31.595,1.456,31.595c0.002,0.125,0.116,2.995,3.974,4.315
		C9.049,69.4,13.817,70,20.002,70c6.187,0,10.953-0.6,14.571-1.841c3.857-1.321,3.968-4.191,3.97-4.297
		c0.014-0.305,1.39-30.279,1.453-31.614C40.095,30.329,38.119,28.944,33.97,28.01z M6.348,29.32
		c3.983-0.895,13.561-0.976,13.646-0.976c0.098,0,9.679,0.081,13.664,0.976c3.249,0.734,5.01,1.748,4.959,2.865
		c-0.005,0.101-0.019,0.365-0.04,0.763c-0.531,0.447-1.67,1.037-4.138,1.528c-4.826,0.957-10.31,0.949-13.916,0.953h-0.521H19.48
		c-3.62,0.002-9.09,0.004-13.916-0.953c-2.466-0.492-3.607-1.081-4.142-1.528c-0.018-0.398-0.029-0.662-0.035-0.763
		C1.329,31.068,3.095,30.054,6.348,29.32z M37.159,63.816c0,0.021-0.08,2.059-3.045,3.076c-3.467,1.186-8.086,1.763-14.112,1.763
		c-6.028,0-10.644-0.577-14.111-1.763c-2.916-1-3.044-3-3.048-3.091c0,0-0.021-0.507-0.062-1.392
		c2.194,1.509,3.129,1.88,5.765,2.486c2.909,0.667,8.62,1.036,11.456,1.036c2.838,0,8.547-0.37,11.452-1.036
		c2.64-0.605,3.574-0.977,5.772-2.486C37.185,63.266,37.161,63.774,37.159,63.816z M37.253,61.77
		c-2.37,1.654-3.235,2.02-5.917,2.632c-2.869,0.659-8.522,1.025-11.334,1.025c-2.813,0-8.465-0.366-11.334-1.025
		c-2.682-0.612-3.549-0.978-5.917-2.632C2.478,55.85,1.688,38.7,1.453,33.591c0.719,0.464,1.935,0.964,4.008,1.38
		c4.878,0.969,10.388,0.96,14.02,0.96h0.521h0.521c0.186,0,0.377,0,0.575,0c3.628,0,8.815-0.042,13.442-0.96
		c2.077-0.413,3.289-0.916,4.01-1.38C38.313,38.696,37.526,55.829,37.253,61.77z"/>
</g>
</svg>
