<?xml version="1.0" encoding="utf-8"?>
<!-- Generator: Adobe Illustrator 16.0.0, SVG Export Plug-In . SVG Version: 6.00 Build 0)  -->
<!DOCTYPE svg PUBLIC "-//W3C//DTD SVG 1.1//EN" "http://www.w3.org/Graphics/SVG/1.1/DTD/svg11.dtd">
<svg version="1.1" xmlns="http://www.w3.org/2000/svg" xmlns:xlink="http://www.w3.org/1999/xlink" x="0px" y="0px" width="60px"
	 height="60px" viewBox="0 0 60 60" enable-background="new 0 0 60 60" xml:space="preserve">
<g id="Layer_2" display="none">
	<rect x="-226.5" y="-128.5" display="inline" stroke="#FFFFFF" stroke-miterlimit="10" width="914" height="652"/>
</g>
<g id="Layer_1">
	<g>
		<g>
			<path fill="#FFFFFF" d="M30,60C13.457,60,0,46.542,0,30C0,13.459,13.457,0,30,0s30,13.459,30,30C60,46.542,46.543,60,30,60z
				 M30,4.195C15.771,4.195,4.195,15.771,4.195,30S15.771,55.806,30,55.806S55.805,44.229,55.805,30S44.229,4.195,30,4.195z"/>
		</g>
		<g>
			<g>
				<path fill="#FFFFFF" d="M33.254,34.585c-2.154,0-4.239-0.776-5.872-2.185c-3.751-3.24-4.169-8.93-0.932-12.683
					c1.71-1.981,4.192-3.117,6.811-3.117c2.154,0,4.24,0.776,5.872,2.186c1.818,1.569,2.917,3.752,3.092,6.147
					c0.176,2.396-0.591,4.716-2.161,6.534C38.354,33.449,35.873,34.585,33.254,34.585z M33.26,18.601
					c-2.036,0-3.967,0.883-5.296,2.423c-2.517,2.918-2.192,7.343,0.725,9.862c1.269,1.095,2.89,1.699,4.565,1.699
					c2.037,0,3.967-0.883,5.295-2.423c1.221-1.414,1.818-3.218,1.681-5.081c-0.137-1.862-0.991-3.56-2.405-4.78
					C36.556,19.205,34.935,18.601,33.26,18.601z"/>
			</g>
			<g>
				
					<rect x="21.556" y="32.171" transform="matrix(0.757 0.6534 -0.6534 0.757 30.3071 -5.5059)" fill="#FFFFFF" width="2" height="11.642"/>
			</g>
		</g>
	</g>
</g>
</svg>
