<?xml version="1.0" encoding="utf-8"?>
<!-- Generator: Adobe Illustrator 16.0.0, SVG Export Plug-In . SVG Version: 6.00 Build 0)  -->
<!DOCTYPE svg PUBLIC "-//W3C//DTD SVG 1.1//EN" "http://www.w3.org/Graphics/SVG/1.1/DTD/svg11.dtd">
<svg version="1.1" xmlns="http://www.w3.org/2000/svg" xmlns:xlink="http://www.w3.org/1999/xlink" x="0px" y="0px" width="30px"
	 height="70px" viewBox="0 0 30 70" enable-background="new 0 0 30 70" xml:space="preserve">
<g id="Layer_2" display="none">
	<rect x="-132" y="-346" display="inline" stroke="#FFFFFF" stroke-miterlimit="10" width="914" height="652"/>
</g>
<g id="Layer_1">
	<path fill="#FFFFFF" d="M29.434,29.912L29.4,29.817c-0.01-0.022-0.946-2.523,0-4.356c0.62-1.207,0.762-2.212,0.414-2.988
		c-0.23-0.518-0.67-0.894-1.224-1.059c-0.352-0.185-0.767-1.842-0.988-2.731c-0.114-0.468-0.23-0.933-0.352-1.344
		c-0.416-1.403-2.236-2.981-3.775-4.198c-0.145-0.115-0.246-0.196-0.286-0.233c-0.1-0.095-0.164-0.193-0.196-0.256l0.001-1.948
		c0.228-0.203,0.286-0.425,0.284-0.616c-0.005-0.04-0.319-4.137-0.506-7.26c-0.051-0.824-0.432-1.508-1.07-1.921
		C20.838,0.345,18.646,0.048,14.992,0c-3.639,0.048-5.828,0.345-6.691,0.907C7.662,1.32,7.281,2.004,7.231,2.828
		c-0.188,3.123-0.503,7.22-0.51,7.301c0,0.162,0.057,0.375,0.285,0.576l0.001,1.947c-0.037,0.063-0.097,0.161-0.194,0.253
		c-0.041,0.042-0.147,0.121-0.292,0.238c-1.537,1.216-3.355,2.795-3.771,4.196c-0.123,0.413-0.239,0.878-0.356,1.348
		c-0.22,0.887-0.635,2.542-0.972,2.724c-0.569,0.168-1.005,0.543-1.236,1.062c-0.348,0.776-0.208,1.781,0.414,2.988
		c0.948,1.833,0.011,4.334,0,4.356l-0.035,0.095v0.096c0,0.25,0.071,0.485,0.209,0.714c-0.034,0.993-0.2,5.75-0.168,7.272
		c0.03,1.569,1.573,10.897,3.083,19.813c1.128,6.69,1.711,9.279,1.717,9.304l0.02,0.102l0.062,0.089
		c0.177,0.252,1.936,2.47,9.495,2.697h0.018h0.017c7.561-0.228,9.318-2.445,9.494-2.697l0.062-0.089l0.021-0.102
		c0.009-0.025,0.588-2.614,1.717-9.304c1.509-8.915,3.051-18.243,3.083-19.813c0.027-1.522-0.132-6.279-0.168-7.272
		c0.136-0.229,0.206-0.464,0.206-0.714V29.912z M28.364,24.975c-1.041,2.023-0.297,4.511-0.092,5.1
		c-0.015,0.05-0.043,0.102-0.091,0.156l-0.014,0.02c-1.456,1.142-6.197,2.215-13.167,2.215S3.29,31.392,1.832,30.252L1.817,30.23
		c-0.044-0.055-0.075-0.107-0.088-0.156c0.204-0.588,0.951-3.076-0.092-5.1c-0.139-0.27-0.237-0.518-0.314-0.755
		c2.219,1.311,8.085,2.008,13.678,2.008s11.461-0.697,13.679-2.008C28.602,24.457,28.503,24.705,28.364,24.975z M14.992,1.104
		c4.529,0.062,5.74,0.512,6.052,0.709c-0.352,0.167-1.594,0.467-6.04,0.523c-4.499-0.059-5.725-0.365-6.061-0.517l0.001-0.001
		C9.248,1.624,10.439,1.165,14.992,1.104z M8.384,2.893c0.013-0.235,0.08-0.527,0.261-0.774c0.384,0.235,1.636,0.571,6.359,0.631
		c4.716-0.06,5.967-0.396,6.354-0.631c0.18,0.248,0.248,0.539,0.262,0.774c0.166,2.747,0.428,6.242,0.493,7.058
		c-1.134,0.425-4.249,0.778-7.11,0.787c-2.863-0.009-5.979-0.362-7.11-0.787C7.958,9.062,8.22,5.608,8.384,2.893z M3.518,18.941
		c0.112-0.453,0.224-0.9,0.343-1.303c0.369-1.249,2.65-3.056,3.399-3.646c0.194-0.155,0.327-0.264,0.378-0.312
		c0.347-0.34,0.477-0.7,0.491-0.738l0.035-0.084L8.162,10.47c1.522,0.415,4.496,0.671,6.84,0.68
		c2.391-0.009,5.322-0.258,6.838-0.678v2.386l0.029,0.084c0.017,0.039,0.147,0.398,0.497,0.739c0.049,0.046,0.182,0.155,0.373,0.308
		c0.749,0.592,3.03,2.397,3.397,3.649c0.121,0.398,0.234,0.848,0.345,1.3c0.358,1.437,0.682,2.698,1.313,3.259
		c-2.429,0.936-7.47,1.544-12.794,1.544c-5.569,0-10.36-0.653-12.683-1.652C2.879,21.484,3.183,20.291,3.518,18.941z M1.251,22.904
		c0.12-0.272,0.347-0.393,0.52-0.444c0.057-0.02,0.111-0.054,0.166-0.082c2.317,1.09,7.201,1.777,13.064,1.777
		c5.663,0,10.84-0.654,13.242-1.689c0.169,0.052,0.387,0.169,0.511,0.438c0.084,0.194,0.097,0.442,0.062,0.727
		c-1.367,1.139-6.575,2.182-13.814,2.182c-7.241,0-12.448-1.043-13.814-2.182C1.15,23.348,1.161,23.098,1.251,22.904z M28.24,37.975
		c-0.03,1.703-2.157,14.285-3.066,19.659c-0.983,5.823-1.547,8.517-1.677,9.117c-0.348,0.351-2.275,1.958-8.496,2.148
		c-6.248-0.191-8.163-1.813-8.499-2.146c-0.127-0.596-0.691-3.289-1.674-9.12c-0.91-5.373-3.036-17.956-3.07-19.657
		c-0.027-1.449,0.129-6.058,0.168-7.154c2.055,1.236,7.105,2.057,13.075,2.057c5.967,0,11.019-0.821,13.075-2.057
		C28.113,31.916,28.266,36.526,28.24,37.975z"/>
</g>
</svg>
