<?xml version="1.0" encoding="utf-8"?>
<!-- Generator: Adobe Illustrator 16.0.0, SVG Export Plug-In . SVG Version: 6.00 Build 0)  -->
<!DOCTYPE svg PUBLIC "-//W3C//DTD SVG 1.1//EN" "http://www.w3.org/Graphics/SVG/1.1/DTD/svg11.dtd">
<svg version="1.1" xmlns="http://www.w3.org/2000/svg" xmlns:xlink="http://www.w3.org/1999/xlink" x="0px" y="0px" width="40px"
	 height="70px" viewBox="0 0 40 70" enable-background="new 0 0 40 70" xml:space="preserve">
<g id="Layer_2">
</g>
<g id="Layer_1">
	<path fill="#FFFFFF" d="M33.472,31.057l-0.032-0.091c-0.01-0.022-0.883-2.451,0-4.232c0.58-1.172,0.711-2.149,0.387-2.902
		c-0.214-0.503-0.625-0.869-1.141-1.029c-0.328-0.18-0.716-1.79-0.924-2.653c-0.106-0.455-0.216-0.905-0.327-1.305
		c-0.388-1.363-2.087-2.896-3.525-4.078c-0.135-0.112-0.229-0.19-0.267-0.227c-0.094-0.092-0.152-0.188-0.184-0.248l0.002-1.892
		c0.212-0.197,0.267-0.413,0.264-0.599c-0.003-0.039-0.297-4.019-0.472-7.053c-0.046-0.801-0.4-1.465-0.998-1.866
		C25.448,2.335,23.401,2.047,19.992,2c-3.396,0.047-5.44,0.335-6.245,0.881c-0.597,0.401-0.951,1.065-0.998,1.866
		c-0.178,3.034-0.469,7.014-0.476,7.093c0,0.157,0.052,0.364,0.266,0.56l0.002,1.891c-0.035,0.061-0.09,0.156-0.182,0.246
		c-0.038,0.04-0.138,0.117-0.272,0.23c-1.436,1.182-3.132,2.715-3.52,4.077c-0.115,0.4-0.223,0.853-0.333,1.31
		c-0.206,0.861-0.594,2.469-0.906,2.646c-0.531,0.163-0.938,0.528-1.153,1.031c-0.325,0.753-0.196,1.73,0.386,2.902
		c0.885,1.781,0.01,4.21,0,4.232l-0.034,0.091v0.093c0,0.243,0.067,0.472,0.195,0.693c-0.03,0.965-0.187,5.586-0.155,7.064
		c0.027,1.524,1.469,10.586,2.876,19.248c1.055,6.499,1.596,9.014,1.603,9.038l0.02,0.1l0.057,0.085
		c0.164,0.246,1.807,2.4,8.863,2.621H20h0.016c7.057-0.221,8.699-2.375,8.861-2.621l0.059-0.085l0.02-0.1
		c0.008-0.024,0.548-2.54,1.604-9.038c1.406-8.661,2.848-17.722,2.877-19.248c0.025-1.479-0.123-6.099-0.156-7.064
		c0.127-0.222,0.192-0.451,0.192-0.693V31.057z M32.473,26.261c-0.971,1.965-0.276,4.382-0.086,4.954
		c-0.015,0.049-0.04,0.098-0.085,0.152l-0.012,0.019c-1.358,1.109-5.784,2.152-12.29,2.152s-10.93-1.042-12.29-2.15l-0.014-0.021
		c-0.041-0.054-0.07-0.104-0.083-0.152c0.19-0.572,0.888-2.988-0.086-4.954C7.398,26,7.307,25.758,7.233,25.527
		c2.072,1.274,7.548,1.951,12.767,1.951c5.221,0,10.696-0.677,12.769-1.951C32.693,25.758,32.604,26,32.473,26.261z M19.992,3.072
		c4.228,0.059,5.358,0.497,5.649,0.688c-0.329,0.163-1.488,0.454-5.638,0.508c-4.2-0.057-5.344-0.355-5.658-0.501l0.002-0.001
		C14.631,3.577,15.742,3.131,19.992,3.072z M13.823,4.81c0.015-0.229,0.077-0.512,0.245-0.752c0.358,0.229,1.525,0.555,5.936,0.614
		c4.4-0.059,5.567-0.385,5.93-0.614c0.166,0.241,0.23,0.524,0.243,0.751c0.157,2.668,0.398,6.064,0.46,6.856
		c-1.058,0.413-3.964,0.756-6.635,0.765c-2.674-0.009-5.581-0.352-6.637-0.765C13.428,10.803,13.671,7.448,13.823,4.81z M9.282,20.4
		c0.105-0.44,0.21-0.875,0.321-1.266c0.344-1.213,2.473-2.968,3.173-3.542c0.179-0.151,0.305-0.257,0.351-0.303
		c0.325-0.331,0.446-0.68,0.46-0.718l0.031-0.082v-2.32c1.42,0.402,4.196,0.651,6.384,0.66c2.23-0.009,4.967-0.25,6.382-0.658v2.317
		l0.027,0.082c0.014,0.038,0.137,0.387,0.462,0.719c0.048,0.044,0.172,0.151,0.349,0.299c0.7,0.575,2.828,2.33,3.173,3.544
		c0.111,0.387,0.218,0.824,0.321,1.263c0.335,1.396,0.637,2.621,1.227,3.166c-2.267,0.908-6.972,1.5-11.942,1.5
		c-5.197,0-9.668-0.635-11.836-1.604C8.685,22.871,8.969,21.711,9.282,20.4z M7.167,24.25c0.112-0.265,0.324-0.382,0.486-0.431
		c0.053-0.019,0.104-0.053,0.154-0.08C9.97,24.796,14.528,25.465,20,25.465c5.285,0,10.116-0.636,12.36-1.641
		c0.157,0.05,0.36,0.165,0.476,0.425c0.079,0.188,0.091,0.43,0.059,0.706c-1.275,1.106-6.139,2.12-12.895,2.12
		c-6.758,0-11.619-1.014-12.893-2.12C7.073,24.681,7.083,24.438,7.167,24.25z M32.357,38.89c-0.027,1.654-2.014,13.877-2.862,19.098
		c-0.917,5.655-1.445,8.273-1.565,8.855c-0.324,0.341-2.124,1.902-7.93,2.086c-5.832-0.186-7.617-1.762-7.931-2.084
		c-0.119-0.58-0.647-3.195-1.564-8.859c-0.849-5.22-2.833-17.443-2.866-19.096c-0.023-1.407,0.122-5.885,0.159-6.95
		c1.917,1.201,6.631,1.998,12.202,1.998c5.569,0,10.285-0.797,12.204-1.998C32.24,33.003,32.383,37.483,32.357,38.89z"/>
</g>
</svg>
