<?xml version="1.0" encoding="utf-8"?>
<!-- Generator: Adobe Illustrator 16.0.0, SVG Export Plug-In . SVG Version: 6.00 Build 0)  -->
<!DOCTYPE svg PUBLIC "-//W3C//DTD SVG 1.1//EN" "http://www.w3.org/Graphics/SVG/1.1/DTD/svg11.dtd">
<svg version="1.1" xmlns="http://www.w3.org/2000/svg" xmlns:xlink="http://www.w3.org/1999/xlink" x="0px" y="0px" width="60px"
	 height="60px" viewBox="0 0 60 60" enable-background="new 0 0 60 60" xml:space="preserve">
<g id="Layer_2" display="none">
	<rect x="-540.5" y="-128.5" display="inline" stroke="#FFFFFF" stroke-miterlimit="10" width="914" height="652"/>
</g>
<g id="Layer_1">
	<g>
		<g>
			<path fill="#FFFFFF" d="M30,60C13.457,60,0,46.542,0,30S13.457,0,30,0s30,13.458,30,30S46.543,60,30,60z M30,4.195
				C15.771,4.195,4.195,15.771,4.195,30S15.771,55.805,30,55.805S55.805,44.229,55.805,30S44.229,4.195,30,4.195z"/>
		</g>
		<g>
			<path fill="#FFFFFF" d="M23.615,39.895c-0.467,0-0.895-0.314-1.066-0.759L15.945,22h-3.932c-0.633,0-1.146-0.868-1.146-1.5
				c0-0.631,0.514-1.5,1.146-1.5h4.717c0.473,0,0.896,0.674,1.066,1.116l6.568,17.207l17.449-2.518L44.727,25H24.215
				c-0.631,0-1.143-0.368-1.143-1c0-0.633,0.512-1,1.143-1h22.07c0.363,0,0.705,0.655,0.922,0.948
				c0.215,0.293,0.279,0.913,0.17,1.26l-3.604,11.591c-0.135,0.432-0.512,0.803-0.961,0.855l-19.066,2.203
				C23.703,39.863,23.658,39.895,23.615,39.895z"/>
		</g>
		<g>
			<circle fill="#FFFFFF" cx="24.558" cy="43.585" r="2.177"/>
		</g>
		<g>
			<circle fill="#FFFFFF" cx="41.506" cy="43.585" r="2.178"/>
		</g>
	</g>
</g>
</svg>
