<?xml version="1.0" encoding="utf-8"?>
<!-- Generator: Adobe Illustrator 16.0.0, SVG Export Plug-In . SVG Version: 6.00 Build 0)  -->
<!DOCTYPE svg PUBLIC "-//W3C//DTD SVG 1.1//EN" "http://www.w3.org/Graphics/SVG/1.1/DTD/svg11.dtd">
<svg version="1.1" xmlns="http://www.w3.org/2000/svg" xmlns:xlink="http://www.w3.org/1999/xlink" x="0px" y="0px" width="30px"
	 height="30px" viewBox="0 0 30 30" enable-background="new 0 0 30 30" xml:space="preserve">
<g id="Layer_2">
</g>
<g id="Layer_1">
	<g>
		<g>
			<circle fill="none" cx="15" cy="15" r="14.062"/>
			<path fill="#FFFFFF" d="M15,30C6.729,30,0,23.271,0,15S6.729,0,15,0s15,6.729,15,15S23.271,30,15,30z M15,1.875
				C7.763,1.875,1.875,7.763,1.875,15S7.763,28.125,15,28.125S28.125,22.237,28.125,15S22.237,1.875,15,1.875z"/>
		</g>
		<g>
			<g>
				<line x1="17.812" y1="11.504" x2="17.812" y2="18.86"/>
				<rect x="17.344" y="11.504" fill="#FFFFFF" width="0.938" height="7.356"/>
			</g>
			<g>
				<line x1="15" y1="11.504" x2="15" y2="18.86"/>
				<rect x="14.531" y="11.504" fill="#FFFFFF" width="0.938" height="7.356"/>
			</g>
			<g>
				<line x1="12.188" y1="11.36" x2="12.188" y2="18.716"/>
				<rect x="11.719" y="11.36" fill="#FFFFFF" width="0.938" height="7.356"/>
			</g>
		</g>
	</g>
</g>
</svg>
