<?xml version="1.0" encoding="utf-8"?>
<!-- Generator: Adobe Illustrator 16.0.0, SVG Export Plug-In . SVG Version: 6.00 Build 0)  -->
<!DOCTYPE svg PUBLIC "-//W3C//DTD SVG 1.1//EN" "http://www.w3.org/Graphics/SVG/1.1/DTD/svg11.dtd">
<svg version="1.1" xmlns="http://www.w3.org/2000/svg" xmlns:xlink="http://www.w3.org/1999/xlink" x="0px" y="0px" width="30px"
	 height="30px" viewBox="0 0 30 30" enable-background="new 0 0 30 30" xml:space="preserve">
<g id="Layer_2" display="none">
	<rect x="-502.5" y="-381.5" display="inline" stroke="#FFFFFF" stroke-miterlimit="10" width="914" height="652"/>
</g>
<g id="Layer_1">
	<g>
		<polygon fill="#FFFFFF" points="8.035,18.979 1.037,11.807 10.705,10.329 15,1.177 19.295,10.329 28.963,11.807 21.965,18.979 
			23.61,29.064 15,24.305 6.388,29.064 		"/>
		<path fill="#FFFFFF" d="M15,2.354l3.729,7.946l0.227,0.483l0.527,0.081l8.443,1.291l-6.143,6.295l-0.353,0.361l0.081,0.498
			l1.439,8.82l-7.468-4.127L15,23.734l-0.483,0.267l-7.469,4.127l1.44-8.82l0.081-0.498l-0.353-0.361l-6.143-6.295l8.443-1.291
			l0.527-0.081l0.227-0.483L15,2.354 M15,0l-4.634,9.875L0,11.46l7.501,7.688L5.729,30L15,24.876L24.27,30l-1.771-10.853L30,11.46
			L19.634,9.875L15,0L15,0z"/>
	</g>
</g>
</svg>
