<?xml version="1.0" encoding="utf-8"?>
<!-- Generator: Adobe Illustrator 16.0.0, SVG Export Plug-In . SVG Version: 6.00 Build 0)  -->
<!DOCTYPE svg PUBLIC "-//W3C//DTD SVG 1.1//EN" "http://www.w3.org/Graphics/SVG/1.1/DTD/svg11.dtd">
<svg version="1.1" id="Layer_1" xmlns="http://www.w3.org/2000/svg" xmlns:xlink="http://www.w3.org/1999/xlink" x="0px" y="0px"
	 width="20px" height="20px" viewBox="5 5 20 20" enable-background="new 5 5 20 20" xml:space="preserve">
<g id="Layer_2" display="none">
	<rect x="-457.5" y="-381.5" display="inline" stroke="#FFFFFF" stroke-miterlimit="10" width="914" height="652"/>
</g>
<g id="Layer_1_1_">
	<path fill="#FFFFFF" d="M15,6.64l2.46,5.24l0.157,0.336l0.368,0.056l5.569,0.852l-4.054,4.154l-0.245,0.251l0.057,0.348l0.95,5.819
		l-4.925-2.722L15,20.788l-0.337,0.187l-4.924,2.722l0.949-5.818l0.057-0.348L10.5,17.278l-4.054-4.154l5.569-0.851l0.368-0.056
		l0.158-0.336L15,6.64 M15,5l-3.09,6.584L5,12.64l5,5.125L8.82,25L15,21.584L21.181,25L20,17.765l5-5.125l-6.91-1.056L15,5L15,5z"/>
</g>
</svg>
