<?xml version="1.0" encoding="utf-8"?>
<!-- Generator: Adobe Illustrator 16.0.0, SVG Export Plug-In . SVG Version: 6.00 Build 0)  -->
<!DOCTYPE svg PUBLIC "-//W3C//DTD SVG 1.1//EN" "http://www.w3.org/Graphics/SVG/1.1/DTD/svg11.dtd">
<svg version="1.1" xmlns="http://www.w3.org/2000/svg" xmlns:xlink="http://www.w3.org/1999/xlink" x="0px" y="0px" width="15px"
	 height="15px" viewBox="0 0 15 15" enable-background="new 0 0 15 15" xml:space="preserve">
<g id="Layer_2" display="none">
	<rect x="-464" y="-279" display="inline" stroke="#FFFFFF" stroke-miterlimit="10" width="914" height="652"/>
</g>
<g id="Layer_1">
	<g>
		<path fill="#FFFFFF" d="M7.5,0.5c3.859,0,7,3.14,7,7c0,3.859-3.141,7-7,7s-7-3.141-7-7C0.5,3.64,3.641,0.5,7.5,0.5 M7.5,0
			C3.354,0,0,3.354,0,7.5S3.354,15,7.5,15S15,11.646,15,7.5S11.646,0,7.5,0L7.5,0z"/>
		<polygon fill="#FFFFFF" points="7.5,2.102 9.111,5.376 12.729,5.896 10.115,8.444 10.73,12.041 7.5,10.342 4.27,12.041 
			4.885,8.444 2.271,5.896 5.889,5.376 		"/>
	</g>
</g>
</svg>
