<?xml version="1.0" encoding="utf-8"?>
<!-- Generator: Adobe Illustrator 16.0.0, SVG Export Plug-In . SVG Version: 6.00 Build 0)  -->
<!DOCTYPE svg PUBLIC "-//W3C//DTD SVG 1.1//EN" "http://www.w3.org/Graphics/SVG/1.1/DTD/svg11.dtd">
<svg version="1.1" xmlns="http://www.w3.org/2000/svg" xmlns:xlink="http://www.w3.org/1999/xlink" x="0px" y="0px" width="150px"
	 height="170px" viewBox="0 0 150 170" enable-background="new 0 0 150 170" xml:space="preserve">
<g id="Layer_2">
</g>
<g id="Layer_1">
	<g>
		<g>
			<g>
				<path fill="#FFFFFF" d="M86.672,133.165c0.504-5.479,0.408-8.676-0.281-9.503c-0.188-0.227-0.441-0.375-0.684-0.516
					c-0.123-0.072-0.33-0.191-0.367-0.232c-0.109-0.227-0.129-1.174-0.041-1.965c1.584-11.61,3.111-16.927,4.461-21.618
					c1.055-3.666,2.051-7.129,2.846-12.955c0.158-1.154,0.439-2.939,0.781-5.116c2.205-14.014,4.4-29.244,2.527-32.548
					c-1.586-2.801-3.973-3.149-5.893-3.429l-0.096-0.015l-0.082-0.011c-1.922-0.246-4.314-0.553-6.598,1.719
					c-2.691,2.678-4.674,17.938-6.318,32.029c-0.256,2.188-0.465,3.982-0.625,5.138c-0.799,5.825-0.773,9.427-0.742,13.242
					c0.037,4.881,0.08,10.414-1.516,22.001c-0.129,0.806-0.402,1.713-0.553,1.886c-0.064,0.046-0.295,0.106-0.434,0.141
					c-0.271,0.071-0.555,0.146-0.795,0.313c-0.889,0.611-1.842,3.664-2.83,9.076c-0.699,3.831-1.404,9.069-1.283,12.285
					c0.064,1.742,0.363,2.645,0.996,3.016c1.537,0.898,4.879,1.723,6.703,1.972c1.822,0.249,5.262,0.355,6.984-0.097
					c0.711-0.188,1.24-0.975,1.771-2.637C85.586,142.277,86.314,137.043,86.672,133.165z M74.588,122.453
					c0.033-0.031,0.062-0.075,0.094-0.111c1.355,0.438,3.045,0.816,4.652,1.039c1.527,0.207,3.18,0.29,4.57,0.247
					c0.018,0.035,0.031,0.077,0.049,0.109c0.061,0.099,0.129,0.188,0.205,0.267c-1.242,0.075-3.049,0.038-4.98-0.223
					c-1.93-0.268-3.682-0.72-4.859-1.126C74.412,122.6,74.504,122.533,74.588,122.453z M77.898,84.363
					c0.162-1.162,0.371-2.969,0.629-5.172c1.084-9.273,3.338-28.566,5.855-31.072c1.723-1.716,3.52-1.485,5.256-1.262l0.07,0.008
					l0.082,0.012c1.732,0.254,3.523,0.515,4.723,2.631c1.75,3.089-1.268,22.279-2.719,31.502c-0.346,2.191-0.627,3.986-0.785,5.149
					c-0.781,5.709-1.715,8.962-2.799,12.727c-1.363,4.744-2.91,10.12-4.512,21.864c-0.055,0.484-0.135,1.49,0.012,2.281
					c-1.318,0.027-2.861-0.055-4.293-0.25c-1.518-0.209-3.102-0.561-4.396-0.968c0.346-0.72,0.539-1.696,0.619-2.187
					c1.611-11.723,1.568-17.318,1.531-22.254C77.141,93.455,77.115,90.072,77.898,84.363z M82.359,146.436
					c-1.469,0.361-4.635,0.271-6.291,0.044c-1.873-0.257-4.826-1.047-6.051-1.735c-1.117-1.768,1.557-20.053,3.139-21.679
					c1.203,0.535,3.463,1.175,5.912,1.515c2.438,0.329,4.773,0.322,6.082,0.135C86.221,126.973,83.902,145.043,82.359,146.436z"/>
			</g>
			<g>
				
					<line fill="none" stroke="#FFFFFF" stroke-width="1.5" stroke-linecap="round" stroke-miterlimit="10" x1="71.27" y1="88.864" x2="75" y2="54.819"/>
				<polygon fill="#FFFFFF" points="70.734,93.736 69.678,88.689 72.859,89.037 				"/>
			</g>
		</g>
		<path fill="#FFFFFF" d="M75.561,101.514c-0.311-0.004-0.506-0.005-0.566-0.006c-0.619,0.004-15.217,0.13-21.613,1.611
			c-6.428,1.487-9.482,3.693-9.336,6.751c0.104,2.147,2.254,50.321,2.254,50.321c0.002,0.199,0.176,4.772,6.15,6.873
			c5.6,1.978,12.979,2.936,22.555,2.936s16.951-0.958,22.553-2.936c5.973-2.101,6.143-6.674,6.146-6.842
			c0.021-0.485,2.152-48.229,2.252-50.353c0.148-3.058-2.908-5.264-9.328-6.751c-2.354-0.544-5.816-0.905-9.287-1.146l-0.562,2.112
			c3.52,0.231,7.051,0.584,9.363,1.119c5.033,1.168,7.758,2.784,7.676,4.564c-0.006,0.157-0.025,0.58-0.057,1.215
			c-0.824,0.714-2.588,1.651-6.41,2.436c-7.469,1.522-15.955,1.51-21.539,1.515h-0.807h-0.809
			c-5.604,0.004-14.07,0.008-21.543-1.515c-3.814-0.784-5.582-1.722-6.412-2.436c-0.025-0.635-0.045-1.058-0.053-1.215
			c-0.088-1.78,2.641-3.396,7.678-4.564c6.166-1.427,20.996-1.555,21.129-1.555c0.016,0,0.197,0.001,0.518,0.005L75.561,101.514z
			 M101.562,160.147c0,0.034-0.125,3.282-4.715,4.897c-5.369,1.893-12.518,2.812-21.844,2.812c-9.332,0-16.475-0.919-21.846-2.812
			c-4.516-1.591-4.713-4.773-4.717-4.92c0,0-0.037-0.81-0.1-2.216c3.398,2.403,4.846,2.991,8.928,3.956
			c4.502,1.062,13.342,1.652,17.734,1.652c4.391,0,13.229-0.59,17.729-1.652c4.084-0.965,5.531-1.553,8.934-3.956
			C101.604,159.273,101.564,160.084,101.562,160.147z M101.709,156.888c-3.67,2.637-5.012,3.217-9.16,4.194
			c-4.443,1.05-13.195,1.631-17.545,1.631c-4.354,0-13.104-0.581-17.547-1.631c-4.152-0.978-5.492-1.558-9.158-4.194
			c-0.426-9.429-1.645-36.743-2.01-44.881c1.115,0.74,2.996,1.537,6.205,2.197c7.549,1.544,16.078,1.532,21.701,1.532h0.809h0.807
			c0.287,0,0.584,0,0.887,0c5.619,0,13.65-0.07,20.814-1.532c3.211-0.655,5.09-1.457,6.203-2.197
			C103.352,120.139,102.131,147.428,101.709,156.888z"/>
	</g>
</g>
</svg>
