<?xml version="1.0" encoding="utf-8"?>
<!-- Generator: Adobe Illustrator 16.0.0, SVG Export Plug-In . SVG Version: 6.00 Build 0)  -->
<!DOCTYPE svg PUBLIC "-//W3C//DTD SVG 1.1//EN" "http://www.w3.org/Graphics/SVG/1.1/DTD/svg11.dtd">
<svg version="1.1" xmlns="http://www.w3.org/2000/svg" xmlns:xlink="http://www.w3.org/1999/xlink" x="0px" y="0px" width="150px"
	 height="170px" viewBox="0 0 150 170" enable-background="new 0 0 150 170" xml:space="preserve">
<g id="Layer_2">
</g>
<g id="Layer_1">
	<g>
		<path fill="#FFFFFF" d="M96.627,103.119c-6.4-1.481-20.996-1.607-21.633-1.611c-0.619,0.004-15.217,0.13-21.613,1.611
			c-6.428,1.487-9.482,3.693-9.336,6.751c0.104,2.147,2.254,50.321,2.254,50.321c0.002,0.199,0.176,4.772,6.15,6.873
			c5.6,1.978,12.979,2.936,22.555,2.936s16.951-0.958,22.553-2.936c5.973-2.101,6.143-6.674,6.146-6.842
			c0.021-0.485,2.152-48.229,2.252-50.353C106.104,106.812,103.047,104.606,96.627,103.119z M53.865,105.205
			c6.166-1.427,20.996-1.555,21.129-1.555c0.148,0,14.979,0.128,21.146,1.555c5.033,1.168,7.758,2.784,7.676,4.564
			c-0.006,0.157-0.025,0.58-0.057,1.215c-0.824,0.714-2.588,1.651-6.41,2.436c-7.469,1.522-15.955,1.51-21.539,1.515h-0.807h-0.809
			c-5.604,0.004-14.07,0.008-21.543-1.515c-3.814-0.784-5.582-1.722-6.412-2.436c-0.025-0.635-0.045-1.058-0.053-1.215
			C46.1,107.989,48.828,106.373,53.865,105.205z M101.562,160.147c0,0.034-0.125,3.282-4.715,4.897
			c-5.369,1.893-12.518,2.812-21.844,2.812c-9.332,0-16.475-0.919-21.846-2.812c-4.516-1.591-4.713-4.773-4.717-4.92
			c0,0-0.037-0.81-0.1-2.216c3.398,2.403,4.846,2.991,8.928,3.956c4.502,1.062,13.342,1.652,17.734,1.652
			c4.391,0,13.229-0.59,17.729-1.652c4.084-0.965,5.531-1.553,8.934-3.956C101.604,159.273,101.564,160.084,101.562,160.147z
			 M101.709,156.888c-3.67,2.637-5.012,3.217-9.16,4.194c-4.443,1.05-13.195,1.631-17.545,1.631c-4.354,0-13.104-0.581-17.547-1.631
			c-4.152-0.978-5.492-1.558-9.158-4.194c-0.426-9.429-1.645-36.743-2.01-44.881c1.115,0.74,2.996,1.537,6.205,2.197
			c7.549,1.544,16.078,1.532,21.701,1.532h0.809h0.807c0.287,0,0.584,0,0.887,0c5.619,0,13.65-0.07,20.814-1.532
			c3.211-0.655,5.09-1.457,6.203-2.197C103.352,120.139,102.131,147.428,101.709,156.888z"/>
		<g>
			<path fill="#FFFFFF" d="M59.614,89.934c0.979,0.322,3.042-0.777,6.479-2.691l1.921-1.061c4.704-2.59,13.044-8.559,13.12-8.615
				c0.076-0.055,8.268-6.189,12.158-9.893l1.564-1.484c2.143-2.019,3.848-3.624,4.375-4.723l34.807-25.483l-0.548-1.304
				l-0.745-1.018L99.23,58.197c0.037-0.868-0.252-1.695-0.977-2.47c-3.956-4.231-6.533-6.946-7.221-7.606
				c-0.047-0.062-0.154-0.21-43.654-46.662c-0.079-0.082-1.965-1.989-4.932-1.314c-3.029,0.691-7.1,2.111-14.334,7.407
				c-7.23,5.294-9.813,8.744-11.388,11.424c-1.538,2.625-0.292,5-0.229,5.112C47.631,79.575,47.738,79.721,47.75,79.735
				c0.454,0.904,2.266,4.182,5.103,9.23C54.092,91.172,56.866,90.915,59.614,89.934z M55.154,88.62
				c0.188-0.517,0.571-1.256,1.287-2.248c0.055,0.079,0.111,0.16,0.16,0.229c0.396,0.539,1.053,1.343,1.601,1.797
				C56.992,88.78,55.773,88.956,55.154,88.62z M58.609,88.668l-0.008-0.008c0.002,0.002,0.005,0.002,0.008,0.002
				C58.607,88.666,58.609,88.667,58.609,88.668z M58.586,88.416c-0.357-0.237-1.016-0.864-1.807-1.944
				c-0.073-0.101-0.135-0.193-0.203-0.289c0.159-0.213,0.336-0.438,0.525-0.675c0.02,0.024,0.041,0.057,0.059,0.082
				c0.24,0.328,0.578,0.755,0.93,1.14c0.302,0.477,0.51,0.873,0.637,1.172C58.646,88.081,58.596,88.25,58.586,88.416z M56.15,85.538
				c-0.602-0.975-0.795-1.598-0.694-1.672c0.089-0.064,0.529,0.23,1.154,0.914c0.021,0.034,0.041,0.064,0.063,0.098
				C56.485,85.107,56.311,85.327,56.15,85.538z M133.235,35.758L98.703,61.04l-0.036,0.082c-0.425,0.977-2.202,2.651-4.261,4.592
				l-1.566,1.484c-3.883,3.696-12.016,9.781-12.093,9.839s-8.36,5.989-13.05,8.568l-1.922,1.063
				c-0.975,0.542-2.04,1.136-3.004,1.627c5.445-2.877,10.949-6.297,16.365-10.186c0.369-0.266,0.732-0.529,1.088-0.791
				c7.776-5.691,12.543-10.305,12.574-10.338c0.108-0.116,0.16-0.246,0.141-0.357c-0.014-0.078-0.06-0.14-0.127-0.175
				c-0.154-0.081-0.401-0.01-0.586,0.163c-0.046,0.045-4.793,4.607-12.431,10.198c-5.8,4.247-11.7,7.952-17.537,11.013
				c-0.033,0.019-0.065,0.038-0.096,0.061c-0.177,0.128-0.272,0.312-0.239,0.457c0.016,0.076,0.064,0.136,0.135,0.17
				c0.09,0.039,0.203,0.025,0.321-0.019c-1.353,0.667-2.437,1.074-2.658,0.751l-0.22-0.308c0.153-0.622,1.1-1.547,2.434-2.843
				c0.326-0.317,0.674-0.656,1.043-1.021c4.269-4.229,10.569-9.418,14.587-12.359c4.017-2.94,10.868-7.38,16.189-10.173
				c0.445-0.234,0.864-0.46,1.255-0.67c1.664-0.893,2.865-1.538,3.51-1.483l0.01-0.109l0.064,0.089l34.402-25.188L133.235,35.758z
				 M62.356,88.272c-0.093,0.049-0.171,0.054-0.22,0.021c-0.012-0.052,0.061-0.193,0.225-0.275
				c5.846-3.067,11.755-6.778,17.564-11.031c7.648-5.6,12.408-10.174,12.453-10.217c0.12-0.113,0.271-0.16,0.346-0.109
				c0.006,0.032-0.02,0.1-0.086,0.17c-0.036,0.038-4.707,4.574-12.543,10.312c-0.356,0.261-0.72,0.524-1.088,0.789
				C73.498,81.889,67.896,85.369,62.356,88.272z M132.607,34.579l0.296,0.396L98.492,60.168c-0.713-0.031-1.861,0.582-3.586,1.51
				c-0.39,0.209-0.809,0.434-1.254,0.667c-5.33,2.798-12.193,7.245-16.217,10.19c-4.023,2.946-10.334,8.145-14.611,12.381
				c-0.367,0.363-0.716,0.702-1.042,1.019c-1.271,1.235-2.165,2.108-2.441,2.774l-0.11-0.154c-0.174-0.464,1.016-1.62,2.394-2.957
				c0.324-0.314,0.672-0.653,1.037-1.015c4.265-4.226,10.553-9.405,14.56-12.339c4.008-2.935,10.848-7.365,16.164-10.154
				c0.456-0.24,0.883-0.469,1.281-0.684c1.427-0.767,2.553-1.371,3.189-1.443l0.088-0.01L132.607,34.579z M57.305,85.259
				c0.153-0.187,0.315-0.377,0.49-0.577c0.014,0.018,0.028,0.04,0.041,0.058c0.227,0.31,0.543,0.708,0.873,1.077
				c0.307,0.493,0.51,0.898,0.623,1.188c-0.099,0.117-0.195,0.231-0.275,0.34c-0.199-0.147-0.471-0.396-0.793-0.748
				c-0.19-0.301-0.385-0.584-0.55-0.811C57.598,85.629,57.456,85.447,57.305,85.259z M57.37,84.06
				c-0.194,0.219-0.373,0.429-0.544,0.634c-0.014-0.016-0.026-0.031-0.041-0.046c-0.661-1.043-0.877-1.715-0.773-1.791
				c0.092-0.067,0.558,0.247,1.216,0.978C57.274,83.911,57.322,83.986,57.37,84.06z M58.942,87.518
				c-0.03,0.047-0.065,0.093-0.091,0.138c-0.051-0.11-0.105-0.222-0.166-0.337C58.773,87.397,58.859,87.46,58.942,87.518z
				 M58.014,84.436c0.156-0.177,0.324-0.359,0.498-0.547l0,0c0.227,0.309,0.539,0.703,0.867,1.07
				c0.34,0.548,0.554,0.985,0.658,1.279c-0.094,0.097-0.182,0.189-0.268,0.28c-0.215-0.151-0.521-0.427-0.89-0.837
				c-0.208-0.337-0.427-0.658-0.609-0.906C58.194,84.672,58.106,84.555,58.014,84.436z M58.088,83.274
				c-0.191,0.204-0.37,0.4-0.544,0.594c-0.049-0.057-0.097-0.112-0.146-0.168c-0.612-0.986-0.811-1.619-0.709-1.693
				c0.09-0.066,0.558,0.25,1.218,0.984C57.968,83.088,58.025,83.181,58.088,83.274z M59.625,86.672
				c-0.044,0.049-0.094,0.1-0.136,0.146c-0.053-0.13-0.116-0.266-0.189-0.406C59.413,86.516,59.521,86.601,59.625,86.672z
				 M71.284,72.424c-0.013-0.018-0.029-0.038-0.043-0.057c0.192-0.15,0.38-0.299,0.566-0.443c0.023,0.031,0.049,0.068,0.07,0.098
				c0.214,0.291,0.503,0.658,0.811,1.005c0.381,0.628,0.582,1.097,0.649,1.361c-0.072,0.056-0.146,0.116-0.218,0.173
				c-0.233-0.143-0.625-0.484-1.11-1.04C71.768,73.116,71.5,72.719,71.284,72.424z M70.537,71.493
				c-0.527-0.887-0.694-1.449-0.6-1.518c0.084-0.062,0.568,0.254,1.273,1.046c0.062,0.102,0.123,0.202,0.186,0.3
				c-0.199,0.155-0.398,0.312-0.603,0.474C70.71,71.694,70.625,71.594,70.537,71.493z M72.99,71.208
				c-0.029-0.038-0.063-0.083-0.095-0.123c0.197-0.149,0.389-0.294,0.576-0.435c0.036,0.052,0.075,0.108,0.109,0.154
				c0.214,0.292,0.508,0.661,0.816,1.012c0.342,0.563,0.532,0.991,0.616,1.264c-0.088,0.067-0.177,0.137-0.266,0.205
				c-0.236-0.161-0.591-0.476-1.031-0.979C73.474,71.901,73.205,71.503,72.99,71.208z M72.241,70.274
				c-0.533-0.898-0.685-1.453-0.601-1.514s0.57,0.252,1.272,1.04c0.05,0.083,0.099,0.166,0.15,0.247
				c-0.202,0.15-0.407,0.305-0.618,0.465C72.379,70.433,72.311,70.354,72.241,70.274z M75.457,69.37
				c-0.023-0.029-0.052-0.066-0.076-0.098c0.193-0.136,0.389-0.271,0.591-0.411c0.015,0.021,0.032,0.046,0.046,0.065
				c0.217,0.296,0.516,0.672,0.828,1.025c0.355,0.585,0.549,1.025,0.629,1.298c-0.091,0.065-0.176,0.128-0.266,0.192
				c-0.234-0.159-0.588-0.473-1.024-0.971C75.941,70.064,75.674,69.667,75.457,69.37z M74.691,68.418
				c-0.527-0.886-0.693-1.447-0.599-1.518c0.084-0.061,0.565,0.251,1.261,1.029c0.069,0.112,0.137,0.223,0.207,0.33
				c-0.215,0.148-0.424,0.293-0.63,0.438C74.854,68.604,74.773,68.512,74.691,68.418z M77.131,68.112
				c-0.006-0.008-0.014-0.018-0.02-0.026c0.196-0.133,0.393-0.264,0.594-0.399c0.217,0.295,0.509,0.662,0.816,1.012
				c0.379,0.62,0.584,1.089,0.65,1.356c-0.08,0.056-0.158,0.11-0.239,0.167c-0.231-0.145-0.607-0.474-1.073-1.007
				C77.615,68.807,77.348,68.409,77.131,68.112z M76.365,67.16c-0.527-0.886-0.693-1.444-0.6-1.514
				c0.095-0.069,0.578,0.259,1.262,1.026c0.088,0.143,0.175,0.281,0.264,0.417c-0.214,0.142-0.421,0.281-0.629,0.421
				C76.565,67.392,76.468,67.278,76.365,67.16z M93.612,58.754c0.25-0.098,0.489-0.188,0.716-0.269
				c0.156,0.206,0.334,0.429,0.529,0.655c0.291,0.496,0.463,0.882,0.539,1.132c-0.102,0.054-0.211,0.111-0.318,0.169
				c-0.248-0.179-0.611-0.516-1.05-1.027C93.895,59.186,93.751,58.963,93.612,58.754z M92.574,57.386
				c-0.494-0.843-0.652-1.379-0.561-1.445c0.102-0.073,0.644,0.306,1.4,1.188c0.152,0.257,0.314,0.512,0.471,0.741
				c-0.224,0.082-0.461,0.175-0.703,0.273C93.008,57.913,92.801,57.651,92.574,57.386z M95.426,59.762
				c0.118,0.117,0.235,0.225,0.347,0.317c-0.061,0.031-0.125,0.063-0.188,0.096C95.547,60.049,95.494,59.911,95.426,59.762z
				 M94.871,60.551c-0.084,0.045-0.172,0.093-0.259,0.139c-0.035-0.154-0.108-0.342-0.198-0.537
				C94.574,60.31,94.725,60.441,94.871,60.551z M92.623,59.166c0.242-0.106,0.469-0.199,0.691-0.29
				c0.156,0.205,0.334,0.428,0.527,0.653c0.352,0.603,0.526,1.04,0.571,1.269c-0.021,0.011-0.037,0.02-0.058,0.03
				c-0.051,0.027-0.113,0.06-0.165,0.089c-0.232-0.139-0.622-0.476-1.107-1.031C92.932,59.635,92.774,59.386,92.623,59.166z
				 M91.604,57.853c-0.532-0.892-0.7-1.457-0.604-1.526c0.088-0.064,0.63,0.295,1.397,1.188c0.155,0.262,0.321,0.52,0.479,0.754
				c-0.225,0.094-0.451,0.188-0.691,0.295C92.015,58.338,91.816,58.096,91.604,57.853z M93.982,61.028
				c-0.094,0.049-0.191,0.102-0.287,0.152c-0.043-0.168-0.122-0.363-0.221-0.57C93.653,60.782,93.824,60.923,93.982,61.028z
				 M91.656,59.61c0.232-0.11,0.454-0.211,0.672-0.31c0.17,0.222,0.367,0.463,0.576,0.704c0.346,0.578,0.537,1.02,0.602,1.275
				c-0.091,0.049-0.176,0.096-0.271,0.146c-0.234-0.155-0.598-0.478-1.046-0.993C92.012,60.141,91.829,59.857,91.656,59.61z
				 M90.709,58.4c-0.531-0.892-0.701-1.454-0.606-1.523c0.098-0.071,0.606,0.276,1.324,1.098c0.152,0.253,0.312,0.502,0.464,0.726
				c-0.221,0.1-0.439,0.199-0.676,0.312C91.062,58.815,90.889,58.606,90.709,58.4z M93.029,61.535
				c-0.082,0.043-0.166,0.089-0.25,0.133c-0.044-0.153-0.112-0.325-0.199-0.509C92.737,61.311,92.887,61.434,93.029,61.535z
				 M90.696,60.077c0.222-0.111,0.444-0.221,0.663-0.326c0.186,0.247,0.408,0.525,0.65,0.802c0.321,0.54,0.506,0.954,0.582,1.216
				c-0.102,0.055-0.205,0.109-0.309,0.166c-0.25-0.179-0.619-0.521-1.067-1.045C91.049,60.605,90.867,60.325,90.696,60.077z
				 M89.772,58.876c-0.497-0.848-0.657-1.385-0.565-1.452c0.098-0.071,0.607,0.276,1.324,1.097c0.132,0.219,0.268,0.431,0.4,0.628
				c-0.221,0.108-0.444,0.218-0.671,0.33C90.115,59.288,89.949,59.083,89.772,58.876z M92.077,62.043
				c-0.089,0.047-0.182,0.1-0.271,0.148c-0.034-0.16-0.107-0.353-0.202-0.56C91.77,61.796,91.927,61.93,92.077,62.043z
				 M89.753,60.553c0.216-0.111,0.437-0.226,0.65-0.333c0.176,0.237,0.396,0.514,0.632,0.792c0.362,0.617,0.543,1.062,0.578,1.287
				c-0.068,0.037-0.135,0.074-0.203,0.111c-0.227-0.125-0.623-0.461-1.131-1.04C90.106,61.081,89.923,60.8,89.753,60.553z
				 M88.798,59.332c-0.532-0.888-0.698-1.452-0.604-1.521c0.089-0.065,0.631,0.298,1.401,1.194c0.126,0.213,0.256,0.417,0.388,0.613
				c-0.221,0.111-0.444,0.228-0.669,0.342C89.159,59.758,88.98,59.543,88.798,59.332z M91.201,62.528
				C91.1,62.583,91,62.637,90.899,62.694c-0.041-0.174-0.125-0.381-0.229-0.6C90.856,62.274,91.036,62.423,91.201,62.528z
				 M88.812,61.042c0.218-0.114,0.435-0.229,0.648-0.34c0.184,0.243,0.403,0.517,0.641,0.788c0.363,0.609,0.555,1.063,0.607,1.311
				c-0.076,0.045-0.154,0.089-0.232,0.133c-0.231-0.143-0.617-0.475-1.101-1.027C89.189,61.596,88.992,61.299,88.812,61.042z
				 M87.906,59.886c-0.54-0.907-0.693-1.466-0.609-1.526c0.098-0.071,0.605,0.273,1.32,1.092c0.137,0.228,0.277,0.448,0.416,0.652
				c-0.218,0.113-0.438,0.23-0.658,0.348C88.231,60.269,88.07,60.077,87.906,59.886z M90.27,63.051
				c-0.092,0.053-0.184,0.104-0.275,0.156c-0.045-0.166-0.123-0.359-0.221-0.565C89.947,62.81,90.115,62.949,90.27,63.051z
				 M87.882,61.541c0.216-0.116,0.428-0.229,0.642-0.344c0.19,0.253,0.425,0.547,0.676,0.837c0.352,0.59,0.54,1.031,0.604,1.285
				c-0.085,0.049-0.17,0.099-0.255,0.146c-0.236-0.15-0.604-0.475-1.062-0.998C88.285,62.132,88.073,61.81,87.882,61.541z
				 M87.004,60.429c-0.529-0.891-0.697-1.454-0.602-1.523c0.096-0.07,0.604,0.276,1.322,1.097c0.123,0.207,0.25,0.406,0.376,0.594
				c-0.219,0.117-0.438,0.236-0.659,0.355C87.305,60.782,87.158,60.605,87.004,60.429z M89.35,63.583
				c-0.086,0.05-0.173,0.1-0.26,0.15c-0.045-0.161-0.119-0.346-0.212-0.543C89.043,63.349,89.201,63.481,89.35,63.583z
				 M86.957,62.046c0.213-0.117,0.423-0.231,0.636-0.349c0.195,0.265,0.446,0.58,0.716,0.89c0.338,0.565,0.526,0.995,0.596,1.254
				c-0.09,0.053-0.182,0.106-0.271,0.16c-0.234-0.154-0.593-0.472-1.035-0.978C87.385,62.669,87.156,62.327,86.957,62.046z
				 M86.104,60.971c-0.526-0.886-0.692-1.447-0.598-1.516c0.097-0.07,0.604,0.275,1.32,1.094c0.114,0.189,0.23,0.373,0.347,0.549
				c-0.219,0.121-0.438,0.24-0.659,0.363C86.386,61.3,86.248,61.135,86.104,60.971z M88.436,64.119
				c-0.081,0.05-0.164,0.099-0.247,0.147c-0.045-0.157-0.115-0.335-0.206-0.525C88.142,63.893,88.293,64.019,88.436,64.119z
				 M86.037,62.565c0.21-0.119,0.42-0.238,0.629-0.355c0.201,0.273,0.468,0.607,0.751,0.933c0.329,0.553,0.517,0.976,0.586,1.233
				c-0.092,0.056-0.185,0.11-0.278,0.166c-0.235-0.159-0.594-0.479-1.034-0.984C86.471,63.194,86.238,62.845,86.037,62.565z
				 M85.216,61.532c-0.533-0.895-0.702-1.459-0.606-1.528c0.085-0.062,0.592,0.267,1.321,1.095c0.104,0.176,0.212,0.346,0.319,0.51
				c-0.219,0.123-0.438,0.248-0.659,0.373C85.474,61.833,85.347,61.682,85.216,61.532z M87.531,64.66
				c-0.082,0.049-0.161,0.097-0.242,0.146c-0.045-0.156-0.115-0.332-0.204-0.52C87.24,64.436,87.39,64.559,87.531,64.66z
				 M85.124,63.087c0.208-0.121,0.417-0.241,0.625-0.361c0.001,0.003,0.005,0.009,0.009,0.012c0.199,0.273,0.469,0.613,0.754,0.941
				c0.332,0.555,0.521,0.978,0.595,1.237c-0.093,0.057-0.187,0.113-0.279,0.17c-0.237-0.16-0.592-0.478-1.03-0.979
				C85.572,63.733,85.331,63.374,85.124,63.087z M84.318,62.076c-0.531-0.892-0.701-1.457-0.604-1.526
				c0.096-0.07,0.606,0.278,1.325,1.104c0.098,0.161,0.195,0.319,0.296,0.473c-0.22,0.125-0.438,0.253-0.655,0.38
				C84.563,62.364,84.444,62.219,84.318,62.076z M86.633,65.205c-0.081,0.05-0.16,0.099-0.239,0.147
				c-0.046-0.156-0.114-0.33-0.204-0.518C86.344,64.983,86.492,65.106,86.633,65.205z M84.216,63.616
				c0.206-0.121,0.415-0.242,0.622-0.364c0.008,0.011,0.016,0.024,0.023,0.033c0.199,0.273,0.47,0.614,0.758,0.943
				c0.33,0.554,0.518,0.978,0.59,1.238c-0.09,0.055-0.182,0.111-0.271,0.168c-0.235-0.159-0.593-0.476-1.039-0.983
				C84.67,64.27,84.424,63.904,84.216,63.616z M83.424,62.624c-0.539-0.906-0.691-1.464-0.607-1.525
				c0.098-0.07,0.606,0.277,1.324,1.1c0.094,0.155,0.189,0.306,0.285,0.453c-0.219,0.128-0.438,0.256-0.657,0.385
				C83.659,62.899,83.545,62.762,83.424,62.624z M85.738,65.756c-0.08,0.049-0.16,0.1-0.24,0.148
				c-0.045-0.156-0.113-0.332-0.205-0.522C85.449,65.534,85.598,65.657,85.738,65.756z M83.311,64.153
				c0.206-0.123,0.414-0.246,0.621-0.368c0.011,0.016,0.023,0.033,0.033,0.048c0.201,0.275,0.473,0.615,0.761,0.947
				c0.331,0.557,0.519,0.98,0.589,1.24c-0.09,0.058-0.18,0.114-0.271,0.172c-0.235-0.158-0.593-0.477-1.036-0.982
				C83.775,64.821,83.521,64.443,83.311,64.153z M82.523,63.167c-0.53-0.888-0.697-1.45-0.604-1.519
				c0.098-0.071,0.605,0.272,1.323,1.091c0.09,0.152,0.183,0.3,0.276,0.443c-0.219,0.13-0.438,0.259-0.656,0.39
				C82.755,63.438,82.642,63.305,82.523,63.167z M84.852,66.311c-0.082,0.052-0.162,0.104-0.244,0.154
				c-0.045-0.159-0.117-0.34-0.209-0.533C84.558,66.084,84.709,66.211,84.852,66.311z M82.411,64.696
				c0.205-0.123,0.411-0.248,0.616-0.372c0.014,0.019,0.028,0.04,0.041,0.058c0.2,0.273,0.471,0.613,0.758,0.943
				c0.34,0.573,0.524,1.004,0.593,1.26c-0.087,0.055-0.171,0.109-0.257,0.164c-0.235-0.153-0.598-0.475-1.047-0.988
				C82.879,65.369,82.624,64.989,82.411,64.696z M81.626,63.714c-0.528-0.888-0.695-1.45-0.601-1.519
				c0.086-0.063,0.594,0.268,1.324,1.1c0.087,0.146,0.176,0.288,0.267,0.427c-0.217,0.132-0.436,0.263-0.651,0.396
				C81.856,63.983,81.744,63.85,81.626,63.714z M83.971,66.87c-0.084,0.055-0.169,0.108-0.254,0.164
				c-0.044-0.164-0.119-0.352-0.215-0.553C83.668,66.639,83.825,66.769,83.971,66.87z M81.517,65.247
				c0.204-0.126,0.407-0.252,0.612-0.377c0.013,0.019,0.029,0.041,0.043,0.061c0.201,0.274,0.474,0.617,0.764,0.949
				c0.344,0.576,0.533,1.017,0.6,1.27c-0.084,0.055-0.167,0.107-0.25,0.161c-0.234-0.149-0.607-0.479-1.072-1.01
				C81.979,65.913,81.728,65.536,81.517,65.247z M80.735,64.268c-0.533-0.892-0.702-1.455-0.606-1.525s0.604,0.274,1.318,1.092
				c0.089,0.148,0.178,0.292,0.271,0.432c-0.218,0.135-0.433,0.268-0.647,0.4C80.963,64.535,80.852,64.402,80.735,64.268z
				 M83.097,67.433c-0.09,0.058-0.179,0.116-0.269,0.173c-0.042-0.17-0.123-0.367-0.223-0.578
				C82.778,67.192,82.943,67.33,83.097,67.433z M80.624,65.802c0.204-0.128,0.407-0.255,0.612-0.383
				c0.014,0.019,0.029,0.041,0.041,0.06c0.199,0.271,0.469,0.609,0.754,0.938c0.363,0.611,0.552,1.064,0.608,1.312
				c-0.074,0.049-0.15,0.098-0.226,0.146c-0.233-0.143-0.624-0.484-1.107-1.039C81.078,66.456,80.832,66.088,80.624,65.802z
				 M79.846,64.827c-0.538-0.898-0.707-1.466-0.613-1.535c0.098-0.07,0.607,0.277,1.324,1.098c0.088,0.146,0.177,0.289,0.268,0.43
				c-0.217,0.135-0.431,0.271-0.645,0.405C80.072,65.092,79.962,64.959,79.846,64.827z M82.227,67.999
				c-0.096,0.062-0.188,0.125-0.283,0.188c-0.043-0.177-0.13-0.39-0.237-0.615C81.889,67.748,82.066,67.893,82.227,67.999z
				 M79.74,66.364c0.201-0.129,0.404-0.258,0.608-0.387c0.011,0.015,0.022,0.033,0.034,0.049c0.197,0.27,0.465,0.606,0.749,0.934
				c0.386,0.643,0.577,1.11,0.622,1.352c-0.066,0.044-0.134,0.088-0.199,0.132c-0.226-0.124-0.623-0.46-1.129-1.038
				C80.197,67.022,79.948,66.653,79.74,66.364z M78.937,65.358c-0.527-0.886-0.693-1.448-0.6-1.518
				c0.098-0.071,0.611,0.281,1.332,1.109c0.089,0.146,0.177,0.287,0.268,0.427c-0.214,0.136-0.431,0.271-0.643,0.407
				C79.182,65.643,79.062,65.5,78.937,65.358z M81.361,68.57c-0.104,0.07-0.204,0.137-0.306,0.206
				c-0.038-0.186-0.127-0.409-0.241-0.65C81.008,68.311,81.194,68.467,81.361,68.57z M78.855,66.932
				c0.199-0.129,0.402-0.261,0.605-0.391c0.008,0.01,0.016,0.023,0.022,0.031c0.201,0.275,0.474,0.619,0.765,0.951
				c0.402,0.676,0.59,1.155,0.616,1.38c-0.053,0.035-0.104,0.069-0.158,0.106c-0.212-0.103-0.634-0.442-1.19-1.078
				C79.296,67.566,79.06,67.212,78.855,66.932z M78.048,65.915c-0.534-0.893-0.702-1.457-0.607-1.526
				c0.098-0.071,0.604,0.272,1.317,1.089c0.095,0.159,0.193,0.314,0.291,0.465c-0.212,0.137-0.428,0.273-0.637,0.41
				C78.298,66.207,78.175,66.062,78.048,65.915z M80.502,69.145c-0.114,0.078-0.227,0.154-0.341,0.232
				c-0.028-0.196-0.117-0.438-0.245-0.709C80.124,68.87,80.326,69.042,80.502,69.145z M77.981,67.505
				c0.197-0.132,0.397-0.263,0.601-0.394c0.002,0.002,0.005,0.006,0.007,0.009c0.2,0.273,0.469,0.612,0.755,0.94
				c0.438,0.734,0.63,1.246,0.631,1.443c-0.039,0.027-0.078,0.053-0.117,0.08c-0.187-0.063-0.609-0.396-1.167-1.021
				c-0.225-0.369-0.466-0.728-0.665-0.998C78.013,67.546,77.995,67.524,77.981,67.505z M78.17,66.511
				c-0.217,0.14-0.43,0.28-0.639,0.419c-0.107-0.131-0.219-0.262-0.336-0.393c-0.57-0.936-0.748-1.529-0.652-1.602
				c0.098-0.071,0.609,0.277,1.328,1.102C77.969,66.201,78.068,66.358,78.17,66.511z M79.664,69.717
				c-0.104,0.069-0.211,0.143-0.312,0.213c-0.052-0.189-0.141-0.408-0.255-0.642C79.3,69.478,79.494,69.629,79.664,69.717z
				 M78.75,70.348c-0.091,0.062-0.186,0.127-0.274,0.19c-0.041-0.176-0.126-0.386-0.231-0.606
				C78.423,70.104,78.594,70.244,78.75,70.348z M76.242,68.675c0.195-0.135,0.392-0.269,0.595-0.405
				c0.024,0.035,0.052,0.076,0.076,0.109c0.202,0.275,0.476,0.62,0.765,0.952c0.381,0.64,0.569,1.103,0.609,1.341
				c-0.062,0.044-0.123,0.087-0.186,0.131c-0.213-0.112-0.593-0.43-1.08-0.978c-0.228-0.372-0.47-0.731-0.669-1.005
				C76.32,68.777,76.278,68.724,76.242,68.675z M76.427,67.667c-0.218,0.147-0.427,0.291-0.638,0.435
				c-0.087-0.104-0.18-0.21-0.272-0.313c-0.565-0.933-0.743-1.522-0.646-1.594s0.603,0.271,1.314,1.083
				C76.264,67.411,76.345,67.541,76.427,67.667z M77.912,70.937c-0.083,0.06-0.172,0.122-0.254,0.18
				c-0.054-0.172-0.131-0.362-0.233-0.568C77.598,70.708,77.764,70.846,77.912,70.937z M77.03,71.571
				c-0.063,0.047-0.134,0.097-0.196,0.143c-0.016,0.012-0.032,0.023-0.047,0.033c-0.043-0.164-0.121-0.354-0.217-0.557
				C76.731,71.342,76.886,71.47,77.03,71.571z M74.578,69.842c0.175-0.127,0.353-0.253,0.536-0.383
				c0.041,0.06,0.085,0.125,0.125,0.178c0.202,0.276,0.476,0.62,0.765,0.953c0.354,0.592,0.545,1.039,0.604,1.29
				c-0.071,0.053-0.146,0.106-0.218,0.161c-0.189-0.111-0.487-0.364-0.857-0.755c-0.27-0.474-0.59-0.951-0.841-1.295
				C74.658,69.946,74.617,69.891,74.578,69.842z M74.707,68.856c-0.199,0.141-0.393,0.277-0.58,0.414
				c-0.144-0.172-0.293-0.342-0.445-0.504c-0.433-0.766-0.572-1.251-0.484-1.314c0.097-0.071,0.602,0.271,1.314,1.085
				C74.576,68.644,74.64,68.752,74.707,68.856z M76.211,72.174c-0.067,0.05-0.133,0.098-0.2,0.149
				c-0.039-0.132-0.096-0.275-0.166-0.432C75.974,72.005,76.097,72.103,76.211,72.174z M75.834,72.458
				c-0.08,0.06-0.161,0.121-0.241,0.183c-0.226-0.142-0.579-0.455-1.019-0.948c-0.229-0.375-0.473-0.736-0.674-1.011
				c-0.05-0.068-0.11-0.146-0.17-0.223c0.095-0.069,0.193-0.145,0.285-0.211c0.079-0.059,0.166-0.119,0.247-0.179
				c0.026,0.038,0.056,0.081,0.081,0.115c0.259,0.354,0.632,0.82,1.014,1.229C75.617,71.874,75.773,72.233,75.834,72.458z
				 M73.853,69.467c-0.087,0.062-0.182,0.13-0.267,0.191c-0.101,0.074-0.207,0.154-0.311,0.23c-0.064-0.076-0.131-0.152-0.197-0.229
				c-0.564-0.928-0.74-1.518-0.643-1.589c0.084-0.062,0.487,0.204,1.066,0.819C73.613,69.086,73.73,69.278,73.853,69.467z
				 M75.417,72.772c-0.075,0.058-0.147,0.111-0.223,0.17c-0.053-0.161-0.125-0.337-0.218-0.525
				C75.131,72.561,75.28,72.682,75.417,72.772z M74.57,73.423c-0.082,0.062-0.16,0.122-0.242,0.186
				c-0.041-0.167-0.121-0.362-0.219-0.57C74.27,73.194,74.424,73.321,74.57,73.423z M72.063,71.725
				c0.195-0.152,0.385-0.299,0.573-0.443c0.052,0.073,0.105,0.15,0.152,0.215c0.199,0.271,0.467,0.61,0.753,0.938
				c0.37,0.622,0.559,1.077,0.604,1.317c-0.061,0.047-0.123,0.098-0.186,0.145c-0.217-0.113-0.602-0.436-1.096-0.994
				c-0.229-0.372-0.471-0.732-0.67-1.006C72.156,71.844,72.107,71.783,72.063,71.725z M72.231,70.676
				c-0.204,0.156-0.409,0.314-0.62,0.478c-0.076-0.091-0.154-0.18-0.234-0.27c-0.566-0.933-0.744-1.526-0.647-1.597
				s0.608,0.277,1.327,1.102C72.113,70.485,72.172,70.581,72.231,70.676z M73.781,74.039c-0.088,0.068-0.174,0.136-0.264,0.206
				c-0.052-0.182-0.136-0.389-0.247-0.613C73.451,73.799,73.627,73.946,73.781,74.039z M72.949,74.697
				c-0.103,0.082-0.203,0.162-0.307,0.244c-0.029-0.192-0.117-0.429-0.24-0.69C72.596,74.436,72.781,74.59,72.949,74.697z
				 M70.422,73.021c0.192-0.153,0.377-0.3,0.564-0.449c0.031,0.046,0.067,0.098,0.099,0.139c0.197,0.271,0.464,0.606,0.747,0.931
				c0.45,0.757,0.637,1.273,0.624,1.452c-0.029,0.021-0.057,0.044-0.084,0.066c-0.166-0.03-0.608-0.362-1.208-1.038
				c-0.229-0.375-0.471-0.736-0.672-1.009C70.472,73.085,70.444,73.051,70.422,73.021z M70.576,71.967
				c-0.199,0.16-0.398,0.316-0.604,0.481c-0.097-0.118-0.197-0.233-0.301-0.353c-0.564-0.931-0.742-1.521-0.646-1.592
				c0.097-0.07,0.61,0.281,1.333,1.109C70.431,71.734,70.503,71.852,70.576,71.967z M72.192,75.305
				c-0.114,0.092-0.229,0.186-0.346,0.279c-0.042-0.207-0.144-0.462-0.279-0.738C71.797,75.059,72.009,75.221,72.192,75.305z
				 M71.66,75.735c-0.042,0.034-0.084,0.068-0.125,0.102c-0.193-0.071-0.611-0.402-1.162-1.023
				c-0.229-0.375-0.473-0.737-0.673-1.012c-0.028-0.037-0.062-0.081-0.091-0.119c0.188-0.153,0.373-0.303,0.558-0.453
				c0.003,0.003,0.005,0.006,0.007,0.009c0.215,0.292,0.51,0.664,0.82,1.015C71.445,74.998,71.646,75.517,71.66,75.735z
				 M69.754,72.626c-0.197,0.159-0.395,0.32-0.595,0.483c-0.092-0.11-0.187-0.22-0.284-0.329c-0.562-0.928-0.74-1.516-0.643-1.587
				c0.096-0.069,0.582,0.262,1.271,1.037C69.586,72.367,69.669,72.499,69.754,72.626z M71.361,75.979
				c-0.104,0.086-0.208,0.172-0.311,0.258c-0.047-0.199-0.148-0.441-0.275-0.699C70.988,75.735,71.188,75.891,71.361,75.979z
				 M70.862,76.391c-0.05,0.04-0.098,0.08-0.147,0.12c-0.203-0.089-0.606-0.414-1.135-1.007c-0.229-0.377-0.473-0.74-0.674-1.015
				c-0.031-0.043-0.07-0.093-0.106-0.139c0.187-0.155,0.372-0.309,0.556-0.46c0.009,0.01,0.018,0.023,0.025,0.035
				c0.217,0.294,0.512,0.667,0.824,1.02C70.635,75.655,70.833,76.157,70.862,76.391z M68.942,73.288
				c-0.196,0.16-0.395,0.328-0.593,0.492c-0.088-0.105-0.178-0.209-0.27-0.312c-0.562-0.928-0.738-1.516-0.642-1.587
				c0.095-0.069,0.581,0.261,1.269,1.034C68.786,73.042,68.863,73.166,68.942,73.288z M70.541,76.655
				c-0.098,0.082-0.197,0.164-0.294,0.244c-0.048-0.193-0.144-0.426-0.265-0.673C70.182,76.413,70.371,76.565,70.541,76.655z
				 M70.064,77.051c-0.054,0.045-0.107,0.091-0.162,0.135c-0.207-0.102-0.602-0.418-1.12-1c-0.227-0.372-0.47-0.733-0.669-1.006
				c-0.035-0.048-0.079-0.104-0.118-0.155c0.185-0.156,0.37-0.312,0.552-0.464c0.014,0.018,0.027,0.038,0.039,0.055
				c0.217,0.296,0.514,0.669,0.826,1.023C69.824,76.319,70.023,76.807,70.064,77.051z M68.135,73.958
				c-0.196,0.163-0.393,0.329-0.591,0.495c-0.079-0.097-0.164-0.19-0.249-0.287c-0.573-0.948-0.736-1.533-0.65-1.597
				c0.094-0.069,0.581,0.26,1.267,1.032C67.985,73.723,68.059,73.842,68.135,73.958z M69.724,77.336
				c-0.093,0.077-0.185,0.154-0.277,0.232c-0.048-0.19-0.14-0.414-0.259-0.652C69.379,77.092,69.562,77.245,69.724,77.336z
				 M69.268,77.721c-0.059,0.049-0.118,0.099-0.177,0.15c-0.212-0.109-0.6-0.431-1.097-0.99c-0.229-0.375-0.473-0.738-0.674-1.013
				c-0.037-0.052-0.084-0.109-0.125-0.165c0.186-0.156,0.367-0.312,0.55-0.468c0.016,0.022,0.033,0.048,0.048,0.069
				c0.217,0.295,0.512,0.666,0.824,1.019C69.02,76.988,69.219,77.469,69.268,77.721z M67.332,74.633
				c-0.195,0.166-0.392,0.332-0.588,0.499c-0.081-0.096-0.166-0.191-0.25-0.287c-0.562-0.927-0.738-1.515-0.641-1.585
				c0.094-0.07,0.58,0.26,1.267,1.033C67.19,74.409,67.261,74.522,67.332,74.633z M68.918,78.018
				c-0.09,0.076-0.18,0.149-0.268,0.226c-0.051-0.188-0.139-0.405-0.254-0.64C68.58,77.774,68.76,77.926,68.918,78.018z
				 M68.474,78.397c-0.062,0.051-0.124,0.104-0.184,0.156c-0.212-0.114-0.593-0.427-1.086-0.979
				c-0.229-0.378-0.476-0.743-0.678-1.019c-0.038-0.051-0.084-0.11-0.127-0.166c0.184-0.159,0.366-0.315,0.548-0.472
				c0.018,0.024,0.037,0.054,0.053,0.076c0.217,0.295,0.514,0.669,0.826,1.021C68.219,77.665,68.42,78.14,68.474,78.397z
				 M66.535,75.314c-0.196,0.168-0.392,0.334-0.588,0.503c-0.08-0.096-0.164-0.19-0.248-0.285c-0.568-0.941-0.727-1.521-0.642-1.584
				c0.095-0.069,0.581,0.261,1.269,1.032C66.395,75.093,66.463,75.205,66.535,75.314z M68.115,78.704
				c-0.086,0.075-0.174,0.149-0.26,0.224c-0.049-0.185-0.137-0.399-0.25-0.63C67.785,78.465,67.961,78.612,68.115,78.704z
				 M67.68,79.08c-0.062,0.054-0.122,0.106-0.184,0.159c-0.213-0.116-0.596-0.43-1.092-0.984c-0.229-0.375-0.471-0.736-0.672-1.009
				c-0.036-0.05-0.082-0.108-0.123-0.163c0.181-0.16,0.361-0.318,0.542-0.477c0.019,0.025,0.038,0.055,0.055,0.077
				c0.219,0.298,0.519,0.677,0.834,1.032C67.425,78.353,67.623,78.823,67.68,79.08z M65.739,76c-0.194,0.17-0.389,0.339-0.582,0.51
				c-0.079-0.094-0.162-0.188-0.244-0.28c-0.571-0.946-0.732-1.531-0.647-1.594c0.096-0.069,0.578,0.259,1.262,1.024
				C65.597,75.777,65.667,75.89,65.739,76z M67.323,79.389c-0.087,0.076-0.174,0.152-0.259,0.229
				c-0.052-0.188-0.139-0.402-0.254-0.636C66.992,79.152,67.166,79.297,67.323,79.389z M66.888,79.772
				c-0.062,0.053-0.124,0.106-0.184,0.16c-0.217-0.115-0.604-0.438-1.101-0.998c-0.226-0.37-0.467-0.729-0.666-1
				c-0.033-0.047-0.076-0.102-0.116-0.152c0.181-0.161,0.36-0.323,0.541-0.484c0.017,0.024,0.035,0.052,0.052,0.073
				c0.217,0.296,0.514,0.671,0.827,1.025C66.633,79.042,66.833,79.516,66.888,79.772z M64.948,76.694
				c-0.192,0.171-0.386,0.343-0.577,0.517c-0.079-0.096-0.162-0.188-0.244-0.282c-0.571-0.938-0.75-1.532-0.652-1.604
				c0.094-0.068,0.578,0.26,1.264,1.031C64.808,76.469,64.877,76.583,64.948,76.694z M66.537,80.081
				c-0.09,0.079-0.177,0.158-0.266,0.236c-0.05-0.19-0.141-0.414-0.26-0.653C66.197,79.837,66.377,79.988,66.537,80.081z
				 M66.095,80.475c-0.058,0.051-0.115,0.101-0.173,0.152c-0.212-0.106-0.603-0.43-1.105-0.996
				c-0.228-0.375-0.471-0.735-0.671-1.009c-0.03-0.042-0.069-0.093-0.104-0.138c0.18-0.162,0.357-0.324,0.538-0.486
				c0.013,0.02,0.029,0.042,0.042,0.061c0.213,0.291,0.504,0.658,0.812,1.006C65.841,79.734,66.045,80.221,66.095,80.475z
				 M64.166,77.393c-0.193,0.173-0.385,0.347-0.575,0.52c-0.087-0.104-0.177-0.204-0.266-0.307
				c-0.564-0.932-0.741-1.521-0.646-1.592c0.095-0.068,0.584,0.264,1.275,1.044C64.024,77.172,64.094,77.284,64.166,77.393z
				 M65.754,80.777c-0.09,0.082-0.18,0.163-0.269,0.245c-0.048-0.193-0.143-0.42-0.263-0.665
				C65.411,80.533,65.594,80.684,65.754,80.777z M65.306,81.184c-0.052,0.047-0.104,0.094-0.155,0.142
				c-0.207-0.097-0.604-0.419-1.121-1.001c-0.229-0.377-0.474-0.74-0.675-1.016c-0.025-0.036-0.06-0.078-0.088-0.115
				c0.177-0.164,0.354-0.324,0.532-0.487c0.01,0.013,0.02,0.027,0.028,0.04c0.216,0.294,0.51,0.665,0.821,1.018
				C65.064,80.448,65.265,80.939,65.306,81.184z M63.384,78.1c-0.19,0.174-0.381,0.346-0.568,0.52
				c-0.093-0.111-0.19-0.223-0.288-0.334c-0.561-0.926-0.735-1.513-0.639-1.584c0.094-0.068,0.581,0.263,1.268,1.038
				C63.231,77.864,63.307,77.983,63.384,78.1z M64.986,81.475c-0.095,0.087-0.19,0.174-0.285,0.26
				c-0.046-0.197-0.145-0.436-0.27-0.688C64.63,81.231,64.82,81.383,64.986,81.475z M64.514,81.909
				c-0.042,0.04-0.084,0.079-0.128,0.119c-0.19-0.076-0.583-0.389-1.097-0.959c-0.211-0.338-0.428-0.659-0.61-0.909
				c-0.056-0.075-0.122-0.161-0.187-0.243c0.176-0.166,0.354-0.331,0.532-0.496c0.003,0.004,0.007,0.01,0.011,0.015
				c0.215,0.294,0.51,0.665,0.819,1.016C64.295,81.178,64.486,81.682,64.514,81.909z M62.608,78.813
				c-0.193,0.179-0.384,0.357-0.573,0.535c-0.076-0.09-0.154-0.18-0.234-0.27c-0.609-0.984-0.807-1.615-0.707-1.688
				c0.084-0.062,0.57,0.251,1.27,1.036C62.443,78.559,62.525,78.688,62.608,78.813z M64.226,82.176
				c-0.085,0.078-0.173,0.159-0.256,0.238c-0.062-0.188-0.147-0.395-0.263-0.617C63.896,81.965,64.07,82.098,64.226,82.176z
				 M63.801,82.573c-0.081,0.076-0.158,0.149-0.237,0.227c-0.226-0.147-0.575-0.455-1.007-0.943
				c-0.228-0.372-0.471-0.733-0.671-1.006c-0.047-0.063-0.104-0.137-0.157-0.207c0.176-0.168,0.348-0.334,0.526-0.503
				c0.227,0.31,0.538,0.701,0.864,1.063C63.496,81.815,63.714,82.284,63.801,82.573z M61.836,79.536
				c-0.189,0.178-0.376,0.357-0.562,0.536c-0.068-0.079-0.139-0.158-0.207-0.238c-0.566-0.932-0.744-1.522-0.647-1.593
				c0.092-0.067,0.557,0.247,1.212,0.975C61.699,79.325,61.768,79.43,61.836,79.536z M63.408,82.945
				c-0.072,0.069-0.146,0.138-0.217,0.207c-0.053-0.173-0.129-0.362-0.23-0.568C63.118,82.731,63.27,82.854,63.408,82.945z
				 M63.02,83.317c-0.071,0.068-0.139,0.133-0.207,0.201c-0.223-0.135-0.593-0.457-1.053-0.975c-0.228-0.372-0.47-0.732-0.67-1.006
				c-0.035-0.049-0.08-0.105-0.121-0.159c0.174-0.169,0.348-0.34,0.523-0.51c0.025,0.033,0.051,0.073,0.074,0.104
				c0.213,0.291,0.506,0.658,0.813,1.008C62.748,82.591,62.947,83.047,63.02,83.317z M61.077,80.258
				c-0.189,0.182-0.376,0.365-0.562,0.547c-0.077-0.094-0.16-0.187-0.24-0.279c-0.568-0.935-0.746-1.525-0.649-1.597
				c0.095-0.07,0.582,0.262,1.271,1.037C60.957,80.066,61.016,80.163,61.077,80.258z M62.66,83.667
				c-0.083,0.079-0.162,0.158-0.242,0.236c-0.051-0.186-0.139-0.402-0.253-0.631C62.34,83.434,62.509,83.573,62.66,83.667z
				 M62.242,84.075c-0.014,0.014-0.03,0.027-0.044,0.042c-0.042,0.041-0.077,0.076-0.119,0.117c-0.202-0.101-0.57-0.403-1.046-0.928
				c-0.212-0.341-0.433-0.668-0.616-0.919c-0.06-0.081-0.13-0.174-0.2-0.264c0.17-0.171,0.344-0.343,0.518-0.514
				c0.014,0.016,0.027,0.037,0.039,0.054c0.213,0.29,0.504,0.656,0.81,1.004C61.988,83.336,62.189,83.821,62.242,84.075z
				 M60.318,80.999c-0.19,0.187-0.379,0.371-0.563,0.557c-0.073-0.088-0.147-0.175-0.224-0.26c-0.605-0.979-0.799-1.604-0.698-1.678
				c0.084-0.061,0.571,0.254,1.273,1.045C60.178,80.778,60.246,80.889,60.318,80.999z M61.922,84.387
				c-0.077,0.076-0.15,0.146-0.227,0.22c-0.061-0.179-0.141-0.37-0.246-0.577C61.617,84.18,61.778,84.307,61.922,84.387z
				 M61.529,84.77c-0.08,0.079-0.166,0.164-0.243,0.238c-0.226-0.15-0.569-0.449-0.997-0.932c-0.227-0.37-0.468-0.729-0.666-1
				c-0.045-0.061-0.102-0.132-0.151-0.199c0.167-0.172,0.341-0.346,0.512-0.52c0.23,0.314,0.549,0.715,0.882,1.086
				C61.227,84.028,61.438,84.482,61.529,84.77z M59.562,81.749c-0.184,0.186-0.369,0.372-0.549,0.557
				c-0.066-0.079-0.134-0.155-0.202-0.231c-0.577-0.955-0.741-1.542-0.655-1.605c0.092-0.067,0.553,0.245,1.205,0.965
				C59.43,81.543,59.496,81.645,59.562,81.749z M61.131,85.161c-0.073,0.071-0.138,0.134-0.208,0.201
				c-0.052-0.168-0.126-0.353-0.227-0.553C60.85,84.951,60.994,85.071,61.131,85.161z M60.756,85.526
				c-0.07,0.068-0.148,0.145-0.217,0.211c-0.215-0.132-0.562-0.436-0.988-0.91c-0.207-0.334-0.424-0.652-0.605-0.899
				c-0.062-0.085-0.137-0.183-0.211-0.278c0.166-0.177,0.338-0.355,0.51-0.533c0.02,0.025,0.041,0.06,0.061,0.086
				c0.214,0.292,0.508,0.66,0.816,1.01C60.48,84.805,60.68,85.254,60.756,85.526z M58.825,82.5
				c-0.188,0.194-0.373,0.388-0.555,0.578c-0.063-0.074-0.126-0.147-0.191-0.221c-0.617-0.991-0.816-1.627-0.716-1.701
				c0.095-0.069,0.583,0.263,1.271,1.041C58.699,82.301,58.76,82.401,58.825,82.5z M60.389,85.887
				c-0.064,0.064-0.125,0.125-0.186,0.187c-0.062-0.161-0.137-0.332-0.23-0.514C60.119,85.692,60.26,85.807,60.389,85.887z
				 M96.852,59.579c-0.092,0.037-0.186,0.076-0.283,0.119c-0.162-0.478-0.52-1.096-0.872-1.631c0.651-0.165,1.155-0.237,1.531-0.255
				c0.099,0.507-0.058,1.093-0.43,1.77L96.852,59.579z M94.635,58.383c0.305-0.102,0.585-0.188,0.844-0.258
				c0.486,0.729,0.771,1.299,0.9,1.659c-0.127,0.059-0.259,0.122-0.395,0.188c-0.242-0.193-0.568-0.512-0.948-0.955
				C94.906,58.799,94.77,58.585,94.635,58.383z M93.594,57.006c-0.498-0.848-0.657-1.385-0.564-1.452
				c0.125-0.092,0.938,0.518,1.999,1.94c-0.259,0.076-0.535,0.165-0.83,0.268C94.027,57.533,93.818,57.271,93.594,57.006z
				 M18.194,23.151c-0.009-0.014-0.789-1.501,0.203-3.193c1.473-2.508,3.915-5.756,10.862-10.842s10.781-6.434,13.615-7.079
				c1.879-0.429,3.066,0.727,3.099,0.758c0.062,0.065,1.028,1.099,2.626,2.805c-2.316,0.072-5.41,0.481-9.196,2.66
				c-4.778,2.747-5.589,3.341-7.37,4.645c-1.778,1.302-2.59,1.896-6.653,5.622c-3.22,2.951-4.544,5.779-5.313,7.963
				C18.926,24.458,18.238,23.23,18.194,23.151z M54.543,88.015c-3.809-6.775-4.803-8.64-5.057-9.147
				c-0.074-0.147-0.075-0.146-0.091-0.161c-0.411-0.69-21.659-38.55-28.851-51.365c0.715-2.181,1.926-5.162,5.326-8.28
				c4.033-3.696,4.834-4.283,6.592-5.57c1.758-1.286,2.56-1.873,7.303-4.602c3.998-2.301,7.208-2.554,9.504-2.576
				c10.054,10.739,39.706,42.408,40.198,42.954c0.061,0.083,0.06,0.085,0.177,0.199c0.408,0.396,1.885,1.907,7.193,7.585
				c0.017,0.017,0.026,0.036,0.041,0.055c-0.438,0.043-0.977,0.143-1.626,0.322c-0.644-0.872-1.921-2.368-2.354-2.051
				c-0.188,0.137-0.09,0.535,0.125,1.008c-0.47-0.465-0.917-0.784-1.14-0.621c-0.187,0.137-0.091,0.533,0.122,1.004
				c-0.467-0.465-0.914-0.781-1.137-0.618c-0.2,0.147-0.078,0.585,0.165,1.098c-0.44-0.423-0.852-0.702-1.062-0.548
				c-0.198,0.145-0.077,0.583,0.166,1.095c-0.44-0.423-0.852-0.702-1.062-0.548c-0.188,0.139-0.09,0.536,0.124,1.008
				c-0.468-0.466-0.914-0.783-1.137-0.621c-0.2,0.146-0.079,0.584,0.164,1.096c-0.44-0.423-0.851-0.7-1.061-0.546
				c-0.199,0.146-0.078,0.583,0.164,1.094c-0.439-0.423-0.851-0.701-1.06-0.548c-0.2,0.146-0.08,0.585,0.163,1.097
				c-0.439-0.422-0.85-0.701-1.06-0.547c-0.2,0.146-0.079,0.582,0.161,1.092c-0.438-0.421-0.848-0.698-1.059-0.544
				c-0.198,0.146-0.076,0.584,0.166,1.096c-0.44-0.424-0.852-0.702-1.061-0.55c-0.201,0.147-0.079,0.585,0.165,1.097
				c-0.44-0.422-0.852-0.701-1.062-0.547c-0.198,0.145-0.079,0.583,0.165,1.095c-0.439-0.421-0.85-0.7-1.061-0.546
				c-0.199,0.146-0.078,0.582,0.163,1.094c-0.438-0.423-0.849-0.7-1.058-0.547c-0.201,0.146-0.08,0.584,0.162,1.095
				c-0.439-0.421-0.85-0.7-1.06-0.546c-0.198,0.146-0.079,0.584,0.165,1.096c-0.439-0.423-0.852-0.702-1.061-0.548
				c-0.199,0.146-0.076,0.586,0.168,1.101c-0.441-0.425-0.854-0.705-1.063-0.551c-0.199,0.145-0.081,0.582,0.161,1.092
				c-0.438-0.42-0.849-0.699-1.059-0.545c-0.199,0.146-0.077,0.584,0.166,1.097c-0.441-0.424-0.852-0.702-1.062-0.549
				c-0.212,0.154-0.067,0.636,0.207,1.188c-0.411-0.381-0.787-0.623-0.985-0.478c-0.199,0.145-0.079,0.581,0.162,1.09
				c-0.438-0.419-0.848-0.695-1.059-0.542c-0.211,0.154-0.066,0.633,0.206,1.183c-0.409-0.38-0.786-0.62-0.982-0.476
				c-0.2,0.146-0.081,0.583,0.161,1.094c-0.438-0.421-0.848-0.697-1.059-0.544c-0.188,0.138-0.089,0.536,0.125,1.011
				c-0.371-0.328-0.705-0.523-0.887-0.391c-0.21,0.154-0.068,0.629,0.201,1.176c-0.414-0.387-0.795-0.633-0.995-0.487
				c-0.197,0.146-0.08,0.577,0.157,1.082c-0.441-0.427-0.856-0.71-1.068-0.555c-0.21,0.153-0.068,0.63,0.203,1.177
				c-0.416-0.387-0.797-0.635-0.995-0.49c-0.198,0.146-0.08,0.58,0.159,1.088c-0.443-0.428-0.859-0.711-1.07-0.558
				c-0.21,0.154-0.068,0.629,0.201,1.177c-0.413-0.386-0.795-0.633-0.994-0.486c-0.209,0.152-0.068,0.627,0.2,1.172
				c-0.413-0.386-0.795-0.633-0.995-0.486c-0.209,0.153-0.069,0.629,0.202,1.176c-0.416-0.387-0.796-0.632-0.996-0.485
				c-0.209,0.152-0.067,0.628,0.202,1.174c-0.414-0.384-0.795-0.631-0.993-0.485c-0.21,0.154-0.069,0.629,0.2,1.174
				c-0.414-0.385-0.796-0.632-0.996-0.484c-0.209,0.152-0.068,0.625,0.199,1.169c-0.412-0.383-0.791-0.628-0.99-0.481
				c-0.211,0.152-0.069,0.629,0.199,1.173c-0.413-0.384-0.792-0.63-0.99-0.484c-0.212,0.154-0.068,0.632,0.202,1.181
				c-0.415-0.389-0.798-0.637-0.998-0.49c-0.21,0.153-0.067,0.629,0.202,1.174c-0.414-0.385-0.794-0.632-0.992-0.486
				c-0.21,0.152-0.07,0.627,0.198,1.172c-0.413-0.385-0.794-0.631-0.993-0.484c-0.223,0.162-0.055,0.685,0.246,1.271
				c-0.385-0.345-0.734-0.559-0.922-0.421c-0.209,0.153-0.066,0.629,0.201,1.177c-0.414-0.387-0.795-0.635-0.994-0.488
				c-0.211,0.153-0.069,0.631,0.202,1.178c-0.415-0.387-0.796-0.635-0.994-0.489c-0.223,0.163-0.057,0.683,0.243,1.271
				c-0.384-0.346-0.732-0.558-0.922-0.42c-0.208,0.152-0.066,0.63,0.204,1.178c-0.414-0.387-0.797-0.635-0.996-0.489
				c-0.223,0.162-0.052,0.687,0.252,1.276c-0.388-0.349-0.738-0.564-0.927-0.427c-0.223,0.163-0.053,0.686,0.248,1.273
				c-0.385-0.347-0.735-0.562-0.925-0.423c-0.235,0.172-0.028,0.748,0.308,1.379c-0.362-0.314-0.685-0.5-0.863-0.369
				c-0.318,0.232,0.158,1.191,0.686,2.033c-0.723,0.968-1.17,1.744-1.429,2.348C54.57,88.051,54.555,88.037,54.543,88.015z"/>
			<path fill="#FFFFFF" d="M91.063,64.606c-0.044,0.021-5.666,3.068-13.286,8.646c-0.465,0.342-0.939,0.692-1.419,1.052
				c-5.435,4.078-10.442,8.39-14.884,12.815c-0.117,0.116-0.176,0.252-0.161,0.369c0.009,0.078,0.052,0.142,0.119,0.182
				c0.15,0.088,0.411,0.016,0.595-0.164c4.768-4.75,10.186-9.354,16.106-13.689c7.478-5.474,13.058-8.525,13.111-8.555
				c0.221-0.122,0.358-0.338,0.331-0.51c-0.016-0.078-0.062-0.141-0.133-0.176C91.343,64.526,91.204,64.538,91.063,64.606z
				 M91.197,65.034c-0.019,0.014-0.037,0.027-0.058,0.037c-0.051,0.027-5.646,3.086-13.136,8.569
				c-5.928,4.341-11.355,8.954-16.131,13.709c-0.125,0.128-0.283,0.163-0.342,0.112c-0.006-0.039,0.022-0.112,0.098-0.186
				c4.435-4.419,9.435-8.725,14.861-12.797c0.479-0.357,0.951-0.709,1.416-1.049c7.646-5.598,13.207-8.604,13.254-8.629
				c0.085-0.042,0.154-0.045,0.199-0.013C91.368,64.843,91.309,64.954,91.197,65.034z"/>
		</g>
	</g>
</g>
</svg>
