<?xml version="1.0" encoding="utf-8"?>
<!-- Generator: Adobe Illustrator 16.0.0, SVG Export Plug-In . SVG Version: 6.00 Build 0)  -->
<!DOCTYPE svg PUBLIC "-//W3C//DTD SVG 1.1//EN" "http://www.w3.org/Graphics/SVG/1.1/DTD/svg11.dtd">
<svg version="1.1" xmlns="http://www.w3.org/2000/svg" xmlns:xlink="http://www.w3.org/1999/xlink" x="0px" y="0px" width="150px"
	 height="170px" viewBox="0 0 150 170" enable-background="new 0 0 150 170" xml:space="preserve">
<g id="Layer_2">
</g>
<g id="Layer_1">
	<g>
		<g>
			<g>
				<path fill="#FFFFFF" d="M99.897,133.533c-0.203-0.19-0.525-0.178-0.715,0.027c-1.705,1.825-11.23,3.717-24.23,3.717
					c-15.281,0-23.732-2.468-23.732-4.173c0-0.701,1.645-1.794,6.147-2.717l0.138,0.902l4.063-2.145l-4.486-0.623l0.132,0.864
					c-4.648,0.944-7.013,2.191-7.013,3.718c0,3.401,12.45,5.182,24.751,5.182c12.29,0,22.792-1.698,24.977-4.041
					C100.119,134.042,100.104,133.722,99.897,133.533z"/>
			</g>
		</g>
		<path fill="#FFFFFF" d="M96.627,103.119c-6.4-1.481-20.996-1.607-21.633-1.611c-0.619,0.004-15.217,0.13-21.613,1.611
			c-6.428,1.487-9.482,3.693-9.336,6.751c0.104,2.147,2.254,50.321,2.254,50.321c0.002,0.199,0.176,4.772,6.15,6.873
			c5.6,1.978,12.979,2.936,22.555,2.936s16.951-0.958,22.553-2.936c5.973-2.101,6.143-6.674,6.146-6.842
			c0.021-0.485,2.152-48.229,2.252-50.353C106.104,106.812,103.047,104.606,96.627,103.119z M53.865,105.205
			c6.166-1.427,20.996-1.555,21.129-1.555c0.148,0,14.979,0.128,21.146,1.555c5.033,1.168,7.758,2.784,7.676,4.564
			c-0.006,0.157-0.025,0.58-0.057,1.215c-0.824,0.714-2.588,1.651-6.41,2.436c-7.469,1.522-15.955,1.51-21.539,1.515h-0.807h-0.809
			c-5.604,0.004-14.07,0.008-21.543-1.515c-3.814-0.784-5.582-1.722-6.412-2.436c-0.025-0.635-0.045-1.058-0.053-1.215
			C46.1,107.989,48.828,106.373,53.865,105.205z M101.562,160.147c0,0.034-0.125,3.282-4.715,4.897
			c-5.369,1.893-12.518,2.812-21.844,2.812c-9.332,0-16.475-0.919-21.846-2.812c-4.516-1.591-4.713-4.773-4.717-4.92
			c0,0-0.037-0.81-0.1-2.216c3.398,2.403,4.846,2.991,8.928,3.956c4.502,1.062,13.342,1.652,17.734,1.652
			c4.391,0,13.229-0.59,17.729-1.652c4.084-0.965,5.531-1.553,8.934-3.956C101.604,159.273,101.564,160.084,101.562,160.147z
			 M101.709,156.888c-3.67,2.637-5.012,3.217-9.16,4.194c-4.443,1.05-13.195,1.631-17.545,1.631c-4.354,0-13.104-0.581-17.547-1.631
			c-4.152-0.978-5.492-1.558-9.158-4.194c-0.426-9.429-1.645-36.743-2.01-44.881c1.115,0.74,2.996,1.537,6.205,2.197
			c7.549,1.544,16.078,1.532,21.701,1.532h0.809h0.807c0.287,0,0.584,0,0.887,0c5.619,0,13.65-0.07,20.814-1.532
			c3.211-0.655,5.09-1.457,6.203-2.197C103.352,120.139,102.131,147.428,101.709,156.888z"/>
	</g>
	<path fill="#FFFFFF" d="M75.465,147.815V0h-1v147.822c-1.398,0.252-2.465,1.47-2.465,2.938c0,1.649,1.346,2.992,3,2.992
		s3-1.343,3-2.992C78,149.269,76.896,148.04,75.465,147.815z"/>
</g>
</svg>
