<?xml version="1.0" encoding="utf-8"?>
<!-- Generator: Adobe Illustrator 16.0.0, SVG Export Plug-In . SVG Version: 6.00 Build 0)  -->
<!DOCTYPE svg PUBLIC "-//W3C//DTD SVG 1.1//EN" "http://www.w3.org/Graphics/SVG/1.1/DTD/svg11.dtd">
<svg version="1.1" id="Layer_1" xmlns="http://www.w3.org/2000/svg" xmlns:xlink="http://www.w3.org/1999/xlink" x="0px" y="0px"
	 width="150px" height="170px" viewBox="0 0 150 170" enable-background="new 0 0 150 170" xml:space="preserve">
<g id="Layer_2">
</g>
<g id="Layer_1_1_">
	<g>
		<path fill="#FFFFFF" d="M94.559,73.236l-0.904-0.148c-6.383-1.055-18.143-1.213-18.666-1.218
			c-0.5,0.005-12.262,0.164-18.643,1.218l-0.906,0.148c-6.143,1.006-11.95,1.955-11.405,6.558
			c0.764,6.458,1.287,10.631,1.467,11.683c0,0.088,0,0.293,8.427,71.254c0.018,0.125,0.451,3.111,3.529,4.47
			c3.141,1.383,7.678,2.8,17.541,2.8c9.869,0,14.401-1.417,17.543-2.8c3.08-1.358,3.513-4.345,3.531-4.488
			c8.425-70.944,8.425-71.149,8.421-71.17c0.186-1.118,0.707-5.29,1.471-11.749C106.509,75.19,100.703,74.242,94.559,73.236z
			 M55.783,75.402l0.908-0.148c6.221-1.029,18.201-1.189,18.297-1.191c0.119,0.002,12.096,0.162,18.319,1.191l0.907,0.148
			c5.236,0.856,8.7,1.554,9.452,3.18c-0.879,0.596-2.669,1.414-6.296,2.105c-6.979,1.329-16.539,2.025-22.373,2.025
			c-5.83,0-15.389-0.696-22.371-2.025c-3.629-0.691-5.419-1.509-6.298-2.1C47.079,76.957,50.545,76.261,55.783,75.402z
			 M93.93,162.424c-0.012,0.076-0.311,1.907-2.25,2.764c-2.936,1.295-7.213,2.617-16.682,2.617c-9.467,0-13.744-1.322-16.678-2.617
			c-1.939-0.856-2.242-2.688-2.248-2.736c-0.012-0.104-0.199-1.672-0.508-4.268c2.104,1.467,5.111,3.143,9.875,3.68
			c6.025,0.679,7.133,0.679,9.559,0.679c2.426,0,3.535,0,9.562-0.679c4.762-0.537,7.771-2.213,9.873-3.68
			C94.127,160.768,93.941,162.326,93.93,162.424z M102.361,91.176c-0.03,0.184-0.026,0.186-0.021,0.207
			c-0.088,0.902-5.835,49.331-7.776,65.701c-2.051,1.5-5.059,3.395-10.094,3.962c-5.984,0.675-7.076,0.675-9.473,0.675
			c-2.395,0-3.486,0-9.471-0.675c-5.033-0.567-8.041-2.463-10.094-3.962c-1.943-16.398-7.687-64.784-7.769-65.607
			c0-0.113,0.002-0.115-0.027-0.3c-0.105-0.629-0.432-2.976-1.457-11.644c-0.002-0.023,0-0.043-0.002-0.066
			c1.092,0.652,2.983,1.398,6.298,2.03c7.031,1.338,16.654,2.039,22.521,2.039c5.869,0,15.491-0.7,22.524-2.039
			c3.312-0.631,5.205-1.377,6.297-2.03c-0.002,0.023,0.002,0.042-0.002,0.066C102.794,88.201,102.468,90.547,102.361,91.176z"/>
		<path fill="#FFFFFF" d="M75.465,147.814V0h-1v147.822c-1.398,0.252-2.465,1.47-2.465,2.938c0,1.649,1.346,2.992,3,2.992
			c1.654,0,3-1.343,3-2.992C78,149.27,76.896,148.04,75.465,147.814z"/>
	</g>
</g>
</svg>
