<?xml version="1.0" encoding="utf-8"?>
<!-- Generator: Adobe Illustrator 16.0.0, SVG Export Plug-In . SVG Version: 6.00 Build 0)  -->
<!DOCTYPE svg PUBLIC "-//W3C//DTD SVG 1.1//EN" "http://www.w3.org/Graphics/SVG/1.1/DTD/svg11.dtd">
<svg version="1.1" xmlns="http://www.w3.org/2000/svg" xmlns:xlink="http://www.w3.org/1999/xlink" x="0px" y="0px" width="150px"
	 height="170px" viewBox="0 0 150 170" enable-background="new 0 0 150 170" xml:space="preserve">
<g id="Layer_2">
</g>
<g id="Layer_1">
	<g>
		<g>
			<g>
				<g>
					<g>
						<path fill="#FFFFFF" d="M93.309,55.026c2.404-10.113,4.33-18.212,5.119-21.537l3.469,0.845l-2.021,7.932
							c-0.904,3.536-1.973,7.737-3.15,12.347c0.209-0.028,0.402-0.061,0.602-0.089c1.154-4.521,2.203-8.644,3.092-12.121l2.16-8.477
							l-4.566-1.111l-0.064,0.273c-0.75,3.156-2.736,11.512-5.232,22.002C92.92,55.069,93.107,55.047,93.309,55.026z"/>
					</g>
					<g>
						<path fill="#FFFFFF" d="M80.416,132.836c-0.814-1.846-1.926-4.371-1.664-5.443c0.094-0.382,10.453-41.014,17.678-69.354
							c-0.201,0.027-0.395,0.057-0.598,0.079c-7.223,28.33-17.529,68.76-17.623,69.144c-0.311,1.254,0.756,3.668,1.695,5.798
							c0.248,0.566,0.484,1.099,0.666,1.553c1.762,4.373,2.221,8.586,1.336,12.189c-0.646,2.612-2.141,5.614-3.902,7.833
							c-1.531,1.929-4.004,4.23-7.088,4.23l0,0c-0.498,0-0.998-0.062-1.492-0.181c-3.451-0.842-4.926-4.119-5.555-6.721
							c-0.855-3.54-0.555-7.257,0.008-9.552c0.889-3.604,3.258-7.131,6.846-10.197c0.371-0.318,0.826-0.681,1.311-1.068
							c1.828-1.457,3.895-3.108,4.207-4.365c0.094-0.377,9.602-40.362,16.25-68.311c-0.199,0.018-0.393,0.037-0.592,0.055
							c-6.645,27.939-16.113,67.748-16.203,68.121c-0.266,1.075-2.432,2.803-4.014,4.066c-0.49,0.392-0.949,0.758-1.324,1.079
							c-3.68,3.144-6.109,6.771-7.021,10.486c-0.582,2.36-0.891,6.177-0.012,9.814c0.664,2.753,2.238,6.224,5.967,7.131
							c0.537,0.132,1.084,0.198,1.625,0.198l0,0c5.768,0,10.291-7.452,11.533-12.489c0.914-3.714,0.445-8.046-1.357-12.525
							C80.906,133.947,80.67,133.41,80.416,132.836z"/>
					</g>
				</g>
				<g>
					<path fill="#FFFFFF" d="M108,52.631c-0.225-0.211-0.58-0.197-0.789,0.028c-1.881,2.015-12.387,4.101-26.725,4.101
						c-16.855,0-26.176-2.721-26.176-4.602c0-0.773,1.814-1.979,6.779-2.997l0.152,0.996l4.482-2.366l-4.947-0.686l0.145,0.952
						c-5.127,1.042-7.734,2.417-7.734,4.101c0,3.752,13.732,5.716,27.299,5.716c13.555,0,25.139-1.874,27.547-4.458
						C108.244,53.191,108.229,52.838,108,52.631z"/>
				</g>
			</g>
			<g>
				<g>
					<g>
						<path fill="#FFFFFF" d="M49.314,135.213c-0.496,0.029-0.934-0.316-1.016-0.804l-1.967-11.517
							c-0.041-0.255,0.018-0.51,0.166-0.722c0.152-0.21,0.373-0.349,0.627-0.392l11.678-1.963c0.033-0.004,0.066-0.01,0.1-0.012
							c0.496-0.031,0.932,0.315,1.016,0.804l1.967,11.519c0.041,0.252-0.018,0.507-0.166,0.719s-0.373,0.352-0.625,0.394
							l-11.68,1.963C49.381,135.206,49.348,135.209,49.314,135.213z M58.906,119.853c-0.031,0.001-0.064,0.006-0.096,0.011
							l-11.678,1.963c-0.24,0.041-0.453,0.172-0.596,0.373c-0.141,0.2-0.199,0.443-0.156,0.684l1.963,11.52
							c0.08,0.465,0.496,0.794,0.967,0.765c0.029-0.002,0.064-0.007,0.096-0.013l11.678-1.962c0.242-0.039,0.455-0.174,0.596-0.374
							c0.141-0.201,0.199-0.443,0.158-0.686l-1.967-11.515C59.791,120.152,59.377,119.824,58.906,119.853z"/>
					</g>
				</g>
				<g>
					<g>
						<path fill="#FFFFFF" d="M59.508,119.985c-0.006,0-0.012-0.001-0.014-0.006c-0.014-0.007-0.014-0.023-0.006-0.031l1.707-2.179
							c0.006-0.009,0.02-0.013,0.033-0.004c0.008,0.008,0.012,0.022,0.004,0.031l-1.707,2.18
							C59.521,119.982,59.516,119.984,59.508,119.985z"/>
					</g>
				</g>
				<g>
					<g>
						<path fill="#FFFFFF" d="M61.684,132.906c-0.006,0-0.006-0.002-0.012-0.005c-0.01-0.006-0.014-0.021-0.01-0.032l1.367-2.358
							c0.26-0.444,0.398-1.22,0.314-1.728l-1.766-10.344c-0.082-0.467-0.504-0.792-0.967-0.764c-0.031,0.002-0.062,0.005-0.096,0.01
							l-10.492,1.763c-0.506,0.084-1.248,0.423-1.643,0.751l-1.719,1.855c-0.012,0.008-0.027,0.007-0.035-0.002
							c-0.008-0.01-0.008-0.025,0.002-0.033l1.719-1.857c0.406-0.332,1.154-0.674,1.668-0.76l10.494-1.763
							c0.033-0.007,0.064-0.011,0.098-0.013c0.488-0.031,0.934,0.312,1.016,0.805l1.768,10.343c0.086,0.518-0.055,1.308-0.32,1.76
							l-1.365,2.358C61.697,132.9,61.693,132.906,61.684,132.906z"/>
					</g>
				</g>
			</g>
			<g>
				<g>
					<g>
						<path fill="#FFFFFF" d="M66.398,160.626c-0.051,0.003-0.102,0.004-0.15,0l-11.789-1.105c-0.256-0.024-0.488-0.147-0.652-0.347
							c-0.164-0.201-0.24-0.449-0.217-0.707l1.133-11.63c0.049-0.468,0.438-0.845,0.906-0.874c0.051-0.003,0.104-0.001,0.148,0.002
							l11.791,1.105c0.258,0.023,0.486,0.147,0.652,0.348c0.166,0.198,0.242,0.449,0.217,0.705l-1.135,11.631
							C67.258,160.223,66.869,160.598,66.398,160.626z M55.633,146.011c-0.447,0.026-0.818,0.385-0.861,0.831l-1.133,11.631
							c-0.025,0.242,0.047,0.48,0.205,0.67c0.154,0.191,0.375,0.309,0.619,0.33l11.789,1.104c0.045,0.006,0.098,0.006,0.143,0.005
							c0.449-0.028,0.818-0.387,0.861-0.832l1.135-11.631c0.023-0.243-0.051-0.482-0.205-0.671c-0.158-0.189-0.375-0.308-0.621-0.33
							l-11.787-1.104C55.729,146.008,55.682,146.008,55.633,146.011z"/>
					</g>
				</g>
				<g>
					<g>
						<path fill="#FFFFFF" d="M68.299,147.587c-0.01,0.001-0.018-0.002-0.021-0.009c-0.008-0.011-0.004-0.025,0.004-0.034
							l2.221-1.667c0.01-0.006,0.025-0.004,0.031,0.008c0.008,0.01,0.008,0.025-0.002,0.031l-2.221,1.666
							C68.307,147.586,68.301,147.586,68.299,147.587z"/>
					</g>
				</g>
				<g>
					<g>
						<path fill="#FFFFFF" d="M66.961,160.426c-0.006,0-0.014-0.002-0.02-0.008c-0.01-0.01-0.006-0.023,0.002-0.032l1.896-1.896
							c0.363-0.365,0.699-1.078,0.752-1.591l1.016-10.446c0.025-0.243-0.047-0.481-0.203-0.673
							c-0.158-0.188-0.377-0.307-0.619-0.328l-10.592-0.993c-0.516-0.048-1.293,0.124-1.736,0.389l-1.986,1.172
							c-0.008,0.006-0.025,0.003-0.031-0.008c-0.006-0.013-0.002-0.025,0.01-0.032l1.984-1.173c0.451-0.266,1.242-0.443,1.766-0.394
							l10.59,0.991c0.256,0.024,0.486,0.148,0.65,0.348s0.24,0.448,0.217,0.705l-1.018,10.445c-0.053,0.524-0.395,1.248-0.766,1.62
							l-1.896,1.896C66.975,160.423,66.967,160.426,66.961,160.426z"/>
					</g>
				</g>
			</g>
			<g>
				<g>
					<g>
						<path fill="#FFFFFF" d="M65.162,145.018c-0.012,0-0.021-0.004-0.023-0.014c-0.008-0.012,0-0.024,0.01-0.03l3.525-1.559
							c0.227-0.1,0.396-0.28,0.484-0.507c0.09-0.23,0.078-0.479-0.021-0.701l-3.906-8.656c-0.207-0.461-0.756-0.67-1.221-0.467
							l-8.775,3.881c-0.225,0.1-0.395,0.279-0.48,0.51c-0.088,0.228-0.082,0.477,0.021,0.699l2.957,6.486
							c0.006,0.013,0,0.025-0.012,0.029c-0.012,0.006-0.027,0.002-0.031-0.011l-2.957-6.485c-0.107-0.234-0.117-0.497-0.023-0.736
							c0.09-0.24,0.271-0.43,0.506-0.534l8.779-3.882c0.484-0.215,1.059,0.005,1.279,0.492l3.906,8.653
							c0.105,0.233,0.113,0.495,0.021,0.737c-0.092,0.24-0.273,0.432-0.506,0.534l-3.527,1.56
							C65.164,145.018,65.162,145.018,65.162,145.018z"/>
					</g>
				</g>
				<g>
					<g>
						<path fill="#FFFFFF" d="M64.75,133.066c-0.006,0-0.008,0-0.014-0.001c-0.012-0.005-0.014-0.018-0.008-0.031l0.922-2.117
							c0.004-0.014,0.02-0.018,0.029-0.015c0.012,0.006,0.018,0.021,0.01,0.033l-0.918,2.117
							C64.768,133.061,64.758,133.066,64.75,133.066z"/>
					</g>
				</g>
				<g>
					<g>
						<path fill="#FFFFFF" d="M69.18,143.104c0,0-0.006-0.002-0.008-0.002c-0.012-0.003-0.02-0.017-0.016-0.029l0.617-2.146
							c0.145-0.493,0.088-1.277-0.123-1.747l-3.498-7.746c-0.098-0.224-0.281-0.392-0.512-0.479
							c-0.229-0.089-0.479-0.078-0.701,0.025l-2.898,1.324c-0.012,0.001-0.023-0.001-0.029-0.014
							c-0.008-0.01-0.002-0.025,0.01-0.029l2.9-1.324c0.23-0.111,0.494-0.119,0.738-0.027c0.24,0.091,0.432,0.271,0.535,0.504
							l3.496,7.746c0.219,0.479,0.273,1.276,0.129,1.78l-0.619,2.145C69.199,143.096,69.189,143.104,69.18,143.104z"/>
					</g>
				</g>
				<g>
					<g>
						<path fill="#FFFFFF" d="M54.73,137.497c-0.004,0.001-0.01,0-0.012-0.002c-0.01-0.008-0.016-0.021-0.01-0.032l1.021-1.85
							c0.252-0.457,0.85-1.004,1.328-1.217l1.873-0.828c0.014-0.004,0.025,0.001,0.033,0.012c0.004,0.012-0.002,0.027-0.014,0.032
							l-1.871,0.827c-0.473,0.21-1.061,0.747-1.309,1.198l-1.02,1.846C54.746,137.494,54.738,137.498,54.73,137.497z"/>
					</g>
				</g>
			</g>
			<g>
				<g>
					<g>
						<path fill="#FFFFFF" d="M81.031,136.34c-0.057,0-0.113-0.006-0.17-0.013l-10.1-1.604c-0.285-0.047-0.539-0.2-0.711-0.437
							c-0.17-0.237-0.238-0.527-0.191-0.812l1.617-9.957c0.086-0.523,0.553-0.919,1.084-0.919c0.057,0,0.115,0.003,0.17,0.013
							l10.098,1.602c0.287,0.047,0.541,0.202,0.713,0.439c0.17,0.236,0.238,0.526,0.191,0.811l-1.615,9.956
							C82.031,135.944,81.564,136.34,81.031,136.34z M72.561,122.652c-0.506,0-0.949,0.376-1.029,0.875l-1.619,9.954
							c-0.045,0.274,0.021,0.548,0.184,0.772c0.162,0.227,0.402,0.374,0.676,0.419l10.098,1.601c0.055,0.01,0.109,0.014,0.162,0.014
							c0.506,0,0.951-0.377,1.029-0.877l1.619-9.954c0.045-0.273-0.02-0.546-0.182-0.771c-0.164-0.228-0.404-0.373-0.678-0.418
							l-10.098-1.604C72.67,122.657,72.615,122.652,72.561,122.652z"/>
					</g>
				</g>
				<g>
					<g>
						<path fill="#FFFFFF" d="M71.936,122.842c-0.012,0-0.016-0.004-0.023-0.011l-2-2.694c-0.01-0.011-0.008-0.028,0.004-0.037
							c0.014-0.008,0.027-0.007,0.037,0.007l2.002,2.691c0.008,0.014,0.008,0.03-0.006,0.038
							C71.945,122.841,71.939,122.842,71.936,122.842z"/>
					</g>
				</g>
				<g>
					<g>
						<path fill="#FFFFFF" d="M70.186,134.423c-0.006,0-0.016-0.001-0.02-0.01l-1.736-2.152c-0.373-0.463-0.598-1.316-0.504-1.904
							l1.549-9.53c0.09-0.536,0.555-0.92,1.084-0.92c0.057,0,0.115,0.005,0.172,0.012l9.67,1.536
							c0.586,0.092,1.338,0.566,1.678,1.055l1.557,2.249c0.006,0.012,0.004,0.027-0.008,0.036c-0.014,0.008-0.029,0.004-0.037-0.007
							l-1.557-2.248c-0.332-0.479-1.068-0.942-1.643-1.032l-9.668-1.535c-0.566-0.092-1.104,0.299-1.195,0.863l-1.549,9.53
							c-0.092,0.574,0.127,1.409,0.492,1.862l1.736,2.152c0.01,0.012,0.006,0.029-0.004,0.036
							C70.199,134.422,70.193,134.423,70.186,134.423z"/>
					</g>
				</g>
			</g>
			<g>
				<g>
					<g>
						<path fill="#FFFFFF" d="M97.99,139.778c-0.053,0.011-0.104,0.015-0.156,0.02l-9.439,0.364
							c-0.266,0.01-0.523-0.083-0.723-0.267c-0.197-0.184-0.311-0.436-0.32-0.701l-0.326-9.311c-0.016-0.49,0.336-0.934,0.816-1.028
							c0.051-0.011,0.105-0.019,0.156-0.019l9.436-0.367c0.27-0.009,0.527,0.085,0.727,0.27c0.197,0.184,0.311,0.434,0.318,0.7
							l0.328,9.31C98.824,139.24,98.473,139.683,97.99,139.778z M87.852,128.903c-0.459,0.09-0.793,0.512-0.775,0.979l0.326,9.309
							c0.008,0.257,0.117,0.492,0.305,0.668c0.188,0.175,0.432,0.266,0.688,0.257l9.436-0.368c0.051,0,0.102-0.006,0.15-0.016
							c0.457-0.092,0.793-0.514,0.773-0.981l-0.324-9.309c-0.008-0.256-0.117-0.491-0.303-0.666
							c-0.191-0.177-0.434-0.266-0.689-0.257L88,128.884C87.951,128.888,87.9,128.894,87.852,128.903z"/>
					</g>
				</g>
				<g>
					<g>
						<path fill="#FFFFFF" d="M87.32,129.187c-0.012,0.003-0.016,0-0.025-0.004L85,127.101c-0.012-0.008-0.014-0.023-0.004-0.033
							c0.012-0.011,0.023-0.012,0.035-0.002l2.297,2.079c0.01,0.011,0.014,0.026,0.002,0.035
							C87.328,129.184,87.324,129.187,87.32,129.187z"/>
					</g>
				</g>
				<g>
					<g>
						<path fill="#FFFFFF" d="M87.818,139.994c-0.004,0.001-0.014,0.003-0.02-0.005l-1.961-1.638
							c-0.42-0.352-0.777-1.085-0.799-1.636l-0.312-8.911c-0.014-0.502,0.336-0.934,0.816-1.029c0.051-0.01,0.105-0.017,0.158-0.02
							l9.037-0.35c0.547-0.021,1.314,0.272,1.709,0.653l1.814,1.757c0.01,0.01,0.01,0.024,0,0.034c-0.012,0.01-0.025,0.01-0.035,0
							l-1.814-1.756c-0.387-0.373-1.137-0.661-1.674-0.639l-9.035,0.35c-0.529,0.019-0.945,0.469-0.926,0.997l0.312,8.913
							c0.02,0.536,0.367,1.254,0.779,1.598l1.961,1.638c0.01,0.01,0.012,0.025,0.004,0.033
							C87.83,139.991,87.826,139.993,87.818,139.994z"/>
					</g>
				</g>
			</g>
			<g>
				<g>
					<g>
						<path fill="#FFFFFF" d="M78.898,157.277c-0.496,0-0.92-0.386-0.967-0.879l-1.012-10.869c-0.021-0.255,0.057-0.505,0.221-0.703
							c0.166-0.198,0.396-0.321,0.654-0.346l11.021-0.998c0.027-0.004,0.057-0.006,0.088-0.006c0.494,0,0.918,0.386,0.963,0.879
							l1.012,10.869c0.023,0.256-0.055,0.506-0.221,0.703c-0.164,0.2-0.396,0.322-0.652,0.346l-11.021,1
							C78.955,157.276,78.926,157.277,78.898,157.277z M88.904,143.524c-0.029,0-0.057,0.001-0.086,0.003l-11.02,1.002
							c-0.244,0.021-0.463,0.138-0.621,0.326c-0.158,0.189-0.232,0.428-0.209,0.671l1.01,10.868c0.045,0.467,0.447,0.835,0.92,0.835
							c0.025,0,0.055-0.001,0.082-0.003L90,156.225c0.246-0.02,0.467-0.137,0.621-0.326c0.158-0.189,0.232-0.428,0.209-0.671
							l-1.008-10.868C89.777,143.893,89.373,143.524,88.904,143.524z"/>
					</g>
				</g>
				<g>
					<g>
						<path fill="#FFFFFF" d="M77.195,144.832c-0.006,0-0.012-0.002-0.018-0.004l-2.738-2.22c-0.01-0.008-0.012-0.022-0.004-0.033
							s0.023-0.011,0.033-0.005l2.74,2.221c0.012,0.009,0.014,0.023,0.004,0.032C77.209,144.83,77.201,144.832,77.195,144.832z"/>
					</g>
				</g>
				<g>
					<g>
						<path fill="#FFFFFF" d="M78.41,157.133c-0.006,0-0.012-0.003-0.016-0.006l-2.404-1.862c-0.414-0.322-0.793-1.009-0.84-1.532
							l-0.969-10.421c-0.025-0.255,0.053-0.506,0.219-0.706c0.166-0.197,0.398-0.32,0.654-0.344l10.566-0.959
							c0.521-0.05,1.277,0.189,1.678,0.527l2.33,1.969c0.01,0.008,0.012,0.022,0.004,0.033c-0.008,0.01-0.023,0.012-0.033,0.003
							l-2.332-1.967c-0.359-0.304-1.006-0.524-1.504-0.524c-0.047,0-0.094,0.002-0.137,0.007l-10.568,0.959
							c-0.244,0.021-0.465,0.139-0.621,0.327c-0.158,0.188-0.232,0.428-0.209,0.67l0.969,10.422
							c0.047,0.512,0.416,1.186,0.822,1.499l2.406,1.862c0.008,0.007,0.01,0.021,0.002,0.033
							C78.424,157.128,78.416,157.133,78.41,157.133z"/>
					</g>
				</g>
			</g>
			<path fill="none" stroke="#FFFFFF" stroke-width="0.75" stroke-miterlimit="10" d="M101.092,130.646
				c0,4.245-12.684,7.669-28.33,7.669s-28.33-3.424-28.33-7.669c0-4.228,12.684-7.657,28.33-7.657S101.092,126.419,101.092,130.646z
				"/>
		</g>
		<path fill="#FFFFFF" d="M94.406,103.119c-6.398-1.481-20.996-1.607-21.633-1.611c-0.617,0.004-15.217,0.13-21.611,1.611
			c-6.428,1.487-9.484,3.693-9.338,6.751c0.105,2.147,2.256,50.321,2.256,50.321c0.002,0.199,0.176,4.772,6.148,6.873
			c5.6,1.978,12.98,2.936,22.555,2.936c9.578,0,16.951-0.958,22.553-2.936c5.975-2.101,6.143-6.674,6.146-6.842
			c0.023-0.485,2.154-48.229,2.254-50.353C103.885,106.812,100.828,104.606,94.406,103.119z M51.645,105.205
			c6.166-1.427,20.996-1.555,21.129-1.555c0.148,0,14.98,0.128,21.146,1.555c5.035,1.168,7.76,2.784,7.678,4.564
			c-0.008,0.157-0.027,0.58-0.057,1.215c-0.826,0.714-2.588,1.651-6.412,2.436c-7.469,1.522-15.953,1.51-21.539,1.515h-0.807h-0.807
			c-5.605,0.004-14.072,0.008-21.545-1.515c-3.814-0.784-5.58-1.722-6.41-2.436c-0.027-0.635-0.045-1.058-0.055-1.215
			C43.881,107.989,46.607,106.373,51.645,105.205z M99.344,160.147c0,0.034-0.125,3.282-4.717,4.897
			c-5.369,1.893-12.518,2.812-21.844,2.812c-9.332,0-16.475-0.919-21.844-2.812c-4.518-1.591-4.713-4.773-4.719-4.92
			c0,0-0.035-0.81-0.1-2.216c3.398,2.403,4.848,2.991,8.93,3.956c4.502,1.062,13.342,1.652,17.732,1.652s13.229-0.59,17.73-1.652
			c4.084-0.965,5.531-1.553,8.932-3.956C99.383,159.273,99.346,160.084,99.344,160.147z M99.49,156.888
			c-3.672,2.637-5.014,3.217-9.162,4.194c-4.441,1.05-13.195,1.631-17.545,1.631c-4.354,0-13.104-0.581-17.545-1.631
			c-4.152-0.978-5.494-1.558-9.158-4.194c-0.428-9.429-1.645-36.743-2.012-44.881c1.115,0.74,2.996,1.537,6.205,2.197
			c7.549,1.544,16.08,1.532,21.703,1.532h0.807h0.807c0.289,0,0.584,0,0.887,0c5.619,0,13.65-0.07,20.816-1.532
			c3.211-0.655,5.088-1.457,6.203-2.197C101.131,120.139,99.91,147.428,99.49,156.888z"/>
	</g>
</g>
</svg>
