<?xml version="1.0" encoding="utf-8"?>
<!-- Generator: Adobe Illustrator 16.0.0, SVG Export Plug-In . SVG Version: 6.00 Build 0)  -->
<!DOCTYPE svg PUBLIC "-//W3C//DTD SVG 1.1//EN" "http://www.w3.org/Graphics/SVG/1.1/DTD/svg11.dtd">
<svg version="1.1" xmlns="http://www.w3.org/2000/svg" xmlns:xlink="http://www.w3.org/1999/xlink" x="0px" y="0px" width="150px"
	 height="170px" viewBox="0 0 150 170" enable-background="new 0 0 150 170" xml:space="preserve">
<g id="Layer_2">
</g>
<g id="Layer_1">
	<g>
		<g>
			<g>
				<g>
					<path fill="#FFFFFF" d="M77.395,170c-10.229,0-14.934-1.437-18.188-2.842c-3.188-1.379-3.638-4.405-3.654-4.534
						c-8.739-72.089-8.739-72.297-8.739-72.386c-0.188-1.07-0.731-5.308-1.521-11.869c-0.565-4.667,5.451-5.633,11.821-6.652
						l0.935-0.151c6.617-1.069,18.815-1.229,19.332-1.235c0.543,0.006,12.742,0.166,19.36,1.235l0.935,0.151
						c6.37,1.02,12.386,1.985,11.821,6.652c-0.791,6.562-1.333,10.799-1.525,11.938c0.002,0.021,0.002,0.229-8.732,72.3
						c-0.02,0.146-0.472,3.173-3.657,4.552C92.325,168.563,87.621,170,77.395,170z M77.38,72.542
						c-0.098,0-12.524,0.164-18.979,1.208l-0.937,0.151c-6.399,1.025-10.265,1.819-9.976,4.203
						c1.061,8.805,1.402,11.192,1.51,11.831c0.031,0.185,0.029,0.186,0.029,0.303c0.102,1.001,8.633,71.392,8.719,72.103
						c0.009,0.052,0.322,1.915,2.341,2.786c3.045,1.316,7.483,2.66,17.308,2.66s14.263-1.344,17.309-2.66
						c2.055-0.889,2.338-2.785,2.34-2.804c0.085-0.693,8.616-71.084,8.721-72.179c-0.004-0.023-0.006-0.024,0.024-0.209
						c0.108-0.639,0.45-3.026,1.511-11.83c0.289-2.385-3.576-3.179-9.975-4.204l-0.938-0.151
						C89.932,72.706,77.505,72.542,77.38,72.542z"/>
				</g>
				<g>
					<path fill="#FFFFFF" d="M77.395,162.43c-2.518,0-3.664,0-9.916-0.691c-6.132-0.677-9.463-3.134-11.668-4.76l-0.216-0.16
						l0.491-0.669l0.217,0.161c2.134,1.572,5.356,3.951,11.268,4.604c6.205,0.685,7.339,0.685,9.824,0.685s3.618,0,9.824-0.685
						c5.907-0.653,9.13-3.028,11.262-4.602l0.221-0.164l0.491,0.669l-0.22,0.162c-2.204,1.625-5.534,4.081-11.663,4.758
						C81.057,162.43,79.91,162.43,77.395,162.43z"/>
				</g>
				<g>
					<path fill="#FFFFFF" d="M77.395,82.169c-6.088,0-16.068-0.711-23.359-2.07c-7.295-1.359-7.989-3.256-8.055-3.623l0.818-0.145
						l0,0c0.002,0,0.61,1.689,7.388,2.951c7.241,1.351,17.156,2.056,23.208,2.056c6.051,0,15.965-0.705,23.206-2.056
						c6.793-1.266,7.39-2.959,7.394-2.976l0.812,0.169c-0.063,0.367-0.758,2.264-8.053,3.623
						C93.462,81.458,83.482,82.169,77.395,82.169z"/>
				</g>
			</g>
			<g>
				<path fill="#FFFFFF" d="M76.975,115.326c-15.07,0-26.875-2.324-26.875-5.296s11.805-5.296,26.875-5.296
					c15.262,0,27.679,2.375,27.679,5.296C104.653,112.95,92.236,115.326,76.975,115.326z M76.975,105.01
					c-16.431,0-26.6,2.605-26.6,5.021c0,2.413,10.169,5.02,26.6,5.02c16.391,0,27.401-2.596,27.401-5.02
					C104.376,107.605,93.365,105.01,76.975,105.01z"/>
			</g>
			<g>
				<g>
					<path fill="#FFFFFF" d="M97.871,55.026c2.405-10.113,4.33-18.212,5.12-21.537l3.468,0.845l-2.021,7.932
						c-0.903,3.536-1.973,7.737-3.149,12.347c0.208-0.028,0.401-0.061,0.602-0.089c1.153-4.521,2.203-8.644,3.091-12.121l2.16-8.477
						l-4.565-1.111l-0.065,0.273c-0.75,3.156-2.736,11.512-5.232,22.002C97.482,55.069,97.671,55.047,97.871,55.026z"/>
				</g>
				<g>
					<path fill="#FFFFFF" d="M84.979,132.836c-0.814-1.846-1.927-4.371-1.664-5.443c0.093-0.382,10.452-41.014,17.677-69.354
						c-0.2,0.027-0.395,0.057-0.598,0.079c-7.223,28.33-17.528,68.76-17.623,69.144c-0.31,1.254,0.757,3.668,1.695,5.798
						c0.249,0.566,0.484,1.099,0.666,1.553c1.762,4.373,2.221,8.586,1.336,12.189c-0.646,2.612-2.141,5.614-3.902,7.833
						c-1.531,1.929-4.004,4.23-7.088,4.23l0,0c-0.497,0-0.998-0.062-1.492-0.181c-3.451-0.842-4.926-4.119-5.555-6.721
						c-0.854-3.54-0.555-7.257,0.008-9.552c0.889-3.604,3.258-7.131,6.846-10.197c0.372-0.318,0.827-0.681,1.311-1.068
						c1.828-1.457,3.896-3.108,4.207-4.365c0.094-0.377,9.603-40.362,16.25-68.311c-0.199,0.018-0.393,0.037-0.592,0.055
						c-6.644,27.939-16.113,67.748-16.203,68.121c-0.266,1.075-2.432,2.803-4.013,4.066c-0.491,0.392-0.95,0.758-1.324,1.079
						c-3.681,3.144-6.109,6.771-7.022,10.486c-0.582,2.36-0.89,6.177-0.012,9.814c0.665,2.753,2.239,6.224,5.967,7.131
						c0.537,0.132,1.084,0.198,1.625,0.198l0,0c5.768,0,10.292-7.452,11.534-12.489c0.914-3.714,0.445-8.046-1.358-12.525
						C85.47,133.947,85.232,133.41,84.979,132.836z"/>
				</g>
			</g>
			<g>
				<path fill="#FFFFFF" d="M112.563,52.631c-0.226-0.211-0.581-0.197-0.79,0.028c-1.881,2.015-12.387,4.101-26.725,4.101
					c-16.854,0-26.176-2.721-26.176-4.602c0-0.773,1.815-1.979,6.779-2.997l0.152,0.996l4.483-2.366l-4.948-0.686l0.145,0.952
					c-5.127,1.042-7.733,2.417-7.733,4.101c0,3.752,13.732,5.716,27.298,5.716c13.555,0,25.139-1.874,27.547-4.458
					C112.807,53.191,112.792,52.838,112.563,52.631z"/>
			</g>
		</g>
		<g>
			<g>
				<g>
					<path fill="#FFFFFF" d="M56.871,125.968c-0.582,0-1.069-0.437-1.13-1.015l-1.462-13.633c-0.031-0.301,0.056-0.596,0.247-0.832
						c0.19-0.235,0.46-0.382,0.761-0.414l13.822-1.446c0.038-0.004,0.079-0.007,0.118-0.007c0.582,0,1.067,0.437,1.13,1.016
						l1.462,13.636c0.032,0.298-0.056,0.593-0.245,0.829c-0.191,0.236-0.463,0.385-0.762,0.415l-13.823,1.446
						C56.951,125.966,56.91,125.968,56.871,125.968z M69.228,108.677c-0.038,0-0.076,0.003-0.112,0.006l-13.822,1.448
						c-0.285,0.029-0.542,0.168-0.725,0.393c-0.181,0.225-0.265,0.506-0.233,0.791l1.46,13.635c0.059,0.55,0.521,0.966,1.076,0.966
						c0.036,0,0.076-0.003,0.112-0.007l13.823-1.446c0.285-0.029,0.542-0.171,0.724-0.396s0.265-0.505,0.233-0.79l-1.461-13.632
						C70.242,109.093,69.781,108.677,69.228,108.677z"/>
				</g>
			</g>
			<g>
				<g>
					<path fill="#FFFFFF" d="M69.923,108.876c-0.006,0-0.014-0.002-0.017-0.007c-0.014-0.01-0.014-0.028-0.004-0.038l2.158-2.426
						c0.008-0.011,0.024-0.013,0.038-0.003c0.011,0.01,0.013,0.027,0.003,0.038l-2.157,2.427
						C69.938,108.874,69.932,108.876,69.923,108.876z"/>
				</g>
			</g>
			<g>
				<g>
					<path fill="#FFFFFF" d="M71.53,124.169c-0.007,0-0.011-0.003-0.015-0.005c-0.014-0.009-0.017-0.027-0.01-0.039l1.774-2.662
						c0.335-0.502,0.555-1.4,0.491-2.001l-1.312-12.245c-0.061-0.553-0.532-0.965-1.077-0.965c-0.036,0-0.073,0.001-0.111,0.005
						l-12.418,1.3c-0.601,0.061-1.492,0.402-1.982,0.758l-2.664,1.925c-0.014,0.008-0.031,0.006-0.039-0.006
						c-0.01-0.013-0.006-0.03,0.006-0.038l2.664-1.926c0.498-0.359,1.4-0.705,2.011-0.768l12.417-1.301
						c0.041-0.004,0.079-0.006,0.117-0.006c0.574,0,1.069,0.434,1.131,1.016l1.314,12.244c0.064,0.611-0.16,1.527-0.502,2.038
						l-1.773,2.662C71.547,124.164,71.539,124.169,71.53,124.169z"/>
				</g>
			</g>
		</g>
		<g>
			<g>
				<g>
					<path fill="#FFFFFF" d="M75.027,156.982c-0.06,0-0.117-0.004-0.176-0.012l-13.728-2.155c-0.298-0.047-0.561-0.208-0.739-0.453
						c-0.178-0.246-0.249-0.544-0.202-0.844l2.177-13.539c0.09-0.546,0.572-0.958,1.124-0.958c0.06,0,0.12,0.005,0.177,0.014
						l13.727,2.153c0.3,0.048,0.561,0.208,0.739,0.456c0.179,0.244,0.251,0.543,0.202,0.841l-2.178,13.541
						C76.064,156.571,75.58,156.982,75.027,156.982z M63.483,139.077c-0.524,0-0.985,0.392-1.069,0.911l-2.176,13.54
						c-0.046,0.283,0.021,0.567,0.192,0.801c0.169,0.233,0.418,0.388,0.703,0.432l13.727,2.152c0.054,0.01,0.111,0.015,0.167,0.015
						c0.526,0,0.985-0.392,1.069-0.911l2.177-13.54c0.046-0.281-0.023-0.568-0.191-0.801c-0.17-0.233-0.419-0.387-0.702-0.432
						l-13.728-2.153C63.596,139.081,63.539,139.077,63.483,139.077z"/>
				</g>
			</g>
			<g>
				<g>
					<path fill="#FFFFFF" d="M78.205,141.848c-0.012,0-0.02-0.004-0.024-0.012c-0.008-0.014-0.004-0.03,0.008-0.04l2.721-1.789
						c0.015-0.005,0.031-0.004,0.038,0.01c0.008,0.013,0.006,0.029-0.007,0.038l-2.721,1.789
						C78.214,141.848,78.21,141.848,78.205,141.848z"/>
				</g>
			</g>
			<g>
				<g>
					<path fill="#FFFFFF" d="M75.702,156.788c-0.008,0-0.016-0.004-0.021-0.011c-0.011-0.012-0.009-0.027,0.002-0.037l2.359-2.082
						c0.454-0.4,0.899-1.212,0.996-1.809l1.954-12.161c0.046-0.283-0.021-0.568-0.19-0.802s-0.42-0.388-0.703-0.43l-12.331-1.937
						c-0.601-0.095-1.523,0.052-2.062,0.329l-2.411,1.227c-0.012,0.006-0.03,0.002-0.037-0.013
						c-0.007-0.013-0.001-0.028,0.013-0.037l2.409-1.229c0.549-0.277,1.489-0.427,2.097-0.331l12.332,1.934
						c0.299,0.047,0.56,0.209,0.737,0.454c0.179,0.245,0.249,0.544,0.202,0.842l-1.955,12.161c-0.098,0.609-0.553,1.434-1.013,1.842
						l-2.36,2.082C75.715,156.785,75.709,156.788,75.702,156.788z"/>
				</g>
			</g>
		</g>
		<g>
			<g>
				<g>
					<path fill="#FFFFFF" d="M74.716,138.61c-0.012,0-0.021-0.007-0.025-0.019c-0.007-0.014,0.002-0.029,0.016-0.035l4.244-1.567
						c0.271-0.101,0.483-0.299,0.604-0.56c0.12-0.264,0.128-0.554,0.025-0.822l-3.942-10.424c-0.211-0.555-0.838-0.84-1.395-0.635
						l-10.564,3.904c-0.27,0.099-0.482,0.299-0.602,0.562c-0.117,0.261-0.127,0.553-0.024,0.821l2.991,7.812
						c0.006,0.015-0.002,0.03-0.016,0.036c-0.016,0.004-0.031-0.002-0.035-0.017L63,129.855c-0.109-0.282-0.1-0.591,0.025-0.864
						c0.125-0.275,0.351-0.483,0.634-0.589l10.563-3.905c0.586-0.217,1.242,0.082,1.466,0.669l3.942,10.421
						c0.108,0.282,0.097,0.589-0.028,0.864c-0.124,0.275-0.35,0.486-0.633,0.589l-4.245,1.569
						C74.722,138.609,74.719,138.61,74.716,138.61z"/>
				</g>
			</g>
			<g>
				<g>
					<path fill="#FFFFFF" d="M75.107,124.581c-0.006,0-0.01,0-0.013-0.002c-0.015-0.007-0.019-0.022-0.011-0.037l1.234-2.413
						c0.006-0.015,0.025-0.019,0.036-0.015c0.014,0.009,0.02,0.025,0.013,0.039l-1.234,2.412
						C75.128,124.576,75.116,124.581,75.107,124.581z"/>
				</g>
			</g>
			<g>
				<g>
					<path fill="#FFFFFF" d="M79.564,136.66c-0.002,0-0.006-0.002-0.01-0.002c-0.014-0.005-0.021-0.021-0.016-0.036l0.881-2.467
						c0.203-0.567,0.195-1.491-0.02-2.057l-3.529-9.327c-0.1-0.27-0.302-0.48-0.565-0.598c-0.263-0.121-0.556-0.127-0.823-0.022
						l-3.491,1.34c-0.015,0.001-0.03-0.003-0.036-0.019c-0.006-0.013,0.001-0.03,0.017-0.033l3.491-1.34
						c0.281-0.111,0.589-0.103,0.866,0.022c0.277,0.124,0.488,0.348,0.594,0.63l3.529,9.327c0.22,0.576,0.228,1.516,0.021,2.095
						l-0.882,2.468C79.587,136.652,79.575,136.66,79.564,136.66z"/>
				</g>
			</g>
			<g>
				<g>
					<path fill="#FFFFFF" d="M63.049,129.041c-0.004,0-0.01-0.002-0.014-0.004c-0.013-0.01-0.016-0.026-0.009-0.04l1.332-2.091
						c0.328-0.519,1.067-1.114,1.645-1.328l2.254-0.833c0.016-0.004,0.03,0.003,0.036,0.017c0.006,0.013-0.004,0.03-0.017,0.035
						l-2.254,0.833c-0.567,0.21-1.295,0.797-1.618,1.308l-1.331,2.09C63.067,129.037,63.06,129.041,63.049,129.041z"/>
				</g>
			</g>
		</g>
		<g>
			<g>
				<g>
					<path fill="#FFFFFF" d="M96.177,143.405c-0.059,0-0.118-0.006-0.177-0.015l-10.48-1.663c-0.297-0.048-0.561-0.208-0.737-0.453
						c-0.177-0.247-0.249-0.546-0.2-0.843l1.679-10.332c0.089-0.544,0.573-0.954,1.124-0.954c0.06,0,0.12,0.004,0.178,0.014
						l10.479,1.662c0.299,0.048,0.561,0.21,0.739,0.456c0.177,0.245,0.249,0.546,0.199,0.842l-1.677,10.331
						C97.213,142.994,96.729,143.405,96.177,143.405z M87.385,129.201c-0.525,0-0.984,0.389-1.068,0.907l-1.679,10.331
						c-0.048,0.283,0.021,0.568,0.19,0.801c0.169,0.235,0.417,0.388,0.701,0.434l10.479,1.662c0.057,0.011,0.112,0.014,0.168,0.014
						c0.525,0,0.985-0.391,1.069-0.909l1.68-10.331c0.045-0.283-0.021-0.565-0.189-0.8c-0.17-0.235-0.42-0.388-0.703-0.433
						l-10.479-1.664C87.498,129.205,87.442,129.201,87.385,129.201z"/>
				</g>
			</g>
			<g>
				<g>
					<path fill="#FFFFFF" d="M86.735,129.396c-0.01,0-0.016-0.003-0.022-0.01l-2.077-2.796c-0.009-0.013-0.007-0.03,0.006-0.039
						c0.015-0.009,0.028-0.007,0.038,0.006l2.077,2.795c0.01,0.013,0.008,0.03-0.005,0.038
						C86.747,129.396,86.741,129.396,86.735,129.396z"/>
				</g>
			</g>
			<g>
				<g>
					<path fill="#FFFFFF" d="M84.921,141.416c-0.008,0-0.017-0.002-0.021-0.011l-1.801-2.233c-0.388-0.48-0.62-1.367-0.522-1.976
						l1.607-9.891c0.092-0.557,0.574-0.955,1.125-0.955c0.058,0,0.118,0.005,0.178,0.013l10.035,1.594
						c0.608,0.096,1.389,0.588,1.741,1.095l1.614,2.334c0.008,0.012,0.006,0.028-0.007,0.037c-0.014,0.008-0.03,0.005-0.038-0.007
						l-1.617-2.333c-0.343-0.496-1.107-0.978-1.703-1.072l-10.034-1.592c-0.587-0.096-1.144,0.31-1.239,0.896l-1.607,9.891
						c-0.097,0.596,0.132,1.462,0.512,1.932l1.8,2.234c0.011,0.013,0.007,0.03-0.004,0.038
						C84.935,141.414,84.929,141.416,84.921,141.416z"/>
				</g>
			</g>
		</g>
		<g>
			<g>
				<g>
					<path fill="#FFFFFF" d="M86.428,124.34c-0.582,0-1.078-0.453-1.133-1.032l-1.188-12.755c-0.026-0.3,0.066-0.593,0.259-0.826
						c0.194-0.232,0.466-0.377,0.767-0.405l12.935-1.172c0.033-0.004,0.067-0.006,0.104-0.006c0.579,0,1.077,0.452,1.13,1.031
						l1.187,12.755c0.028,0.301-0.063,0.594-0.257,0.826c-0.194,0.234-0.467,0.378-0.768,0.405l-12.934,1.173
						C86.494,124.338,86.46,124.34,86.428,124.34z M98.171,108.199c-0.033,0-0.066,0.001-0.1,0.004l-12.933,1.175
						c-0.287,0.025-0.545,0.162-0.73,0.384c-0.184,0.223-0.271,0.502-0.243,0.787l1.185,12.754c0.052,0.549,0.525,0.98,1.078,0.98
						c0.031,0,0.064-0.001,0.097-0.004l12.933-1.175c0.288-0.024,0.547-0.161,0.729-0.384c0.185-0.222,0.271-0.502,0.245-0.787
						l-1.184-12.754C99.195,108.631,98.722,108.199,98.171,108.199z"/>
				</g>
			</g>
			<g>
				<g>
					<path fill="#FFFFFF" d="M84.429,109.734c-0.006,0-0.013-0.003-0.019-0.006l-3.215-2.604c-0.012-0.009-0.014-0.026-0.004-0.039
						c0.008-0.012,0.027-0.013,0.039-0.005l3.215,2.605c0.014,0.011,0.016,0.027,0.005,0.038
						C84.445,109.731,84.438,109.734,84.429,109.734z"/>
				</g>
			</g>
			<g>
				<g>
					<path fill="#FFFFFF" d="M85.855,124.169c-0.008,0-0.013-0.003-0.018-0.007l-2.822-2.185c-0.486-0.379-0.93-1.185-0.986-1.799
						l-1.137-12.229c-0.028-0.299,0.062-0.594,0.258-0.828c0.193-0.232,0.467-0.376,0.768-0.403l12.4-1.126
						c0.611-0.059,1.498,0.223,1.969,0.619l2.734,2.311c0.012,0.009,0.014,0.026,0.004,0.038c-0.009,0.013-0.026,0.014-0.039,0.004
						l-2.735-2.308c-0.422-0.356-1.181-0.615-1.767-0.615c-0.055,0-0.109,0.002-0.159,0.008l-12.403,1.125
						c-0.285,0.024-0.545,0.163-0.729,0.384c-0.185,0.222-0.271,0.502-0.245,0.787l1.137,12.23c0.056,0.601,0.488,1.391,0.967,1.759
						l2.822,2.186c0.011,0.008,0.013,0.025,0.003,0.039C85.871,124.164,85.863,124.169,85.855,124.169z"/>
				</g>
			</g>
		</g>
	</g>
</g>
</svg>
