<?xml version="1.0" encoding="utf-8"?>
<!-- Generator: Adobe Illustrator 16.0.0, SVG Export Plug-In . SVG Version: 6.00 Build 0)  -->
<!DOCTYPE svg PUBLIC "-//W3C//DTD SVG 1.1//EN" "http://www.w3.org/Graphics/SVG/1.1/DTD/svg11.dtd">
<svg version="1.1" xmlns="http://www.w3.org/2000/svg" xmlns:xlink="http://www.w3.org/1999/xlink" x="0px" y="0px" width="35px"
	 height="70px" viewBox="0 0 35 70" enable-background="new 0 0 35 70" xml:space="preserve">
<g id="Layer_2" display="none">
	<rect x="-199" y="-343.5" display="inline" stroke="#FFFFFF" stroke-miterlimit="10" width="914" height="652"/>
</g>
<g id="Layer_1">
	<g>
		<path fill="#FFFFFF" d="M27.184,19.85l-0.083-0.013c0.623-2.404,1.233-4.759,1.805-6.966c-0.104,0.014-0.205,0.03-0.311,0.043
			c-0.565,2.182-1.167,4.505-1.782,6.877l-0.112-0.018c-0.431-0.068-0.907-0.13-1.411-0.185c0.542-2.24,1.072-4.434,1.571-6.497
			c-0.103,0.011-0.202,0.02-0.305,0.028c-0.495,2.047-1.021,4.221-1.557,6.44c-3.487-0.354-8.101-0.414-8.341-0.417
			c-0.267,0.005-6.592,0.084-10.023,0.631L6.15,19.85c-3.302,0.522-6.423,1.016-6.131,3.395c0.412,3.35,0.692,5.513,0.79,6.057
			c0,0.047,0,0.152,4.531,36.935c0.009,0.064,0.242,1.61,1.896,2.313C8.921,69.266,11.364,70,16.667,70s7.742-0.734,9.43-1.451
			c1.653-0.703,1.888-2.249,1.897-2.322c4.53-36.773,4.53-36.879,4.527-36.893c0.102-0.577,0.383-2.74,0.794-6.09
			C33.608,20.865,30.487,20.372,27.184,19.85z M27.003,20.964c2.823,0.444,4.68,0.81,5.084,1.657
			c-0.474,0.309-1.437,0.732-3.385,1.089c-0.845,0.155-1.766,0.291-2.712,0.413c0.276-1.065,0.551-2.129,0.826-3.188L27.003,20.964z
			 M26.516,20.888l0.012,0.002c-0.282,1.088-0.565,2.182-0.849,3.275c-0.506,0.062-1.021,0.12-1.538,0.172
			c0.294-1.216,0.588-2.433,0.88-3.641C25.56,20.753,26.067,20.816,26.516,20.888z M30.054,40.108
			c-1.24,0.73-4.334,1.393-8.643,1.689c0.364-1.406,0.775-2.99,1.217-4.698c3.876,0.348,6.581,1.003,7.585,1.704
			C30.162,39.23,30.108,39.665,30.054,40.108z M21.106,41.819c-0.391,0.025-0.795,0.046-1.205,0.064
			c0.352-1.453,0.751-3.105,1.186-4.904c0.428,0.027,0.846,0.058,1.25,0.092C21.888,38.8,21.473,40.402,21.106,41.819z
			 M20.335,51.149c0.13,0.291,0.251,0.561,0.345,0.792c0.915,2.231,1.154,4.383,0.694,6.22c-0.336,1.334-1.112,2.863-2.025,3.998
			c-0.795,0.984-2.077,2.157-3.676,2.157h-0.001c-0.256,0-0.518-0.032-0.772-0.092c-1.789-0.431-2.553-2.102-2.882-3.428
			c-0.441-1.808-0.288-3.703,0.007-4.875c0.459-1.839,1.688-3.636,3.549-5.202c0.193-0.162,0.428-0.348,0.679-0.546
			c0.948-0.744,2.023-1.587,2.182-2.228c0.016-0.063,0.573-2.365,1.433-5.924c0.408-0.019,0.81-0.04,1.203-0.065
			c-0.968,3.74-1.597,6.168-1.614,6.234C19.295,48.832,19.846,50.062,20.335,51.149z M3.116,38.769
			c1.442-1.016,6.265-1.932,13.333-1.932c1.547,0,2.999,0.045,4.344,0.124c-0.438,1.814-0.841,3.478-1.193,4.938
			c-1,0.042-2.051,0.064-3.15,0.064c-6.811,0-11.538-0.85-13.164-1.82C3.227,39.675,3.171,39.218,3.116,38.769z M21.119,36.845
			c0.878-3.634,1.893-7.83,2.918-12.071c0.513-0.052,1.023-0.108,1.529-0.169c-1.123,4.333-2.234,8.623-3.196,12.334
			C21.963,36.903,21.545,36.872,21.119,36.845z M6.333,20.964l0.485-0.076c3.348-0.535,9.792-0.615,9.841-0.616
			c0.055,0.001,4.63,0.059,8.073,0.396c-0.297,1.227-0.596,2.463-0.894,3.699c-2.624,0.258-5.267,0.393-7.17,0.393
			c-3.139,0-8.279-0.36-12.034-1.05c-1.949-0.357-2.913-0.78-3.386-1.087C1.649,21.774,3.505,21.409,6.333,20.964z M1.943,29.146
			c-0.058-0.325-0.234-1.542-0.783-6.036c-0.001-0.013,0.005-0.023,0.004-0.037c0.585,0.338,1.603,0.727,3.39,1.054
			c3.783,0.694,8.956,1.055,12.114,1.055c1.879,0,4.475-0.131,7.064-0.38c-1.021,4.227-2.032,8.405-2.906,12.023
			c-1.381-0.084-2.851-0.13-4.377-0.13c-6.398,0-11.654,0.797-13.352,1.918c-0.642-5.22-1.124-9.146-1.141-9.312
			C1.956,29.241,1.958,29.239,1.943,29.146z M26.859,66.079c-0.008,0.038-0.171,0.989-1.216,1.434
			c-1.579,0.672-3.881,1.358-8.976,1.358c-5.096,0-7.396-0.687-8.976-1.358c-1.048-0.444-1.207-1.396-1.213-1.422
			c-0.006-0.053-0.108-0.878-0.273-2.224c1.131,0.763,2.745,1.637,5.321,1.916c3.241,0.354,3.835,0.354,5.141,0.354
			c1.305,0,1.901,0,5.143-0.354c2.575-0.279,4.189-1.154,5.321-1.917C26.966,65.206,26.865,66.028,26.859,66.079z M27.2,63.304
			c-1.103,0.778-2.723,1.765-5.438,2.059c-3.218,0.35-3.808,0.35-5.095,0.35c-1.288,0-1.877,0-5.096-0.35
			c-2.713-0.293-4.332-1.278-5.436-2.056c-0.595-4.832-1.85-15.018-2.831-22.999c1.883,1.056,6.979,1.796,13.144,1.796
			c1.071,0,2.112-0.024,3.117-0.066c-0.849,3.511-1.397,5.779-1.413,5.842c-0.139,0.546-1.261,1.43-2.081,2.072
			c-0.255,0.202-0.493,0.388-0.688,0.552c-1.909,1.604-3.168,3.455-3.642,5.351c-0.301,1.204-0.464,3.151-0.005,5.007
			c0.345,1.406,1.159,3.176,3.091,3.639c0.28,0.067,0.562,0.102,0.844,0.102h0.001c2.99,0,5.339-3.802,5.982-6.373
			c0.474-1.896,0.23-4.104-0.705-6.389c-0.096-0.237-0.221-0.51-0.35-0.805c-0.422-0.941-0.999-2.23-0.861-2.775
			c0.016-0.067,0.654-2.533,1.636-6.324c4.062-0.281,7.265-0.896,8.659-1.67C29.052,48.262,27.794,58.472,27.2,63.304z
			 M31.393,29.146c-0.019,0.094-0.015,0.096-0.013,0.108c-0.018,0.183-0.502,4.145-1.148,9.398
			c-1.139-0.744-3.927-1.355-7.569-1.688c0.967-3.732,2.084-8.046,3.212-12.399c1.016-0.127,2.002-0.273,2.905-0.439
			c1.789-0.328,2.806-0.717,3.392-1.056c-0.001,0.014,0.005,0.024,0.004,0.038C31.625,27.604,31.447,28.82,31.393,29.146z"/>
		<path fill="#FFFFFF" d="M29.942,0.346l1.799,0.43l-1.05,4.047c-0.469,1.806-1.023,3.949-1.632,6.301
			c0.106-0.015,0.208-0.03,0.312-0.045c0.599-2.307,1.14-4.412,1.602-6.186l1.122-4.326L29.725,0l-0.033,0.14
			c-0.391,1.611-1.418,5.873-2.713,11.227c0.104-0.012,0.203-0.022,0.309-0.031C28.533,6.173,29.534,2.042,29.942,0.346z"/>
		<path fill="#FFFFFF" d="M34.906,10.111c-0.119-0.108-0.302-0.102-0.411,0.016c-0.974,1.028-6.423,2.09-13.858,2.09
			c-8.739,0-13.575-1.387-13.575-2.348c0-0.393,0.942-1.008,3.518-1.528l0.079,0.511l2.323-1.21l-2.564-0.35l0.074,0.485
			c-2.66,0.533-4.009,1.233-4.009,2.092c0,1.917,7.121,2.918,14.154,2.918c7.031,0,13.038-0.957,14.285-2.272
			C35.032,10.396,35.024,10.217,34.906,10.111z"/>
	</g>
</g>
</svg>
