<?xml version="1.0" encoding="utf-8"?>
<!-- Generator: Adobe Illustrator 16.0.0, SVG Export Plug-In . SVG Version: 6.00 Build 0)  -->
<!DOCTYPE svg PUBLIC "-//W3C//DTD SVG 1.1//EN" "http://www.w3.org/Graphics/SVG/1.1/DTD/svg11.dtd">
<svg version="1.1" xmlns="http://www.w3.org/2000/svg" xmlns:xlink="http://www.w3.org/1999/xlink" x="0px" y="0px" width="40px"
	 height="70px" viewBox="0 0 40 70" enable-background="new 0 0 40 70" xml:space="preserve">
<g id="Layer_2">
</g>
<g id="Layer_1">
	<g>
		<g>
			<g>
				<path fill="#FFFFFF" d="M19.217,70c-5.002,0-7.305-0.724-8.895-1.431c-1.559-0.692-1.779-2.217-1.785-2.28
					C4.262,30.033,4.262,29.928,4.262,29.882c-0.092-0.536-0.355-2.668-0.744-5.969c-0.275-2.345,2.668-2.832,5.781-3.346
					l0.457-0.077c3.236-0.538,9.199-0.617,9.451-0.622c0.266,0.005,6.232,0.083,9.469,0.622l0.455,0.077
					c3.115,0.515,6.057,1.001,5.781,3.346c-0.387,3.301-0.652,5.433-0.748,6.003c0.004,0.013,0.004,0.117-4.268,36.365
					c-0.01,0.072-0.232,1.596-1.791,2.289C26.516,69.276,24.217,70,19.217,70z M19.207,20.982c-0.047,0.001-6.121,0.081-9.277,0.608
					l-0.459,0.075C6.34,22.179,4.453,22.58,4.594,23.78c0.518,4.43,0.686,5.629,0.738,5.95c0.014,0.092,0.012,0.094,0.012,0.152
					c0.051,0.505,4.223,35.908,4.266,36.265c0.006,0.026,0.154,0.963,1.145,1.401c1.488,0.662,3.656,1.339,8.463,1.339
					c4.803,0,6.973-0.677,8.463-1.339c0.984-0.438,1.137-1.375,1.145-1.413c0.039-0.345,4.213-35.749,4.262-36.299
					c0-0.012-0.002-0.014,0.014-0.106c0.051-0.321,0.219-1.52,0.738-5.95c0.141-1.2-1.75-1.601-4.877-2.115l-0.459-0.075
					C25.348,21.062,19.27,20.983,19.207,20.982z"/>
			</g>
			<g>
				<path fill="#FFFFFF" d="M19.217,66.192c-1.232,0-1.793,0-4.848-0.348c-3-0.341-4.627-1.576-5.705-2.393l-0.109-0.081
					l0.244-0.336l0.105,0.082c1.041,0.789,2.617,1.986,5.506,2.313c3.037,0.345,3.592,0.345,4.807,0.345c1.213,0,1.77,0,4.803-0.345
					c2.887-0.327,4.463-1.524,5.506-2.312l0.109-0.083l0.238,0.336l-0.107,0.081c-1.076,0.817-2.707,2.053-5.701,2.393
					C21.008,66.192,20.445,66.192,19.217,66.192z"/>
			</g>
			<g>
				<path fill="#FFFFFF" d="M19.217,25.822c-2.979,0-7.857-0.355-11.422-1.04c-3.568-0.685-3.908-1.637-3.938-1.822l0.4-0.073l0,0
					c0,0,0.295,0.849,3.611,1.483c3.541,0.68,8.387,1.035,11.348,1.035c2.955,0,7.805-0.355,11.348-1.035
					c3.318-0.635,3.611-1.486,3.613-1.494l0.396,0.083c-0.031,0.185-0.371,1.137-3.938,1.822
					C27.07,25.467,22.193,25.822,19.217,25.822z"/>
			</g>
		</g>
		<g>
			<path fill="#FFFFFF" d="M19.01,42.502c-7.371,0-13.141-1.17-13.141-2.665c0-1.496,5.77-2.667,13.141-2.667
				c7.461,0,13.533,1.197,13.533,2.667C32.543,41.306,26.471,42.502,19.01,42.502z M19.01,37.312
				c-8.033,0-13.006,1.311-13.006,2.526c0,1.215,4.973,2.526,13.006,2.526c8.016,0,13.398-1.307,13.398-2.526
				C32.408,38.618,27.025,37.312,19.01,37.312z"/>
		</g>
		<g>
			<g>
				<path fill="#FFFFFF" d="M29.229,12.173c1.174-5.087,2.117-9.16,2.502-10.832l1.697,0.423l-0.99,3.988
					c-0.441,1.78-0.965,3.894-1.539,6.211c0.102-0.015,0.197-0.029,0.295-0.044c0.564-2.273,1.074-4.349,1.512-6.097l1.057-4.264
					L31.527,1l-0.031,0.138c-0.367,1.588-1.338,5.789-2.559,11.067C29.037,12.193,29.129,12.182,29.229,12.173z"/>
			</g>
			<g>
				<path fill="#FFFFFF" d="M22.924,51.306c-0.396-0.928-0.941-2.198-0.811-2.735c0.043-0.194,5.109-20.629,8.643-34.885
					c-0.1,0.014-0.193,0.031-0.293,0.042c-3.533,14.248-8.572,34.583-8.619,34.774c-0.15,0.632,0.367,1.845,0.83,2.917
					c0.123,0.286,0.236,0.552,0.324,0.78c0.863,2.2,1.088,4.32,0.656,6.13c-0.318,1.315-1.051,2.823-1.912,3.941
					c-0.746,0.97-1.955,2.126-3.463,2.126h-0.002c-0.242,0-0.488-0.032-0.729-0.091c-1.686-0.424-2.408-2.071-2.717-3.378
					c-0.418-1.782-0.271-3.65,0.006-4.806c0.434-1.812,1.592-3.584,3.348-5.128c0.182-0.159,0.4-0.342,0.639-0.538
					c0.893-0.733,1.906-1.564,2.057-2.195c0.045-0.189,4.693-20.298,7.945-34.358c-0.098,0.011-0.191,0.02-0.287,0.028
					c-3.25,14.052-7.879,34.074-7.922,34.264c-0.133,0.538-1.191,1.409-1.963,2.042c-0.242,0.2-0.465,0.383-0.648,0.544
					c-1.801,1.581-2.986,3.405-3.434,5.273c-0.283,1.188-0.438,3.107-0.004,4.937c0.324,1.385,1.092,3.129,2.912,3.586
					c0.264,0.067,0.533,0.101,0.797,0.101h0.002c2.818,0,5.033-3.748,5.639-6.282c0.447-1.868,0.219-4.045-0.664-6.298
					C23.164,51.866,23.045,51.597,22.924,51.306z"/>
			</g>
		</g>
		<g>
			<path fill="#FFFFFF" d="M36.412,10.967c-0.113-0.106-0.285-0.1-0.389,0.016c-0.916,1.014-6.055,2.061-13.066,2.061
				c-8.24,0-12.799-1.368-12.799-2.314c0-0.388,0.889-0.994,3.316-1.506l0.076,0.503l2.189-1.192l-2.418-0.344l0.068,0.478
				c-2.508,0.525-3.779,1.216-3.779,2.062c0,1.889,6.715,2.876,13.346,2.876c6.629,0,12.293-0.943,13.471-2.24
				C36.529,11.248,36.523,11.071,36.412,10.967z"/>
		</g>
	</g>
</g>
</svg>
